<svg xmlns="http://www.w3.org/2000/svg" width="28" height="28"><g fill="none" fill-rule="evenodd"><path fill="#95A3DB" d="M18.372 19.252c-.384 0-.737.235-.85.593-.453 1.43-1.82 2.47-3.44 2.47s-2.986-1.04-3.439-2.47c-.113-.358-.465-.593-.85-.593-.596 0-1.044.557-.869 1.111.68 2.144 2.73 3.703 5.159 3.703s4.478-1.56 5.158-3.703c.175-.554-.273-1.111-.869-1.111"/><path fill="#95A3DB" d="M10.7 21.002H7.986c-1.237 0-2.25-.984-2.25-2.188 0-1.203 1.013-3.063 2.25-3.063h2.716V14H7.985c-2.228 0-4.05 2.648-4.05 4.814s1.822 3.939 4.05 3.939h2.716v-1.75z"/><g transform="translate(18 14)"><mask id="a" fill="#fff"><path d="M6 0v9H.013V0z"/></mask><path fill="#95A3DB" d="M2.4 0H.013v1.8H2.4c1.1 0 2 1.912 2 3.15s-.9 2.25-2 2.25H.013V9H2.4C4.38 9 6 7.177 6 4.95 6 2.722 4.38 0 2.4 0" mask="url(#a)"/></g><path fill="#95A3DB" d="m10.915 15.305 1.167-8.838a.89.89 0 0 1 .895-.782h1.983c.46 0 .846.337.895.782l1.166 8.838c.056.502.492.883 1.012.883.606 0 1.078-.512 1.011-1.098l-1.297-9.6c-.101-.886-.872-1.557-1.79-1.557H11.98c-.918 0-1.689.67-1.79 1.557l-1.298 9.6c-.067.586.405 1.098 1.011 1.098.52 0 .956-.381 1.012-.883"/></g></svg>