<svg xmlns="http://www.w3.org/2000/svg" viewBox="0 0 1024 1024"><path fill="#8DD2FC" d="M528.003 520h-33.26c-.99 0-1.79-.8-1.79-1.79V125.79c0-.99.8-1.79 1.79-1.79h33.26c.99 0 1.79.8 1.79 1.79v392.42c0 .99-.8 1.79-1.79 1.79"/><path fill="#8DD2FC" d="m524.573 293.27-23.52 23.52c-.7.7-1.83.7-2.53 0l-101.66-101.67c-.7-.7-.7-1.83 0-2.53l23.52-23.52c.7-.7 1.83-.7 2.53 0l101.66 101.66c.7.71.7 1.84 0 2.54"/><path fill="#8DD2FC" d="m498.173 293.27 23.52 23.52c.7.7 1.83.7 2.53 0l101.66-101.66c.7-.7.7-1.83 0-2.53l-23.52-23.52c-.7-.7-1.83-.7-2.53 0l-101.66 101.66c-.7.7-.7 1.83 0 2.53m21.51 212.33-16.63 28.8c-.49.86-1.59 1.15-2.45.66l-339.84-196.21a1.796 1.796 0 0 1-.66-2.45l16.63-28.8c.49-.86 1.59-1.15 2.45-.66l339.85 196.21c.85.5 1.15 1.59.65 2.45"/><path fill="#8DD2FC" d="m321.613 395.2 8.61 32.12c.26.96-.31 1.94-1.27 2.19l-138.87 37.21c-.96.26-1.94-.31-2.19-1.27l-8.61-32.12c-.26-.96.31-1.94 1.27-2.19l138.87-37.21c.96-.25 1.94.32 2.19 1.27"/><path fill="#8DD2FC" d="m308.413 418.07 32.12-8.61c.96-.26 1.52-1.24 1.27-2.19l-37.21-138.87a1.795 1.795 0 0 0-2.19-1.27l-32.12 8.61c-.96.26-1.52 1.24-1.27 2.19l37.21 138.87a1.79 1.79 0 0 0 2.19 1.27m194.64 87.53 16.63 28.8c.49.86.2 1.95-.66 2.45l-339.84 196.21c-.86.49-1.95.2-2.45-.66l-16.63-28.8c-.49-.86-.2-1.95.66-2.45l339.84-196.21c.87-.49 1.96-.2 2.45.66"/><path fill="#8DD2FC" d="m308.413 621.93 32.12 8.61c.96.26 1.52 1.24 1.27 2.19l-37.21 138.87c-.26.96-1.24 1.52-2.19 1.27l-32.12-8.61a1.795 1.795 0 0 1-1.27-2.19l37.21-138.87a1.79 1.79 0 0 1 2.19-1.27"/><path fill="#8DD2FC" d="m321.613 644.8 8.61-32.12c.26-.96-.31-1.94-1.27-2.19l-138.87-37.21c-.96-.26-1.94.31-2.19 1.27l-8.61 32.12c-.26.96.31 1.94 1.27 2.19l138.87 37.21c.96.25 1.94-.32 2.19-1.27M494.743 520h33.26c.99 0 1.79.8 1.79 1.79v392.42c0 .99-.8 1.79-1.79 1.79h-33.26c-.99 0-1.79-.8-1.79-1.79V521.79c0-.99.8-1.79 1.79-1.79"/><path fill="#8DD2FC" d="m498.173 746.73 23.52-23.52c.7-.7 1.83-.7 2.53 0l101.66 101.66c.7.7.7 1.83 0 2.53l-23.52 23.52c-.7.7-1.83.7-2.53 0l-101.66-101.66c-.7-.7-.7-1.83 0-2.53"/><path fill="#8DD2FC" d="m524.573 746.73-23.52-23.52c-.7-.7-1.83-.7-2.53 0l-101.66 101.67c-.7.7-.7 1.83 0 2.53l23.52 23.52c.7.7 1.83.7 2.53 0l101.66-101.66c.7-.71.7-1.84 0-2.54m-21.52-212.33 16.63-28.8c.49-.86 1.59-1.15 2.45-.66l339.84 196.21c.86.49 1.15 1.59.66 2.45l-16.63 28.8c-.49.86-1.59 1.15-2.45.66l-339.84-196.21c-.86-.5-1.15-1.59-.66-2.45"/><path fill="#8DD2FC" d="m701.123 644.8-8.61-32.12c-.26-.96.31-1.94 1.27-2.19l138.87-37.21c.96-.26 1.94.31 2.19 1.27l8.61 32.12c.26.96-.31 1.94-1.27 2.19l-138.87 37.21c-.95.25-1.93-.32-2.19-1.27"/><path fill="#8DD2FC" d="m714.333 621.93-32.12 8.61c-.96.26-1.52 1.24-1.27 2.19l37.21 138.87c.26.96 1.24 1.52 2.19 1.27l32.12-8.61c.96-.26 1.52-1.24 1.27-2.19l-37.21-138.87a1.795 1.795 0 0 0-2.19-1.27m-194.65-87.53-16.63-28.8c-.49-.86-.2-1.95.66-2.45l339.84-196.21c.86-.49 1.95-.2 2.45.66l16.63 28.8c.49.86.2 1.95-.66 2.45l-339.84 196.21c-.86.49-1.95.2-2.45-.66"/><path fill="#8DD2FC" d="m714.333 418.07-32.12-8.61a1.795 1.795 0 0 1-1.27-2.19l37.21-138.87c.26-.96 1.24-1.52 2.19-1.27l32.12 8.61c.96.26 1.52 1.24 1.27 2.19l-37.21 138.87c-.26.96-1.24 1.52-2.19 1.27"/><path fill="#8DD2FC" d="m701.123 395.2-8.61 32.12c-.26.96.31 1.94 1.27 2.19l138.87 37.21c.96.26 1.94-.31 2.19-1.27l8.61-32.12c.26-.96-.31-1.94-1.27-2.19l-138.87-37.21c-.95-.25-1.93.32-2.19 1.27"/></svg>