<svg xmlns="http://www.w3.org/2000/svg" width="24" height="24"><g fill="none" fill-rule="evenodd"><g transform="translate(2 2)"><mask id="a" fill="#fff"><path d="M0 .002V20h20V.002z"/></mask><path fill="#A3DFD4" d="m17.643 13.48-4.162 4.162a.208.208 0 0 1-.338-.064 3.33 3.33 0 0 1 4.437-4.436c.13.064.167.235.063.338m-13.28-2.633q-.284-.286-.54-.585a10.8 10.8 0 0 0 3.93-2.51 10.8 10.8 0 0 0 2.51-3.928q.298.255.584.54c2.767 2.766 3.56 6.46 1.768 8.252-1.79 1.79-5.484.998-8.25-1.77m-1.77-8.25c1.384-1.384 3.904-1.22 6.255.2a9.1 9.1 0 0 1-2.275 3.778 9.1 9.1 0 0 1-3.778 2.274c-1.42-2.35-1.584-4.87-.2-6.253m17.208 10.137-.118-.116a4.99 4.99 0 0 0-4.597-1.348c.192-.98.143-2.064-.147-3.17h1.576a.837.837 0 0 0 .833-.834.836.836 0 0 0-.834-.833h-2.193a11 11 0 0 0-.977-1.667h1.086a.836.836 0 0 0 .833-.833.836.836 0 0 0-.834-.834h-2.5l-.004.002c-3.41-3.34-8.095-4.1-10.515-1.68-2.44 2.44-1.65 7.19 1.768 10.607.528.527 1.09.983 1.666 1.384v2.207a.82.82 0 0 0 .817.816H5.7a.82.82 0 0 0 .818-.816v-1.25c1.647.76 3.334 1.01 4.792.715a5.22 5.22 0 0 0 1.423 4.723c.26.26.683.26.944 0l6.128-6.128a.67.67 0 0 0 0-.944" mask="url(#a)"/></g><path fill="#A3DFD4" d="M8.273 6.102a.836.836 0 0 0 0-1.18.836.836 0 0 0-1.18 0 .84.84 0 0 0 0 1.18.836.836 0 0 0 1.18 0"/></g></svg>