<svg xmlns="http://www.w3.org/2000/svg" viewBox="0 0 48 48"><path fill="#c5cfd1" d="M36 16a10 10 0 0 0-1.89.19 16 16 0 1 0-15.71 19H36A9.6 9.6 0 0 0 36 16"/><path fill="#81d4fa" d="M16.35 45.39a1.61 1.61 0 0 1-.59-2.19L19 37.6a1.61 1.61 0 0 1 2.19-.6 1.6 1.6 0 0 1 .59 2.18l-3.25 5.6a1.6 1.6 0 0 1-2.18.61"/><circle cx="28.51" cy="41.2" r=".98" fill="#81d4fa"/><rect width="1.96" height="2.93" x="27.53" y="36.8" fill="#81d4fa" rx=".98" ry=".98"/><rect width="1.96" height="2.93" x="27.53" y="42.67" fill="#81d4fa" rx=".98" ry=".98"/><rect width="1.96" height="2.93" x="24.99" y="38.27" fill="#81d4fa" rx=".98" ry=".98" transform="rotate(-60 25.975 39.73)"/><rect width="1.96" height="2.93" x="30.07" y="41.2" fill="#81d4fa" rx=".98" ry=".98" transform="rotate(-60 31.05 42.66)"/><rect width="1.96" height="2.93" x="24.99" y="41.2" fill="#81d4fa" rx=".98" ry=".98" transform="rotate(-120 25.973 42.665)"/><rect width="1.96" height="2.93" x="30.07" y="38.27" fill="#81d4fa" rx=".98" ry=".98" transform="rotate(-120 31.053 39.732)"/></svg>