<svg xmlns="http://www.w3.org/2000/svg" viewBox="0 0 48 48"><path fill="#ffd54f" d="M24.07 37.16a96 96 0 0 1 19.76 2.35 20 20 0 0 0 .41-4.06A20.62 20.62 0 0 0 23.49 15 20.62 20.62 0 0 0 2.74 35.45a20 20 0 0 0 .46 4.28 99 99 0 0 1 20.87-2.57"/><path fill="#be8b7c" d="M.42 40.57h47.16a.42.42 0 0 0 .11-.82 104.2 104.2 0 0 0-23.62-3.21A106.2 106.2 0 0 0 .31 39.75a.42.42 0 0 0 .11.82"/><path fill="#ffd54f" d="M20 6.93a.8.8 0 0 0 1.13 0l2-2V12a.8.8 0 1 0 1.6 0V4.9l2 2a.8.8 0 0 0 1.13 0 .81.81 0 0 0 0-1.14L24.57 2.4a.81.81 0 0 0-1.14 0L20 5.79a.81.81 0 0 0 0 1.14"/></svg>