<svg xmlns="http://www.w3.org/2000/svg" width="24" height="24"><path fill="#DFC79C" fill-rule="evenodd" d="m12 18.83-2.795-2.794 6.83-6.83L18.83 12A4.83 4.83 0 0 1 12 18.83M7.343 6.1a.88.88 0 0 1 0 1.243 1.757 1.757 0 0 0 0 2.483.878.878 0 1 1-1.242 1.242 3.515 3.515 0 0 1 0-4.967c.344-.34.9-.34 1.243 0zM12 5.17l2.794 2.794-6.83 6.83L5.17 12A4.83 4.83 0 0 1 12 5.17m5.277 2.794-1.24-1.242L13.24 3.93a6.58 6.58 0 0 0-9.31 0 6.58 6.58 0 0 0 0 9.31l6.828 6.832a6.59 6.59 0 0 0 9.313 0 6.584 6.584 0 0 0 0-9.314z"/></svg>