<svg xmlns="http://www.w3.org/2000/svg" width="28" height="28"><g fill="none" fill-rule="evenodd"><path fill="#D8D8D8" d="M0 0h28v28H0z" opacity=".045"/><path fill="#B28A90" d="M21.073 15H3.927C3.417 15 3 14.55 3 14s.417-1 .927-1h17.146c.51 0 .927.45.927 1s-.417 1-.927 1m-6.036-4H3.963C3.433 11 3 10.55 3 10s.433-1 .963-1h11.074c.53 0 .963.45.963 1s-.433 1-.963 1"/><path fill="#B28A90" d="M15 5v1.714c.828 0 1.5.576 1.5 1.286s-.672 1.286-1.5 1.286V11c1.933 0 3.5-1.343 3.5-3S16.933 5 15 5m1.097 13H3.903C3.406 18 3 18.45 3 19s.406 1 .903 1h12.194c.497 0 .903-.45.903-1s-.406-1-.903-1"/><path fill="#B28A90" d="M16 24v-1.714c.946 0 1.714-.576 1.714-1.286s-.768-1.286-1.714-1.286V18c2.209 0 4 1.343 4 3s-1.791 3-4 3"/><path fill="#B28A90" d="M17 23a1 1 0 1 0-2 0 1 1 0 0 0 2 0m4-14v1.714c.947 0 1.715.576 1.715 1.286s-.768 1.286-1.715 1.286V15c2.209 0 4-1.343 4-3s-1.791-3-4-3"/><path fill="#B28A90" d="M22 10a1 1 0 1 1-2 0 1 1 0 0 1 2 0m-6-4a1 1 0 1 1-2 0 1 1 0 0 1 2 0"/></g></svg>