<svg xmlns="http://www.w3.org/2000/svg" width="28" height="28"><g fill="none" fill-rule="evenodd"><path fill="#FF8A65" d="M17.215 18.826a2.805 2.805 0 1 1-5.609 0 2.805 2.805 0 0 1 5.61 0"/><path fill="#FF8A65" d="M14.41 17.624a.804.804 0 0 1-.8-.802V8.007a.803.803 0 0 1 1.603-.001v8.816a.804.804 0 0 1-.802.802"/><g transform="translate(8 7.035)"><mask id="a" fill="#fff"><path d="M0 1.774V.17h2.404v1.603H0z"/></mask><path fill="#FF8A65" d="M1.603 1.774H.801A.804.804 0 0 1 0 .972C0 .532.361.17.801.17h.802c.44 0 .801.36.801.8a.804.804 0 0 1-.8.803" mask="url(#a)"/></g><g transform="translate(8 9.034)"><mask id="b" fill="#fff"><path d="M0 2.178V.575h2.404v1.603z"/></mask><path fill="#FF8A65" d="M1.603 2.178H.801A.804.804 0 0 1 0 1.376c0-.44.362-.8.802-.8h.802c.44 0 .801.36.801.8a.804.804 0 0 1-.8.802" mask="url(#b)"/></g><path fill="#FF8A65" d="M17.215 18.826a2.805 2.805 0 1 1-5.609 0 2.805 2.805 0 0 1 5.61 0"/><path fill="#FF8A65" d="M14.41 17.624a.804.804 0 0 1-.8-.802V8.007a.803.803 0 0 1 1.603-.001v8.816a.804.804 0 0 1-.802.802"/><g transform="translate(9 3.034)"><mask id="c" fill="#fff"><path d="M.202.966H10.62V21H.202z"/></mask><path fill="#FF8A65" d="M5.41 19.397a3.605 3.605 0 0 1-1.602-6.833V4.17c0-.881.722-1.602 1.603-1.602.882 0 1.604.72 1.604 1.602v8.393a3.605 3.605 0 0 1-1.604 6.833m3.206-7.706V4.17A3.215 3.215 0 0 0 5.41.965 3.215 3.215 0 0 0 2.206 4.17v7.52a5.2 5.2 0 0 0-2.004 4.1 5.21 5.21 0 0 0 10.418 0 5.2 5.2 0 0 0-2.003-4.1" mask="url(#c)"/></g></g></svg>