<svg xmlns="http://www.w3.org/2000/svg" viewBox="0 0 1024 1024"><path fill="#f6ef37" d="M712.16 131.84a251.52 251.52 0 0 0-175.2 71.52 251.52 251.52 0 0 0-175.2-71.52 259.2 259.2 0 0 0-254.88 261.6 30.24 30.24 0 1 0 60 0 198.72 198.72 0 0 1 194.88-201.6A192 192 0 0 1 512 266.72l23.52 29.76L560 266.72a192 192 0 0 1 151.68-74.88 199.2 199.2 0 0 1 194.88 201.6 270.72 270.72 0 0 1-58.56 156c-83.04 122.4-296.64 276.96-299.04 278.88a19.68 19.68 0 0 1-22.56 0A1945.4 1945.4 0 0 1 272 604.64a29.76 29.76 0 0 0-44.64 39.84 1902.7 1902.7 0 0 0 264 232.32 78.24 78.24 0 0 0 93.12 0s224.16-162.72 312.96-293.76A327.36 327.36 0 0 0 968 393.44a259.2 259.2 0 0 0-255.84-261.6"/><path fill="#f6ef37" d="m392.48 527.84 65.28-104.16 60.48 197.28a30.24 30.24 0 0 0 23.52 20.64h5.28a30.24 30.24 0 0 0 24-12l110.88-147.84h84.96a30.24 30.24 0 1 0 0-60.48h-99.84a30.24 30.24 0 0 0-24 12.48L560 547.04l-64.32-204a29.28 29.28 0 0 0-24.96-20.64 30.24 30.24 0 0 0-29.28 13.92l-91.2 144H87.2a29.76 29.76 0 1 0 0 59.52H368a30.72 30.72 0 0 0 24.48-12"/></svg>