<svg xmlns="http://www.w3.org/2000/svg" width="28" height="28"><g fill="#87C5DD" fill-rule="evenodd"><path d="M16.916 12A5.11 5.11 0 0 0 13 13.816a5.5 5.5 0 0 1 1.609.621 3.5 3.5 0 0 1 2.307-.864c1.925 0 3.484 1.534 3.484 3.427 0 1.814-1.434 3.295-3.247 3.415a5.4 5.4 0 0 1-.682 1.563q.22.02.445.022C19.72 22 22 19.757 22 17s-2.28-5-5.084-5"/><path d="M11.378 14C8.413 14 6 16.243 6 19s2.413 5 5.378 5 5.378-2.243 5.378-5-2.412-5-5.378-5m0 1.573c2.036 0 3.686 1.535 3.686 3.427s-1.65 3.427-3.686 3.427S7.692 20.893 7.692 19c0-1.892 1.65-3.427 3.686-3.427"/><path d="M10.8 15.65c-.44 0-.8-.36-.8-.8V6.8c0-.44.36-.8.8-.8s.8.36.8.8v8.05c0 .44-.36.8-.8.8m5.17-1.96c-.44 0-.8-.36-.8-.8V4.84c0-.44.36-.8.8-.8s.8.36.8.8v8.05c0 .44-.36.8-.8.8"/></g></svg>