<svg xmlns="http://www.w3.org/2000/svg" width="24" height="24"><g fill="none" fill-rule="evenodd" transform="translate(2 2)"><mask id="a" fill="#fff"><path d="M0 20V0h20v20z"/></mask><path fill="#E6D99D" d="M13.257 17.592a9.67 9.67 0 0 1-1.947-5.82c0-1.12.192-2.195.54-3.196a13.8 13.8 0 0 1 5.407 5.373 8.28 8.28 0 0 1-4 3.642m-5.153.44a20.35 20.35 0 0 1 .245-10.78q.97.222 1.884.577a11.5 11.5 0 0 0-.694 3.942c0 2.35.71 4.53 1.92 6.352a8.3 8.3 0 0 1-1.46.137 8.2 8.2 0 0 1-1.896-.227M1.947 11.82a11.5 11.5 0 0 0 3.508-4.913q.573.008 1.135.06a22.2 22.2 0 0 0-.868 6.133c0 1.435.146 2.837.408 4.196a8.27 8.27 0 0 1-4.183-5.475m-.058-.272.037.196-.038-.196M1.74 10c0-.964.173-1.886.476-2.746.418-.095.84-.175 1.272-.23-.438.94-1.048 1.793-1.75 2.542m2.59-5.562q-.066.6-.2 1.176-.452.034-.897.094a8.4 8.4 0 0 1 1.1-1.27m6.6-2.21a8.2 8.2 0 0 1 3.008.943 11.6 11.6 0 0 0-2.97 3.48 15 15 0 0 0-2.03-.646 20.2 20.2 0 0 1 1.992-3.775m-4.77.895a8.2 8.2 0 0 1 2.652-.856 22 22 0 0 0-1.652 3.416q-.6-.073-1.213-.1c.142-.722.218-1.467.218-2.23q0-.115-.006-.23M18.26 10c0 .644-.08 1.268-.22 1.868a15.54 15.54 0 0 0-5.457-4.907 9.8 9.8 0 0 1 2.874-3.15A8.23 8.23 0 0 1 18.26 10M10 0C4.477 0 0 4.478 0 10s4.477 10 10 10 10-4.477 10-10S15.523 0 10 0" mask="url(#a)"/></g></svg>