<svg xmlns="http://www.w3.org/2000/svg" width="24" height="24"><g fill="none" fill-rule="evenodd" transform="translate(2 3)"><mask id="a" fill="#fff"><path d="M20 19H0V0h20z"/></mask><path fill="#C1A4E0" d="M17.952 8.53H15.07c0-2.497-.916-4.793-2.43-6.555 2.805.902 4.98 3.195 5.69 6.065.06.25-.12.49-.378.49m-7.172 0H6.49c0-2.717 1.278-5.228 3.27-6.797a.39.39 0 0 1 .48 0c1.99 1.57 3.27 4.08 3.27 6.797zm-8.732 0a.39.39 0 0 1-.378-.49c.71-2.87 2.885-5.163 5.69-6.065A10.03 10.03 0 0 0 4.93 8.53zm17.926-.273C19.11 3.56 14.974 0 10 0S.89 3.56.025 8.257c-.174.95.568 1.825 1.54 1.825H9.22v6.543c0 .415-.306.792-.722.822a.78.78 0 0 1-.838-.76c-.007-.38-.28-.722-.656-.78a.78.78 0 0 0-.904.767 2.334 2.334 0 0 0 2.412 2.325c1.28-.04 2.268-1.15 2.268-2.424v-6.494h7.655c.972 0 1.714-.875 1.54-1.825z" mask="url(#a)"/></g></svg>