<svg xmlns="http://www.w3.org/2000/svg" width="1024" height="1024"><defs><filter id="a" width="111.599" height="142.017" x="350.077" y="115.438" filterUnits="userSpaceOnUse"><feDropShadow dx="-5.28" dy="8.492" flood-color="#000" flood-opacity=".333" stdDeviation="10"/></filter><filter id="b" width="112.185" height="229.516" x="350.077" y="196.396" filterUnits="userSpaceOnUse"><feDropShadow dx="-5.28" dy="8.492" flood-color="#000" flood-opacity=".333" stdDeviation="10"/></filter><filter id="c" width="109.909" height="251.76" x="450.244" y="185.64" filterUnits="userSpaceOnUse"><feDropShadow dx="-5.28" dy="8.492" flood-color="#000" flood-opacity=".333" stdDeviation="10"/></filter><filter id="d" width="109.783" height="253.569" x="570.551" y="184.369" filterUnits="userSpaceOnUse"><feDropShadow dx="-5.28" dy="8.492" flood-color="#000" flood-opacity=".333" stdDeviation="10"/></filter><filter id="e" width="231.724" height="111.361" x="450.425" y="184.369" filterUnits="userSpaceOnUse"><feDropShadow dx="-5.28" dy="8.492" flood-color="#000" flood-opacity=".333" stdDeviation="10"/></filter><filter id="f" width="245.616" height="307.057" x="61.196" y="452.517" filterUnits="userSpaceOnUse"><feDropShadow dx="5.15" dy="7.036" flood-color="#000" flood-opacity=".333" stdDeviation="8.72"/></filter><filter id="g" width="102.174" height="313.639" x="58.305" y="450.159" filterUnits="userSpaceOnUse"><feDropShadow dx="5.973" dy="8.16" flood-color="#000" flood-opacity=".333" stdDeviation="10.112"/></filter><filter id="h" width="102.266" height="324.412" x="211.083" y="439.769" filterUnits="userSpaceOnUse"><feDropShadow dx="5.973" dy="8.16" flood-color="#000" flood-opacity=".333" stdDeviation="10.112"/></filter><filter id="i" width="245.616" height="307.057" x="504.057" y="452.517" filterUnits="userSpaceOnUse"><feDropShadow dx="5.15" dy="7.036" flood-color="#000" flood-opacity=".333" stdDeviation="8.72"/></filter><filter id="j" width="102.174" height="313.639" x="501.166" y="450.159" filterUnits="userSpaceOnUse"><feDropShadow dx="5.973" dy="8.16" flood-color="#000" flood-opacity=".333" stdDeviation="10.112"/></filter><filter id="k" width="102.266" height="324.412" x="653.944" y="439.769" filterUnits="userSpaceOnUse"><feDropShadow dx="5.973" dy="8.16" flood-color="#000" flood-opacity=".333" stdDeviation="10.112"/></filter><filter id="l" width="222.285" height="97.439" x="290.595" y="439.769" filterUnits="userSpaceOnUse"><feDropShadow dx="5.973" dy="8.16" flood-color="#000" flood-opacity=".333" stdDeviation="10.112"/></filter><filter id="m" width="233.325" height="94.836" x="290.595" y="555.096" filterUnits="userSpaceOnUse"><feDropShadow dx="5.973" dy="8.16" flood-color="#000" flood-opacity=".333" stdDeviation="10.112"/></filter><filter id="n" width="233.325" height="95.71" x="290.595" y="668.471" filterUnits="userSpaceOnUse"><feDropShadow dx="5.973" dy="8.16" flood-color="#000" flood-opacity=".333" stdDeviation="10.112"/></filter><filter id="o" width="106.128" height="324.412" x="290.595" y="439.769" filterUnits="userSpaceOnUse"><feDropShadow dx="5.973" dy="8.16" flood-color="#000" flood-opacity=".333" stdDeviation="10.112"/></filter><filter id="p" width="255.044" height="104.881" x="722.597" y="659.3" filterUnits="userSpaceOnUse"><feDropShadow dx="5.973" dy="8.16" flood-color="#000" flood-opacity=".333" stdDeviation="10.112"/></filter><filter id="q" width="109.288" height="324.412" x="722.597" y="439.769" filterUnits="userSpaceOnUse"><feDropShadow dx="5.973" dy="8.16" flood-color="#000" flood-opacity=".333" stdDeviation="10.112"/></filter><filter id="r" width="108.914" height="324.412" x="868.727" y="439.769" filterUnits="userSpaceOnUse"><feDropShadow dx="5.973" dy="8.16" flood-color="#000" flood-opacity=".333" stdDeviation="10.112"/></filter></defs><circle cx="512" cy="512" r="512" fill="#41c98b"/><g fill="#fff"><path d="m380.357 131.945.587 59.839 60.232 32.178.78-49.191" filter="url(#a)"/><path d="m380.944 212.904 61.599 35.786-.587 143.73-61.599-29.919.587-149.597Z" filter="url(#b)"/><path d="M480.524 261.694v100.641l59.909 41.573v-201.76l-59.909 59.546Z" filter="url(#c)"/><path d="m600.831 200.877.587 203.569 58.833-43.745.363-98.644-59.783-61.18Z" filter="url(#d)"/><path d="m540.615 200.877-59.909 60.635 181.724.727-59.579-60.09" filter="url(#e)"/><path d="m77.845 485.189 51.38-17.909 150.637 239.404-48.44 24.055" filter="url(#f)"/><path d="m129.225 467.28-2.159 240.456-49.453 22.621.212-241.944" filter="url(#g)"/><path d="m282.095 456.89-.281 247.289-51.411 26.56-.012-251.576" filter="url(#h)"/><path d="m520.706 485.189 51.38-17.909 150.637 239.404-48.44 24.055" filter="url(#i)"/><path d="m572.086 467.28-2.159 240.456-49.453 22.621.212-241.944" filter="url(#j)"/><path d="m724.956 456.89-.281 247.289-51.411 26.56-.012-251.576" filter="url(#k)"/><path d="m481.627 503.555-171.723.212 49.897-46.877h73.177" filter="url(#l)"/><path d="m460.809 615.634-150.905.857 28.676-43.36 154.086-.914" filter="url(#m)"/><path d="m309.904 686.706 182.762-1.114-52.023 45.147H365.47" filter="url(#n)"/><path d="m363.51 456.89 1.96 273.849-55.566-44.033V503.767" filter="url(#o)"/><path d="m741.905 676.526 204.482-.105-58.261 54.229-84.106.089" filter="url(#p)"/><path d="m797.135 456.89 3.496 273.849-58.726-54.025V458.096" filter="url(#q)"/><path d="m889.44 458.096-1.405 272.643 58.352-53.082V456.89" filter="url(#r)"/></g></svg>