<svg xmlns="http://www.w3.org/2000/svg" viewBox="0 0 1024 1024"><path fill="#00CF71" d="M904.206 180.226c-29.265-14.158-60.126-20.868-91.813-24.255-6.96-.745-14.071-.11-23.318-.11 110.906 91.808 170.459 207.56 172.854 349.46 2.029 120.146-39.4 225.279-121.309 313.979-155.98 168.92-437.495 201.346-634.936 23.958-5.073 32.746-4.159 64.824 1.285 99.408-16.025-18.895-27.616-37.592-36.217-58.062-13.691-32.584-22.136-66.517-26.014-101.687-.782-7.093-3.549-14.636-7.476-20.61-37.117-56.458-61.09-117.958-70.688-184.73-6.578-45.749-6.102-91.507 1.693-137.355 23.378-137.5 95.503-242.028 213.72-314.739 60.939-37.479 127.99-57.548 199.641-62.403 77.66-5.26 151.5 8.717 222.104 41.138 5.99 2.75 13.183 4.008 19.825 4.036 46.05.2 90.169 9.44 132.413 27.495 21.128 9.03 36.714 24.55 48.236 44.477M220.9 748.81c-3.018 15.36-6.176 28.907-8.086 42.63-.6 4.314.683 10.562 3.579 13.443 54.39 54.075 118.916 90.926 193.474 108.893 67.341 16.228 135.069 16.095 202.371-1.504 88.03-23.02 160.822-69.988 218.44-140.137 36-43.827 61.77-93.093 77.558-147.744 11.198-38.763 16.342-78.25 16.153-118.3-.194-40.694-6.65-80.585-19.054-119.607-29.493-92.775-85.002-165.904-165.331-220.425-4.352-2.955-11.639-3.433-17.152-2.545-42.105 6.762-78.31 27.79-114.893 48.008-38.93 21.51-73.306 49.22-107.71 76.983-3.828 3.093-8.662 6.338-13.307 6.814-59.739 6.107-107.263 33.509-142.35 81.793-9.584 13.191-16.389 28.394-24.75 43.17h375.86c-30.366-72.84-82.081-114.698-161.46-125.236 3.76-2.838 5.336-4.056 6.941-5.234 22.632-16.624 44.696-34.097 68.06-49.624 23.62-15.694 48.453-29.59 72.932-43.97 5.63-3.306 11.509-4.805 18.317-.76 61.058 36.287 105.774 86.922 134.893 151.526 21.423 47.526 32.66 97.585 36.25 149.315 1.432 20.621.236 41.425.236 64.686H313.827c3.47 36.958 16.01 67.61 38.157 93.755 40.79 48.162 95.57 65.898 156.39 66.534 63.145.66 118.398-21.894 165.821-63.313 4.522-3.95 7.53-3.996 12.524-1.618 30.512 14.535 61.195 28.706 91.793 43.053 15.338 7.191 30.624 14.495 46.71 22.12-2.147 3.754-3.555 6.83-5.498 9.517-44.137 61.054-101.243 104.907-174.04 125.762-72.836 20.866-146.847 24.491-221.533 9.061-70.165-14.495-132.02-44.464-182.986-95.416-6.49-6.487-12.565-13.387-20.265-21.63m-77.178-43.347c.732-4.934.987-7.549 1.518-10.107 5.408-26.023 7.148-53.545 16.984-77.785 32.307-79.624 81.425-149.301 135.632-215.506 10.706-13.075 21.396-26.161 32.093-39.243-26.94 17.193-52.316 36.09-72.766 60.5-20.223 24.14-40.66 48.238-58.96 73.811-18.373 25.678-34.223 53.16-51.196 79.876-.532-2.953-1.329-6.803-1.912-10.686-7.603-50.662-5.639-100.783 6.522-150.722 37.765-155.083 177.919-268.418 338.024-272.775 14.312-.39 28.958.695 42.857-1.984 26.86-5.176 53.271-12.632 79.918-18.948 7.798-1.851 15.752-3.036 25.81-4.935-143.84-50.1-332.742-13.061-451.146 132.336-120.919 148.49-111.041 339.552-43.378 456.168"/></svg>