<svg xmlns="http://www.w3.org/2000/svg" viewBox="0 0 1024 1024"><path fill="#3498db" d="M718.9 925.9H305.1c-114.3 0-206.9-92.7-206.9-206.9V305.1c0-114.3 92.7-206.9 206.9-206.9H719c114.3 0 206.9 92.7 206.9 206.9V719c0 114.2-92.7 206.9-207 206.9"/><path fill="#FFF" d="M562.3 660c-17.2 16.4-29.2 26.6-37.3 33.1 3.9-21.2 14.2-63.3 38.8-146.3 24.5-82.1 26.6-96.5 26.6-103.5 0-12.3-5.1-23.2-14-30.7-20.1-16.5-55.4-13.3-98.1 10.9-23.8 13.3-49.1 35.1-77.3 66.1L386.3 506l48.9 37.7 12.5-12.3c13.6-13.2 22.8-21.8 29-27.5-37.3 122.7-55.4 199-55.4 233.1 0 15.5 4.5 28.4 13.6 38.1 9.2 10 22 15.2 36.7 15.2 14.4 0 30.9-5.6 51-16.9 18.1-10.3 45.2-32.7 83.2-68.4l15.4-14.8-44.4-43.3zm-15.4-407.4c-11.1 12.2-16.8 27.1-16.8 44.2 0 14.1 4.6 26.4 13.6 35.9 9.2 9.7 21 14.6 34.5 14.6 10.9 0 27.2-3.3 42.1-19.9 11.6-12.5 17.5-27.6 17.5-44.4 0-13.8-4.7-25.8-13.8-35.1-19.7-20.5-55.8-18.3-77.1 4.7"/></svg>