<svg xmlns="http://www.w3.org/2000/svg" viewBox="0 0 1024 1024"><path fill="#4D9AFF" d="M222.665 62h557.143q107.143 0 107.143 107.143v685.714Q886.951 962 779.808 962H222.665q-107.143 0-107.143-107.143V169.143Q115.522 62 222.665 62"/><path fill="#207FFF" d="M886.951 169.143v685.714A107.143 107.143 0 0 1 779.808 962H222.665c-29.571 0-56.357-12-75.771-31.371L852.15 90.114a106.86 106.86 0 0 1 34.8 79.029z"/><path fill="#FFF" d="M386.808 399.886c-.686-52.093 6.343-90.986 54.986-117.236 9.964-5.357 33.536-8.207 44.786-8.207 12.342-1.264.128-11.314 27.342-11.314s65.058 11.978 83.143 49.071c18.107 37.136 19.629 77.871 19.629 87.643 0 9.75 10.007 4.864 10.007 19.5 0 14.657-4.329 43.65-19.65 63.321-15.343 19.693-20.336 24.579-30.321 39.215-10.008 14.657-15 30.642-15 43.95 0 48.814 83.528 52.435 131.957 83.271 19.114 12.171 32.507 27.943 40.2 47.314a33 33 0 0 1-30.665 45.172H300.301a33 33 0 0 1-30.643-45.215c7.714-19.35 21.064-35.121 40.072-47.271 48.15-30.857 132.064-34.457 132.064-83.271 0-13.008-4.993-29.293-15-43.929-9.986-14.657-15-19.543-29.979-39.214-15-19.715-19.993-48.686-19.993-63.322 0-14.657 10.008-9.771 10.008-19.5z"/></svg>