<svg xmlns="http://www.w3.org/2000/svg" viewBox="0 0 1024 1024"><path fill="#FC9400" d="M541.704 926.49h-65.82C290.98 873.867 151.78 737.677 121.69 571.213h2.293v-329.9h.423a54.645 54.645 0 0 1 47.776-50.069l289.787-90.96 8.832-2.774h67.671l312.983 94.622v.043a54.76 54.76 0 0 1 41.872 49.138h.423v329.9h.854c-33.058 164.375-170.888 302.899-352.9 355.277"/><path fill="#FFF" d="M513.418 648.092h-10.95c-12.309-4.653-20.072-15.363-20.072-29.183l-12.78-329.828c0-13.82 14.707-39.892 32.852-39.892h10.95c18.145 0 32.852 26.073 32.852 39.892L533.49 618.91c0 13.82-1.467 23.424-20.072 29.183zm-5.475 57.94c21.167 0 38.327 17.849 38.327 39.86 0 22.02-17.16 39.87-38.327 39.87s-38.327-17.85-38.327-39.87c0-22.011 17.16-39.86 38.327-39.86"/></svg>