<svg xmlns="http://www.w3.org/2000/svg" viewBox="0 0 1024 1024"><path fill="#009CF5" d="M748.04 940.04H277.16c-106.92 0-193.56-86.64-193.56-193.56V275.6c0-106.92 86.64-193.56 193.56-193.56h470.88c106.92 0 193.56 86.64 193.56 193.56v470.88c0 106.92-86.64 193.56-193.56 193.56"/><path fill="#FFF" d="M528.68 581.84h-94.2l70.92-122.4 7.2-12.48 48.6-83.52 9.36-16.32 20.16-34.56c8.88-15.12 9.12-34.56-.96-48.84-8.64-12.24-21-17.16-33.24-17.16-14.4 0-28.44 7.44-36.36 20.88l-7.2 12.72-7.44-12.72c-7.92-13.44-22.08-20.88-36.36-20.88-7.2 0-14.4 1.68-21.12 5.52-19.92 11.52-26.76 37.32-15.12 57.24l31.32 54.12-126.72 218.64H255.2c-25.2.24-45.36 22.56-41.4 48.84 3.12 20.64 22.44 35.04 43.32 35.04h31.8l96.96-.24h193.56c3.6 0 7.2-1.56 9.36-4.44 11.04-14.76 19.2-37.68-7.8-61.32-14.28-12.6-33.36-18.12-52.32-18.12"/><path fill="#FFF" d="M768.2 581.6h-80.64L579.68 395.48c-1.92-3.24-6.24-4.32-9.24-2.16-15.12 10.92-24 26.16-28.56 42.96-7.68 28.32-1.32 58.68 13.32 84.12l23.16 40.2 12.24 21.36 48.6 83.76 5.04 8.4 46.68 80.64c7.92 13.44 21.84 20.88 36.12 20.88 7.2 0 14.64-1.92 21.36-5.76 19.92-11.52 26.76-37.08 15.12-57.24l-27.24-47.16h33.96c25.2 0 45.24-22.8 41.16-49.08-3.36-20.52-22.44-34.8-43.2-34.8m-436.56 95.04c-14.76-6-28.68-5.28-39.84-2.16-6.12 1.68-11.16 5.88-14.28 11.28l-15.6 26.64c-11.76 20.16-4.8 45.72 15.12 57.24 6.72 3.84 14.16 5.76 21.36 5.76 14.4 0 28.2-7.44 35.88-20.88l17.76-30.6c4.32-7.56 5.16-16.68 1.92-24.72-3.6-9-10.32-17.64-22.32-22.56"/></svg>