<svg xmlns="http://www.w3.org/2000/svg" viewBox="0 0 1024 1024"><path fill="#FFDBD7" d="m853.761 240.125-268.466-99.716c-7.67-3.835-15.34-3.835-19.176-3.835s-15.34 0-19.176 3.835l-268.466 99.716c-23.011 7.67-38.352 30.682-38.352 57.528v325.995c0 7.67 3.835 15.34 7.67 23.011s80.54 176.42 302.983 256.96c3.836 3.836 11.506 3.836 19.177 3.836s15.34 0 19.176-3.836c222.443-80.54 299.147-253.125 302.983-256.96 3.835-7.67 7.67-15.34 7.67-23.011V297.653c-7.67-23.011-23.011-46.022-46.023-57.528"/><path fill="#F05B48" d="M795.38 201.347 503.904 93.96c-7.67-3.835-15.34-3.835-23.011-3.835s-15.34 0-23.011 3.835L166.403 201.347c-26.846 11.505-42.187 34.517-42.187 61.363v352.841c0 11.506 3.835 15.341 7.67 26.847 3.836 7.67 88.21 191.761 329.83 279.971 3.835 3.836 11.506 3.836 19.176 3.836s15.341 0 23.011-3.836c241.62-88.21 325.995-272.3 329.83-279.971 3.835-11.506 7.67-15.341 7.67-26.847v-352.84c-3.835-23.012-19.176-49.859-46.022-61.364zM772.37 615.55S699.5 784.3 480.892 861.005C266.119 784.3 189.415 615.55 189.415 615.55V262.71l291.477-107.387L772.369 262.71zM373.505 485.153c-11.506-11.505-30.682-11.505-46.023 0-11.506 11.506-11.506 30.682 0 46.023l99.716 95.88c11.506 11.507 34.517 11.507 49.858 0l191.761-187.925c11.506-11.506 11.506-34.517 0-49.858-11.505-11.506-34.517-11.506-49.858 0l-168.75 168.75z"/></svg>