<svg xmlns="http://www.w3.org/2000/svg" viewBox="0 0 1024 1024"><path fill="#FC6" d="M101.349 101.349v769.966c0 28.344 22.978 51.336 51.336 51.336h718.643c28.345 0 51.337-22.978 51.337-51.336V101.349z"/><path fill="#CCA352" d="M101.349 101.349s10.663 205.319 76.99 205.319h667.308c66.327 0 76.99-205.32 76.99-205.32H101.35z"/><path fill="#997A3D" d="M563.337 204.008h-25.669L512 272.452l-25.668-68.444h-25.669l38.503 102.673-38.503 102.66h25.669L512 340.896l25.668 68.445h25.669l-38.503-102.66z"/><path fill="#FFF" d="M460.663 409.34a51.337 51.337 0 1 0 102.674 0 51.337 51.337 0 1 0-102.674 0m0-205.332a51.337 51.337 0 1 0 102.674 0 51.337 51.337 0 1 0-102.674 0"/></svg>