<svg xmlns="http://www.w3.org/2000/svg" viewBox="0 0 1024 1024"><path fill="#DFDFDF" d="M139.757 90.125h744.486c27.297 0 49.632 22.335 49.632 49.632v744.486c0 27.297-22.335 49.632-49.632 49.632H139.757c-27.297 0-49.632-22.335-49.632-49.632V139.757c0-27.297 22.335-49.632 49.632-49.632"/><path fill="#E65656" d="m191.871 418.94 65.763-174.955q9.307-26.057 33.502-26.057c16.13 1.241 27.298 9.927 34.743 26.057l63.28 174.954c1.242 6.204 1.242 9.927 2.483 12.408q-1.862 18.613-22.335 18.613c-12.408 0-21.094-4.964-23.575-14.89l-8.686-29.78h-89.338l-9.927 29.78c-3.722 9.926-12.408 14.89-23.575 14.89-14.89 0-22.335-6.204-22.335-19.853v-11.168zm99.265-151.38-29.78 93.061h60.8zm153.86 160.065V265.079h-34.742c-11.168 0-18.612-7.445-18.612-22.335 1.24-13.648 7.444-21.093 18.612-21.093H529.37c12.408 1.24 19.853 7.445 21.094 21.093-1.24 14.89-7.445 22.335-21.094 22.335h-34.74v162.546c-1.241 14.89-9.927 22.335-24.816 22.335-16.131 0-24.817-7.445-24.817-22.335zm109.192-3.722 29.779-179.918c4.963-14.89 16.13-23.575 31.02-24.816 16.13 1.24 27.298 8.686 32.261 23.575l37.224 127.804h1.241l37.225-127.804c4.963-14.89 16.13-22.334 31.02-23.575 16.13 1.24 27.298 9.927 32.26 24.816l28.54 179.918c1.24 1.24 1.24 3.722 1.24 4.963 1.241 13.649-6.204 21.094-19.853 21.094-14.89 0-23.575-6.204-24.816-19.853L752.717 297.34l-38.465 136.49c-6.204 11.167-14.89 16.13-28.539 16.13s-22.334-4.963-24.816-16.13l-38.465-136.49-18.612 132.767c-2.482 13.649-11.167 19.853-24.816 19.853-16.13 0-23.576-7.445-23.576-21.094-1.24-2.482-1.24-3.723-1.24-4.963"/><path fill="#FFF" d="M251.43 524.408h272.978c27.298 0 49.632 22.335 49.632 49.632s-22.334 49.633-49.632 49.633H251.43c-27.298 0-49.632-22.335-49.632-49.633s22.334-49.632 49.632-49.632"/><path fill="#00C6DD" d="M263.838 574.04H512v198.53c0 13.649-11.167 24.816-24.816 24.816h-198.53c-13.648 0-24.816-11.167-24.816-24.816z"/><path fill="#435E79" d="M400.327 574.04h62.04v223.346h-62.04z"/></svg>