<svg xmlns="http://www.w3.org/2000/svg" viewBox="0 0 1024 1024"><path fill="#FFF1DC" d="M60.416 516.608a450.816 450.816 0 1 0 901.632 0 450.816 450.816 0 1 0-901.632 0"/><path fill="#FF8E12" d="M614.451 551.526c-58.624 66.714-165.683 56.679-211.046-.563-23.552 27.648-53.197 44.39-89.6 46.592-63.027 3.738-116.787-32.717-129.69-98.048-3.942-20.019 1.843-43.776 8.858-63.795 26.368-75.264 84.48-119.194 155.443-147.968 24.166-9.83 50.074-15.411 75.469-22.016 4.25-1.126 11.52 1.126 14.387 4.403 39.782 45.568 112.742 36.967 141.005-.768 2.201-2.97 8.448-5.171 12.134-4.454 81.767 15.974 153.754 49.664 205.261 117.862 20.48 27.136 35.533 57.856 39.22 92.007 5.478 50.892-33.486 103.219-86.017 117.657-53.043 14.643-97.638-.563-135.424-40.909"/><path fill="#FF8E12" d="M760.218 636.467c-13.722 50.586-26.317 98.509-39.834 146.125-5.376 18.893-17.766 27.955-37.427 28.006-116.122.256-232.192.256-348.314.052-20.019-.052-31.334-8.039-36.659-26.47-14.131-49-27.443-98.202-41.933-150.222 57.959 15.668 108.595 6.912 149.555-37.17 54.375 62.975 150.17 62.668 204.8 1.433 40.807 43.469 90.522 55.193 149.812 38.246"/><path fill="#FCB138" d="M558.49 215.962c-.359 29.388-21.402 49.408-51.2 48.793-26.778-.512-49.716-23.91-49.05-50.022.666-26.88 23.706-49.46 50.176-49.152 28.98.358 50.38 21.913 50.074 50.38z"/><path fill="#FCA315" d="M697.6 643.277c-32.666-3.123-61.696-17.869-87.194-45.056-54.63 61.235-150.425 61.542-204.8-1.434-40.96 44.083-91.596 52.839-149.555 37.171 14.439 52.02 27.802 101.223 41.933 150.221 5.325 18.432 16.589 26.42 36.66 26.47 36.556.052 73.113.052 109.67.103 103.73-23.142 193.228-83.968 253.286-167.475"/><path fill="#FCA315" d="M776.192 358.605c-49.357-52.224-113.357-79.719-184.78-93.645-3.738-.717-9.934 1.485-12.135 4.454-28.263 37.684-101.223 46.336-141.005.768-2.867-3.276-10.138-5.53-14.387-4.403-25.344 6.605-51.303 12.237-75.469 22.016C277.453 316.57 219.29 360.5 192.973 435.763c-7.015 20.02-12.8 43.776-8.858 63.795 12.903 65.332 66.663 101.786 129.69 98.048 36.403-2.15 66.048-18.892 89.6-46.592 45.363 57.293 152.473 67.328 211.046.564 32.154 34.304 69.274 50.33 112.282 45.414 32.563-60.262 51.097-129.229 51.097-202.547 0-12.083-.614-24.013-1.638-35.84"/><path fill="#FCB138" d="M405.606 596.787c-40.96 44.083-91.596 52.839-149.555 37.171 3.226 11.572 6.349 22.99 9.523 34.356 59.956-4.301 116.43-20.992 166.964-47.514-9.677-6.656-18.79-14.592-26.932-24.013M659.15 283.546c-21.607-7.885-44.237-14.03-67.687-18.586-3.737-.717-9.932 1.485-12.134 4.454-28.262 37.684-101.222 46.336-141.005.768-2.867-3.276-10.137-5.53-14.387-4.403-25.344 6.605-51.302 12.237-75.469 22.016-70.963 28.775-129.126 72.704-155.443 147.968-7.014 20.02-12.8 43.776-8.858 63.795 12.903 65.332 66.663 101.786 129.69 98.048 36.403-2.15 66.048-18.892 89.6-46.592 17.357 21.914 43.776 36.864 73.011 43.316 101.018-69.786 170.496-181.914 182.682-310.784"/><path fill="#FFC65E" d="M508.365 165.58c-26.47-.306-49.51 22.273-50.176 49.153-.615 26.112 22.323 49.51 49.05 50.022 3.583.051 6.963-.153 10.29-.665a424 424 0 0 0 27.034-83.712c-8.96-9.063-21.606-14.592-36.198-14.797zm-9.114 135.066c-22.323-2.048-44.493-11.622-60.979-30.515-2.867-3.277-10.138-5.53-14.387-4.403-25.344 6.605-51.303 12.237-75.469 22.016-70.963 28.774-129.126 72.704-155.443 147.968-7.015 20.02-12.8 43.776-8.858 63.795 1.024 5.069 2.355 9.933 3.84 14.643 133.837-19.046 247.655-100.3 311.296-213.504"/></svg>