<svg xmlns="http://www.w3.org/2000/svg" viewBox="0 0 1024 1024"><path fill="#808C9B" d="M707.996 233.387v-29.713c0-47.587-38.875-86.303-86.461-86.303H205.43c-47.586 0-86.302 38.716-86.302 86.303v704.713h61.523V203.674c0-13.597 11.184-24.78 24.78-24.78h416.102c13.596 0 24.938 11.184 24.938 24.78v29.713H458.387v93.164H904.87v-93.164z"/><path fill="#BDCCD4" d="M501.453 368.738h18.457v95.801h-18.457zm0 150.293h18.457v103.711h-18.457zm0 158.203h18.457v112.5h-18.457zm112.5-308.496h18.457v95.801h-18.457zm0 150.293h18.457v103.711h-18.457zm0 158.203h18.457v112.5h-18.457zm113.379-308.496h18.457v95.801h-18.457zm0 150.293h18.457v103.711h-18.457zm0 158.203h18.457v112.5h-18.457zm112.5-308.496h18.457v95.801h-18.457zm0 150.293h18.457v103.711h-18.457zm0 158.203h18.457v112.5h-18.457z"/></svg>