<svg xmlns="http://www.w3.org/2000/svg" viewBox="0 0 1024 1024"><path fill="#F18700" d="M1016.938 573.55 476.587 262.89V86.004l-39.44-22.668L40.865 292.667v176.888l-.198 70.757v88.436l49.446 28.434 48.875-28.434.091-31.858 432.077 248.407v86.942l49.446 28.426 48.875-28.426.252-87.132 248.636-143.878v30.836l49.447 28.427 48.874-28.427.252-88.444-.198-.114z"/><path fill="#A66206" d="m139.24 540.304-.252 88.444-48.875 28.434v-88.444z"/><path fill="#D07400" d="M90.113 568.738v88.444l-49.446-28.434v-88.436zm49.127-28.434-49.12 28.434-49.453-28.426 49.126-28.434z"/><path fill="#A66206" d="m669.729 843.787-.252 88.452-48.875 28.426v-88.444z"/><path fill="#D07400" d="M620.602 872.221v88.444l-49.446-28.426v-88.444zm49.127-28.434-49.12 28.434-49.453-28.426 49.126-28.434z"/><path fill="#A66206" d="m1016.938 643.621-.252 88.444-48.874 28.427v-88.445z"/><path fill="#D07400" d="M967.812 672.047v88.445l-49.447-28.427v-88.444z"/><path fill="#D07400" d="m1016.938 643.621-49.126 28.426-49.447-28.426 49.119-28.426z"/><path fill="#A66206" d="m1016.938 573.55-.206 70.75-396.29 229.332.198-70.757z"/><path fill="#D07400" d="m620.64 802.875-.198 70.757-579.775-333.32.198-70.757z"/><path fill="#F18700" d="M1016.938 573.55 620.64 802.876 40.88 469.555l396.282-229.332z"/><path fill="#A66206" d="M476.587 86.003V262.89L80.282 492.215v-176.88z"/><path fill="#D07400" d="M80.29 315.335v176.88l-39.417-22.66V292.667z"/><path fill="#F18700" d="M476.587 86.003 80.282 315.335l-39.41-22.668L437.148 63.335z"/><path fill="#E0E0E2" d="M982.951 496.792c.55-6.293-3.325-12.7-11.684-17.505l-460.343-264.66c-15.635-8.985-40.904-8.985-56.433 0L130.98 401.841c-7.741 4.477-11.6 10.342-11.593 16.215v-.061l-.206 70.757c-.015 5.933 3.913 11.867 11.784 16.398l460.342 264.646c15.636 8.984 40.897 8.992 56.441 0L971.251 582.58c7.72-4.462 11.578-10.304 11.594-16.154l.206-70.757c0 .374-.061.74-.1 1.114z"/><path fill="#ACABB1" d="m119.18 488.753.199-70.757c-.016 5.926 3.912 11.868 11.783 16.39l-.206 70.757c-7.863-4.523-11.791-10.457-11.776-16.39"/><path fill="#898890" d="m983.05 495.678-.205 70.757c-.016 5.85-3.875 11.7-11.594 16.162l.206-70.757c7.711-4.462 11.578-10.304 11.594-16.162"/><path fill="#ACABB1" d="m971.457 511.84-.206 70.749L647.74 769.804l.205-70.749z"/><path fill="#C6C5CB" d="m591.505 699.047-.199 70.757-460.35-264.66.206-70.758z"/><path fill="#D8D8DA" d="m647.938 699.055-.198 70.757c-15.537 8.992-40.798 8.985-56.434-.008l.206-70.757c15.636 8.993 40.897 9 56.433 0z"/><path fill="#E0E0E2" d="M971.267 479.28c15.635 9 15.72 23.567.19 32.56L647.945 699.047c-15.536 9-40.805 8.993-56.44 0l-460.343-264.66c-15.635-8.985-15.72-23.553-.183-32.545l323.512-187.223c15.53-8.985 40.798-8.985 56.433 0z"/></svg>