<svg xmlns="http://www.w3.org/2000/svg" viewBox="0 0 1024 1024"><path fill="#db639b" d="M301.063 90.125h421.875c116.496 0 210.937 94.44 210.937 210.938v421.875c0 116.496-94.44 210.937-210.938 210.937H301.063c-116.496 0-210.937-94.44-210.937-210.938V301.063c0-116.496 94.44-210.937 210.938-210.937zm43.9 490.43c-10.809-8.185-23.01-13.922-35.564-18.968-25.625-10.091-52.465-13.744-79.827-13.044-6.455 0-12.901.523-19.525.869 0-.523-.523-1.215-.523-2.084-1.746-19.49-3.839-38.973-5.231-58.11-1.215-16.005-1.738-32.011-2.093-48.009-.523-30.796-.523-61.416-.523-92.205 0-7.306-.523-6.437-6.1-4.007-17.255 6.96-34.34 13.753-51.595 20.36-.524.522-1.393 2.26-1.047 3.121 5.232 19.49 9.07 39.496 11.686 59.333 2.616 17.22 4.877 33.918 7.316 50.793 2.092 14.791 3.484 29.574 5.23 44.542 1.747 15.128 3.84 30.265 5.578 45.58 1.747 14.613 3.485 28.704 5.231 43.317a972 972 0 0 1 3.139 31.135c.523 8.184 1.215 16.352 1.392 24.182 0 1.738.523 2.615 2.27 2.615 3.83 0 7.315.515 10.977 0 17.778-1.746 35.556-2.961 52.988-5.568 13.415-2.093 26.493-5.223 39.394-9.569 18.31-6.091 33.986-16.529 49.157-28.535 6.446-4.869 11.678-10.783 13.939-18.267 4.885-12.353 2.784-20.698-6.27-27.481zm110.134 13.247c-.91-10.041-1.814-20.588-3.088-30.629-1.265-13.837-2.717-27.675-3.982-41.69-1.266-12.799-1.814-25.43-2.725-38.238-1.266-17.643-2.717-35.294-3.991-52.945l-2.717-39.1c-.363-4.843-2.363-6.05-7.61-5.703a688 688 0 0 1-18.859 1.206c-5.442.523-10.884 1.215-16.14 1.73 16.317 82.704 23.574 165.577 32.096 247.759 9.973.869 19.035 1.383 28.468 2.252 1.814.338 2.717 0 2.717-1.73l-.903-9.517c-.726-11.424-2-22.494-3.266-33.395m-53.409 8.48c-1.122-10.295-2.092-20.42-3.223-30.705-1.122-11.66-2.092-23.498-3.544-35.159-.81-7.205-1.94-14.065-2.902-20.925-.32-2.582-1.94-3.78-4.514-3.434-4.523.506-9.358.506-14.032 1.198-6.455.86-12.91 2.059-19.676 2.92a16076 16076 0 0 0 24.51 132.932c9.679-1.375 18.867-2.573 28.224-3.771-.32-3.434-.81-6.86-1.13-9.956-1.291-11.315-2.582-22.292-3.713-33.1m99.428 42.693c-.338-17.187-.844-33.851-1.19-51.038-.338-21.179 0-42.694 0-63.872 0-4.692-.338-9.028-.506-13.72 0-2.084-1.207-3.813-3.426-3.813a691 691 0 0 0-26.823-.532c-3.417 0-6.497.523-9.905 1.215.337 1.215.337 2.084.337 2.953 1.198 14.58 2.565 28.983 3.763 43.217 1.198 13.888 2.557 28.122 3.755 42.01 1.367 15.103 2.565 30.207 3.932 45.31 0 .86 1.367 2.253 2.219 2.253 9.053.337 18.613 0 28.181 0-.337-1.916-.337-3.122-.337-3.991zm-115.678-155.46c-1.477-16.538-2.658-32.198-3.983-48.213-.295-2.084-1.03-3.13-2.506-3.13-4.725 0-9.593 0-14.605.346 1.915 17.752 3.687 34.813 5.602 52.388 5.46-.523 10.328-.7 15.491-1.392zM512 497.9v-45.099c0-3.197-1.35-4.083-4.26-4.083h-16.834v51.848c7.358.355 14.319.532 21.094.886v-3.544zm-147.656 1.13v-3.459c-.785-8.977-1.89-17.617-2.675-26.603-.472-5.696-1.097-11.222-1.578-17.103-.312-1.384.32-3.46-1.89-3.105-5.037.515-9.914 1.721-14.951 2.244 2.835 17.103 5.51 33.691 8.345 50.448zm116.015 1.182v-26.806c0-7.054-.396-14.462 0-21.516 0-2.64-.987-3.172-3.543-3.172h-17.55c1.577 18.343 2.953 35.623 4.53 52.734 5.325-.354 10.649-.709 16.563-1.232zm233.795 80.468c-10.8-8.184-23-13.922-35.547-18.976-25.616-10.09-52.456-13.753-79.81-13.053-6.447 0-12.893.524-19.516.87 0-.524-.523-1.215-.523-2.093-1.739-19.49-3.831-38.981-5.232-58.134-1.215-16.015-1.738-32.03-2.084-48.035-.523-30.814-.523-61.45-.523-92.256 0-7.306-.523-6.437-6.1-3.999-17.246 6.96-34.324 13.753-51.579 20.36-.523.346-1.392 2.092-1.215 2.953a464 464 0 0 1 11.67 59.358c2.615 17.237 4.885 33.944 7.323 50.827 2.093 14.8 3.485 29.59 5.231 44.559 1.739 15.145 3.831 30.29 5.57 45.604 1.746 14.622 3.484 28.722 5.23 43.344a950 950 0 0 1 3.13 31.16c.524 8.184 1.224 16.36 1.401 24.19 0 1.738.523 2.615 2.262 2.615 3.83 0 7.315.515 10.977 0 17.778-1.746 35.547-2.961 52.97-5.568a236 236 0 0 0 39.378-9.577c18.301-6.092 33.986-16.537 49.14-28.544 6.446-4.877 11.678-10.8 13.939-18.284 5.062-12.184 2.962-20.537-6.092-27.32zm110.084 13.12c-.911-10.04-1.814-20.587-3.088-30.628-1.266-13.837-2.717-27.675-3.982-41.69-1.266-12.799-1.815-25.43-2.726-38.238-1.265-17.643-2.717-35.294-3.99-52.945l-2.718-39.1c-.362-4.843-2.362-6.05-7.61-5.703-6.354.514-12.513.86-18.858 1.206-5.442.523-10.884 1.215-16.141 1.73 16.318 82.704 23.574 165.577 32.096 247.759 9.973.869 19.035 1.383 28.468 2.252 1.814.338 2.717 0 2.717-1.73l-.903-9.517c-.725-11.424-2-22.494-3.265-33.395zm-53.41 8.48c-1.121-10.294-2.092-20.419-3.222-30.704-1.123-11.66-2.093-23.498-3.544-35.159-.81-7.206-1.94-14.065-2.903-20.925-.32-2.582-1.94-3.78-4.514-3.434-4.522.506-9.357.506-14.031 1.198-6.455.86-12.91 2.059-19.677 2.92a16076 16076 0 0 0 24.511 132.932 2122 2122 0 0 1 28.224-3.771c-.32-3.434-.81-6.86-1.13-9.956-1.292-11.315-2.583-22.292-3.713-33.1zm109.975 42.694c-.337-17.187-.844-33.851-1.19-51.038-.337-21.179 0-42.694 0-63.872 0-4.692-.337-9.028-.506-13.72 0-2.084-1.206-3.813-3.425-3.813a691 691 0 0 0-26.823-.532c-3.417 0-6.497.523-9.906 1.215.338 1.215.338 2.084.338 2.953 1.198 14.58 2.565 28.983 3.763 43.217 1.198 13.888 2.556 28.122 3.754 42.01 1.367 15.103 2.565 30.207 3.932 45.31 0 .86 1.367 2.253 2.22 2.253 9.053.337 18.612 0 28.18 0-.337-1.916-.337-3.122-.337-3.991zm-126.225-155.46c-1.476-16.538-2.658-32.198-3.982-48.213-.296-2.084-1.03-3.13-2.506-3.13-4.725 0-9.594 0-14.606.346 1.916 17.752 3.688 34.813 5.603 52.388 5.459-.523 10.327-.7 15.491-1.392zm126.563 8.386v-45.099c0-3.197-1.35-4.083-4.261-4.083h-16.833v51.848c7.357.355 14.318.532 21.094.886v-3.544zm-147.657 1.13v-3.459c-.784-8.977-1.89-17.617-2.674-26.603-.473-5.696-1.097-11.222-1.578-17.103-.312-1.384.32-3.46-1.89-3.105-5.037.515-9.914 1.721-14.951 2.244 2.835 17.103 5.51 33.691 8.344 50.448l12.75-2.421zm126.563 1.182v-26.806c0-7.054-.397-14.462 0-21.516 0-2.64-.987-3.172-3.544-3.172h-17.55c1.578 18.343 2.953 35.623 4.531 52.734 5.324-.354 10.648-.709 16.563-1.232z"/><path fill="#F08198" d="M249.56 640.672c-2.523-17.955-5.037-35.42-7.56-52.735 9.737 2.085 50.718 17.635 52.734 20.04-14.942 10.732-29.725 21.633-45.174 32.695m362.812 0a10401 10401 0 0 0-7.56-52.735c9.737 2.085 50.718 17.635 52.735 20.04-14.951 10.732-29.725 21.633-45.175 32.695"/></svg>