<svg xmlns="http://www.w3.org/2000/svg" viewBox="0 0 1024 1024"><path fill="#FFC56F" d="m860.766 612.675-43.146-50.338 8.988-107.865 61.124-61.124-1.797-3.596-28.765-43.146h-12.584l-28.764-35.955 8.989-106.068 61.124-61.124v-14.382l-675.96 10.786-50.337 34.158-25.168 53.932v70.113l43.146 61.124 26.967 21.573-41.349 43.147-26.966 53.933v71.91l43.146 59.326 23.37 19.776-43.146 46.741-25.168 53.933v70.113l43.146 61.124 32.36 26.966 224.72 8.99 451.239-5.394-28.765-26.966-41.348-52.136 8.989-106.068 61.124-61.124-3.596-5.393h5.393z"/><path fill="#FE6576" d="M907.508 663.012v-52.135c-43.146-10.787-75.506-52.135-75.506-100.675s32.36-88.09 75.506-100.674v-52.136c-43.146-10.786-75.506-52.135-75.506-100.674s32.36-88.09 75.506-100.675v-39.55h-650.79c-77.304 0-140.226 64.719-140.226 143.82 0 53.933 28.764 100.675 70.113 125.844-41.349 25.168-70.113 71.91-70.113 125.843s28.764 100.675 70.113 125.843c-41.349 25.17-70.113 71.91-70.113 125.844 0 79.101 62.922 143.82 140.226 143.82h650.79v-44.943c-43.146-10.787-75.506-52.135-75.506-100.675 0-46.742 32.36-88.09 75.506-98.877M154.245 260.313c0-59.326 46.742-106.068 102.473-106.068H840.99c-28.765 26.967-46.742 64.72-46.742 106.068s17.977 80.9 46.742 106.068H256.718c-57.529 1.798-102.473-46.742-102.473-106.068m0 251.687c0-59.326 46.742-106.068 102.473-106.068H840.99c-28.765 26.966-46.742 64.72-46.742 106.068s17.977 80.9 46.742 106.068H256.718c-57.529 0-102.473-46.742-102.473-106.068M794.25 763.687c0 41.348 17.977 80.9 46.742 106.068H256.718c-57.529 0-102.473-48.54-102.473-106.068 0-59.326 46.742-106.068 102.473-106.068H840.99c-28.765 25.168-46.742 62.921-46.742 106.068z"/><path fill="#FC4248" d="M269.302 154.245v408.092c0 7.191 7.191 10.787 12.584 8.99l37.753-17.978 37.753 17.977c5.394 3.596 12.585-1.798 12.585-8.989V154.245z"/><path fill="#FFF" d="M290.875 177.616c-7.19 0-10.786 5.393-10.786 10.787v70.112c0 7.191 5.393 10.787 10.786 10.787 7.191 0 10.787-5.393 10.787-10.787V190.2c1.798-7.19-3.596-12.584-10.787-12.584m-10.786 118.652a10.787 10.787 0 1 0 21.573 0 10.787 10.787 0 1 0-21.573 0"/></svg>