<svg xmlns="http://www.w3.org/2000/svg" viewBox="0 0 1024 1024"><path fill="#419CC0" d="M933.875 818.818c0 63.53-51.545 115.057-115.057 115.057H205.182c-63.53 0-115.057-51.545-115.057-115.057V205.182A115.057 115.057 0 0 1 205.182 90.125h613.636a115.057 115.057 0 0 1 115.057 115.057z"/><path fill="#FFF" d="M350.134 385.59c3.145.442 6.117 1.343 8.936 2.705s4.89 4.43 6.233 9.262 2.013 10.834 2.013 18.025v383.255q0 13.806-9.78 23.931c-9.78 10.125-15.84 10.279-27.978 10.624s-21.458-2.857-27.978-9.607-9.78-15.053-9.78-24.948V500.533c-17.527 15.954-32.369 24.488-44.488 25.619s-23.26 1.687-33.367 1.687c-11.467.23-17.47-1.342-18.025-4.717s-.173-6.06 1.189-8.092c.67-.901 5.676-3.701 14.995-8.418s17.642-13.98 24.949-27.806 13.308-29.838 18.025-48.036l9.435-39.1c13.25-55.285 22.36-88.594 27.307-99.946s12.694-23.644 23.26-36.914 24.105-23.376 40.615-30.337 30.682-12.138 42.475-15.513 17.355-1.918 16.684 4.39c-.441 2.705-3.26 6.75-8.419 12.14s-11.908 15.666-20.23 30.835-14.152 28.936-17.527 41.286-7.019 28.323-10.95 47.863-6.482 32.926-7.594 40.117zm135.844 57.99v-77.875h-33.04c-7.422 0-16.128-2.761-26.118-8.265s-15.054-13.94-15.169-25.274 3.644-20.902 11.295-28.649 17.642-11.62 29.992-11.62h33.04v-48.21c0-9.664 3.759-18.198 11.295-25.619s16.51-11.18 26.961-11.295 19.886 3.49 28.324 10.797 12.637 16.012 12.637 26.118v48.208h82.246v-51.584c0-7.632 3.087-15.168 9.262-22.589s15.514-11.41 27.978-11.966 22.417 3.145 29.838 11.122 11.122 15.782 11.122 23.434v51.564h48.88c7.421 0 15.226 2.857 23.434 8.591s12.58 14.785 13.154 27.134-3.202 21.804-11.294 28.323-16.511 9.78-25.275 9.78h-48.88v77.875h71.125q12.138 0 23.586 9.78c11.448 9.78 11.468 15.398 11.468 26.635-.23 13.711-4.43 23.203-12.637 28.477s-15.667 7.92-22.417 7.92H420.242c-10.796 0-20.058-3.548-27.805-10.624s-11.525-15.667-11.295-25.792c0-12.139 4.43-21.228 13.308-27.307s17.47-9.109 25.792-9.109h65.736zm168.865 102.132c20 1.342 37.528 3.202 52.581 5.56s28.266 7.805 39.599 16.358 20.115 23.03 26.29 43.491 9.435 44.892 9.78 73.31-2.301 51.853-7.92 70.281c-5.388 17.757-13.04 31.238-22.915 40.443s-22.8 15.61-38.755 19.214-35.955 5.389-60.002 5.389H439.457V545.712zm-140.887 107.52h187.082c-2.013-9.204-5.503-17.872-10.45-25.964s-18.429-12.139-40.443-12.139H513.63zm0 64.394-.345 36.07h137.531c9.895 0 19.1-1.227 27.633-3.701s13.366-6.175 14.497-11.122l7.747-21.228H513.956zm51.22-274.046h82.246v-77.875h-82.247z"/></svg>