<svg xmlns="http://www.w3.org/2000/svg" viewBox="0 0 1024 1024"><path fill="#2A81FF" d="M809.719 422.472c0 103.796-100.346 167.056-232.79 183.48l-67.235-52.422-67.122 52.422c-132.37-16.424-232.716-79.684-232.716-183.48v-44.885c.488-7.912 1.238-15.487 2.025-22.837l.75-6.037a478 478 0 0 1 2.475-16.874l.75-4.5a319 319 0 0 1 4.162-19.237l.975-3.6a261 261 0 0 1 5.738-18.974c3.937-11.25 8.437-21.561 13.537-30.974a172 172 0 0 1 8.812-14.549l1.312-1.95c3-4.275 6.112-8.362 9.375-12.224l.975-1.125a156.4 156.4 0 0 1 34.536-29.662l1.537-.975c4.013-2.474 8.137-4.837 12.375-7.012l.675-.375a210 210 0 0 1 30.298-12.374c10.387-3.375 21.3-6.15 32.624-8.4 39.898-7.95 85.421-9.75 134.882-9.824h4.237c10.725 0 21.187.15 31.499.375l4.762.075a946 946 0 0 1 34.124 1.5c9.674.637 19.162 1.424 28.386 2.437l3 .375c9.637 1.125 19.012 2.437 28.086 4.125h.038l.525.075a363 363 0 0 1 16.424 3.487l.825.188c10.912 2.624 21.374 5.85 31.349 9.674l1.725.675c9.75 3.862 18.974 8.325 27.674 13.5l1.8 1.125c3.9 2.4 7.65 4.912 11.324 7.612l1.275.9c3.975 3 7.875 6.224 11.587 9.6l1.275 1.274a154 154 0 0 1 9.262 9.45l1.987 2.25a154 154 0 0 1 9.563 12.112l.037.037c2.925 4.125 5.7 8.55 8.325 13.125l1.875 3.337c2.325 4.237 4.574 8.625 6.674 13.2l.825 1.762a233 233 0 0 1 6.375 16.237c.488 1.312.9 2.7 1.35 4.05 1.575 4.687 3 9.524 4.35 14.549l1.162 4.237c1.575 6.225 3 12.675 4.238 19.424l.675 3.863a392 392 0 0 1 3.374 23.699c.825 7.5 1.575 15.15 2.063 23.174zm82.309 46.499c-33.749-185.993-104.546-290.05-212.054-337.036.188-.788.225-1.613.375-2.4.113-.9.375-1.763.375-2.625 0-22.987-36.973-42.973-91.383-53.248-9.863-1.875-20.362-3.375-31.274-4.575a488 488 0 0 0-51.898-2.7c-96.408 0-174.555 27.074-174.555 60.485 0 1.575.375 3.15.675 4.725a29 29 0 0 0 .937 3.037c-104.358 48.486-173.13 152.844-206.054 336.474-40.61 40.648-52.648 115.57-43.573 179.242 9.675 67.76 59.323 109.308 121.308 118.458 44.098 43.123 110.02 78.747 208.19 94.496v36.449c-26.623 13.012-55.497 46.01-55.497 50.997 0 6.225 23.812 11.25 53.248 11.25s53.285-5.025 53.285-11.25c0-3.862-.975-24.449-8.662-39.635V868.59a772 772 0 0 0 51.41 3.113v.15l2.888-.075 2.925.075v-.15a756 756 0 0 0 61.91-4.125v43.536c-7.688 15.186-8.662 35.773-8.662 39.635 0 6.225 23.849 11.25 53.285 11.25s53.285-5.025 53.285-11.25c0-4.987-28.874-37.985-55.498-50.997v-38.249c92.134-16.5 154.869-50.998 197.355-92.433 62.885-8.588 113.47-50.248 123.22-118.758 9.224-64.647-3.3-141.107-45.561-181.267z"/><path fill="#2BD982" d="M512.731 313.99c-69.484 0-125.995 53.66-125.995 119.657 0 13.424 11.475 24.337 25.612 24.337 14.174 0 25.649-10.875 25.649-24.337 0-39.148 33.523-70.985 74.734-70.985 41.249 0 74.735 31.874 74.735 70.985 0 13.424 11.474 24.337 25.649 24.337 14.136 0 25.611-10.875 25.611-24.337 0-65.997-56.51-119.657-125.995-119.657"/></svg>