<svg xmlns="http://www.w3.org/2000/svg" viewBox="0 0 1024 1024"><path fill="#CFCFCD" d="M729.56 940.04H260.84c-106.44 0-192.6-86.28-192.6-192.6V278.6c0-106.32 86.28-192.6 192.6-192.6h468.72c106.44 0 192.6 86.28 192.6 192.6v468.72c0 106.44-86.16 192.72-192.6 192.72"/><path fill="#161616" d="M665.463 857.702H320.307c-38.23 0-69.222-30.993-69.222-69.222V237.705c0-38.23 30.993-69.223 69.222-69.223h345.156c38.23 0 69.223 30.993 69.223 69.223V788.48c0 38.23-30.993 69.222-69.223 69.222"/><path fill="#4F4F4F" d="M661.914 378.743H323.857c-12.424 0-22.391-10.103-22.391-22.391V240.299c0-12.425 10.103-22.392 22.391-22.392h338.057c12.424 0 22.391 10.104 22.391 22.392v116.053c.137 12.288-9.967 22.391-22.391 22.391"/><path fill="#CFCFCD" d="M351.164 525.653c-27.443 0-49.835-22.255-49.835-49.834 0-27.444 22.255-49.835 49.835-49.835 27.443 0 49.834 22.255 49.834 49.835s-22.255 49.834-49.834 49.834m141.721 0c-27.443 0-49.834-22.255-49.834-49.834 0-27.444 22.255-49.835 49.834-49.835 27.444 0 49.835 22.255 49.835 49.835s-22.255 49.834-49.835 49.834"/><path fill="#FF9528" d="M634.607 525.653c-27.443 0-49.835-22.255-49.835-49.834 0-27.444 22.255-49.835 49.835-49.835 27.443 0 49.835 22.255 49.835 49.835s-22.255 49.834-49.835 49.834"/><path fill="#CFCFCD" d="M351.164 668.058c-27.443 0-49.835-22.255-49.835-49.835 0-27.443 22.255-49.835 49.835-49.835 27.443 0 49.834 22.255 49.834 49.835s-22.255 49.835-49.834 49.835m141.721 0c-27.443 0-49.834-22.255-49.834-49.835 0-27.443 22.255-49.835 49.834-49.835 27.444 0 49.835 22.255 49.835 49.835s-22.255 49.835-49.835 49.835"/><path fill="#FF9528" d="M634.607 668.058c-27.443 0-49.835-22.255-49.835-49.835 0-27.443 22.255-49.835 49.835-49.835 27.443 0 49.835 22.255 49.835 49.835s-22.255 49.835-49.835 49.835"/><path fill="#CFCFCD" d="M492.885 810.462H351.164c-27.443 0-49.835-22.255-49.835-49.835 0-27.443 22.255-49.834 49.835-49.834h141.721c27.444 0 49.835 22.254 49.835 49.834 0 27.443-22.255 49.835-49.835 49.835"/><path fill="#FF9528" d="M634.607 810.462c-27.443 0-49.835-22.255-49.835-49.835 0-27.443 22.255-49.834 49.835-49.834 27.443 0 49.835 22.254 49.835 49.834 0 27.443-22.255 49.835-49.835 49.835"/></svg>