<svg xmlns="http://www.w3.org/2000/svg" viewBox="0 0 1024 1024"><path fill="#444" d="M868.25 230.75h-187.5l-45.881-91.537a37.5 37.5 0 0 0-33.525-20.7H422.656a37.5 37.5 0 0 0-33.525 20.7L343.25 230.75h-187.5a75 75 0 0 0-75 75v525a75 75 0 0 0 75 75h712.5a75 75 0 0 0 75-75v-525a75 75 0 0 0-75-75"/><path fill="#666" d="M193.25 830.75H80.75v-525h112.5a37.5 37.5 0 0 1 37.5 37.5v450a37.5 37.5 0 0 1-37.5 37.5m112.5-262.5a206.25 206.25 0 1 0 412.5 0 206.25 206.25 0 1 0-412.5 0"/><path fill="#E6E6E6" d="M512 793.25c-124.069 0-225-100.931-225-225s100.931-225 225-225 225 100.931 225 225-100.931 225-225 225m0-412.5c-103.388 0-187.5 84.112-187.5 187.5s84.112 187.5 187.5 187.5 187.5-84.112 187.5-187.5-84.112-187.5-187.5-187.5"/><path fill="#444" d="M399.5 568.25a112.5 112.5 0 1 0 225 0 112.5 112.5 0 1 0-225 0"/><path fill="#76B5B5" d="M568.25 268.25h-112.5A18.75 18.75 0 0 1 437 249.5v-56.25a18.75 18.75 0 0 1 18.75-18.75h112.5A18.75 18.75 0 0 1 587 193.25v56.25a18.75 18.75 0 0 1-18.75 18.75"/><path fill="#FFF" d="M868.25 343.25h-112.5A18.75 18.75 0 0 1 737 324.5v-18.75A18.75 18.75 0 0 1 755.75 287h112.5A18.75 18.75 0 0 1 887 305.75v18.75a18.75 18.75 0 0 1-18.75 18.75"/></svg>