<svg xmlns="http://www.w3.org/2000/svg" viewBox="0 0 1024 1024"><path fill="#FF7E00" d="M176.002 166.657h-3.845a80.74 80.74 0 0 0-80.507 80.507v3.612a84.35 84.35 0 0 1 84.352-84.12zm463.937 11.65H476.244v7.69A186.414 186.414 0 0 1 138.37 292.602v501.686a80.74 80.74 0 0 0 80.39 80.857h421.18a80.74 80.74 0 0 0 80.507-80.508V258.698a80.74 80.74 0 0 0-80.507-80.39zm-133.52 468.83a19.224 19.224 0 0 1-32.854 13.632l-44.04-44.04-44.157 43.923a19.6 19.6 0 0 1-6.059 4.078 19 19 0 0 1-7.456 1.515 19.22 19.22 0 0 1-13.282-5.593 19.8 19.8 0 0 1-4.078-6.058 19.2 19.2 0 0 1-1.515-7.456v-63.265a134.22 134.22 0 0 0 153.791 0zm-76.895-58.254A115.343 115.343 0 1 1 544.868 473.54a115.343 115.343 0 0 1-115.344 115.926zM811.555 269.3l-45.205-11.65a13.98 13.98 0 0 0-17.243 13.631v569.26h1.049c3.495-.932 9.32-4.077 17.709-24.932 1.631-4.078 3.612-9.554 5.592-16.078l101.13-429.8a84.35 84.35 0 0 0-63.032-100.43zm137.946 148.2-27.729-14.331a13.98 13.98 0 0 0-20.039 9.087L798.507 826.094h1.281a36.35 36.35 0 0 0 17.01-14.563 93 93 0 0 0 7.107-10.952l152.976-297.33a63.847 63.847 0 0 0-27.38-85.75z"/><path fill="#FFF" d="M314.181 474.006a115.343 115.343 0 1 0 230.687 0 115.343 115.343 0 1 0-230.687 0"/><path fill="#FFF" d="M352.629 583.873v62.682a19.2 19.2 0 0 0 1.514 7.457 19.8 19.8 0 0 0 4.078 6.058 19.22 19.22 0 0 0 13.632 5.592 19 19 0 0 0 7.456-1.514 19.6 19.6 0 0 0 6.059-4.078l44.04-44.04 44.04 44.04a19.224 19.224 0 0 0 32.855-13.632v-62.565a134.22 134.22 0 0 1-153.79 0z"/><path fill="#FF7E00" d="M290.646 371.945A186.414 186.414 0 0 0 477.06 185.53v-7.69H222.605a84.35 84.35 0 0 0-84.119 84.12v30.641a185.6 185.6 0 0 0 152.16 79.343z"/><path fill="#FD973F" d="M290.646 371.945A186.414 186.414 0 0 0 477.06 185.53v-7.69H222.605a84.35 84.35 0 0 0-84.119 84.12v30.641a185.6 185.6 0 0 0 152.16 79.343z"/></svg>