<svg xmlns="http://www.w3.org/2000/svg" viewBox="0 0 1024 1024"><path fill="#31C37C" d="M353.11 624.5c-18.28 8.438-46.406 15.469-74.53 15.469h-1.407c-82.969 0-132.188-52.032-132.188-139.219 0-45 12.657-81.563 36.563-106.875 23.906-23.906 57.656-37.969 98.437-37.969 35.157 0 60.47 8.438 71.72 14.063L367.172 377l19.687-70.313-11.25-5.625c-11.25-5.625-42.187-18.28-98.437-18.28-127.969 2.812-216.563 92.812-215.156 220.78 0 64.688 21.093 118.125 60.468 154.688 36.563 35.156 87.188 53.438 144.844 53.438h1.406c50.625 0 88.594-11.25 108.282-21.094l11.25-5.625-18.282-68.907zm143.438 8.438V523.25l149.062-1.406V451.53l-150.468 1.406v-92.812h157.5V287l-237.657 2.813 2.813 414.843 246.094-1.406v-71.719zm465.469-275.625v-71.72L675.142 287v73.125l104.062-1.406 1.406 343.125h81.563l-2.813-343.125z"/></svg>