<svg xmlns="http://www.w3.org/2000/svg" viewBox="0 0 1024 1024"><path fill="#80B7F9" d="M57.907 511.232a445.798 445.798 0 1 0 891.597 0 445.798 445.798 0 1 0-891.597 0"/><path fill="#80B7F9" d="M544.973 748.442a202.291 202.291 0 1 0 404.582 0 202.291 202.291 0 1 0-404.582 0"/><path fill="#3E8BF8" d="M920.422 643.891c-35.43-58.573-99.737-97.74-173.21-97.74-111.718 0-202.29 90.572-202.29 202.29 0 75.367 41.216 141.005 102.348 175.821 129.639-45.056 231.476-149.248 273.152-280.37z"/><path fill="#FFF" d="M848.998 709.734h-56.73v-56.73c0-22.63-18.329-40.96-40.96-40.96s-40.96 18.33-40.96 40.96v56.73H653.62c-22.63 0-40.96 18.33-40.96 40.96s18.33 40.96 40.96 40.96h56.73v56.73c0 22.63 18.33 40.96 40.96 40.96s40.96-18.33 40.96-40.96v-56.73H849c22.63 0 40.96-18.33 40.96-40.96s-18.33-40.96-40.96-40.96zM621.568 549.53h-87.962v-39.322h87.962c22.63 0 40.96-18.33 40.96-40.96s-18.33-40.96-40.96-40.96h-39.629l60.109-61.286c15.82-16.128 15.565-42.087-.563-57.908s-42.087-15.564-57.907.564l-91.136 92.928-87.91-90.522c-15.77-16.23-41.729-16.589-57.908-.82a40.934 40.934 0 0 0-.82 57.908l57.498 59.136h-39.577c-22.63 0-40.96 18.33-40.96 40.96s18.33 40.96 40.96 40.96h88.013v39.322h-88.064c-22.63 0-40.96 18.33-40.96 40.96s18.33 40.96 40.96 40.96h88.012v48.384c0 22.63 18.33 40.96 40.96 40.96s40.96-18.33 40.96-40.96V631.45h87.962c22.63 0 40.96-18.33 40.96-40.96s-18.33-40.96-40.96-40.96"/></svg>