<svg xmlns="http://www.w3.org/2000/svg" viewBox="0 0 1024 1024"><path fill="#D9251C" d="M142.746 141.211h738.381v741.45H142.746z"/><path fill="#FFF" d="M486.753 141.211a124.26 124.26 0 0 0-11.633 53.947c0 41.42 16.235 75.168 36.177 75.168s36.178-33.621 36.178-75.04a124.26 124.26 0 0 0-10.355-54.075z"/><path fill="#FFF" d="M242.358 326.977a40.652 154.426 72.83 1 0 295.088-91.175 40.652 154.426 72.83 1 0-295.088 91.175"/><path fill="#FFF" d="M619.406 319.124a154.426 40.14 17.17 1 0 23.7-76.703 154.426 40.14 17.17 1 0-23.7 76.703"/><path fill="#FFF" d="M334.5 332.326s77.596 102.27 124.64 119.783c0 0-162.224 118.248-180.632 430.68h77.468s14.446-279.578 166.187-389.9c0 0 108.277-2.43 126.302 389.9h89.486s-5.625-314.733-146.245-437.839a311.7 311.7 0 0 0 76.702-117.737l-70.054-26.846s-22.372 69.671-55.993 96.517c-23.905 19.175-39.118 7.158-39.118 7.158s-90.635-60.21-90.252-98.306-78.491 26.59-78.491 26.59"/></svg>