<svg xmlns="http://www.w3.org/2000/svg" viewBox="0 0 1024 1024"><path fill="#EA4335" d="M192.008 237.078C388.109 8.878 751.766 53.914 887.68 320.574H560.973c-58.852 0-96.856-1.336-138.024 20.32-48.375 25.489-84.867 72.704-97.629 128.145L192.008 237.113z"/><path fill="#4285F4" d="M371.656 512c0 77.344 62.895 140.273 140.203 140.273 77.344 0 140.204-62.93 140.204-140.273s-62.895-140.273-140.204-140.273c-77.343 0-140.203 62.93-140.203 140.273"/><path fill="#34A853" d="M566.281 695.621c-78.715 23.379-170.789-2.566-221.238-89.648C306.512 539.527 204.77 362.27 158.539 281.69-3.426 529.895 136.18 868.203 430.191 925.93l136.055-230.31z"/><path fill="#FBBC05" d="M642.078 371.727a192.094 192.094 0 0 1 35.438 236.18c-33.434 57.655-140.203 237.866-191.953 325.124 302.94 18.668 523.828-278.226 424.054-561.34H642.078z"/></svg>