<svg xmlns="http://www.w3.org/2000/svg" viewBox="0 0 1024 1024"><path fill="#FFF" d="M807.84 901.18H216.95c-52.207 0-94.922-42.715-94.922-94.922v-591.68c0-52.207 42.715-94.922 94.922-94.922h591.68c52.207 0 94.922 42.715 94.922 94.922v591.68c-.791 52.207-43.506 94.922-95.713 94.922z"/><path fill="#643B98" d="M614.832 818.123C477.195 854.51 371.99 807.84 298.426 738.23c-49.834-46.67-80.684-102.04-99.668-168.486-16.612-56.953-15.03-118.652-15.03-179.56 0-31.641 18.985-102.832 24.522-131.309-39.55 60.908-86.22 172.441-86.22 249.17 0 215.156 174.814 389.97 389.97 389.97 95.713 0 200.918-72.773 251.543-147.128-97.295 44.297-80.684 49.834-148.711 67.236"/><path fill="#643B98" d="M746.14 173.445c-44.296-26.103-94.13-43.506-147.92-50.625-177.187-22.94-378.105 91.758-397.09 268.155 83.849-164.532 211.993-227.813 365.45-208.038 48.252 6.329 94.13 20.567 135.264 42.715l44.297-52.207z"/><path fill="#2F82B9" d="M578.445 732.693c-.79.791-1.582.791-2.373 2.373-1.582 2.373-2.373 7.91-3.955 11.075-.79 1.582-6.328 8.7-6.328 10.283s1.582 3.164 3.955 4.746c-10.283 1.582-19.775 3.164-30.058 3.955 1.582-2.373 2.373-4.746-3.956-4.746 1.582-4.746 5.538-7.12 7.12-11.074.79-2.373 0-2.373.79-4.746 2.374-7.12 1.583-4.746 0-10.284 0-.79-.79-.79-.79-1.582H397.303V477.986l-4.746-4.746c-7.12-8.7-14.239-18.193-20.567-27.685-2.373-3.955-1.582-5.537-5.537-9.493-3.955-3.164-7.91-4.746-11.074-7.91-12.656-11.074-15.03-26.894-13.447-41.923.79-5.538 2.373-9.493 1.582-14.239-.791-3.955-3.164-7.91-6.328-11.074-.791-1.582-3.956-5.537-3.956-5.537-2.373-4.746-4.746-9.492-9.492-12.656-2.373-2.373-9.492-7.91-15.82-11.866 28.477-35.595 65.654-63.28 108.37-80.683.79 2.373 1.581 4.746 2.372 6.328 3.955 5.537 7.12 4.746 13.447 6.328-.79 7.91-10.283 7.91-15.82 7.12-7.91-.792-15.03-3.956-22.148 3.163 3.955 2.373 13.447 10.283 11.865 1.582 7.119-.79 14.238-.79 21.357.791 2.373.791 11.866 3.955 15.03 2.373.79-.79 2.373-5.537 3.164-7.91-1.582 0-3.955-.79-6.328-.79 4.746-5.538 9.492-1.583 15.029 1.581-6.328 3.955-2.373 13.448 3.955 5.537 5.537-6.328-1.582-11.074-7.91-15.029 7.119-8.701 11.074-8.701 17.402.791.791-5.537 5.537-3.955 11.074-3.164v-1.582c-2.373 0-4.746-1.582-7.119-.791 4.746-7.91 1.582-10.283 8.701-12.656 5.537-2.373 22.149 0 23.73-5.537-11.073 2.373-25.312 2.373-35.595 7.91-4.746 2.373-10.283 9.492-14.238 4.746-4.746-4.746 3.164-11.865 7.119-14.238h-.791c18.193-3.956 37.178-5.538 56.162-5.538 12.656 0 24.522.791 36.387 2.374-3.955 2.373-.791 3.955-3.955 5.537-5.537 3.955-15.82 7.91-22.94 10.283 8.701 0 30.059 7.91 34.014-3.955-2.373-.791-5.537-.791-8.701-1.582 5.537-3.955 11.074-6.328 17.402-8.701 55.371 11.074 105.205 38.76 142.383 78.31h-1.582c-10.283.791-17.402.791-26.104 6.328-3.955 2.373-5.537 5.537-10.283 7.12-3.955.79-7.91 0-11.865 1.581-14.238 4.746-11.865 34.014-30.059 30.059-8.7-2.373-14.238-11.865-18.984-18.984-3.955-5.538-11.074-11.075-5.537-18.194-2.373.791-4.746 0-6.328.791 2.373-6.328 12.656-5.537 14.238-8.7 3.955-7.911-11.074-8.702-15.03-10.284 4.747-5.537 7.91 1.582 12.657.79 4.746-1.581-2.373-7.91-5.537-8.7-.791-.791-18.193 4.746-8.701-3.955-11.866-7.91-24.522-15.82-37.178-23.73-2.373 8.7 16.611 14.237 22.148 16.61-.79 3.956-7.119 8.702-11.074 7.12s-2.373-7.91-8.701-7.91c-4.746 10.283 9.492 7.119 10.283 13.447 1.582 7.119-4.746 3.955-7.91 3.955-.791 0-5.537-4.746-5.537-1.582-.791 4.746 7.91 2.373 7.91 7.119-8.701.791-14.238-3.164-21.357-7.91-8.701-5.537-12.657-5.537-23.73-5.537 3.163-1.582 7.91-2.373 10.282-4.746l7.91-7.91c1.583-5.538 0-4.747-5.537-8.702-4.746-3.164-10.283-8.7-15.82-10.283-20.566-3.955-6.328 18.193-21.357 21.357h.79-.79c-3.955 0-10.283-.79-12.657.791-1.582 1.583-1.582 7.12-3.955 8.702-3.164 3.955-7.91 3.955-11.865 7.119-3.955 2.373-11.865 8.701-14.238 12.656-7.91 15.82 18.193 20.566 28.476 25.313 4.747 2.373 18.194 4.746 20.567 7.91 3.164 4.746-2.373 8.7 3.955 11.865 2.373.791 7.12 1.582 8.701-.791 3.164-3.955-1.582-4.746-1.582-7.91-1.582-7.91.791-4.746 4.746-7.91 7.91-5.538 6.328-6.329 3.164-15.82-1.582-4.747-6.328-16.612-1.582-19.776 5.537-3.955 18.194 2.373 22.149 2.373 4.746.791 7.91 7.91 11.074 11.074 1.582 1.582 5.537 5.537 8.701 5.537 4.746-.79 3.164-5.537 5.537-7.119 7.91-5.537 10.283 1.582 13.447 9.492 3.164 7.12 5.538 10.284 11.075 14.239 2.373 2.373 13.447 10.283 11.865 14.238-.791 3.164-12.656 7.91-16.611 8.701-11.866 3.955-34.805-6.328-37.178 12.656 4.746-1.582 18.193-12.656 22.148-7.91 1.582 2.373-1.582 5.537-.79 7.91 2.372 7.12 7.91 4.746 13.446 3.955-.79.791-.79.791-1.582.791 7.91-3.955 7.12-3.164 10.284-9.492 1.582-2.373 2.373-7.119 4.746-8.701 5.537-5.537 6.328-1.582 10.283 2.373.791.791 9.492 13.447 6.328 12.656-10.283-1.582-19.775-1.582-27.685 3.955-4.747 3.164-9.493 7.91-15.03 9.493-1.582.79-11.865 1.582-10.283-.791s7.91-3.955 10.283-7.12c-7.119-2.373-11.865 3.165-17.402 7.12-3.955 1.582-5.537 4.746-7.91 7.91h252.334c-38.76-118.653-151.084-204.082-283.975-204.082-167.695 0-303.75 136.054-303.75 303.75S349.842 800.72 516.747 800.72c72.773 0 139.218-25.313 191.425-68.028z"/><path fill="#643B98" d="M379.9 447.137c-.79-.791 2.373 7.91 2.373 7.91 3.164 5.537 7.91 11.074 11.866 16.611.79 1.582 1.582 2.373 2.373 3.955v-13.447c-5.537-7.12-7.12-13.447-16.612-15.03zm287.14 254.707h-70.401V565.789q0-59.325-42.715-59.326c-13.447 0-24.522 5.537-34.014 15.82-8.701 10.283-13.447 23.73-13.447 40.342v139.219H435.27V457.42h71.192v38.76h.79c18.194-30.059 44.298-44.297 78.311-44.297 53.79 0 80.684 33.222 80.684 100.459l.791 149.502zm55.37-128.145 87.012-116.28h-62.49l-68.819 102.042c-2.373 3.955-4.746 7.91-7.119 12.656h-.79v9.492h.79c2.373 5.537 4.746 10.284 6.328 12.657l73.565 106.787h65.654c.791 0-94.13-127.354-94.13-127.354zm105.205-71.982c0-11.865 3.955-21.358 10.283-28.477 7.12-7.119 15.82-11.074 26.895-11.074s20.566 3.955 27.686 11.074c7.119 7.91 10.283 17.403 10.283 28.477 0 11.865-3.955 21.357-11.074 28.476-7.12 7.91-15.82 11.866-26.895 11.866s-19.775-3.955-26.895-11.866c-7.119-7.119-10.283-16.611-10.283-28.476M846.6 700.262v-140.01h40.341v140.01z"/></svg>