<svg xmlns="http://www.w3.org/2000/svg" viewBox="0 0 1024 1024"><path fill="#00BBF1" d="M879.6 913.9h-136v-51h-51v51h-119c-18.8 0-34-15.2-34-34v-306c0-18.8 15.2-34 34-34h119v170h221v170c0 18.8-15.2 34-34 34m-119-272v-102h119c18.8 0 34 15.2 34 34v85h-136c-9.4 0-17-7.6-17-17m119-153h-306c-18.8 0-34-15.2-34-34v-306c0-18.8 15.2-34 34-34h306c18.8 0 34 15.2 34 34v306c0 18.8-15.2 34-34 34m-68-255c0-9.4-7.6-17-17-17h-136c-9.4 0-17 7.6-17 17v136c0 9.4 7.6 17 17 17h136c9.4 0 17-7.6 17-17zm-119 34h68v68h-68zm-238 646h-306c-18.8 0-34-15.2-34-34v-306c0-18.8 15.2-34 34-34h306c18.8 0 34 15.2 34 34v306c0 18.8-15.3 34-34 34m-68-255c0-9.4-7.6-17-17-17h-136c-9.4 0-17 7.6-17 17v136c0 9.4 7.6 17 17 17h136c9.4 0 17-7.6 17-17zm-119 34h68v68h-68zm187-204h-306c-18.8 0-34-15.2-34-34v-306c0-18.8 15.2-34 34-34h306c18.8 0 34 15.2 34 34v306c0 18.8-15.3 34-34 34m-68-255c0-9.4-7.6-17-17-17h-136c-9.4 0-17 7.6-17 17v136c0 9.4 7.6 17 17 17h136c9.4 0 17-7.6 17-17zm-119 34h60v60h-60z"/><path fill="#9DFFBD" d="M148.6 913.9h306c18.8 0 34-15.2 34-34V667.4h-102v127.5c0 9.4-7.6 17-17 17h-136c-9.4 0-17-7.6-17-17V667.4h-102v212.5c0 18.8 15.2 34 34 34m391-246.5v212.5c0 18.8 15.2 34 34 34h119v-51h51v51h136c18.8 0 34-15.2 34-34v-170h-221v-42.5z"/><path fill="#9DFFBD" d="M267.6 692.9h68v68h-68z"/><path fill="#9DFFBD" d="M148.6 913.9h306c18.8 0 34-15.2 34-34V582.4h-374v297.5c0 18.8 15.2 34 34 34m68-255c0-9.4 7.6-17 17-17h136c9.4 0 17 7.6 17 17v136c0 9.4-7.6 17-17 17h-136c-9.4 0-17-7.6-17-17z"/><path fill="#9DFFBD" d="M267.6 692.9h68v68h-68zm493-110.5v59.5c0 9.4 7.6 17 17 17h136v-76.5z"/><path fill="#9DFFBD" d="M539.6 879.9c0 18.8 15.2 34 34 34h119v-51h51v51h136c18.8 0 34-15.2 34-34v-170h-221V582.4h-153z"/><path fill="#9DFFBD" d="M573.6 539.9c-18.8 0-34 15.2-34 34v306c0 18.8 15.2 34 34 34h119v-51h51v51h136c18.8 0 34-15.2 34-34v-170h-221v-170zm-459-85c0 18.8 15.2 34 34 34h306c18.8 0 34-15.2 34-34v-25.5h-374z"/><path fill="#9DFFBD" d="M913.6 658.9v-85c0-18.8-15.2-34-34-34h-119v102c0 9.4 7.6 17 17 17zm-765 255h306c18.8 0 34-15.2 34-34v-306c0-18.8-15.2-34-34-34h-306c-18.8 0-34 15.2-34 34v306c0 18.8 15.2 34 34 34m68-255c0-9.4 7.6-17 17-17h136c9.4 0 17 7.6 17 17v136c0 9.4-7.6 17-17 17h-136c-9.4 0-17-7.6-17-17z"/><path fill="#9DFFBD" d="M267.6 692.9h68v68h-68zm272-263.5v25.5c0 18.8 15.2 34 34 34h306c18.8 0 34-15.2 34-34v-25.5z"/></svg>