<svg xmlns="http://www.w3.org/2000/svg" viewBox="0 0 1024 1024"><path fill="#0788FF" d="M239.276 173.3h644.621q25.918 0 25.918 25.917V914.75q0 25.918-25.918 25.918h-644.62q-25.918 0-25.918-25.918V199.217q0-25.917 25.917-25.917" opacity=".15"/><path fill="#0788FF" d="M709.518 104.667a15.55 15.55 0 0 1 14.319 16.535v650.375a15.55 15.55 0 0 1-14.32 16.536H146.175a15.55 15.55 0 0 1-14.255-16.536V121.202a15.55 15.55 0 0 1 14.255-16.535z"/><path fill="#F8FAFD" d="M254.328 263.813h340.984q19.542 0 19.542 19.542t-19.542 19.542H254.328q-19.542 0-19.542-19.542t19.542-19.542m-.195 140.383H418.01q19.347 0 19.347 19.347v.013q0 19.348-19.347 19.348H254.133q-19.347 0-19.347-19.348v-.013q0-19.347 19.347-19.347m.195 140.019h163.488q19.541 0 19.541 19.542T417.816 583.3H254.328q-19.542 0-19.542-19.542t19.542-19.542zm231.534 82.496a178.831 178.831 0 1 0 357.662 0 178.831 178.831 0 1 0-357.662 0"/><path fill="#FCAE32" d="M752.165 601.104a7.54 7.54 0 0 0-6.09-5.183l-46.847-6.803-20.967-42.453a7.542 7.542 0 0 0-13.542 0l-20.902 42.478-46.86 6.804a7.555 7.555 0 0 0-4.172 12.959l33.9 33.032-8.008 46.651a7.555 7.555 0 0 0 10.963 7.957l41.908-22.03 41.896 22.03a7.542 7.542 0 0 0 10.95-7.957l-8.008-46.703 33.9-33.032a7.58 7.58 0 0 0 1.879-7.75"/></svg>