<svg xmlns="http://www.w3.org/2000/svg" viewBox="0 0 1024 1024"><path fill="#FCCF0A" d="M168.79 77.243h557.716q64.352 0 64.352 64.351v622.068q0 64.352-64.352 64.352H168.79q-64.352 0-64.352-64.352V141.594q0-64.351 64.352-64.351"/><path fill="#046EA7" d="M318.944 205.946H876.66q64.352 0 64.352 64.352v622.068q0 64.352-64.352 64.352H318.944q-64.351 0-64.351-64.352V270.298q0-64.352 64.351-64.352"/><path fill="#82D2F7" d="M415.472 420.452h107.253q32.176 0 32.176 32.176t-32.176 32.176H415.472q-32.176 0-32.176-32.176t32.176-32.176m0 150.155h214.506q32.176 0 32.176 32.176t-32.176 32.176H415.472q-32.176 0-32.176-32.176t32.176-32.176m0 150.154h321.76q32.175 0 32.175 32.176t-32.176 32.176H415.472q-32.176 0-32.176-32.176t32.176-32.176"/></svg>