<svg xmlns="http://www.w3.org/2000/svg" viewBox="0 0 1024 1024"><path fill="#2298E0" d="M469.965 896.102c6.656-8.857 14.131-17.203 19.763-26.624 26.01-43.366 20.02-94.003-17.664-133.222-56.166-58.42-113.1-116.122-170.547-173.312-34.15-33.997-84.122-32.82-119.501 1.229-24.73 23.808-49.152 47.872-74.803 72.857-23.245-8.499-34.202-27.648-34.355-52.53-.564-88.935-.717-177.87.05-266.753.257-32.307 21.249-53.401 52.89-54.17 39.885-.972 79.872-.255 121.908-.255-2.663 4.352-4.352 7.372-6.35 10.188-22.118 31.284-17.151 72.807 13.16 96.717 43.314 34.202 91.8 40.09 143.308 22.323 35.02-12.083 69.888-24.78 104.448-38.092 10.547-4.045 16.538-3.482 23.5 6.656 75.674 109.772 151.962 219.084 227.943 328.601 25.549 36.813 16.999 70.247-23.091 90.163-75.008 37.325-150.118 74.599-225.434 111.36-10.137 4.967-21.862 6.656-32.87 9.882-.768-1.638-1.536-3.328-2.355-5.018"/><path fill="#2298E0" d="M547.277 261.171c-51.149 23.86-100.762 46.49-149.914 70.144-29.389 14.183-56.985 9.216-83.865-5.171-18.79-10.035-21.504-26.47-6.042-41.216 19.046-18.176 38.86-36.045 60.416-50.995 42.957-29.747 86.784-58.368 131.38-85.658 55.96-34.201 110.796-21.606 164.812 7.117 50.586 26.88 101.632 52.89 152.32 79.462 22.118 11.572 45.517 13.927 70.144 13.466 46.387-.87 65.946 19.098 65.997 65.075.051 82.688.102 165.427 0 248.115-.051 45.364-19.303 64.461-64.717 64.512-23.654.052-47.309-.665-70.86.256-11.982.461-19.047-3.225-26.01-13.363-77.005-112.179-154.676-223.949-232.141-335.82-3.533-4.967-7.168-9.882-11.52-15.924M427.93 810.65c-3.943 14.13-6.452 28.876-12.135 42.29-9.677 22.99-34.355 30.465-54.528 15.924-60.723-43.776-121.139-88.115-180.94-133.12-23.86-17.971-25.447-48.18-5.428-71.424 9.267-10.803 19.303-21.043 29.696-30.822 20.173-18.944 50.33-18.176 69.99 1.69 44.545 44.8 88.884 89.855 133.428 134.706 11.161 11.213 19.558 23.501 19.917 40.756"/><path fill="#39A5E9" d="M862.515 292.864c0-15.309-.819-30.413-2.048-45.414-15.206-1.536-29.9-5.12-44.032-12.544-50.739-26.573-101.785-52.583-152.32-79.463-54.016-28.723-108.851-41.37-164.813-7.117a2777 2777 0 0 0-131.379 85.658c-21.606 14.95-41.37 32.82-60.416 50.995-15.513 14.797-12.749 31.232 6.042 41.216 26.88 14.336 54.477 19.303 83.865 5.171 49.101-23.705 98.765-46.284 149.914-70.144 4.352 6.042 8.038 10.957 11.52 15.975 71.731 103.577 143.514 207.053 214.938 310.835 56.012-84.634 88.73-186.06 88.73-295.168zM274.637 635.136c-19.712-19.814-49.818-20.634-70.042-1.69-10.393 9.728-20.377 20.02-29.696 30.823-20.019 23.245-18.432 53.453 5.427 71.424 40.96 30.822 82.228 61.184 123.648 91.392 7.834.358 15.719.614 23.655.614 33.587 0 66.406-3.225 98.253-9.165.665-2.662 1.33-5.324 2.048-7.936-.359-17.254-8.756-29.542-19.917-40.806-44.493-44.8-88.832-89.805-133.376-134.656"/><path fill="#39A5E9" d="M525.824 361.114c-7.014-10.138-12.954-10.701-23.5-6.656a3137 3137 0 0 1-104.449 38.092c-51.558 17.818-100.045 11.93-143.36-22.272-30.31-23.961-35.277-65.433-13.158-96.716 1.997-2.816 3.686-5.837 6.349-10.19-42.087 0-82.023-.716-121.908.257-31.641.768-52.633 21.811-52.89 54.17-.716 88.934-.614 177.868-.05 266.751.153 24.884 11.161 44.032 34.355 52.532 25.6-24.986 50.073-49.05 74.803-72.858 35.38-34.048 85.35-35.226 119.5-1.229 57.396 57.19 114.382 114.893 170.548 173.312 17.869 18.586 28.518 39.783 32.102 61.491 86.119-30.105 162.15-81.51 221.799-148.019-66.765-96.205-133.683-192.256-200.141-288.665"/><path fill="#55B5F3" d="M710.605 179.814c-15.514-8.09-31.079-16.128-46.541-24.37-54.016-28.724-108.851-41.37-164.813-7.118a2777 2777 0 0 0-131.379 85.658c-21.606 14.95-41.37 32.82-60.416 50.995-15.514 14.797-12.749 31.232 6.042 41.216 26.88 14.336 54.476 19.303 83.865 5.171 49.101-23.705 98.765-46.284 149.914-70.144 4.352 6.042 8.038 10.957 11.52 15.975l75.878 109.517c38.656-61.696 65.127-131.738 75.93-206.9"/><path fill="#55B5F3" d="M525.824 361.114c-7.014-10.138-12.954-10.701-23.5-6.656a3137 3137 0 0 1-104.449 38.092c-51.558 17.818-100.045 11.93-143.36-22.272-30.31-23.961-35.277-65.433-13.158-96.716 1.997-2.816 3.686-5.837 6.349-10.19-42.087 0-82.023-.716-121.908.257-31.641.768-52.633 21.811-52.89 54.17-.716 88.934-.614 177.868-.05 266.751.102 20.02 7.424 36.25 22.323 46.285 5.325.87 10.7 1.587 16.128 2.304 24.115-23.552 47.309-46.336 70.707-68.864 35.38-34.048 85.35-35.225 119.5-1.229 15.924 15.872 31.694 31.847 47.566 47.821 93.696-30.925 175.872-86.989 238.592-160.307-20.634-29.85-41.319-59.597-61.85-89.446"/><path fill="#55B5F3" d="M204.595 633.498c-1.331 1.228-2.56 2.56-3.891 3.788a539 539 0 0 0 68.506-6.81c-19.508-15.103-46.183-14.284-64.615 3.022"/><path fill="#6BC2FC" d="M288.256 390.81c-11.571-5.12-22.784-11.93-33.74-20.532-30.311-23.961-35.278-65.433-13.16-96.716 1.998-2.816 3.687-5.837 6.35-10.19-42.087 0-82.023-.716-121.908.257-31.641.768-52.633 21.811-52.89 54.17-.358 43.366-.511 86.732-.511 130.099 77.465-3.738 150.477-23.91 215.859-57.088m246.477-258.1c-11.776 3.328-23.552 8.397-35.43 15.616a2777 2777 0 0 0-131.38 85.658c-21.606 14.95-41.37 32.82-60.416 50.995-15.513 14.797-12.749 31.232 6.042 41.216 18.534 9.882 37.478 15.36 57.037 13.107A537.7 537.7 0 0 0 534.733 132.71"/></svg>