<svg xmlns="http://www.w3.org/2000/svg" viewBox="0 0 1024 1024"><path fill="#1382F0" d="M207.333 931.8c-70.1 0-127.1-55-127.1-122.8V281c0-67.7 57-122.8 127.2-122.8h619.3c71.2 0 128.2 55 128.2 122.8v527c0 68.8-57 123.8-128.2 123.8z"/><path fill="#FFF" d="M325.533 568.2h-45.7a28.2 28.2 0 0 1-27.9-27.9v-45.7a28.2 28.2 0 0 1 27.9-27.9h46.5a28.2 28.2 0 0 1 27.9 27.9v45.7c-.8 15.2-13.5 27.9-28.8 27.9m398.3 0h-46.5a28.2 28.2 0 0 1-27.9-27.9v-45.7a28.2 28.2 0 0 1 27.9-27.9h46.5a28.2 28.2 0 0 1 27.9 27.9v45.7c-.8 15.2-12.7 27.9-27.9 27.9m-199.6 0h-46.5a28.2 28.2 0 0 1-27.9-27.9v-45.7a28.2 28.2 0 0 1 27.9-27.9h46.5a28.2 28.2 0 0 1 27.9 27.9v45.7a28.2 28.2 0 0 1-27.9 27.9m-198.7 168.3h-45.7a28.2 28.2 0 0 1-27.9-27.9v-45.7a28.2 28.2 0 0 1 27.9-27.9h46.5a28.2 28.2 0 0 1 27.9 27.9v45.7c-.8 15.2-13.5 27.9-28.8 27.9m198.7 0h-46.5a28.2 28.2 0 0 1-27.9-27.9v-45.7a28.2 28.2 0 0 1 27.9-27.9h46.5a28.2 28.2 0 0 1 27.9 27.9v45.7a28.2 28.2 0 0 1-27.9 27.9m199.6 0h-46.5a28.2 28.2 0 0 1-27.9-27.9v-45.7a28.2 28.2 0 0 1 27.9-27.9h46.5a28.2 28.2 0 0 1 27.9 27.9v45.7c-.8 15.2-12.7 27.9-27.9 27.9"/><path fill="#DBC346" d="M78.633 400.7h877.8v-153c0-61.3-49.7-111-111-111h-655.8c-61.3 0-111 49.7-111 111z"/><path fill="#61A68B" d="M78.633 400.7h877.8V361h-877.8zm268.9-171.7a43.3 43.3 0 0 1-43.1-43.1v-48.2c-.8-23.7 18.6-43.1 43.1-43.1a43.3 43.3 0 0 1 43.1 43.1V185c0 24.5-19.5 44-43.1 44m340 0a43.3 43.3 0 0 1-43.1-43.1v-48.2c-.9-23.7 18.6-43.1 43.1-43.1a43.3 43.3 0 0 1 43.1 43.1V185c0 24.5-19.5 44-43.1 44"/><path fill="#85B1B8" d="M509.933 546.2c-3.4 0-7.6-1.7-10.1-4.2l-31.3-31.3c-5.9-5.9-5.9-14.4 0-20.3s14.4-5.9 20.3 0l21.1 21.1 82.9-82.9c5.9-5.9 14.4-5.9 20.3 0s5.9 14.4 0 20.3l-93 93c-2.5 3.4-5.9 4.2-10.1 4.2"/></svg>