<svg xmlns="http://www.w3.org/2000/svg" viewBox="0 0 1024 1024"><path fill="#ED1C24" d="M561.8 139.4c0 30.5 18.3 58.1 46.5 69.8s60.7 5.3 82.3-16.3 28.1-54.1 16.4-82.3C695.4 82.4 667.9 64 637.3 64c-41.6 0-75.4 33.7-75.5 75.4m303.2 360c-41.5-11.3-78.5-35-106.2-67.9-15.5-19.5-27.4-67.9-35.3-145.1 0-1.1-.3-2.2-.7-3.3-9.2-17.8-26.1-30.3-45.8-34-30.2-4.7-60.9-4.7-91 0-1.1.3-2.2.7-3.3 1.1h-1.2q-3 1.2-5.7 2.7c-16 8.5-58.2 37.5-108.9 127.2-26 50.6-41.4 105.9-45.4 162.7v9.8c2.5 11 12.3 18.7 23.5 18.7 9.4-.1 18-5.6 22-14.2 12.6-35.2 41.3-111.3 49.9-134.1 1.6-4.4 4.2-8.5 7.5-11.9 13.4-13.7 28.1-26.1 44-36.9v256.1c.2.5.2 1.1 0 1.6-10.5 45.1-26.9 88.5-48.8 129.2-19.4 36.9-56.7 84.3-98.9 146.3-3.5 6.1-5.3 13.1-5.4 20.1 1.3 7.9 4.8 15.3 10.1 21.3 7.1 7.6 17.2 11.6 27.6 11 8 .1 15.8-3 21.7-8.5.7 0 1-1 1.6-1.6 42.2-36.3 73.5-86.4 100.6-131.9 27-46.1 51.1-93.8 72.2-142.9.9-1.9 2.6-3.2 4.6-3.6s4.1.2 5.6 1.7c55 51.9 88.3 94.1 99.9 126.7 12.4 38.8 20.1 79 23.1 119.7.5 14.3 11.3 26.2 25.5 28.1H822c16.4-1.5 29.3-14.6 30.7-31-1.3-99.6-14.1-167.3-32.2-204.5q-28.65-60.3-127.2-156.3c-1.7-1.5-2.6-3.7-2.3-5.9 4.6-58 8.6-84.4 11.5-79.8 42.2 67.6 113.4 80.4 153.9 82.8 13 .8 24.6-8 27.4-20.8v-1c2.9-13.7-5.3-27.5-18.8-31.6m0 0"/><path fill="#ED1C24" d="M231.4 728.3h178.2q33 0 33 33c0 33-11 33-33 33H231.4q-33 0-33-33 .15-33 33-33m-58.8 116.4h178.2q33 0 33 33c0 33-11 33-33 33H172.6q-33 0-33-33c.1-22.1 11.1-33 33-33m0 0"/></svg>