<svg xmlns="http://www.w3.org/2000/svg" viewBox="0 0 1024 1024"><path fill="#3D7EFF" d="M564.5 341.375c0-9.375-7.5-18.75-16.875-18.75h-71.25c-9.375 0-16.875 7.5-16.875 18.75V354.5h106.875v-13.125zm-183.75 360h262.5v-311.25h-262.5zm168.75-221.25c0-9.375 7.5-18.75 16.875-18.75s16.875 7.5 16.875 18.75V632c0 9.375-7.5 18.75-16.875 18.75S549.5 643.25 549.5 632zm-110.625 0c0-9.375 7.5-18.75 16.875-18.75s16.875 7.5 16.875 18.75V632c0 9.375-7.5 18.75-16.875 18.75s-16.875-7.5-16.875-18.75z"/><path fill="#3D7EFF" d="M512 62C262.625 62 62 262.625 62 512s200.625 450 450 450 450-200.625 450-450S761.375 62 512 62m189.375 328.125h-22.5v311.25c0 20.625-15 35.625-35.625 35.625h-262.5c-18.75 0-35.625-16.875-35.625-35.625v-311.25h-22.5c-9.375 0-16.875-7.5-16.875-18.75 0-9.375 7.5-18.75 16.875-18.75H422V339.5c0-30 24.375-54.375 52.5-54.375h71.25c30 0 52.5 24.375 52.5 54.375v13.125h99.375c9.375 0 16.875 7.5 16.875 18.75 3.75 9.375-3.75 18.75-13.125 18.75"/></svg>