<svg xmlns="http://www.w3.org/2000/svg" viewBox="0 0 1024 1024"><path fill="#3A78E8" d="M248.88 104.8h549.36c40.48 0 73.04 51.92 73.04 116.4l-36.56 453.6c0 26.16-114.72-36.24-143.2 6.08-41.76 62.08-5.2 227.76-29.2 227.76l-413.44 12.72c-40.48 0-73.04-51.92-73.04-116.4V221.2c0-64.48 32.56-116.4 73.04-116.4m0 0"/><path fill="#BDE0FF" d="M319.6 337.2c-15.52 0-28.16-12.24-28.64-28.16v-.48c0-16 12.64-28.64 28.64-28.64h400.56c15.52 0 28.16 12.24 28.64 28.16v.48c0 16-12.64 28.64-28.64 28.64zm0 200c-15.52 1.44-29.6-10.32-30.96-25.84-1.44-15.52 10.32-29.6 25.84-30.96h405.68A28.545 28.545 0 0 1 746 511.36a29.11 29.11 0 0 1-25.84 25.84zm0 200.48c-15.52 1.44-29.6-10.32-30.96-25.84-1.44-15.52 10.32-29.6 25.84-30.96h119.76a28.545 28.545 0 0 1 25.84 30.96 29.11 29.11 0 0 1-25.84 25.84zm0 0"/><path fill="#3A78E8" d="M784.48 768.72c11.76-10.32 30.08-8.88 40.4 2.8 10.32 11.76 8.88 30.08-2.8 40.4L684.88 931.2c-5.2 4.72-11.76 7.04-18.8 7.04H236.96c-49.28-.48-88.72-40.88-88.24-90.16v-677.6c-.48-49.28 38.96-89.68 88.24-90.16h566.72c49.28.48 88.72 40.88 88.24 90.16V674.8c0 15.52-12.24 28.16-28.16 28.64h-.48c-16 0-28.64-12.64-28.64-28.64V170.48c.48-17.84-13.6-32.4-30.96-32.88h-567.2c-17.84.48-31.44 15.52-30.96 32.88v677.6a31.984 31.984 0 0 0 30.96 32.88h418.4zm0 0"/><path fill="#3A78E8" d="M688.56 906.08a28.544 28.544 0 0 1-30.96 25.84 29.11 29.11 0 0 1-25.84-25.84V739.84c-.48-49.28 38.96-89.68 88.24-90.16h140.88c15.52-1.44 29.6 10.32 30.96 25.84 1.44 15.52-10.32 29.6-25.84 30.96H720c-17.84.48-31.44 15.52-30.96 32.88zm0 0"/></svg>