<svg xmlns="http://www.w3.org/2000/svg" viewBox="0 0 1024 1024"><path fill="#092b59" d="M314.246 116.492h395.508c108.765 0 197.754 88.99 197.754 197.754v395.508c0 108.765-88.99 197.754-197.754 197.754H314.246c-108.765 0-197.754-88.99-197.754-197.754V314.246c0-108.765 88.99-197.754 197.754-197.754"/><path fill="#FFF" d="M793 377c-24 30-48 57-69 84-57 60-75 66-87 66h-3c-15-3-30-12-42-21l-21 24 177 180c6 9 12 21 12 33s-6 24-15 30-21 12-30 12-21-3-30-12c-6-6-105-120-162-186L352 773c-9 9-21 12-33 12s-21 0-33-12c-9-6-15-18-15-30-3-15 3-30 12-39 12-12 150-147 183-177l-12-15c-9 3-72-3-90-21-12-12-96-138-96-192 0-15 6-39 30-39 15 0 30 12 51 33 12 12 147 150 177 183l18-21c-12-9-18-21-24-33-3-15 0-30 6-42l3-6c39-48 78-93 126-129 9-6 15-6 24-6 6 3 15 6 15 15 3 6 3 15 0 21-6 6-93 99-102 111-3 3-12 12-6 18s12-3 15-6c6-6 93-96 102-102 3-3 9-6 15-6 12 0 18 6 21 15 3 6 3 15-3 21-6 9-96 108-102 114-3 3-6 6-3 12 6 6 9 0 15-6s93-96 102-105c3-3 9-6 15-6 12 0 24 6 30 18 6 15 6 21 0 24"/></svg>