<svg xmlns="http://www.w3.org/2000/svg" viewBox="0 0 1024 1024"><path fill="#00CF71" d="M998.4 281.6H424.96c-17.92 0-35.84 15.36-38.4 33.28l-81.92 394.24c-2.56 17.92 7.68 33.28 25.6 33.28h573.44c17.92 0 35.84-15.36 38.4-33.28L1024 314.88c2.56-17.92-7.68-33.28-25.6-33.28m-69.12 133.12L675.84 537.6c-10.24 5.12-23.04 5.12-33.28 0l-204.8-122.88c-15.36-7.68-17.92-30.72-5.12-46.08 7.68-10.24 20.48-17.92 33.28-17.92 5.12 0 10.24 2.56 15.36 5.12l189.44 112.64 235.52-112.64c5.12-2.56 10.24-5.12 17.92-5.12 12.8 0 23.04 7.68 25.6 17.92 7.68 15.36-2.56 35.84-20.48 46.08M89.6 368.64h245.76c12.8 0 23.04-10.24 23.04-23.04s-10.24-23.04-23.04-23.04H89.6c-12.8 0-23.04 10.24-23.04 23.04s10.24 23.04 23.04 23.04m181.76 166.4H25.6c-12.8 0-23.04 10.24-23.04 23.04s10.24 23.04 23.04 23.04h245.76c12.8 0 23.04-10.24 23.04-23.04s-10.24-23.04-23.04-23.04m56.32-84.48c0-12.8-10.24-23.04-23.04-23.04H156.16c-12.8 0-23.04 10.24-23.04 23.04s10.24 23.04 23.04 23.04h148.48c12.8 0 23.04-10.24 23.04-23.04M238.08 640h-79.36c-12.8 0-23.04 10.24-23.04 23.04s10.24 23.04 23.04 23.04h79.36c12.8 0 23.04-10.24 23.04-23.04 0-10.24-10.24-23.04-23.04-23.04"/></svg>