<svg xmlns="http://www.w3.org/2000/svg" viewBox="0 0 1024 1024"><path fill="#F9D7DF" d="M862.04 192.261c-4.701-5.224-9.403-10.971-14.105-15.673-76.8-76.8-198.008-81.502-280.555-14.106-5.225 4.702-10.972 9.404-15.674 14.106L349.518 377.73 176.065 551.184c-39.183 39.183-61.126 91.95-61.126 148.375 0 55.902 21.943 108.67 61.126 148.376 40.751 40.75 94.564 61.126 148.376 61.126s107.102-20.375 148.375-61.126L646.27 674.482l201.666-201.666c40.75-40.75 61.126-94.563 61.126-148.375 0-47.02-15.673-94.041-47.02-132.18z"/><path fill="#E5404F" d="M646.27 673.96 349.517 377.73l201.666-201.665c81.502-81.502 214.726-81.502 296.228 0s81.502 214.727 0 296.229L646.27 673.959z"/><path fill="#FFEEF0" d="M645.747 334.89c-5.225 0-9.927-2.09-14.106-5.747l-75.755-75.755a19.866 19.866 0 0 1 0-28.212 19.866 19.866 0 0 1 28.212 0l75.755 75.755a19.866 19.866 0 0 1 0 28.212c-3.657 4.18-8.882 5.747-14.106 5.747m-75.755 76.277c-5.225 0-9.927-2.09-14.106-5.747l-75.755-75.755a19.866 19.866 0 0 1 0-28.212 19.866 19.866 0 0 1 28.212 0l75.755 75.755a19.866 19.866 0 0 1 0 28.212c-4.18 3.658-9.404 5.747-14.106 5.747"/></svg>