<svg xmlns="http://www.w3.org/2000/svg" viewBox="0 0 1024 1024"><path fill="#0F5197" d="M851.23 717.795a270 270 0 0 1-34.596 15.485 336.9 336.9 0 0 1-118.284 21.417c-155.846 0-291.592-107.082-291.592-244.806a103.39 103.39 0 0 1 54.035-89.949c-141.019 5.931-177.262 152.88-177.262 238.875 0 243.488 224.378 268.199 272.812 268.199 26.029 0 65.237-7.578 88.96-15.156l4.283-1.318a421.74 421.74 0 0 0 219.435-173.967 13.18 13.18 0 0 0-3.953-18.121 13.87 13.87 0 0 0-13.839-.66z"/><path fill="#0C88DA" d="M438.388 885.501a261.9 261.9 0 0 1-74.793-70.18 265.925 265.925 0 0 1 97.198-395.379 109.16 109.16 0 0 1 51.07-13.179 107.38 107.38 0 0 1 84.676 42.833 106.13 106.13 0 0 1 21.087 61.613c0-.659 80.724-262.268-263.586-262.268-144.642 0-263.586 137.394-263.586 257.655a429.7 429.7 0 0 0 39.868 184.51 421.97 421.97 0 0 0 515.31 221.083 249.68 249.68 0 0 1-207.244-26.688"/><path fill="#2CC3D5" d="M591.927 580.73c-2.636 3.295-10.873 8.237-10.873 18.78 0 8.567 5.601 16.804 15.485 23.723 47.446 32.948 136.736 28.665 137.065 28.665a196.87 196.87 0 0 0 99.833-27.347A201.97 201.97 0 0 0 933.6 450.255c.988-73.804-26.359-122.897-37.232-144.643a363 363 0 0 0-68.993-93.804 406.8 406.8 0 0 0-117.56-79.998 480 480 0 0 0-197.952-41.68A421.74 421.74 0 0 0 90.125 505.938c1.647-120.26 121.25-217.458 263.586-217.458 11.532 0 77.428.988 138.383 33.278 53.705 28.335 82.04 62.272 101.48 96.209 20.428 35.254 24.052 79.405 24.052 97.197s-8.896 43.821-25.7 65.567z"/><path fill="#49D668" d="M625.336 102.585s307.045 317.357-39.999 488.82c0 0-22.438 37.265 84.743 56.54 0 0 177.558 38.582 249.22-117.428 14.432-48.928 27.282-124.742-10.872-209.123a352.6 352.6 0 0 0-63.426-93.672 450.2 450.2 0 0 0-93.177-78.021c-56.408-28.83-126.489-47.116-126.489-47.116"/></svg>