<svg xmlns="http://www.w3.org/2000/svg" viewBox="0 0 1024 1024"><path fill="#536DFE" d="M1023.962 511.98a510.2 510.2 0 0 1-41.231 201.612l-1.697 3.908a512.83 512.83 0 0 1-557.892 298.782q-4.613-.818-9.21-1.696a507.4 507.4 0 0 1-92.61-27.311q-7.294-2.931-14.482-6.074a403 403 0 0 1-9.785-4.408A512.61 512.61 0 0 1 0 511.981C0 229.225 229.225 0 511.98 0s511.982 229.225 511.982 511.98"/><path d="M423.142 1016.282q-4.613-.818-9.21-1.696c-2-58.03-8.861-177.134-32.264-301.872-12.8-68.27-30.567-138.25-55.212-200.809a625 625 0 0 0-28.886-63.376c-24.902-47.033-55.106-86.628-91.732-113.454l5.392-7.362q45.692 33.491 82.129 94.035 10.929 18.131 20.994 38.686 10.793 21.994 20.586 46.7 6.248 15.723 12.072 32.536 25.357 73.003 43.11 166.591 3.93 20.676 7.482 42.367c18.344 112.045 23.872 215.638 25.539 267.654M306.84 981.201a403 403 0 0 1-9.785-4.408c-3.166-34.385-8.982-77.04-19.616-117.528a385.6 385.6 0 0 0-17.889-53.32c-12.133-28.4-27.84-52.545-48.153-67.435l5.392-7.347c21.267 15.572 37.672 40.186 50.35 68.981 14.284 32.446 23.812 70.208 30.158 106.29 4.711 26.795 7.68 52.682 9.543 74.767M109.323 289.287a45.577 45.577 0 1 0 91.154 0 45.577 45.577 0 1 0-91.154 0m14.676 392.331a45.577 45.577 0 1 0 91.154 0 45.577 45.577 0 1 0-91.154 0" opacity=".2"/><path d="M335.838 365.84c-9.664 54.528 11.671 103.901 11.671 103.901s37.005-39.033 46.67-93.56-11.67-103.898-11.67-103.898-37.005 39.032-46.67 93.558zM184.371 495.276c52.008 19.017 104.268 6.813 104.268 6.813s-32.06-43.038-84.068-62.056-104.27-6.813-104.27-6.813 32.061 43.038 84.068 62.056zm-8.82 347.423c36.453 13.33 73.135 4.635 73.135 4.635s-22.42-30.308-58.873-43.64-73.136-4.632-73.136-4.632 22.42 30.307 58.873 43.637z" opacity=".2"/><path fill="#D0CDE1" d="M311.333 425.76a199.597 199.597 0 1 0 399.194 0 199.597 199.597 0 1 0-399.194 0"/><path fill="#D0CDE1" d="M432.962 578.576s24.95 118.512 24.95 130.986 118.51 68.611 118.51 68.611l106.036-18.711 37.425-112.273s-62.374-93.562-62.374-130.986z"/><path fill="#2F2E41" d="m982.73 713.592-1.696 3.908a512.83 512.83 0 0 1-557.892 298.782q-4.613-.818-9.21-1.696a507.4 507.4 0 0 1-92.61-27.311q-7.294-2.931-14.482-6.074a403 403 0 0 1-9.785-4.408 511.4 511.4 0 0 1-83.69-48.896l-23.66-68.632 13.3-10.15 27.356-20.887 29.19-22.282 7.588-5.802 114.53-87.43 8.451-6.453 59.53-45.442.015-.015s64.376 104.895 157.941 73.707 91.52-120.619 91.52-120.619zm-644.89-448.64s63.371-137.305 184.833-105.62 190.115 79.215 195.395 126.744-2.641 118.82-2.641 118.82-13.203-97.697-97.698-76.572-216.518 5.28-216.518 5.28L380.087 523.72s-23.763-34.327-50.168-13.203-76.575-203.317 7.922-245.564z"/><path fill="#2F2E41" d="M321.321 987.275q-7.293-2.931-14.48-6.074a403 403 0 0 1-9.786-4.408 513.3 513.3 0 0 1-132.676-88.915c13.92-18.965 25.327-28.613 25.327-28.613h93.565l14.026 47.168zm579.447-283.953 80.266 14.178a511.9 511.9 0 0 1-85.976 134.16z"/></svg>