<svg xmlns="http://www.w3.org/2000/svg" viewBox="0 0 1024 1024"><path fill="#E88C1B" d="M470.1 886.2H125.8c-5.2 0-9.4-4.2-9.4-9.4V532.4c0-5.2 4.2-9.4 9.4-9.4h344.3c5.2 0 9.4 4.2 9.4 9.4v344.3c.1 5.2-4.2 9.5-9.4 9.5"/><path fill="#FADE2F" d="M398.8 809.6V599.5c0-42.3-34.3-76.5-76.5-76.5H192.9c-42.3 0-76.5 34.3-76.5 76.5v210.1c0 42.3 34.3 76.5 76.5 76.5h129.4c42.2.1 76.5-34.2 76.5-76.5"/><path fill="#FBC831" d="M398.8 680.7v-81.2c0-42.3-34.3-76.5-76.5-76.5H192.9c-42.3 0-76.5 34.3-76.5 76.5v81.2z"/><path fill="#FFF3E1" d="M323.1 751.6h-51.5l-6.3 24.9c-2.2 8.9-10.2 15.1-19.3 15.1-13.4 0-23-13-19-25.8l38.6-124.3c4.4-14.2 17.6-23.9 32.4-23.9 14.9 0 28 9.7 32.4 23.9l38.3 123.4c4.1 13.2-5.8 26.7-19.6 26.7-9.4 0-17.7-6.4-20-15.6zm-7.9-32.3-3.7-14.7c-3.1-11.6-8.7-32.7-12-45.4-.7-2.7-4.5-2.6-5.2.1-3.5 15.3-7.3 31.3-10.9 45.3l-3.7 14.7z"/><path fill="#263FEC" d="M896.1 886.2H551.8c-5.2 0-9.4-4.2-9.4-9.4V532.4c0-5.2 4.2-9.4 9.4-9.4h344.3c5.2 0 9.4 4.2 9.4 9.4v344.3c0 5.2-4.2 9.5-9.4 9.5"/><path fill="#3FABFB" d="M824.7 809.6V599.5c0-42.3-34.3-76.5-76.5-76.5H618.9c-42.3 0-76.5 34.3-76.5 76.5v210.1c0 42.3 34.3 76.5 76.5 76.5h129.4c42.2.1 76.4-34.2 76.4-76.5"/><path fill="#2784FA" d="M824.7 680.7v-81.2c0-42.3-34.3-76.5-76.5-76.5H618.9c-42.3 0-76.5 34.3-76.5 76.5v81.2z"/><path fill="#C0E3F4" d="M661.8 649.3c0-14.1 11.4-25.6 25.6-25.6h30.9c33.4 0 60.2 8.9 60.2 40 0 14.3-8 30-21.1 35v.9c16.3 4.4 28.7 16.5 28.7 38 0 33-28 47.8-63.2 47.8h-35.5c-14.1 0-25.6-11.4-25.6-25.6zm55 38.6c16.5 0 23.9-7.2 23.9-18.3 0-11.5-7.6-16.3-23.9-16.3h-16.1v34.5h16.1zm3.2 67.7c18.7 0 28.2-6.7 28.2-20.6 0-13.2-9.3-18.5-28.2-18.5h-19.3v39.1z"/><path fill="#E74B26" d="M683.1 491.2H338.8c-5.2 0-9.4-4.2-9.4-9.4V137.4c0-5.2 4.2-9.4 9.4-9.4h344.3c5.2 0 9.4 4.2 9.4 9.4v344.3c.1 5.2-4.2 9.5-9.4 9.5"/><path fill="#FB6F22" d="M611.8 414.6V204.5c0-42.3-34.3-76.5-76.5-76.5H405.9c-42.3 0-76.5 34.3-76.5 76.5v210.1c0 42.3 34.3 76.5 76.5 76.5h129.4c42.2.1 76.5-34.2 76.5-76.5"/><path fill="#FE5E21" d="M611.8 285.7v-81.2c0-42.3-34.3-76.5-76.5-76.5H405.9c-42.3 0-76.5 34.3-76.5 76.5v81.2z"/><path fill="#FFF3E1" d="M451.8 310.4c0-51.9 34.8-81.6 74.3-81.6 13.2 0 24.7 4 34.1 9.7 7.7 4.7 9.4 15.2 3.6 22.2l-1.1 1.3c-4.8 5.8-12.9 6.8-19.4 3.1-4.9-2.7-10.3-4.4-16.6-4.4-20.1 0-36.6 18-36.6 48.4 0 31 14.2 49 36.2 49 7.7 0 14.5-2.4 20.3-6.2 6.1-3.9 14.2-2.3 18.9 3.3l1.1 1.3c5.6 6.6 4.3 16.6-2.7 21.7-11.2 8.1-24.4 12.1-39.1 12.1-39.5.1-73-27.1-73-79.9"/></svg>