<svg xmlns="http://www.w3.org/2000/svg" viewBox="0 0 1024 1024"><path fill="#594d9c" d="M475.507 655.348c-2.371-.677-5.42-3.556-8.975-10.33-4.234-6.096-7.282-15.749-10.33-28.45s-1.186-28.449 4.91-45.891c23.54-25.401 43.522-56.222 59.101-92.46 15.749-36.24 23.539-72.48 23.539-109.226 0-55.545-16.257-99.065-48.263-131.071-32.005-31.159-71.293-46.738-117.185-46.738-45.214 0-83.993 15.748-114.644 47.077s-46.57 74.849-46.57 131.07c0 36.917 7.283 73.664 22.354 109.903s33.868 67.06 56.73 92.461c6.096 15.749 7.79 29.635 4.233 42.336-3.556 12.7-7.282 22.353-12.023 28.957-4.911 7.282-8.975 10.838-12.023 12.023-32.683 12.701-62.826 27.095-91.106 42.844-28.45 15.749-53.174 34.376-73.664 54.867-20.49 21.167-31.329 40.98-31.329 60.963v22.353c0 68.753 99.574 103.299 299.567 103.299 198.13 0 297.703-34.377 297.703-103.299v-22.353c0-20.49-10.33-40.98-31.328-62.149-20.49-21.167-45.892-39.795-74.85-54.867-29.465-15.24-61.47-29.126-95.847-41.319"/><path fill="#594d9c" d="M753.905 501.416c-19.305-7.282-23.538-26.587-13.209-59.1 20.49-22.861 38.102-51.988 50.803-85.687 13.209-33.869 19.982-68.753 19.982-103.807 0-52.496-13.886-94.154-42.335-123.789s-63.334-44.029-106.347-44.029c-30.143 0-57.407 7.79-81.453 24.216-24.216 15.749-41.659 38.61-52.496 68.245 54.358 46.569 81.453 110.58 81.453 192.034 0 42.843-8.467 84.501-24.724 124.974s-36.916 76.035-60.963 106.347c19.982 7.79 39.795 16.934 58.592 26.587s38.61 21.167 60.455 35.053c21.168 13.886 40.473 29.635 56.73 47.755s28.45 36.916 35.562 56.73c138.86-7.282 208.29-39.288 208.29-94.832v-21.676c0-18.797-9.652-38.102-29.634-57.915-19.983-19.982-43.521-37.424-70.616-51.988-28.619-14.902-58.084-28.28-90.09-39.118"/></svg>