<svg xmlns="http://www.w3.org/2000/svg" viewBox="0 0 1024 1024"><path fill="#0E4DDB" d="M333.992 116.492h412.704q103.176 0 103.176 103.176v584.664q0 103.176-103.176 103.176H333.992q-103.176 0-103.176-103.176V219.668q0-103.176 103.176-103.176"/><path fill="#0E44A5" d="M460.774 313.492a23.745 23.745 0 0 0-40.367 17.097V464.51H238.521v94.98h181.886v131.072a23.745 23.745 0 0 0 40.842 16.621l179.986-184.735a23.745 23.745 0 0 0 0-33.718z"/><path fill="#3395FF" d="M444.152 666.817a23.745 23.745 0 0 0 40.841 16.621L665.93 498.703a23.745 23.745 0 0 0 0-33.718L484.519 289.747a23.745 23.745 0 0 0-40.367 17.097v133.921h-300.61a47.49 47.49 0 0 0 0 94.98h300.61z"/></svg>