<svg xmlns="http://www.w3.org/2000/svg" viewBox="0 0 1024 1024"><path fill="#FFF" d="M512 90.125c233.002 0 421.875 188.873 421.875 421.875S745.002 933.875 512 933.875 90.125 745.002 90.125 512 278.998 90.125 512 90.125m0 28.125c-217.462 0-393.75 176.288-393.75 393.75S294.537 905.75 512 905.75 905.75 729.463 905.75 512 729.462 118.25 512 118.25"/><path fill="#E41630" d="M512 118.25c-217.462 0-393.75 176.288-393.75 393.75S294.537 905.75 512 905.75 905.75 729.463 905.75 512 729.462 118.25 512 118.25"/><path fill="#FFF" d="M711.336 711.448a87.2 87.2 0 0 1-65.18 25.482 86.9 86.9 0 0 1-62.915-30.572L466.508 569.586a144 144 0 0 1-36.042 4.542 142.54 142.54 0 0 1-101.363-41.948c-40.88-40.613-53.325-102.333-31.444-155.953a16.73 16.73 0 0 1 12.08-10.083 16.46 16.46 0 0 1 14.99 4.5l47.982 47.883a32.653 32.653 0 0 0 46.097 0 32.03 32.03 0 0 0 9.351-22.641c0-8.536-3.375-16.692-9.351-22.669l-47.981-47.925a17.04 17.04 0 0 1-4.599-15.328c1.111-5.583 4.908-10.21 10.097-12.333a143.42 143.42 0 0 1 155.545 31.36 143.58 143.58 0 0 1 37.617 137.39L706.245 582.82a87.3 87.3 0 0 1 30.685 63.169 87.5 87.5 0 0 1-25.566 65.46h-.028zm-202.88-203.315a108.9 108.9 0 0 0 32.147-77.54c0-29.279-11.419-56.813-32.147-77.556a110.2 110.2 0 0 0-93.614-31.162l27.338 27.281a66.07 66.07 0 0 1 19.293 46.73c0 17.578-6.946 34.41-19.293 46.73a65.8 65.8 0 0 1-92.883 0l-27.858-27.844a109.32 109.32 0 0 0 31.036 93.375c43.031 42.905 113.006 42.905 155.981 0zm99.985 176.119a53.5 53.5 0 0 0 39.051 18.928 53.6 53.6 0 0 0 40.472-15.764 52.95 52.95 0 0 0 15.694-40.008 53.07 53.07 0 0 0-18.872-38.714L556.423 499.4a144.77 144.77 0 0 1-56.967 57.122zm57.557-61.777c5.794 5.737 9.043 13.612 9.043 21.81 0 8.213-3.249 16.074-9.043 21.826a30.516 30.516 0 0 1-43.059 0 30.76 30.76 0 0 1-9.028-21.797c0-8.212 3.248-16.073 9.028-21.825a30.516 30.516 0 0 1 43.06 0z"/></svg>