<svg xmlns="http://www.w3.org/2000/svg" viewBox="0 0 1024 1024"><path fill="#707070" d="M711.051 924.497h-370.79c-117.046 0-210.865-80.647-210.865-186.268A199.12 199.12 0 0 1 302.519 548.33a213.393 213.393 0 0 1 420.414-10.753 135.78 135.78 0 0 0 101.75-125.03c0-72.583-68.093-132.8-153.58-132.8H417.066v39.894a32.26 32.26 0 0 1-32.555 32.098H156.386a32.26 32.26 0 0 1-32.636-32.098V191.87a32.26 32.26 0 0 1 32.636-31.99L384.51 32v53.066L250.931 159.88H384.51a32.26 32.26 0 0 1 32.582 31.963v31.022h253.985c116.213 0 211.592 84.223 211.592 189.683A194.55 194.55 0 0 1 725.11 595.994a213.258 213.258 0 0 1-421.813 10.269A140.92 140.92 0 0 0 187.38 738.336c0 72.583 66.319 129.466 152.854 129.466h371.38a94.841 94.841 0 1 1-.537 56.91zm-330.305-348.1a19.167 19.167 0 0 0 19.329 18.979h154.574v52.77a.8.8 0 0 0 .43.699.81.81 0 0 0 .833 0l94.842-74.33a.73.73 0 0 0 .295-.592.75.75 0 0 0-.295-.591l-94.788-73.577a.81.81 0 0 0-.833 0 .75.75 0 0 0-.43.672v56.964H400.102a19.167 19.167 0 0 0-19.356 19.006"/></svg>