<svg xmlns="http://www.w3.org/2000/svg" viewBox="0 0 1024 1024"><path fill="#00BCD4" d="M611.5 120.783c-13.9 0-25.1 11-25.1 24.5v602.8c0 13.5 11.2 24.5 25.1 24.5 13.8 0 25-11 25-24.5v-602.9c.1-13.4-11.1-24.4-25-24.4m68.2 13.9c-6.1 0-11 4.8-11 10.7v602.4c0 5.9 4.9 10.8 11 10.8 6 0 10.9-4.8 10.9-10.8v-602.4c0-5.9-4.9-10.7-10.9-10.7m58.4 0c-6 0-10.9 4.8-10.9 10.7v602.4c0 5.9 4.9 10.8 10.9 10.8 6.1 0 11-4.8 11-10.8v-602.4c0-5.9-4.9-10.7-11-10.7m66.5-13.9c-13.8 0-25.1 11-25.1 24.5v602.8c0 13.5 11.2 24.5 25.1 24.5s25.1-11 25.1-24.5v-602.9c0-13.4-11.2-24.4-25.1-24.4m-309.5.6-93.5-.1c-24.7 0-44.7 19.5-44.8 43.8l-.3 561.7c0 24.1 20 43.8 44.7 43.8h93.4c24.8 0 44.8-19.6 44.8-43.7l.3-561.7c.2-24.1-19.9-43.8-44.6-43.8m-226.9 0-93.4-.1c-24.7 0-44.8 19.5-44.8 43.8l-.2 561.7c-.1 24.1 20 43.8 44.7 43.8h93.4c24.8 0 44.8-19.6 44.9-43.7l.2-561.7c-.1-24.1-20.1-43.8-44.8-43.8"/><path fill="#FFF" d="m486.1 331.583-75.9-.1c-8.6 0-15.7-6.9-15.7-15.3 0-8.5 7.1-15.3 15.7-15.3l75.9.1c8.6 0 15.7 6.9 15.7 15.3s-7 15.3-15.7 15.3m.1-65.4h-75.9c-8.6 0-15.7-6.9-15.7-15.3 0-8.5 7.1-15.3 15.7-15.3h75.9c8.6 0 15.7 6.9 15.7 15.3-.1 8.4-7.1 15.3-15.7 15.3m-226.9 65.4-75.9-.1c-8.6 0-15.7-6.9-15.7-15.3 0-8.5 7.1-15.3 15.7-15.3l75.9.1c8.6 0 15.6 6.9 15.6 15.3.1 8.4-6.9 15.3-15.6 15.3m0-65.4h-75.8c-8.6 0-15.7-6.9-15.7-15.3 0-8.5 7-15.3 15.7-15.3h75.8c8.6 0 15.7 6.9 15.7 15.3s-7 15.3-15.7 15.3"/><path fill="#1976D2" d="m893.7 866.583-124.4 70.3c-21.1 11.9-45.1 11.9-66.2 0l-124.5-70.3c-21.1-11.9-33.1-32.3-33.1-56.1v-140.7c0-23.9 12-44.2 33.1-56.1l124.4-70.4c21.1-11.9 45.1-11.9 66.2 0l124.5 70.3c21.1 11.9 33.1 32.3 33.1 56.1v140.7c0 24-12 44.3-33.1 56.2"/><path fill="#FFF" d="M837.9 795.183c-1.1-8-5.1-11.9-11.9-11.8-6.9.1-10.8 4.1-11.7 11.8.1 5.2-.4 9.5-1.6 13.1s-4.1 5.5-8.6 5.6h-37.5c-4.3-.4-6.7-2.7-6.9-6.9v-32.2h44.4c8.3.3 12.3-3.8 12.2-12.2v-53.7c.1-8.1-3.9-12.2-12.2-12.2h-22.4q9.9-11.85 17.1-26.1c3.8-9.5.7-14.8-9.4-15.9h-67.6c.7-5.8-1.4-10.3-6.2-13.3-4.8-3.1-9.7-2-14.6 3.2-16.3 20.8-34.6 37.6-55 50.5-5.6 4.9-6.7 10.2-3.4 15.9s8.1 7.3 14.4 4.9c2.2-.8 3.5-1.6 4.1-2.4v49.1c-.4 8.4 3.7 12.5 12.2 12.2h40.3c-10.5 21.2-32 35.5-64.7 43-6.8 2.7-9.5 7.4-8 13.9 1.4 6.6 6 9.7 13.7 9.3 16.2-3.3 31.6-9.4 46.3-18.4s26.3-22.8 34.7-41.2v36c.1 13.4 7.9 20.4 23.2 20.8H806q14.25.45 22.8-8.4c8.55-8.85 8.7-16.9 9-32.9z"/><path fill="#1976D2" d="M744.7 729.583v-9.8h41.5c4.1-.1 6.1 1.8 6.1 5.7v20.8c0 4.2-2 6.1-6.1 5.7h-42.8c.9-5.4 1.3-12.9 1.3-22.4m6.9-33c4.8-6 8.7-11.5 11.8-16.7 1.8-2.3.7-3.3-3.3-2.8H706c-6.8 7.2-14.1 13.7-22 19.5zm-61.1 23.3c-4.3-.1-6.4 1.8-6.1 5.7v20.8c-.3 4.2 1.8 6.1 6.1 5.7h29.3c1.2-6 1.9-14.3 2-24.8v-7.3z"/></svg>