<svg xmlns="http://www.w3.org/2000/svg" viewBox="0 0 1024 1024"><path fill="#429BCF" d="M617.03 288.342H394.753c-21.885 0-39.727-17.753-39.727-39.726 0-21.885 17.754-39.727 39.727-39.727h222.275c21.885 0 39.727 17.754 39.727 39.727-.088 21.973-17.842 39.726-39.727 39.726z"/><path fill="#D2EDF7" d="M863.299 849.788 610.262 432.835V288.342H401.434v144.493l-252.95 416.953c-21.357 35.332 4.043 80.42 45.352 80.42h624.2c41.22 0 66.62-45.088 45.263-80.42"/><path fill="#83C6EF" d="M863.299 849.788 610.262 432.835V288.342H505.936v641.866h312.011c41.309 0 66.71-45.088 45.352-80.42"/><path fill="#FDC223" d="M800.281 826.409 711.775 680.51c-6.591-10.898-18.457-17.402-31.2-17.666-163.126-3.076-176.837 86.924-242.93 87.891-65.567.879-94.307-21.973-144.932-58.184L211.59 826.145c-17.578 29.004 3.252 66.182 37.265 66.182h514.249c33.837.088 54.755-37.002 37.177-65.918"/><path fill="#FFD858" d="M398.182 620.13a42.715 42.715 0 1 0 85.43 0 42.715 42.715 0 1 0-85.43 0"/><path fill="#FDC223" d="M407.059 645.882c7.822 10.283 20.039 16.962 33.925 16.962 23.555 0 42.715-19.16 42.715-42.714 0-7.735-2.197-14.854-5.8-21.094-10.987 20.478-36.915 37.353-70.84 46.846"/><path fill="#FCE5BE" d="M427.713 590.686a11.338 5.01 0 1 0 22.676 0 11.338 5.01 0 1 0-22.676 0"/><path fill="#FFD858" d="M483.612 143.323a28.3 28.3 0 1 0 56.6 0 28.3 28.3 0 1 0-56.6 0"/><path fill="#FDC223" d="M489.5 160.286c5.186 6.767 13.271 11.25 22.412 11.25 15.645 0 28.3-12.656 28.3-28.301 0-5.098-1.493-9.844-3.778-13.975-7.295 13.623-24.522 24.786-46.934 31.026"/><path fill="#FCE5BE" d="M503.21 123.811a7.47 3.34 0 1 0 14.942 0 7.47 3.34 0 1 0-14.941 0z"/><path fill="#FFD858" d="M453.992 77.669a20.04 20.04 0 1 0 40.078 0 20.04 20.04 0 1 0-40.078 0"/><path fill="#FDC223" d="M458.123 89.71c3.691 4.834 9.404 7.998 15.908 7.998 11.074 0 20.04-8.965 20.04-20.04 0-3.603-1.055-6.943-2.725-9.843-5.186 9.58-17.315 17.49-33.223 21.885"/><path fill="#FCE5BE" d="M467.879 63.87a5.273 2.373 0 1 0 10.547 0 5.273 2.373 0 1 0-10.547 0"/><path fill="#FFD858" d="M554.363 77.669a22.236 22.236 0 1 0 44.473 0 22.236 22.236 0 1 0-44.473 0"/><path fill="#FDC223" d="M558.934 91.116c4.043 5.361 10.459 8.877 17.666 8.877 12.304 0 22.236-9.932 22.236-22.236 0-4.043-1.143-7.735-2.988-10.987-5.713 10.635-19.16 19.424-36.914 24.346"/><path fill="#FCE5BE" d="M569.744 62.288a5.889 2.637 0 1 0 11.777 0 5.889 2.637 0 1 0-11.777 0"/><path fill="#FFD858" d="M494.334 438.196a32.08 32.08 0 1 0 64.16 0 32.08 32.08 0 1 0-64.16 0"/><path fill="#FDC223" d="M501.014 457.532c5.888 7.646 15.029 12.744 25.4 12.744 17.666 0 32.08-14.326 32.08-32.08 0-5.8-1.67-11.162-4.307-15.82-8.261 15.38-27.685 28.037-53.173 35.156"/><path fill="#FCE5BE" d="M516.57 416.135a8.525 3.78 0 1 0 17.051 0 8.525 3.78 0 1 0-17.05 0z"/><path fill="#F9AB10" d="M762.576 764.27c-112.324 46.143-259.19 74.18-420.117 74.18-45.703 0-90.352-2.285-133.33-6.592-12.041 27.95 7.91 60.469 39.726 60.469h514.249c33.837 0 54.755-37.002 37.177-66.006l-37.705-62.05z"/><path fill="#1A7FC0" d="M621.951 208.977h-115.84v79.365h115.84c19.16 0 34.717-15.556 34.717-34.716v-9.932c0-19.16-15.557-34.717-34.717-34.717"/></svg>