<svg xmlns="http://www.w3.org/2000/svg" viewBox="0 0 1024 1024"><path fill="#166FFF" d="M962 512c0 248.336-201.664 450-450 450S62 760.336 62 512 263.664 62 512 62s450 201.086 450 450"/><path fill="#FFF" d="M623.086 313.679c-25.522-26.1-63.322-42.236-104.979-42.236-46.671 0-85.5 19.414-113.336 52.2-25.007 28.35-37.8 67.821-37.8 113.336l57.858.578c0-31.693 8.807-57.214 23.271-75.536 15.557-21.664 37.286-32.785 70.071-32.785 27.193 0 48.858 7.2 63.836 22.757 14.464 14.464 22.243 34.457 22.243 60.557 0 18.321-6.686 35.036-19.479 51.686-3.857 5.014-10.542 10.543-22.242 23.335-34.972 32.208-56.636 56.122-65.572 75.536-7.714 16.072-12.214 32.786-12.214 57.214v15.043h56.121v-15.043c1.157-18.321 3.343-32.785 11.7-47.185 7.715-11.122 17.229-21.665 31.629-33.943 28.928-25.522 45.643-41.079 52.264-48.857 18.9-24.429 25.007-49.5 25.007-78.879 0-39.986-13.885-75.6-38.378-97.778M514.764 680.364a39.02 39.02 0 0 0-30.535 12.215 38.96 38.96 0 0 0-12.215 29.957c0 12.214 3.343 22.243 12.215 30.6 8.357 7.714 18.321 12.214 30.535 12.214s22.243-4.5 30.6-12.214a39.8 39.8 0 0 0 12.729-30.6 41.786 41.786 0 0 0-43.329-42.236z"/></svg>