<svg xmlns="http://www.w3.org/2000/svg" viewBox="0 0 1024 1024"><path fill="#17abe3" d="M896 512v384h-85.333v-64L704 831.979V512zm-768 0h192v319.979L213.248 832v64H128zm725.333-384A42.667 42.667 0 0 1 896 170.667v298.666H704V128zM554.667 469.333h-85.334a21.333 21.333 0 0 0 0 42.667h85.334a21.333 21.333 0 0 0 0-42.667m0-256h-85.334a21.333 21.333 0 0 0 0 42.667h85.334a21.333 21.333 0 0 0 0-42.667M661.333 128v703.979H362.667v-448l298.666.021v-42.667l-298.666-.021V128zM320 469.333H128V170.667A42.667 42.667 0 0 1 170.667 128H320z"/></svg>