<svg xmlns="http://www.w3.org/2000/svg" viewBox="0 0 1024 1024"><path fill="#FFB300" d="M102.317 214.766h772.476c25.778 0 46.89 21.112 46.89 46.89v556.912c0 25.779-21.112 46.89-46.89 46.89H149.43c-25.78 0-46.891-21.111-46.891-46.89z"/><path fill="#FFA000" d="M132.762 158.541h333.57c16.667 0 30.223 14 30.223 31.335v24.89H102.317v-24.89c0-17.334 13.778-31.335 30.445-31.335"/><path fill="#FFF" d="M351.882 241.433h371.571v571.58h-424.24v-523.8z"/><path fill="#FFD54F" d="M147.874 363.438h301.568l63.78-51.113h361.57c25.113 0 45.558 21.112 45.558 46.891v459.352c0 25.779-20.445 46.89-45.557 46.89H147.874c-25.112 0-45.557-21.111-45.557-46.89V410.329c0-25.779 20.667-46.89 45.557-46.89z"/><path fill="#BDBDBD" d="m351.438 289.88-52.224-.667 52.224-47.78z"/></svg>