<svg xmlns="http://www.w3.org/2000/svg" viewBox="0 0 1024 1024"><path fill="#E1E1E1" d="M854.528 874.24H190.805a84.14 84.14 0 0 1-84.138-84.139V212.565a84.14 84.14 0 0 1 84.138-84.138H854.55a84.14 84.14 0 0 1 84.118 84.138v577.558a84.14 84.14 0 0 1-84.139 84.117z"/><path fill="#E1E1E1" d="M831.83 128.853H561.492a1.86 1.86 0 0 0-1.728 1.195 1222.4 1222.4 0 0 0-51.178 178.219 1189 1189 0 0 0-21.888 180.48 1.856 1.856 0 0 0 1.856 1.92h81.472c8.533 0 16.853 3.626 22.613 10.026a30.55 30.55 0 0 1 7.68 23.467 949 949 0 0 0 .427 186.965 1.856 1.856 0 0 0 2.176 1.664c49.216-9.386 112.32-31.232 171.264-80.704 9.173-7.466 22.613-6.186 30.08 2.774a21.333 21.333 0 0 1-2.56 30.08C734.763 720.896 663.019 745.088 608 755.285a1.79 1.79 0 0 0-1.43 2.048 945 945 0 0 0 25.174 115.947 1.82 1.82 0 0 0 1.77 1.387h196.737a87.104 87.104 0 0 0 87.082-87.104V214.357a85.483 85.483 0 0 0-85.504-85.504zm-103.297 254.08c0 11.734-9.6 21.334-21.333 21.334s-21.333-9.6-21.333-21.334V313.6c0-11.733 9.6-21.333 21.333-21.333s21.333 9.6 21.333 21.333z"/><path fill="#00B7F9" d="M685.867 382.933V313.6c0-11.733 9.6-21.333 21.333-21.333s21.333 9.6 21.333 21.333v69.333c0 11.734-9.6 21.334-21.333 21.334s-21.333-9.6-21.333-21.334"/><path fill="#00B7F9" d="M801.707 664.96c-67.627 56.533-140.16 80.64-195.414 90.667 5.974 40.106 14.72 80 25.814 119.04H192.064a85.397 85.397 0 0 1-85.397-85.398V214.464a85.61 85.61 0 0 1 85.61-85.61h367.936a1222 1222 0 0 0-51.626 179.413 1189.6 1189.6 0 0 0-21.974 182.4h83.414c8.533 0 16.853 3.626 22.613 10.026a30.55 30.55 0 0 1 7.68 23.467c-5.973 62.72-5.973 126.293.64 189.013 49.493-9.173 113.493-30.933 173.227-81.066 9.173-7.467 22.613-6.187 30.08 2.773a21.333 21.333 0 0 1-2.56 30.08"/><path fill="#00A0D1" d="M632.107 874.667a946.7 946.7 0 0 1-30.72-157.014c-.214-1.493-.214-2.986-.427-4.48-6.613-62.72-6.613-126.293-.64-189.013a30.55 30.55 0 0 0-7.68-23.467c-5.76-6.4-14.08-10.026-22.613-10.026h-83.414c2.56-61.227 10.027-122.454 21.974-182.4 12.586-60.8 29.866-121.174 51.626-179.414 1.707-4.48 3.414-8.746 5.12-13.226l-39.68-15.574c-3.626 9.6-7.253 19.2-10.666 28.8-20.267 55.68-36.48 113.067-48.214 171.094-13.44 66.346-21.12 134.186-23.253 202.026-.213 8.32 2.773 16.214 8.747 22.187 5.546 5.76 13.653 9.173 21.973 9.173h82.347c-5.12 61.654-4.48 123.947 1.92 185.387.213 1.067.213 2.347.426 3.413 1.494 13.014 2.987 26.027 5.12 38.827a977.7 977.7 0 0 0 42.027 173.653l40.533-13.866c-5.333-15.147-10.026-30.72-14.506-46.08"/><path fill="#37474F" d="M801.707 664.96c-67.627 56.533-140.16 80.64-195.414 90.667-15.573 2.773-29.866 4.48-42.24 5.333-11.946 1.067-22.186 1.28-30.08 1.28-136.746 0-232.746-68.053-267.733-97.28-9.173-7.68-10.24-21.12-2.773-30.08 7.68-8.96 21.12-10.24 30.08-2.773 31.36 26.453 117.546 87.466 240.426 87.466 6.614 0 14.934-.213 24.534-.853 12.16-.853 26.453-2.56 42.453-5.547 49.493-9.173 113.493-30.933 173.227-81.066 9.173-7.467 22.613-6.187 30.08 2.773a21.333 21.333 0 0 1-2.56 30.08M337.621 404.267a21.333 21.333 0 0 1-21.333-21.334v-69.29a21.333 21.333 0 1 1 42.667 0v69.29a21.333 21.333 0 0 1-21.334 21.334M728.533 313.6v69.333c0 11.734-9.6 21.334-21.333 21.334s-21.333-9.6-21.333-21.334V313.6c0-11.733 9.6-21.333 21.333-21.333s21.333 9.6 21.333 21.333"/></svg>