<svg xmlns="http://www.w3.org/2000/svg" viewBox="0 0 1024 1024"><path fill="#2780FE" d="M162.844 286.35h231.628V162.812H162.844v123.54zm254.788-169.858h-277.98a23.127 23.127 0 0 0-23.16 23.16V309.51c0 12.815 10.345 23.192 23.16 23.192h277.98a23.19 23.19 0 0 0 23.16-23.192V139.652a23.16 23.16 0 0 0-23.16-23.16M396.02 573.588h231.628v-123.54H396.02zm254.788-169.859h-277.98a23.16 23.16 0 0 0-23.16 23.16v169.858c0 12.815 10.378 23.16 23.16 23.16h277.98a23.16 23.16 0 0 0 23.16-23.16V426.89a23.16 23.16 0 0 0-23.16-23.16zm-21.611 457.096h231.628v-123.54H629.197zm254.787-169.859h-277.98a23.16 23.16 0 0 0-23.16 23.16v169.858c0 12.815 10.378 23.16 23.16 23.16h277.98a23.127 23.127 0 0 0 23.16-23.16V714.126a23.127 23.127 0 0 0-23.16-23.16"/><path fill="#2780FE" d="M822.215 202.97H436.113a23.16 23.16 0 1 0 0 46.319h386.102c21.281 0 38.61 17.328 38.61 38.61v166.794c0 21.282-17.329 38.61-38.61 38.61h-36.733l22.237-22.237a23.192 23.192 0 0 0-32.779-32.746l-61.77 61.77a23.19 23.19 0 0 0 0 32.746l61.77 61.77a23.16 23.16 0 0 0 32.78-32.746l-22.238-22.237h36.733a84.995 84.995 0 0 0 84.929-84.93V287.9a84.995 84.995 0 0 0-84.93-84.93M201.422 542.72h163.731a23.16 23.16 0 1 0 0-46.352h-163.73a84.995 84.995 0 0 0-84.93 84.962v155.924a84.995 84.995 0 0 0 84.93 84.962h271.456l-22.237 22.204a23.192 23.192 0 0 0 32.78 32.746l61.77-61.77a23.19 23.19 0 0 0 0-32.746l-61.77-61.77a23.192 23.192 0 0 0-32.78 32.747l22.237 22.237H201.421a38.643 38.643 0 0 1-38.61-38.61V581.329c0-21.314 17.329-38.61 38.61-38.61"/></svg>