<svg xmlns="http://www.w3.org/2000/svg" viewBox="0 0 1024 1024"><path fill="#E1B305" d="m83.469 385.438 797.343-189.844s81.563 15.469 81.563 122.344 7.031 365.625-343.125 479.53-639.844-92.812-535.781-412.03"/><path fill="#F3E8AA" d="m83.469 385.438 788.906-189.844s74.531 7.031 81.562 98.437S938.47 673.72 716.281 758.094 69.406 811.53 135.5 400.906z"/><path fill="#EED883" d="m83.469 385.438 788.906-189.844s22.5 0 15.469 7.031C869.562 222.313 166.437 400.906 158 407.938s-81.563 0-74.531-22.5"/><path fill="#F1DA28" d="M515.187 369.969s0 45-45 75.937S350.656 582.312 291.594 590.75c-59.063 7.031-90-53.438-90-98.438 0-30.937-22.5-60.468 15.468-75.937s261.563-75.938 298.125-46.406m52.032 37.969s15.468-15.47 22.5 0 22.5 45 0 129.375-45 198.28-97.032 189.843c-52.031-7.031-185.625 0-156.093-91.406s230.625-227.813 230.625-227.813zm52.03 8.437s-7.03-22.5 15.47-30.938 81.562 60.47 90 98.438 67.5 151.875 0 198.281c-67.5 45-67.5 45-90 45s-74.532 22.5-29.532-151.875c22.5-127.968 14.063-158.906 14.063-158.906z"/><path fill="#F1DA28" d="M686.75 378.406s45-37.969 149.062 45 29.532 151.875 22.5 160.313c-7.031 7.031-36.562 45-52.031 37.968s-29.531-7.03-36.562-98.437c-8.438-91.406-82.97-91.406-82.97-144.844z"/><path fill="#F1DA28" d="M664.25 332s81.562-30.938 111.094-37.969 90-53.437 126.562-37.969 29.531 68.907 22.5 91.407-7.031 84.375-22.5 91.406-59.062-60.469-111.094-68.906S657.22 355.906 664.25 332"/></svg>