<svg xmlns="http://www.w3.org/2000/svg" viewBox="0 0 1024 1024"><path fill="#5C5C66" d="M900.7 293.1a93.38 93.38 0 0 0 23.8-62.35c0-51.691-42.059-93.75-93.75-93.75S737 179.059 737 230.75a93.38 93.38 0 0 0 23.8 62.35 46.88 46.88 0 0 0-23.8 40.775v71.209a246.6 246.6 0 0 0-37.5-44.941V305.75a18.75 18.75 0 0 0-37.5 0v24.92a268 268 0 0 0-48.305-24.703A273 273 0 0 0 587 297.09v-66.34a18.75 18.75 0 0 0-37.5 0v58.71a287 287 0 0 0-75 0v-58.71a18.75 18.75 0 0 0-37.5 0v66.34q-12.932 3.58-25.488 8.408a268 268 0 0 0-49.483 25.195V305.75a18.75 18.75 0 0 0-37.5 0v54.393a246 246 0 0 0-37.5 44.935v-71.203a46.88 46.88 0 0 0-23.8-40.775A93.38 93.38 0 0 0 287 230.75c0-51.691-42.059-93.75-93.75-93.75S99.5 179.059 99.5 230.75a93.38 93.38 0 0 0 23.8 62.35 46.88 46.88 0 0 0-23.8 40.775V830.75a18.75 18.75 0 0 0 18.75 18.75h150A18.75 18.75 0 0 0 287 830.75V812h450v18.75a18.75 18.75 0 0 0 18.75 18.75h150a18.75 18.75 0 0 0 18.75-18.75V333.875a46.88 46.88 0 0 0-23.8-40.775M324.5 737H287V530.75c0-41.326 13.09-80.643 37.5-114.14zM437 474.5h-18.75a18.75 18.75 0 0 0-18.75 18.75v75A18.75 18.75 0 0 0 418.25 587H437v150h-75V377.053a227.7 227.7 0 0 1 62.97-36.557q5.948-2.285 12.012-4.242zM549.5 737h-75V587h75zm0-262.5h-75V327.354a247.3 247.3 0 0 1 75 0zm112.5 300h-37.5V737H587V587h18.75a18.75 18.75 0 0 0 18.75-18.75v-75a18.75 18.75 0 0 0-18.75-18.75H587V336.283a230.3 230.3 0 0 1 75 40.87zm75-37.5h-37.5V416.855c23.684 32.66 37.5 71.825 37.5 113.895z"/></svg>