<svg xmlns="http://www.w3.org/2000/svg" viewBox="0 0 1024 1024"><path fill="#C7F1FF" d="M953.276 749.29c0 155.95-197.58 194.18-441.276 194.18S70.724 905.24 70.724 749.29 268.304 378.646 512 378.646s441.276 214.691 441.276 370.642z"/><path fill="#00B1FF" d="M144.27 498.19a362.875 362.875 0 1 0 725.75 0 362.875 362.875 0 1 0-725.75 0"/><path fill="#BBEAFF" d="M757.517 506.928c-2.184-28.885 41.142-60.075 30.098-83.498-11.165-23.423-17.84-8.86-30.098-45.633-6.31-18.81-3.155-29.612 1.214-35.802-9.952-16.02-21.481-31.069-34.224-44.904-17.113.486-24.758 7.767-40.536 2.791-21.117-6.675-21.117 73.425-52.307 48.91s-17.84-26.7-25.85-56.313c-8.132-29.612-49.76-1.577-63.11-14.927s-23.422-36.773-35.559-28.885-28.884 21.117-55.462 38.958 23.301 56.798 47.695 55.584c24.516-1.092 16.748-35.56 20.025-43.448 3.398-7.767 17.84 13.35 31.19 0s23.423 15.535 34.468 38.958c11.165 23.423 47.817 10.073 33.374 33.374-14.442 23.423-25.607 4.49-64.565 7.768-38.957 3.398-13.35 35.559-42.234 51.215-28.884 15.534 8.86 24.515-4.49 32.282s-25.608-8.86-50.123-10.073c-24.516-1.092-7.768 30.098 24.515 44.54 32.282 14.443 26.7 13.35 43.448 8.86 2.184-.607 3.762-.121 4.854 1.092 14.443-2.548 29.37 2.427 39.807 12.865 2.792 2.791 5.826 5.704 8.739 8.252 10.073 8.86 21.117 18.933 26.7 30.098 5.582 11.166 16.747 24.516 53.4 24.516s82.405 8.86 53.399 27.792c-28.885 18.932-24.516 40.05-35.074 54.977-10.559 14.928-13.835 26.215-45.026 44.055-31.19 17.84-16.748 35.56-38.472 38.23s-26.093 24.03-50.608 20.752c-24.515-3.398-12.258-35.559-13.35-55.584s18.933-41.142 12.986-62.38-56.313-37.744-35.196-62.26c13.35-15.534 10.68-29.612 7.525-43.326-1.092-.243-2.185-.971-3.034-2.306-10.073-14.442-26.7-5.583-65.657-30.098s-52.308-24.515-73.182-36.288-23.667-30.462-45.877-53.762c-22.209-23.302-8.859-77.794-51.093-110.077-40.536 50.851-64.808 115.052-64.808 184.958 0 7.281.243 14.563.85 21.845 7.038 2.063 15.048 6.918 23.908 16.02 35.195 36.166-8.86 13.835 53.157 49.88s85.682-11.287 110.683 70.997c20.632 67.964-38.23 59.347-68.813 79.129 49.273 36.652 110.319 58.376 176.462 58.376 137.14 0 252.556-93.329 286.174-219.789-1.214.364-2.428.486-3.52.364-24.636-1.213-30.22-39.079-32.404-68.084z"/><path fill="#7BD721" d="M326.921 423.551c22.21 23.423 25.001 41.992 45.876 53.764 20.874 11.894 34.224 11.894 73.182 36.288s55.584 15.534 65.657 30.098c.97 1.335 1.942 2.063 3.034 2.306-1.82-7.89-3.884-15.656-3.034-23.424.85-8.495 8.374-12.5 16.99-14.199.365-.121.729-.121 1.214-.243-.97-1.213-2.548-1.699-4.854-1.092-16.748 4.49-11.166 5.583-43.448-8.86-32.283-14.442-48.91-45.632-24.515-44.54 24.515 1.093 36.773 17.84 50.122 10.073s-24.515-16.748 4.49-32.282c28.885-15.535 3.4-47.817 42.235-51.215 38.958-3.398 50.123 15.534 64.565-7.768 14.443-23.423-22.21-10.073-33.374-33.374-11.166-23.423-21.118-52.308-34.468-38.958s-27.792-7.767-31.19 0 4.49 42.234-20.025 43.448c-24.515 1.092-74.274-37.865-47.695-55.584 26.578-17.84 43.326-31.19 55.462-38.958s22.21 15.535 35.56 28.885 54.977-14.685 63.109 14.927c8.13 29.613-5.219 31.797 25.85 56.313 31.19 24.515 31.19-55.584 52.307-48.91 15.656 4.976 23.423-2.305 40.536-2.79-54.128-58.498-131.437-95.15-217.483-95.15-93.692 0-177.19 43.449-231.44 111.412 42.357 31.918 29.007 86.41 51.337 109.833"/><path fill="#6EC11D" d="M514.67 546.007c3.155 13.714 5.825 27.792-7.525 43.326-21.117 24.515 29.249 41.142 35.196 62.26 5.947 21.238-14.078 42.355-12.986 62.38s-11.165 52.307 13.35 55.584c24.515 3.398 28.763-18.083 50.608-20.753 21.724-2.67 7.282-20.51 38.472-38.23 31.19-17.84 34.467-29.126 45.026-44.054 10.558-14.928 6.19-36.045 35.074-54.977 28.884-18.933-16.748-27.793-53.4-27.793s-47.817-13.35-53.4-24.515-16.748-21.117-26.7-30.098c-2.912-2.549-5.946-5.461-8.738-8.253-10.558-10.437-25.364-15.413-39.807-12.864 5.826 7.282-6.31 39.807-15.17 37.987"/><path fill="#6EC11D" d="M512 524.768c-.85 8.495 1.335 16.99 3.398 25.608 9.71 1.941 22.938-33.497 16.506-41.385-.486.121-.85.121-1.335.243-9.467 1.941-17.598 6.31-18.569 15.534"/><path fill="#FFD500" d="M758.73 341.995c-4.49 6.19-7.524 17.113-1.213 35.802 12.258 36.773 18.933 22.21 30.098 45.633 11.166 23.423-32.282 54.492-30.098 83.498 2.185 28.884 7.768 66.75 32.283 67.842 1.092 0 2.306-.122 3.52-.365 6.432-24.394 9.951-49.88 9.951-76.337 0-57.162-16.263-110.683-44.54-156.073zM399.376 656.811c-24.88-82.284-48.666-34.953-110.683-70.997s-17.962-13.593-53.157-49.88c-8.86-9.103-16.87-13.957-23.908-16.02 6.432 88.473 51.7 166.024 118.814 216.026 30.826-19.783 89.566-11.166 68.934-79.13z"/><path fill="#EF8686" d="M712.128 186.287c-17.113 44.54-105.95 103.158-129.01 94.299-21.723-8.374-49.515-111.897-32.282-156.437s67.235-66.75 111.775-49.516c44.54 17.112 66.75 67.113 49.517 111.654"/><path fill="#FFF" d="M585.303 162.257a43.57 43.57 0 1 0 87.139 0 43.57 43.57 0 1 0-87.139 0"/></svg>