<svg xmlns="http://www.w3.org/2000/svg" viewBox="0 0 1024 1024"><path d="M80 504.728c0 188.46 120.78 348.696 289.116 407.52 22.68 5.76 19.224-10.44 19.224-21.384v-74.772c-130.896 15.336-136.116-71.28-144.972-85.716-17.784-30.348-59.688-38.088-47.196-52.524 29.808-15.336 60.192 3.888 95.328 55.908 25.452 37.692 75.096 31.32 100.332 25.02a122.04 122.04 0 0 1 33.48-58.68C289.736 675.836 233.18 593.072 233.18 494.612c0-47.736 15.768-91.62 46.62-127.044-19.656-58.392 1.836-108.324 4.68-115.74 56.088-5.04 114.264 40.14 118.8 43.668 31.86-8.604 68.184-13.14 108.828-13.14 40.86 0 77.4 4.68 109.44 13.392 10.8-8.28 64.872-47.052 117-42.3 2.772 7.416 23.76 56.196 5.292 113.76 31.284 35.496 47.196 79.776 47.196 127.656 0 98.604-56.88 181.44-192.852 205.416a123.12 123.12 0 0 1 36.72 87.84v108.54c.756 8.676 0 17.28 14.508 17.28 170.784-57.564 293.76-218.988 293.76-409.14 0-238.464-193.284-431.568-431.532-431.568C273.104 73.124 80 266.264 80 504.728"/></svg>