<svg xmlns="http://www.w3.org/2000/svg" viewBox="0 0 1024 1024"><path fill="#fff" d="M200 200h600v600H200z"/><path fill="#1296db" d="M831.543 109.296v721.971H141.015s.414 0 0 0V109.296zm-482.28 243.277c0 36.547 7.448 65.095 22.342 85.782 14.895 20.549 35.444 30.892 61.647 30.892s46.89-10.343 61.785-31.03c15.032-20.687 22.617-49.235 22.617-85.644s-7.447-64.957-22.617-85.643c-15.033-20.687-35.582-31.03-61.785-31.03s-46.752 10.343-61.647 30.892c-14.894 20.687-22.342 49.234-22.342 85.781m53.648 0c0 21.652 2.758 38.616 8.137 50.89s12.964 18.342 22.342 18.342c9.516 0 17.101-6.068 22.48-18.204 5.516-12.274 8.136-29.238 8.136-51.028 0-21.928-2.758-39.029-7.998-51.303-5.379-12.274-12.964-18.343-22.618-18.343-9.378 0-16.825 6.206-22.342 18.48-5.379 12.413-8.137 29.514-8.137 51.166M253.828 459.042h51.993V240.037c-28.548-.138-67.44-3.31-80.955 5.792s-11.86 21.928-11.998 34.064h41.098v179.149zm284.79-109.503c0 36.547 7.446 65.095 22.34 85.782 14.895 20.549 35.444 30.892 61.648 30.892s46.89-10.343 61.785-31.03c15.032-20.687 22.617-49.235 22.617-85.644s-7.447-64.957-22.617-85.644c-15.033-20.686-35.582-31.03-61.785-31.03s-46.753 10.344-61.647 30.893c-14.895 20.686-22.342 49.234-22.342 85.781zm53.647 0c0 21.652 2.758 38.616 8.137 50.89s12.964 18.342 22.342 18.342c9.516 0 17.1-6.068 22.48-18.204 5.516-12.274 8.136-29.238 8.136-51.028 0-21.928-2.758-39.03-7.999-51.303-5.378-12.275-12.963-18.343-22.617-18.343-9.378 0-16.826 6.206-22.342 18.48-5.379 12.413-8.137 29.376-8.137 51.166M247.76 523.033c-15.86 0-28.824 12.964-28.824 28.824S231.9 580.68 247.76 580.68h147.014c15.86 0 28.824-12.963 28.824-28.823s-12.964-28.824-28.824-28.824zm0 140.12c-15.86 0-28.824 12.963-28.824 28.823s12.964 28.823 28.824 28.823h147.014c15.86 0 28.824-12.963 28.824-28.823s-12.964-28.824-28.824-28.824z"/><path fill="#fff" d="M446.629 705.077a213.764 213.764 0 1 0 427.53 0 213.764 213.764 0 1 0-427.53 0"/><path fill="#1296db" d="M467.316 708.112a193.353 193.353 0 1 0 386.707 0 193.353 193.353 0 1 0-386.707 0"/><path fill="#FFF" d="m786.997 810.167-56.268-56.682c-.69-.69-1.379-1.104-2.069-1.655 9.516-14.757 15.033-32.134 15.033-51.028 0-51.717-41.65-93.78-92.953-93.78s-92.953 41.925-92.953 93.78 41.65 93.78 92.953 93.78c18.756 0 36.133-5.654 50.614-15.17.551.69.965 1.38 1.655 2.069l56.268 56.682c3.862 3.862 8.826 5.792 13.791 5.792s10.068-1.93 13.792-5.792c7.723-7.861 7.723-20.411.137-27.996M650.74 764.794c-35.03 0-63.578-28.824-63.578-64.13s28.548-64.13 63.578-64.13 63.578 28.825 63.578 64.13c0 35.444-28.548 64.13-63.578 64.13"/></svg>