<svg xmlns="http://www.w3.org/2000/svg" viewBox="0 0 1024 1024"><path fill="#6EBB53" d="M799.642 907.508H224.358c-57.528 0-107.866-50.338-107.866-107.866V224.358c0-57.528 50.338-107.866 107.866-107.866h575.284c57.528 0 107.866 50.338 107.866 107.866v575.284c0 57.528-50.338 107.866-107.866 107.866"/><path fill="#FFF" d="M727.732 609.08v-39.551L551.55 450.876V317.842s0-39.55-39.551-39.55-39.55 39.55-39.55 39.55v136.63L296.267 569.528v39.55l176.181-57.528v107.865l-57.528 46.743v39.55L512 706.159l97.08 39.55v-39.55l-57.53-46.743V551.551zm0 0"/></svg>