<svg xmlns="http://www.w3.org/2000/svg" viewBox="0 0 1036 1024"><path fill="#E6211B" d="M325.489 219.698a11.53 11.53 0 0 1 17.3-8.507l128.347 59.415a11.524 11.524 0 0 1 0 20.053L342.79 349.052a11.531 11.531 0 0 1-17.301-10.023zm-81.47-8.507a25.072 25.072 0 0 1 50.136 0v250.666a25.072 25.072 0 1 1-50.136 0z"/><path fill="#cdcdcd" d="M372.052 454.154c290.256-128.999 517.21 0 483.737 64.509L146.304 679.938c-32.25-32.25-64.5-96.75 225.748-225.784m149.38 240.386a30.43 30.43 0 0 0-30.429 30.428V846.66a30.428 30.428 0 1 0 60.856 0V724.968a30.43 30.43 0 0 0-30.428-30.428zm121.701-30.428a30.437 30.437 0 0 0-30.436 30.428v152.121a30.428 30.428 0 1 0 60.855 0V694.54a30.43 30.43 0 0 0-30.419-30.428m-243.395 60.856a30.43 30.43 0 0 0-30.428 30.419v91.274a30.428 30.428 0 1 0 60.847 0v-91.274a30.42 30.42 0 0 0-30.42-30.42zm-121.694 30.419a30.42 30.42 0 0 0-30.427 30.427v60.847a30.428 30.428 0 1 0 60.846 0v-60.847a30.43 30.43 0 0 0-30.419-30.427m486.783-121.72a30.43 30.43 0 0 0-30.428 30.418v182.55a30.428 30.428 0 1 0 60.847 0V664.111a30.43 30.43 0 0 0-30.42-30.445zm142.69 212.994a60.847 60.847 0 0 1-60.847 60.847H177.348a60.865 60.865 0 0 1-60.856-60.847v-60.847a60.847 60.847 0 0 1 60.856-60.846L846.67 572.847a60.847 60.847 0 0 1 60.847 60.82zm9.43 0"/></svg>