<svg xmlns="http://www.w3.org/2000/svg" viewBox="0 0 1024 1024"><path d="M230.8 391.6c-20.7-3.5-41.4-5.2-60.9-10.8-24.1-6.9-36.1-26.1-41.6-49.9-11.8-51.1-24.2-102-35.8-153.2-7.2-31.6 2.9-47.1 35.4-51.7 33.3-4.7 66.9-7 102.9-10.7z"/><path fill="#FFF" d="m233.8 395.1-3.5-.6c-6.3-1.1-12.8-2-19-2.9-14-2-28.5-4.1-42.2-8-22.5-6.5-37.2-24-43.7-52.1-4.9-21-9.9-42.3-14.8-62.9-7-29.6-14.2-60.1-21-90.2-3.8-17-2.7-29.6 3.4-38.5s17.4-14.4 34.5-16.8c23-3.3 46-5.4 70.3-7.6 10.6-1 21.6-2 32.8-3.1l3.3-.3v283zm-6-276.5c-10 1-19.9 1.9-29.5 2.8-24.2 2.2-47.1 4.3-70 7.5-15.3 2.2-25.3 6.8-30.4 14.3s-6 18.5-2.5 33.7c6.8 30.1 14 60.6 21 90.2 4.9 20.6 9.9 42 14.8 63 6.1 26.2 19 41.8 39.5 47.7 13.3 3.8 26.9 5.8 41.3 7.8 5.1.7 10.4 1.5 15.7 2.3V118.6z"/><path d="M885.8 177.1c-17.5-15.8-37.7-29.4-58.5-40.7-59.4-32.3-124.3-52.1-191.2-49.6-118.8 4.5-237.4 16-356 26.1-7.5.6-19.8 13.7-19.9 21.1-1.4 81.5-1.4 163-.1 244.5.1 7.4 9.8 19.2 17.3 21.3 68.4 20 136.8 40.4 206.3 56.2 31.1 7.1 38.1 27.1 37.2 50.9-.4 10.4-16 20.2-24.7 30.3-5.8 14.1-6.2 32.1-10.2 49.3-10.4 44.7-11 44.6 30.1 64.9-3.7 7.9-7.7 15.6-10.9 23.7-23.8 59.7-40.7 120.6-26.9 185.6 8.4 39.8 32.3 64.5 72.7 73.3 71 15.4 128.8-21.3 151.4-99.9 20.5-71.2 17.5-142.2-1.1-214.5-10.7-41.4-10.7-85.8-13-129-1.1-20.9 10.5-32 33.6-36.6 60.1-11.9 115.8-35.4 162.3-76.8 65.2-58 66.3-141.7 1.6-200.1"/><path fill="#FFF" d="M581.8 940.4c-10.2 0-20.8-1.2-31.5-3.5-41.1-8.9-66.3-34.3-75-75.6-14.5-68.7 5.6-133.3 27.1-187.4 2.2-5.6 4.9-11.2 7.5-16.5.8-1.6 1.5-3.2 2.3-4.8-39.2-19.4-39.6-21.6-29.5-65.1l.4-1.9c1.5-6.5 2.5-13.2 3.5-19.6 1.6-10.8 3.2-21.1 6.9-30.1l.2-.5.3-.4c2.8-3.3 6.3-6.5 9.7-9.6 6.9-6.3 14-12.9 14.2-18.8 1-27.7-9.4-42-34.9-47.8-64.4-14.6-128.8-33.5-191.2-51.8l-15.3-4.5c-9-2.6-19.3-15.5-19.5-24.2-1.3-84.7-1.3-166.9.1-244.6.2-8.9 13.7-23.3 22.7-24.1 20.7-1.8 41.8-3.6 62.2-5.4 96.3-8.4 195.8-17 293.9-20.7 62.6-2.4 127.5 14.5 192.7 50 22.6 12.3 42.5 26.1 59.1 41.1 31.7 28.5 49 64.7 48.9 101.7-.1 37.5-18.1 74-50.5 102.8-43.9 39.1-97.5 64.4-163.7 77.5-22.6 4.5-32.2 14.8-31.2 33.5.4 7.9.8 16 1.1 23.9 1.5 34.9 3.1 71 11.8 104.5 20.1 78.1 20.5 148.8 1.1 216.1-11.3 39.1-31.6 69.1-58.8 86.9-18.9 12.6-40.8 18.9-64.6 18.9m-83-401.7c-3.3 8.3-4.7 18-6.3 28.3-1 6.6-2 13.4-3.6 20.1l-.4 1.9c-4.8 20.7-7.2 31.1-3.9 38.1 3.4 7 13.8 12.2 32.8 21.5l2.6 1.3-1.2 2.7-3.6 7.5c-2.5 5.2-5.1 10.7-7.3 16.1-37.8 94.9-34.8 146.2-26.8 183.9 8.3 39.3 31.3 62.5 70.4 71 34.2 7.4 65.9 2.5 91.6-14.3 26-17 45.5-45.9 56.3-83.5 19.1-66.3 18.8-135.9-1.1-212.9-8.8-34.1-10.4-70.5-12-105.8-.3-7.8-.7-15.9-1.1-23.8-1.2-21.7 10.6-34.7 36-39.7 65.2-12.9 117.8-37.8 160.9-76.1 31.2-27.7 48.4-62.6 48.5-98.4.1-35.3-16.5-69.8-46.9-97.2-16.2-14.6-35.7-28.2-57.9-40.3-64.3-35-128.1-51.6-189.6-49.3-98 3.7-197.4 12.3-293.6 20.7-20.4 1.8-41.5 3.6-62.2 5.4-6 .5-17.1 12.2-17.2 18.2-1.4 77.6-1.4 159.8-.1 244.4.1 5.9 8.9 16.7 15.2 18.5l15.3 4.5c62.3 18.2 126.6 37.1 190.8 51.7 36.9 8.4 40.2 34.8 39.6 53.9-.3 8.4-8.4 15.8-16.1 23-3.3 2.8-6.5 5.7-9.1 8.6"/><path fill="#FFF" d="M340.3 149.5c80.1-8.4 375.9-55.4 480.9 18.6 7.8 5.5 14.1 12.8 14.1 22.3 0 14-11.6 25.2-25.7 24.7l-490.3-19.2v-23c0-12.1 9.1-22.2 21-23.4M676.6 628c9.6 46.1 37.1 210.9-50.2 255.3-5 2.6-10.8 1.9-15.3-1.8-9-7.4-9.1-23.2-.2-30.7 25.2-21.3 60.8-76.7 39.7-216.1-1.5-9.8 4.8-18.7 13.1-18.7 6.1 0 11.4 5 12.9 12" opacity=".25"/></svg>