<svg xmlns="http://www.w3.org/2000/svg" viewBox="0 0 1024 1024"><path fill="#DA4913" d="M854.538 649.952H155.023c-19.815 0-36.027-16.212-36.027-36.027v-81.06c0-19.814 16.212-36.026 36.027-36.026h699.515c19.815 0 36.027 16.212 36.027 36.026v81.06c0 19.815-16.212 36.027-36.027 36.027"/><path fill="#5CCE41" d="M93.778 502.843c-40.23 48.036-86.464 54.94-40.23 63.947s89.766 12.31 105.077 7.206c15.312-5.404 74.155-40.83 74.155-40.83s27.92 31.823 55.541 42.631c27.92 10.508 98.773 9.007 117.387-5.404 18.613-14.11 46.234-49.536 46.234-49.536l33.925 30.022 27.92 39.028h30.923l33.925-5.404 33.925-24.918v-42.331s-18.614 44.433 49.537 56.742 111.382-3.603 105.077-30.022 3.002-48.036 3.002-48.036l83.462 60.345 58.843 12.309s77.157 26.72 58.844-9.007-46.235-65.448-46.235-65.448l-21.615-21.316-797.388 9.007z"/><path fill="#F2A83C" d="M911.58 480.327c0-123.391-180.132-217.66-402.296-217.66S106.987 362.94 106.987 486.33"/><path fill="#FFDC48" d="M865.046 679.974h-732.54c-9.007 0-16.512-7.506-16.512-16.512s7.505-16.513 16.512-16.513h732.54c9.007 0 16.512 7.506 16.512 16.513s-7.505 16.512-16.512 16.512"/><path fill="#4F210C" d="M853.037 749.025H159.526c-18.914 0-34.525-15.612-34.525-34.526s15.611-34.525 34.525-34.525h693.511c18.914 0 34.526 15.611 34.526 34.525s-15.612 34.526-34.526 34.526"/><path fill="#FFDC48" d="m536.304 662.561-54.04 62.746-62.146-53.74"/><path fill="#F2A83C" d="M860.543 857.104H146.016c-11.709 0-21.015-9.607-21.015-21.015V770.04c0-11.708 9.306-21.015 21.015-21.015h714.527c11.709 0 21.015 9.307 21.015 21.015v66.049c0 11.408-9.607 21.015-21.015 21.015"/><path fill="#FFF" d="M440.233 343.726h-6.004c-3.303 0-6.005-2.702-6.005-6.004s2.702-6.005 6.005-6.005h6.004c3.302 0 6.004 2.702 6.004 6.005s-2.702 6.004-6.004 6.004m-111.082 9.007h-6.004c-3.303 0-6.005-2.702-6.005-6.005s2.702-6.004 6.005-6.004h6.004c3.303 0 6.005 2.702 6.005 6.004s-2.702 6.005-6.005 6.005m339.25-3.003h-6.004c-3.303 0-6.005-2.702-6.005-6.004s2.702-6.004 6.005-6.004h6.004c3.303 0 6.005 2.701 6.005 6.004s-2.702 6.004-6.005 6.004m-132.097 6.005h-6.005c-3.302 0-6.004-2.702-6.004-6.005s2.702-6.004 6.004-6.004h6.005c3.302 0 6.004 2.702 6.004 6.004s-2.702 6.005-6.004 6.005m-84.062 48.035h-6.005c-3.302 0-6.004-2.702-6.004-6.004s2.702-6.005 6.004-6.005h6.005c3.302 0 6.004 2.702 6.004 6.005s-2.702 6.004-6.004 6.004"/></svg>