<svg xmlns="http://www.w3.org/2000/svg" viewBox="0 0 1024 1024"><path fill="#5EC7FB" d="M708.875 638.563h-63.281v35.156h63.281zm-140.625 0h63.281v35.156H568.25z"/><path fill="#5EC7FB" d="m666.688 62 224.296 203.906H725.75c-32.344 0-59.063-25.312-59.063-56.25zh-466.17c-32.344 0-68.203 25.313-68.203 56.25v787.5c0 30.938 35.859 56.25 68.203 56.25H822.08c32.344 0 62.578-25.313 69.61-56.25V265.906zM512.702 334.11c120.938 0 219.375 98.437 219.375 219.374 0 4.922.703 9.844.703 14.766h-135c.703-4.922 1.407-9.844 1.407-14.766 0-47.812-38.672-85.78-86.485-85.78-41.484 0-78.047 31.64-84.375 73.124q-2.109 14.766 0 27.422H294.031c0-4.922-.703-9.844-.703-14.766 0-120.937 98.438-219.375 219.375-219.375zm252.422 388.827H265.906V589.345h499.219z"/><path fill="#A0E0FF" d="M725.75 265.906h165.234L666.687 62v147.656c0 30.938 26.72 56.25 59.063 56.25"/><path fill="#FFF" d="M265.906 722.938h499.219V589.343H265.906v133.593zm379.688-84.375h63.281v35.156h-63.281v-35.157zm-77.344 0h63.281v35.156H568.25v-35.157zM428.328 568.25c-1.406-8.438-1.406-18.281 0-27.422 6.328-41.484 42.89-72.422 84.375-73.125 47.813 0 86.485 38.672 86.485 85.781 0 4.922-.704 9.844-1.407 14.766h135.703c0-4.922-.703-9.844-.703-14.766 0-120.937-98.437-219.375-219.375-219.375s-219.375 98.438-219.375 219.375c0 4.922 0 9.844.703 14.766z"/></svg>