<svg xmlns="http://www.w3.org/2000/svg" viewBox="0 0 1024 1024"><path fill="#1296db" d="M202.625 90.125h618.75c61.875 0 112.5 50.625 112.5 112.5v618.75c0 61.875-50.625 112.5-112.5 112.5h-618.75c-61.875 0-112.5-50.625-112.5-112.5v-618.75c0-61.875 50.625-112.5 112.5-112.5"/><path fill="#fff" d="M227.937 261.687 512 182.937l284.063 78.75v233.438c0 168.75-120.938 312.188-284.063 343.125-163.125-30.938-284.063-174.375-284.063-340.313zm182.813 53.438c-22.5 56.25-56.25 112.5-95.625 151.875 5.625 8.438 16.875 28.125 19.687 36.562 14.063-14.062 25.313-28.124 36.563-45v213.75h33.75V405.125c14.063-25.313 28.125-53.437 39.375-81.562zm270 222.188v-33.75H573.875v-45h84.375V332h-202.5v129.375h81.563v45H427.625v33.75h90c-25.312 39.375-64.688 73.125-104.063 92.812 8.438 5.626 19.688 19.688 25.313 28.126 33.75-22.5 70.312-56.25 95.625-95.626v112.5h36.562v-112.5c25.313 39.376 59.063 75.938 92.813 98.438 5.625-8.438 16.875-22.5 25.313-28.125-33.75-19.687-73.126-56.25-95.625-92.812zM489.5 362.937h135v64.688H492.313v-64.688z"/></svg>