<svg xmlns="http://www.w3.org/2000/svg" viewBox="0 0 1024 1024"><path fill="#861BF2" d="M786.925 62a116.13 116.13 0 0 1 116.129 116.129v638.71a116.13 116.13 0 0 1-116.13 116.129H235.313a116.13 116.13 0 0 1-116.13-116.13V178.13A116.13 116.13 0 0 1 235.313 62h551.613zM401.812 644.503H285.305c-14.545 0-26.216 14.574-26.216 34.955s11.671 34.955 26.216 34.955h116.507c14.574 0 26.216-14.574 26.216-34.955s-11.642-34.955-26.216-34.955m43.693-195.126h-151.46c-20.382 0-34.956 14.546-34.956 34.926 0 20.41 14.574 34.955 34.955 34.955h151.461c20.381 0 34.955-14.545 34.955-34.955 0-20.38-17.477-34.926-34.955-34.926m227.178-195.154H294.044c-20.38 0-34.955 14.574-34.955 34.954 0 17.478 14.574 34.955 34.955 34.955h378.639c20.38 0 34.955-14.574 34.955-34.955s-14.575-34.954-34.955-34.954"/><path fill="#5C82F2" d="M946.457 618.287a248.1 248.1 0 0 0-49.529-72.813 227.38 227.38 0 0 0-160.171-66.977c-61.171 0-119.41 23.284-163.103 66.977s-67.007 101.932-67.007 163.103 23.313 119.41 67.007 163.104c40.761 40.76 99 64.074 160.17 64.074s119.44-23.313 163.104-66.978c43.694-43.693 67.006-101.96 67.006-163.103 0-29.12-5.806-61.17-17.477-87.387"/><path fill="#FFF" d="M710.54 583.332c-5.806 5.807-8.738 17.478-8.738 26.216l8.71 131.081a26.13 26.13 0 0 0 26.245 26.187 26.13 26.13 0 0 0 26.216-26.187l8.71-131.08c0-8.71-2.903-20.381-8.71-26.217-14.574-14.545-40.79-14.545-52.432 0zm23.285 189.32c-20.38 0-34.926 14.574-34.926 34.954s14.545 34.955 34.926 34.955c20.41 0 34.955-14.574 34.955-34.955 0-17.477-14.546-32.051-34.955-34.954"/></svg>