<svg xmlns="http://www.w3.org/2000/svg" viewBox="0 0 1024 1024"><path fill="#2E82FF" d="M163.84 123.733h696.32c47.872 0 87.04 39.22 87.04 87.143v373.657H76.8V210.876a87.347 87.347 0 0 1 87.04-87.143"/><path fill="#B3D1FF" d="M843.597 763.733H538.112l-.512 128h76.8c13.568 0 25.6 8.756 25.6 25.6-.256 2.048-.256 25.6-25.6 25.6H409.6c-15.104 0-25.293-10.854-25.6-25.6.307-15.232 14.08-25.6 25.6-25.6h76.8v-128H182.272c-56.576 0-105.472-40.934-105.472-86.835v-92.365h870.4v92.365c0 45.9-46.9 83.456-103.603 86.835"/></svg>