<svg xmlns="http://www.w3.org/2000/svg" viewBox="0 0 1024 1024"><path fill="#E12319" d="M254.857 62h514.286Q962 62 962 254.857v514.286Q962 962 769.143 962H254.857Q62 962 62 769.143V254.857Q62 62 254.857 62"/><path fill="#FFF" d="M708.071 352.829c.772 1.8-.9 2.378-1.607 3.407a195 195 0 0 1-37.414 36 214.84 214.84 0 0 1-96.879 41.335c-8.871 1.479-17.807 0-26.678-1.028a219 219 0 0 1-19.543-2.764c-1.221-.258-2.571-1.286-3.857.064-.064.128-.386.193-.45.321-.707-4.628-4.822-2.7-7.136-3.214-20.443-4.757-39.086-13.693-57.278-23.593-23.593-13.114-46.479-27.257-66.215-46.157-15.171-14.529-28.414-30.536-36.643-50.143a52.3 52.3 0 0 1-3.728-12.278c-.386-3.022-1.607-4.822-4.693-5.786.643 6.878.964 13.693.386 20.443-2.122 27.193-15.236 46.414-41.272 55.8-8.678 3.15-16.971 7.135-26.421 8.035-12.536 1.286-28.286-12.214-22.629-27.192 1.8-4.822 3.343-9.643 5.529-14.272a81.6 81.6 0 0 1 10.478-16.264c10.286-12.472 17.293-26.743 23.143-41.657 3.472-8.486 7.2-16.779 10.607-25.329 3.858-9.771 12.472-11.443 21.086-8.871 4.243 1.285 8.036 3.664 11.314 6.428 6.429 5.465 13.822 9.643 20.829 14.4 1.221.772 2.121 1.157 3.407-.193 13.5-14.592 30.214-24.364 48.086-32.142a453.3 453.3 0 0 1 110.25-32.143 440.4 440.4 0 0 1 93.407-4.629l1.8-.128c1.671.128 3.407.128 5.143.192a7.4 7.4 0 0 0 3.6.322c.643.128 1.414.128 2.186.193l13.178 1.285 2.122.258 4.371.45 1.414.192c.9.45 1.929.643 2.957.45.965.193 2.058.258 3.086.515 7.329 1.607 14.786 2.957 22.114 4.821 19.929 4.886 39.215 11.572 55.608 24.75a40.82 40.82 0 0 1 15.621 41.143 193.2 193.2 0 0 1-23.143 64.35c-1.414 2.571-3.857 3.857-5.593 5.914-1.543.515-3.021.836-4.5 1.543a92.4 92.4 0 0 1-23.978 7.393 189.5 189.5 0 0 1-93.215-7.2 142 142 0 0 1-69.3-51.621c-1.8-2.572-5.142-3.408-7.328-2.058-1.993 1.286-2.893 6.429-1.286 8.679 5.593 7.907 12.022 15.364 18.964 22.179 24.236 23.592 53.872 36.385 86.722 42.171 20.764 3.729 41.786 3.664 62.678.707 7.072-.964 13.822-3.086 20.7-5.143zm-25.135-111.215c6.3.322 12.535 1.479 18.964.9a43.7 43.7 0 0 0 22.821-6.943c4.436-3.214 5.015-8.228 1.608-12.471a16.5 16.5 0 0 0-4.693-3.986 60.7 60.7 0 0 0-22.115-7.843 103.4 103.4 0 0 0-24.3-.642 48.3 48.3 0 0 0-18.514 4.757c-4.307 2.443-8.228 5.785-8.228 10.864 0 5.336 4.821 7.843 9.128 9.964 7.972 3.857 16.714 4.5 25.329 5.4m-162.643-.385c-.643 6.685 5.143 13.5 12.214 14.271 6.172.643 14.593-5.464 15.3-11.186.836-6.107-5.593-13.5-12.343-14.078-8.035-.643-14.335 3.921-15.171 10.928z"/><path fill="#FFF" d="M466.164 472.207c1.093 3.857 2.443 7.393 4.757 10.35 7.072 9.643 17.55 7.972 25.2 3.664.9-.514 1.415-1.607 1.993-2.635 9-15.043 18-30.15 26.936-45.322 1.414-2.378 2.7-2.893 5.529-2.378 12.021 2.185 24.107 3.985 36.321 2.507a44.1 44.1 0 0 0 17.293-5.336v6.043c-.322 36.321-.643 72.836-.643 109.157 0 3.407-1.093 4.05-4.179 3.729-7.65-.643-7.521-.643-9.45-8.1-2.185-8.486-3.278-17.357-6.428-25.522a34.8 34.8 0 0 0-6.943-11.957c-4.307-4.307-7.521-4.307-11.957 0a38.3 38.3 0 0 0-7.2 11.314c-4.436 9.643-6.814 20.122-9.836 30.215-.707 2.378-1.543 3.535-4.114 3.471-3.022 0-6.943 1.8-8.872.064-1.992-1.8-.192-5.721 0-8.614.9-11.571 1.415-23.143.708-34.971a27.8 27.8 0 0 0-9.643 5.914c-10.929 9.193-19.929 20.121-30.215 29.829-1.735 1.607-3.407 3.15-4.95 4.95-2.185 2.828-5.207 3.085-8.421 3.407-2.893.321-3.536-.643-1.993-3.279 5.529-9.257 10.864-18.643 16.264-27.836 2.893-5.014 5.722-10.285 8.936-15.171 1.607-2.571.514-3.021-1.478-3.536a27 27 0 0 1-10.093-5.014 22.5 22.5 0 0 1-7.522-24.943"/><path fill="#282526" d="M708.071 352.829c-6.878 1.928-13.692 3.985-20.828 5.014a198.8 198.8 0 0 1-62.679-.707c-32.785-5.786-62.357-18.643-86.657-42.172a154 154 0 0 1-19.028-22.243c-1.608-2.185-.643-7.2 1.285-8.614 2.25-1.414 5.593-.514 7.393 1.993 18 24.107 40.693 41.979 69.3 51.621 30.343 10.286 61.586 12.472 93.214 7.265 8.358-1.415 16.393-3.857 23.979-7.457 1.414-.643 2.957-.965 4.5-1.479.771 3.857-3.086 5.786-3.986 9-.771 2.764-3.214 4.5-4.885 6.557-.515-.128-.836.064-.836.643l.128-.129c-.642.065-1.157.065-.9.643zM622.25 197c-2.121-.514-4.243-.514-6.429-1.029 2.25-9 4.436-5.335 6.429 1.029m35.1 3.6c-2.121-1.286-4.371-1.929-6.429-3.15 2.443-5.593 4.5-3.729 6.429 3.15m-26.357-3.857c-2.057-.643-4.05-.643-6.429-1.286 2.379-4.5 4.693-3.857 6.429 1.286m15.428 1.478c-2.121-.642-4.242-.642-6.428-1.285 2.186-4.5 4.307-3.857 6.428 1.285m6.558.515c-2.25-.643-4.565-.643-6.429-1.286 2.314-3.857 4.629-3.214 6.429 1.286m29.957 42.878c-8.615-.9-17.293-1.607-25.329-5.335-4.436-2.122-9.128-4.629-9.128-9.965 0-5.014 3.921-8.485 8.228-10.8a48.3 48.3 0 0 1 18.514-4.757c8.229-.9 16.265-.386 24.3.643a62.6 62.6 0 0 1 22.115 7.843 16.5 16.5 0 0 1 4.693 3.986c3.407 4.242 2.828 9.257-1.608 12.471-6.814 4.886-14.657 6.107-22.821 6.943-6.429.578-12.664-.707-18.964-1.029"/><path fill="#444243" d="M520.357 241.229c.772-7.072 7.072-11.7 15.236-10.929 6.686.579 13.05 7.907 12.343 14.014-.707 5.657-9.129 11.765-15.429 11.186-7.071-.707-12.857-7.586-12.214-14.271z"/><path fill="#FFF" d="M569.086 672.843H528.2v-17.486c13.629 0 27.321.193 40.95-.128 3.214-.065 8.421-.772 9.129-2.572 7.714-19.478 23.592-8.55 37.478-11.957l-4.693 14.079h152.872v17.357c-3.536.193-7.522.643-11.572.643-46.093 0-92.314.257-138.407-.129-8.871-.129-13.886 2.186-17.164 10.864-5.529 14.015-12.472 27.643-19.929 43.715 18 0 34.072.321 50.272-.322 1.8-.128 4.693-5.143 4.885-8.036.643-9.771.193-19.607.193-30.214H664.1V727.1h91.093v17.871h-90.9v49.179c-.193 32.979-18.643 49.821-52.972 48.021-2.507-8.742-3.278-15.364 8.872-18.257 4.5-1.093 10.414-8.035 10.607-12.664 1.157-21.471.514-43.2.514-66.214h-95.528c11.378-24.429 21.857-47.186 33.3-72.129zM335.343 841.85v-14.014c20.057-7.072 21.086-8.615 21.086-30.729v-51.621h-93.536v-57.922h219.471v57.215h-93.407v49.757c-.514 32.721-19.221 49.693-53.614 47.314m-41.336-115.457h157.436V704.92H294.007v21.472zm-39.15-54.643v-16.586h101.057c.515-4.821.772-8.485 1.286-13.05h30.921l2.058 13.307h75.407l11.443-.128c15.107-.129 15.107 0 13.307 16.586-78.107-.129-156.215-.129-235.479-.129"/><path fill="#FFF" d="M696.243 759.629c2.057-.9 2.378-1.093 2.764-1.093 29.957-3.022 29.636-2.893 37.8 25.457 2.893 10.221 6.814 20.186 11.122 29.893 4.114 9.257 9.45 18 14.4 27.321-10.35 2.829-17.872.707-25.072-7.071a177.9 177.9 0 0 1-41.014-74.507M422.9 758.536h31.5c10.993 28.285 21.536 55.735 32.143 83.314-7.2 2.057-14.529.771-21.472-6.686a179.2 179.2 0 0 1-42.171-76.628m-98.1-.515c-7.457 16.586-12.857 31.05-20.443 44.422-6.236 11.186-14.914 21.021-22.564 31.371-6.172 8.229-14.143 10.8-25.522 7.393 3.6-6.428 7.843-12.15 10.286-18.578 6.879-18.386 13.5-36.965 19.286-55.736 1.928-6.043 3.536-9.257 10.414-8.872 8.229.45 16.457 0 28.479 0zm271.35-.064c-9.386 32.529-23.593 59.786-47.571 81-4.05 3.472-11.636 2.893-18.643 4.372 8.293-18.643 15.814-35.165 22.757-51.815a55.5 55.5 0 0 0 5.4-19.671c.193-12.793 6.814-15.107 17.614-14.014 6.236.642 12.664.128 20.443.128"/></svg>