<svg xmlns="http://www.w3.org/2000/svg" viewBox="0 0 1024 1024"><path fill="#4273FE" d="M154.978 588.457c-9.2-7.4-15.8-17.6-18.8-29l-71.6-194c-.9-3.8 1.5-7.7 5.3-8.6.7-.2 1.5-.2 2.3-.2 27.8 2.7 107.4 12.8 126.2 42.7l46.6 73.7c8.3 13.2 22.1 22 37.5 24l179.3 30.5c6 .7 11.4-3.6 12.1-9.5.1-.8.1-1.5 0-2.3l-102.9-281.2c-.7-6.7 4.2-12.7 10.9-13.4q2.1-.15 4.2.3c33.6 8.4 50.9 9.6 67.4 43l158 265.1c13.9 28.3 40.5 48.1 71.6 53.3 36.4 6 91.6 14.5 170 24.9 63.7 5.1 111.2 60.8 106.1 124.5 0 .4-.1.8-.1 1.2.1 12.9-10.3 23.5-23.3 23.6-1.6 0-3.2-.1-4.7-.4l-717.8-144.8c-18.2-3-35.7-9.4-51.5-18.8-2.3-1.4-4.6-2.9-6.8-4.6"/><path fill="#4273FE" d="M86.878 758.157h349.9c12.4 0 22.4 10 22.4 22.4s-10 22.4-22.4 22.4h-349.9c-12.4 0-22.4-10-22.4-22.4s10-22.4 22.4-22.4" opacity=".5"/></svg>