<svg xmlns="http://www.w3.org/2000/svg" viewBox="0 0 1024 1024"><path fill="#2C2C2C" d="M620.763 193.885s-295.62-47.831-314.916 107.85c0 0-2.843 81.425 2.844 128.545 0 0-70.701-54.27-44.988-198.516C289.416 87.498 445.828 47.507 540.049 51.812c94.302 4.266 162.12 52.808 132.852 132.1 0 0 34.975-7.149 44.988 28.557 9.992 35.727 16.43 134.964-15.72 212.084 0 0 25.712-208.53-81.406-230.668"/><path fill="#FFF" d="m395.092 647.4 6.439 316.338s46.369 15.05 219.192.041l4.712-316.947-230.343.569z"/><path fill="#E7D7C8" d="m388.694 570.24 6.398 77.16 118.35 89.428 111.404-87.863 3.757-95.866z"/><path fill="#2C2C2C" d="M395.275 646.284S239.432 724.5 152.299 748.08c-87.132 23.54 27.135 163.521 249.252 215.658z"/><path fill="#DDB4B2" d="m481.86 798.958-12.065 171.117c32.557 2.113 70.579.914 93.367-2.132L546.122 795.2l-64.263 3.757z"/><path fill="#ECC1BE" d="m513.442 709.47-62.658 68.06 64.283 54.068 57.865-62.638z"/><path fill="#F8F0E6" d="M305.644 417.586s18.747 86.239 43.75 119.812c25.002 33.574 73.564 100.01 157.833 100.72 84.228.671 144.937-45.008 165.674-125.031 20.696-79.943 32.862-69.95 37.859-142.804 4.996-72.814 4.041-131.816-52.016-171.3-62.963-44.338-228.596-43.241-293.67-6.317-58.414 33.147-57.642 41.84-70.702 88.352-10.298 36.721-2.275 108.743 11.272 136.568"/><path fill="#2C2C2C" d="M625.029 645.227S782.13 724.48 869.243 748.06c87.153 23.54-27.114 163.52-249.231 215.658z"/></svg>