<svg xmlns="http://www.w3.org/2000/svg" viewBox="0 0 1024 1024"><path fill="#13227a" d="M614.16 485.922v103.155l-94.856 217.278s-29.642 45.056 17.49 59.285a43.87 43.87 0 0 0 45.056-24.01l83.887-159.18s19.268-46.835 33.793-29.642l59.284 66.102A335.6 335.6 0 0 1 776.6 844.89s-6.521 22.528 37.053 22.528c0 0 29.642 1.483 29.642-21.045v-85.074a350.37 350.37 0 0 0-91.89-196.53v-29.641l14.523-80.332s17.786-21.045 29.643-3.26c0 0-3.26 24.307 46.538 49.8l59.285 21.045s32.31 11.265 37.053-6.521c0 0 11.265-25.789-6.521-32.014l-51.578-29.642s-61.063-40.314-59.284-91.892a98.12 98.12 0 0 0-62.843-73.809 59.29 59.29 0 0 0-59.284-8.003l-136.355 63.73s-19.267 11.265-19.267 25.79v135.17s-3.26 25.787 14.524 25.787c0 0 29.643-9.485 29.643-19.267V408.555s3.26-8.004 25.788-22.529l22.529-17.489s25.789-17.785 21.045 6.226c1.186 1.778-42.685 69.363-42.685 111.159zm177.854-210.758a59.285 59.285 0 1 0 0-118.57 59.285 59.285 0 0 0-59.285 59.286 59.285 59.285 0 0 0 58.395 58.69z"/><path fill="#13227a" d="M652.399 145.626h-406.99l156.215 77.368a70.25 70.25 0 0 1 37.35 56.32l2.668 459.16a16.9 16.9 0 0 1 5.334 0h87.445l-24.602 48.318h-67.881v132.797c0 7.114-5.633 9.782-12.747 5.93L154.11 772.561a59.29 59.29 0 0 1-29.642-47.13v-597.59a23.1 23.1 0 0 1 0-6.522 22.2 22.2 0 0 1 0-7.707 16.303 16.303 0 0 1 16.303-15.414 27.6 27.6 0 0 1 8.597-1.482h527.634a24.603 24.603 0 0 1 24.603 24.603 26 26 0 0 1 0 4.742 29.6 29.6 0 0 1 0 5.04V247.3h-49.206z"/></svg>