<svg xmlns="http://www.w3.org/2000/svg" viewBox="0 0 1395 1024"><path fill="#e16531" d="M215.472 90.97h984.178a71.697 71.697 0 0 1 82.037 80.371v681.292a71.697 71.697 0 0 1-82.037 80.37H215.472a71.697 71.697 0 0 1-82.036-80.37V171.38a71.697 71.697 0 0 1 82.036-80.37z"/><path fill="#FFF" d="m168.318 119.49 550.36 317.695a20.528 20.528 0 1 1-20.529 35.488L147.64 155.131a20.528 20.528 0 1 1 20.528-35.489zm539.49 354.13 552.972-319.057a20.642 20.642 0 1 0-20.718-35.679L687.506 437.942a20.604 20.604 0 0 0 20.529 35.678z"/><path fill="#FFF" d="M605.015 452.372a102.527 102.527 0 1 0 102.527-102.527 102.527 102.527 0 0 0-102.527 102.527M238.722 645.531h653.206a23.356 23.356 0 1 1 0 46.627H238.722a23.356 23.356 0 0 1 0-46.627m0 139.967h419.986a23.356 23.356 0 1 1 0 46.626H238.765a23.356 23.356 0 1 1 0-46.626z"/></svg>