<svg xmlns="http://www.w3.org/2000/svg" viewBox="0 0 1024 1024"><path fill="#DAE9FF" d="M109.734 829.813a407.813 106.875 0 1 0 815.625 0 407.813 106.875 0 1 0-815.625 0"/><path fill="#1D85DB" d="M766.667 835.25h-510c-49.5 0-90-40.5-90-90V234.5c0-49.5 40.5-90 90-90h510c49.5 0 90 40.5 90 90v510.75c0 49.5-40.5 90-90 90"/><path fill="#459DF5" d="M766.667 821h-510c-49.5 0-90-40.5-90-90V219.5c0-49.5 40.5-90 90-90h510c49.5 0 90 40.5 90 90V731c0 49.5-40.5 90-90 90"/><path fill="#B8FAFF" d="M701.417 395.75h-372c-15.75 0-28.5-12.75-28.5-28.5s12.75-28.5 28.5-28.5h372.75c15.75 0 28.5 12.75 28.5 28.5-.75 15.75-13.5 28.5-29.25 28.5"/><path fill="#FFF" d="M696.917 389.75h-375c-15.75 0-28.5-12.75-28.5-28.5v-.75c0-15.75 12.75-28.5 28.5-28.5h375c15.75 0 28.5 12.75 28.5 28.5v1.5c0 15-12.75 27.75-28.5 27.75"/><path fill="#B8FAFF" d="M701.417 527.75h-372c-15.75 0-28.5-12.75-28.5-28.5s12.75-28.5 28.5-28.5h372.75c15.75 0 28.5 12.75 28.5 28.5-.75 15.75-13.5 28.5-29.25 28.5"/><path fill="#FFF" d="M690.917 521h-369c-15.75 0-28.5-12.75-28.5-28.5s12.75-28.5 28.5-28.5h369c15.75 0 28.5 12.75 28.5 28.5 0 16.5-12.75 28.5-28.5 28.5"/><path fill="#B8FAFF" d="M701.417 660.5h-372c-15.75 0-28.5-12.75-28.5-28.5s12.75-28.5 28.5-28.5h372.75c15.75 0 28.5 12.75 28.5 28.5-.75 15.75-13.5 28.5-29.25 28.5"/><path fill="#FFF" d="M690.917 653.75h-369c-15.75 0-28.5-12.75-28.5-28.5s12.75-28.5 28.5-28.5h369c15.75 0 28.5 12.75 28.5 28.5s-12.75 28.5-28.5 28.5"/><path fill="#1D85DB" d="M347.417 129.5c-3.75 6.75-6 14.25-6 22.5v.75c0 26.25 21 47.25 47.25 47.25h272.25c26.25 0 47.25-21 47.25-47.25V152c0-8.25-2.25-15.75-6-22.5z"/><path fill="#B0DFFF" d="M626.417 189.5h-229.5c-31.5 0-57-25.5-57-57s25.5-57 57-57h229.5c31.5 0 57 25.5 57 57s-25.5 57-57 57"/></svg>