<svg xmlns="http://www.w3.org/2000/svg" viewBox="0 0 1024 1024"><path fill="#FF9E12" d="M558.371 103.757c-130.879 0-236.961 106.078-236.961 236.961 0 62.879 24.961 123.117 69.442 167.519 44.48 44.399 104.718 69.36 167.519 69.36 130.879 0 236.961-106.078 236.961-236.961 0-130.801-106.082-236.879-236.961-236.879M676.93 329.198h-94.797v47.36h94.797v47.437h-94.797v47.363H534.77v-47.441h-94.719v-47.359h94.719v-47.442h-94.719v-47.359h59.922l-58.641-53.922 33.52-28.719 83.597 83.121 83.684-84.961 33.52 30.961-58.723 53.52h60.082zm0 0"/><path fill="#1D92FF" d="M110.211 688.236c-1.918 4.961 9.121 99.52 38.641 169.441 2 4.64 14.078 23.599 32.238 21.84 75.121-7.441 124.242-2.961 234.402 19.359 71.758 14.641 159.68 25.762 190.48 22.399 92.238-10.161 298.957-160.88 308-189.2 0 0-5.441-34.398-118.402 12.801-21.438 8.961-47.199 19.359-77.277 33.039-142.402 64.801-241.523 2-304.563-41.359 0 0-21.039-31.039 23.84-29.121 0 0 202.082 36 237.68-46.238 0 0 4.32-19.359-23.117-21.762 0 0-86.242 4.723-143.043-20-85.117-37.039-153.438-28.238-211.918-3.84-76.879 54.16-91.68 65.199-179.762 66.242 0 .001-5.277 1.439-7.199 6.399"/></svg>