<svg xmlns="http://www.w3.org/2000/svg" viewBox="0 0 1024 1024"><path fill="#8C50FF" d="M961.922 512C966.42 791.31 791.312 966.24 512 961.922 232.688 966.24 57.759 791.312 62.078 512 57.758 232.688 232.688 57.759 512 62.078 791.31 57.758 966.24 232.688 961.922 512"/><path fill="#8C43FF" d="M960.662 560.052c-13.678-198.866-149.554-321.245-358.678-318.005-223.34-3.6-363.537 136.596-359.937 359.937-3.42 209.124 119.14 345 317.825 358.678 235.579-14.398 386.392-165.211 400.79-400.61"/><path fill="#8639FF" d="M954.543 615.662c-26.095-121.659-122.199-195.806-262.574-193.646-167.551-2.7-272.653 102.402-269.953 269.953-2.16 140.375 71.987 236.479 193.466 262.574C801.03 924.308 924.308 801.03 954.543 615.662"/><path fill="#8233FF" d="M938.886 682.25c-28.975-51.83-84.046-81.346-156.933-80.266-111.76-1.8-181.768 68.208-179.969 179.969-1.26 72.887 28.435 127.958 80.086 156.933A379.01 379.01 0 0 0 938.886 682.25"/><path fill="#CEC0F2" d="M226.03 455.49a19.437 19.437 0 0 0-1.8 35.993l207.504 101.143L532.696 799.95a19.437 19.437 0 0 0 35.994-1.8l183.208-501.213a19.437 19.437 0 0 0-25.015-25.015z"/><path fill="#FFF" d="M727.063 272.102 226.03 455.49a19.26 19.26 0 0 0-9.179 7.019 19.62 19.62 0 0 0-1.8 17.996 18 18 0 0 0 3.42 5.4v1.08a20 20 0 0 0 5.04 3.419l207.503 101.142 316.385-314.945a19.26 19.26 0 0 0-20.336-4.5z"/></svg>