<svg xmlns="http://www.w3.org/2000/svg" viewBox="0 0 1024 1024"><path fill="#bb7f28" d="M288.768 304.128H225.28v-1.024c0-9.216 7.168-16.384 16.384-16.384h30.72c9.216 0 16.384 7.168 16.384 17.408m519.168 0h-63.488v-1.024c0-9.216 7.168-16.384 16.384-16.384h30.72c9.216 0 16.384 7.168 16.384 17.408m-399.483 29.41h-34.816v-71.68h34.816zm241.91 0h-34.816v-71.68h34.816z"/><path fill="#bb7f28" d="M608.256 204.8H415.744c-22.528 0-40.96 25.6-40.96 57.344h276.48C650.24 230.4 631.808 204.8 608.256 204.8"/><path fill="#FBB03B" d="M814.08 819.2H209.92c-36.864 0-66.56-29.696-66.56-66.56V370.688c0-36.864 29.696-66.56 66.56-66.56h604.16c36.864 0 66.56 29.696 66.56 66.56v382.976c0 35.84-29.696 65.536-66.56 65.536"/><path fill="#F79839" d="M814.08 304.128H209.92c-31.744 0-58.368 22.528-64.512 52.224 4.096-1.024 9.216-1.024 13.312-1.024h470.016c110.592 0 200.704 90.112 200.704 200.704V803.84c0 5.12 0 9.216-1.024 13.312 29.696-6.144 52.224-32.768 52.224-64.512V370.688c0-36.864-29.696-66.56-66.56-66.56"/><path fill="#bb7f28" d="M288.768 304.128h45.056V819.2h-45.056zm400.384 0h45.056V819.2h-45.056z"/><path fill="#bb7f28" d="M243.712 504.832v-7.168c0-14.336 12.288-26.624 26.624-26.624h82.944c14.336 0 26.624 12.288 26.624 26.624v7.168c0 14.336-12.288 26.624-26.624 26.624h-82.944c-14.336 0-26.624-11.264-26.624-26.624m400.384 0v-7.168c0-14.336 12.288-26.624 26.624-26.624h82.944c14.336 0 26.624 12.288 26.624 26.624v7.168c0 14.336-12.288 26.624-26.624 26.624H670.72c-14.336 0-26.624-11.264-26.624-26.624"/></svg>