<svg xmlns="http://www.w3.org/2000/svg" viewBox="0 0 1024 1024"><path fill="#29ABE2" d="M896.96 210.398V372.82c-87.187 51.68-146.952 8.438-222.89-51.68-122.695-97.03-244.687-59.413-355.43 25.665-87.187 67.148-196.874 25.664-196.874 25.664v-162.07c0-29.883 24.257-54.141 54.14-54.141H842.82c29.883 0 54.14 24.258 54.14 54.14"/><path fill="#39B54A" d="M896.96 789.422v87.89c0 29.883-24.257 54.141-54.14 54.141H175.906c-29.883 0-54.14-24.258-54.14-54.14v-87.891z"/><path fill="#E6E6E6" d="M121.766 372.82s109.687 41.133 196.875-25.664c110.39-85.078 232.382-122.695 355.43-25.664 75.937 60.117 135.702 103.36 222.89 51.68v416.601H121.766z"/><path fill="#FFF" d="M767.586 395.32h45.351v252.07h-45.351z"/><path fill="#FCEE21" d="M124.93 482.508h768.515v90.351H124.93z"/><path fill="#FFF" d="M121.766 408.328h516.797v45.352H121.765zm381.093-135.703h38.672v135.703H502.86zm19.336 374.766h374.766v51.68H522.195zm90.352 51.68h45.351v90.35h-45.351zm-90.352-51.681v51.68H341.492c-2.11 0-4.219-.351-6.328-.351V647.39z"/><path fill="#FFF" d="M341.492 699.07h-6.328v-.351c1.758 0 3.867.351 6.328.351m-32.344-84.023a32.26 32.26 0 0 0 32.344 32.344h-6.328v51.328c-43.242-3.164-77.344-39.375-77.344-83.672zm-51.68-161.719h51.68v161.367h-51.68zM399.5 699.07h45.352v90.352H399.5z"/><path fill="#C69C6D" d="M640.672 45.516c-116.016 0-209.883 93.867-209.883 209.882s209.883 419.766 209.883 419.766 209.883-304.101 209.883-419.766c0-116.015-93.867-209.882-209.883-209.882"/><path fill="#FFF" d="M640.672 126.375c69.258 0 125.508 56.25 125.508 125.508S709.93 377.39 640.672 377.39s-125.508-56.25-125.508-125.508 56.25-125.508 125.508-125.508z"/><path fill="#C69C6D" d="m593.563 266.297-28.829.351c-4.922 0-8.789-.351-11.25-1.054-2.46-.703-4.922-2.11-6.68-4.57-2.109-2.462-2.812-5.274-2.812-8.438 0-2.813.352-5.274 1.406-7.383 1.055-2.11 2.461-3.867 4.22-4.922 1.757-1.054 3.515-1.758 5.624-2.11 2.11-.35 4.922-.35 9.492-.35l28.828-.352v-19.336l-24.96.351c-10.547 0-17.579.703-21.797 2.11-3.867 1.406-7.735 3.515-10.899 6.68-3.164 3.163-5.625 6.68-7.383 11.25-1.757 4.57-2.46 9.492-2.46 15.117 0 7.03 2.109 13.359 5.625 18.632 3.867 5.274 8.437 8.79 13.71 10.899 5.625 2.11 13.36 3.164 23.555 2.812l24.961-.351v-.352zm55.546-42.54c0 3.165-.351 5.626-1.054 7.032-.703 1.758-1.758 3.164-3.516 4.219-1.758 1.054-3.516 1.758-5.625 1.758-1.758 0-3.164-.352-4.57-.703-1.407-.704-2.461-1.407-3.516-2.461-1.055-1.055-1.406-2.11-2.11-3.165-.35-1.054-.702-3.515-.702-6.68v-5.976h-23.907v67.5c8.79-8.437 21.094-13.36 34.102-13.36 13.36 0 25.312 5.274 34.101 13.36v-67.5H649.11v5.977zm84.024 22.852c0 4.922-.352 8.79-1.055 11.25s-2.11 4.922-4.57 6.68c-2.461 2.11-5.274 2.813-8.438 2.813-2.812 0-5.273-.352-7.383-1.407-2.109-1.054-3.867-2.46-4.921-4.218s-1.758-3.516-2.11-5.625-.351-4.922-.351-9.493l-.352-28.828h-19.336l.352 24.961c0 10.547.703 17.578 2.11 21.797 1.405 3.867 3.515 7.734 6.679 10.899s6.68 5.625 11.25 7.382c4.57 1.758 9.492 2.461 15.117 2.461 7.031 0 13.36-2.11 18.633-5.625 5.273-3.867 8.789-8.437 10.898-13.71 2.11-5.626 3.164-13.36 2.813-23.555l-.352-24.961h-18.984v29.18z"/></svg>