<svg xmlns="http://www.w3.org/2000/svg" viewBox="0 0 1024 1024"><path fill="#2D2D2D" d="M196.017 124.017h633.842c39.84 0 72.137 32.81 72.137 73.282v631.695c0 40.468-32.297 73.282-72.137 73.282H196.017c-39.84 0-72.137-32.814-72.137-73.282V197.3c0-40.473 32.297-73.282 72.137-73.282z"/><path d="M598.423 478.896 123.88 204.186v623.241l474.543-277.545z"/><path fill="#FFF" d="M411.882 655.656c-3.95 0-7.896-.983-11.845-2.94-7.895-4.643-11.844-11.483-11.844-20.539V397.412c0-9.046 3.95-15.896 11.844-20.54 8.14-4.401 16.036-4.287 23.687.367L625.09 494.62c7.892 4.402 11.842 11.133 11.842 20.174 0 9.046-3.95 15.772-11.842 20.173L470.634 625.01c-27.144 15.824-50.317 30.647-58.752 30.647zm406.945-297.755c-11.148 0-20.27-9.12-20.27-20.27v-67.564c0-11.148 9.121-20.27 20.27-20.27s20.27 9.121 20.27 20.27v67.565c-.001 11.148-9.122 20.27-20.27 20.27zm0 203.371c-11.148 0-20.27-9.12-20.27-20.27v-67.564c0-11.148 9.121-20.27 20.27-20.27s20.27 9.121 20.27 20.27v67.564c-.001 11.15-9.122 20.27-20.27 20.27m0 215.223c-11.148 0-20.27-9.12-20.27-20.27v-67.564c0-11.148 9.121-20.27 20.27-20.27s20.27 9.12 20.27 20.27v67.564c-.001 11.148-9.122 20.27-20.27 20.27M208.152 357.901c-11.148 0-20.27-9.12-20.27-20.27v-67.564c0-11.148 9.12-20.27 20.27-20.27 11.147 0 20.27 9.121 20.27 20.27v67.565c-.002 11.148-9.123 20.27-20.27 20.27zm0 203.371c-11.148 0-20.27-9.12-20.27-20.27v-67.564c0-11.148 9.12-20.27 20.27-20.27 11.147 0 20.27 9.121 20.27 20.27v67.564c-.002 11.15-9.123 20.27-20.27 20.27m0 215.223c-11.148 0-20.27-9.12-20.27-20.27v-67.564c0-11.148 9.12-20.27 20.27-20.27 11.147 0 20.27 9.12 20.27 20.27v67.564c-.002 11.148-9.123 20.27-20.27 20.27"/></svg>