<svg xmlns="http://www.w3.org/2000/svg" viewBox="0 0 1024 1024"><path fill="#8A96FF" d="M865.988 404.738c-45.14-52.699-112.166-86.097-186.996-86.097-135.914 0-246.094 110.18-246.094 246.093 0 97.207 56.373 181.266 138.208 221.247-31.289 29.725-53.736 50.828-56.847 53.174-10.345 10.415-23.265 15.618-36.211 15.618-12.92 0-25.858-5.203-33.61-13.007L157.361 565.842l-2.592-2.602c-2.584 0-2.584-2.601-2.584-2.601-41.37-44.244-62.06-98.912-62.06-156.173 0-124.937 100.863-226.45 225-226.45 62.068 0 121.553 26.033 162.932 67.675 41.379-41.642 100.863-67.675 162.931-67.675 124.137 0 225 101.513 225 226.45zM317.71 292.546c7.76 0 15.521-7.814 15.521-18.22 0-10.415-7.76-18.22-18.105-18.22-82.758 0-150.003 67.676-150.003 153.572 0 10.406 7.76 18.22 18.106 18.22s18.105-7.814 18.105-18.22c0-65.074 51.724-117.132 116.376-117.132"/><path fill="#8A96FF" fill-opacity=".5" d="m833.684 699.753 89.307 89.025a41.184 41.184 0 0 1 0 58.34 41.44 41.44 0 0 1-58.52 0l-95.652-95.352A206.5 206.5 0 0 1 674.28 774.5c-114.262 0-206.897-92.344-206.897-206.25S560.02 362 674.291 362c114.262 0 206.887 92.344 206.887 206.25 0 49.978-17.831 95.812-47.494 131.503"/></svg>