<svg xmlns="http://www.w3.org/2000/svg" viewBox="0 0 1024 1024"><path fill="#E4C25A" d="M742.4 673.6c-52 44-116.8 72.8-188 81.6L696.8 1000l57.6-93.6L880 895.2zM152 891.2l125.6 12 56.8 93.6L476 754.4c-71.2-7.2-136.8-36-188.8-80z"/><path fill="#e1e143" d="M868.8 404C869.6 208.8 712 48.8 516 48c-196.8-.8-356 158.4-356.8 354.4 0 109.6 49.6 208 128 272.8 52 43.2 117.6 72 188.8 80 12 1.6 24 1.6 36 1.6 14.4 0 28.8-.8 42.4-2.4 71.2-8 136-37.6 188-81.6 76.8-64 125.6-160 126.4-268.8M517.6 606.4c-110.4-.8-199.2-89.6-199.2-200s90.4-200 200.8-200c110.4.8 199.2 90.4 199.2 200.8-.8 88.8-59.2 164-139.2 189.6-2.4.8-5.6 1.6-8 2.4h-1.6c-2.4.8-4.8 1.6-7.2 1.6-.8 0-1.6 0-2.4.8-2.4.8-4 .8-6.4 1.6-.8 0-2.4.8-3.2.8-1.6 0-4 .8-5.6.8s-3.2 0-4.8.8h-19.2c-1.6.8-2.4.8-3.2.8"/><path fill="#cbcb42" d="M718.4 407.2c-.8 88.8-59.2 164-139.2 189.6 80.8-25.6 139.2-100 139.2-189.6.8-110.4-88-200-198.4-200.8-110.4 0-200.8 89.6-200.8 200s88.8 199.2 199.2 200h2.4v-400c109.6.8 198.4 91.2 197.6 200.8"/><path fill="#BEDF9F" d="M578.4 596.8c-2.4.8-5.6 1.6-8 2.4 3.2 0 5.6-.8 8-2.4m-28.8 7.2c-1.6 0-4 .8-5.6.8 1.6 0 3.2-.8 5.6-.8m9.6-1.6c-2.4.8-4 .8-6.4 1.6 2.4-.8 4.8-1.6 6.4-1.6m9.6-2.4c-2.4.8-4.8.8-7.2 1.6 2.4-.8 4.8-.8 7.2-1.6m-40 6.4h-4zm10.4-.8h-4.8z"/><path fill="#b2b259" d="M524.8 606.4h14.4c1.6 0 3.2 0 4.8-.8 1.6 0 4-.8 5.6-.8.8 0 2.4-.8 3.2-.8 2.4 0 4-.8 6.4-1.6.8 0 1.6 0 2.4-.8 2.4-.8 4.8-.8 7.2-1.6h1.6c2.4-.8 5.6-1.6 8-2.4C659.2 572 717.6 496.8 717.6 408c.8-110.4-88-200-198.4-200.8v400c2.4-.8 4-.8 5.6-.8"/></svg>