<svg xmlns="http://www.w3.org/2000/svg" viewBox="0 0 1024 1024"><path fill="#FB8C00" d="M452.984 762.82h73.77v191.803h-73.77z"/><path fill="#455A64" d="M637.41 917.738c0-20.656-16.23-36.886-36.885-36.886H379.213c-20.656 0-36.885 16.23-36.885 36.886s16.23 36.885 36.885 36.885h221.312c20.655 0 36.885-16.23 36.885-36.885"/><path fill="#FFA726" d="M497.246 762.82h73.77v191.803h-73.77z"/><path fill="#546E7A" d="M681.672 917.738c0-20.656-16.23-36.886-36.885-36.886H423.475c-20.655 0-36.885 16.23-36.885 36.886s16.23 36.885 36.885 36.885h221.312c20.656 0 36.885-16.23 36.885-36.885"/><path fill="#B0BEC5" d="M463.311 644.787h-73.77C308.393 644.787 242 578.393 242 497.246V216.918c0-81.148 66.393-147.541 147.541-147.541h73.77c81.148 0 147.541 66.393 147.541 147.541v280.328c0 81.147-64.918 147.54-147.54 147.54z"/><path fill="#90A4AE" d="M309.869 267.082h-59.017c-11.803 0-22.13-10.328-22.13-22.131s10.327-22.131 22.13-22.131h59.017c11.803 0 22.131 10.328 22.131 22.13-1.475 13.28-10.328 22.132-22.131 22.132m0 110.656h-59.017c-11.803 0-22.13-10.328-22.13-22.131s10.327-22.132 22.13-22.132h59.017c11.803 0 22.131 10.328 22.131 22.132-1.475 13.278-10.328 22.13-22.131 22.13zm0 110.655h-59.017c-11.803 0-22.13-10.327-22.13-22.13s10.327-22.132 22.13-22.132h59.017c11.803 0 22.131 10.328 22.131 22.131-1.475 13.279-10.328 22.131-22.131 22.131"/><path fill="#546E7A" d="M575.443 761.344h-103.28c-101.802 0-184.425-82.623-184.425-184.426V370.361c0-20.656 16.23-36.886 36.885-36.886s36.885 16.23 36.885 36.886v206.557c0 60.492 50.164 110.656 110.656 110.656h103.279c60.491 0 110.655-50.164 110.655-110.656V370.361c0-20.656 16.23-36.886 36.886-36.886s36.885 16.23 36.885 36.886v206.557c-1.476 103.279-84.099 184.426-184.426 184.426"/><path fill="#CFD8DC" d="M634.459 644.787h-73.77c-81.148 0-147.541-66.394-147.541-147.541V216.918c0-81.148 66.393-147.541 147.54-147.541h73.771C715.607 69.377 782 135.77 782 216.918v280.328c0 81.147-66.393 147.54-147.541 147.54z"/><path fill="#B0BEC5" d="M551.836 267.082H419.05c-11.803 0-22.131-10.328-22.131-22.131s10.328-22.131 22.131-22.131h132.787c11.803 0 22.131 10.328 22.131 22.13 1.476 13.28-8.852 22.132-22.13 22.132zm0 110.656H419.05c-11.803 0-22.131-10.328-22.131-22.131s10.328-22.132 22.131-22.132h132.787c11.803 0 22.131 10.328 22.131 22.132 1.476 13.278-8.852 22.13-22.13 22.13zm0 110.655H419.05c-11.803 0-22.131-10.327-22.131-22.13s10.328-22.132 22.131-22.132h132.787c11.803 0 22.131 10.328 22.131 22.131 1.476 13.279-8.852 22.131-22.13 22.131zm221.312-221.311H714.13c-11.803 0-22.131-10.328-22.131-22.131s10.328-22.131 22.131-22.131h59.017c11.803 0 22.13 10.328 22.13 22.13 1.476 13.28-8.852 22.132-22.13 22.132zm0 110.656H714.13c-11.803 0-22.131-10.328-22.131-22.131s10.328-22.132 22.131-22.132h59.017c11.803 0 22.13 10.328 22.13 22.132 1.476 13.278-8.852 22.13-22.13 22.13zm0 110.655H714.13c-11.803 0-22.131-10.327-22.131-22.13s10.328-22.132 22.131-22.132h59.017c11.803 0 22.13 10.328 22.13 22.131 1.476 13.279-8.852 22.131-22.13 22.131z"/><path fill="#FFA726" d="M289.213 370.36a35.41 35.41 0 1 0 70.82 0 35.41 35.41 0 1 0-70.82 0"/><path fill="#FB8C00" d="M259.705 370.36a35.41 35.41 0 1 0 70.82 0 35.41 35.41 0 1 0-70.82 0"/></svg>