<svg xmlns="http://www.w3.org/2000/svg" viewBox="0 0 1024 1024"><path fill="#D3DDF1" d="M130.226 229.218h763.549q42.42 0 42.42 42.42v480.739q0 42.42-42.42 42.42h-763.55q-42.42 0-42.42-42.42v-480.74q0-42.42 42.42-42.42Z"/><path fill="#566685" d="M215.093 342.407h395.744q42.42 0 42.42 42.42V667.51q0 42.42-42.42 42.42H215.092q-42.42 0-42.42-42.42V384.827q0-42.42 42.42-42.42Z"/><path fill="#FFF" d="M752.348 639.244a42.42 42.42 0 1 0 84.84 0 42.42 42.42 0 1 0-84.84 0"/><path fill="#21205E" d="M738.208 653.384a42.42 42.42 0 1 0 84.84 0 42.42 42.42 0 1 0-84.84 0"/><path fill="#FFF" d="M752.348 639.244a42.42 42.42 0 1 0 84.84 0 42.42 42.42 0 1 0-84.84 0"/><path fill="#21205E" d="M610.837 342.407H231.381l367.536 367.55h11.934a42.42 42.42 0 0 0 42.42-42.42v-282.71a42.42 42.42 0 0 0-42.434-42.42"/><path fill="#A9BDE2" d="M823.076 384.742h-56.56a14.14 14.14 0 0 1 0-28.28h56.56a14.14 14.14 0 0 1 0 28.28m0 113.118h-56.56a14.14 14.14 0 0 1 0-28.28h56.56a14.14 14.14 0 0 1 0 28.28"/></svg>