<svg xmlns="http://www.w3.org/2000/svg" viewBox="0 0 1024 1024"><path fill="#03DA6B" d="M512 75.093A436.907 436.907 0 1 1 75.093 512 436.907 436.907 0 0 1 512 75.093m110.683 218.454a145.64 145.64 0 0 0-97.576 37.137 123.8 123.8 0 0 0-41.506 85.197v187.141a79.37 79.37 0 0 1-82.284 72.818 79.37 79.37 0 0 1-82.284-72.818 79.37 79.37 0 0 1 82.284-72.818 28.4 28.4 0 0 0 19.66-8.01 21.85 21.85 0 0 0 8.739-18.204 27.67 27.67 0 0 0-28.399-26.214 133.985 133.985 0 0 0-139.082 125.246 133.985 133.985 0 0 0 139.082 127.431 145.64 145.64 0 0 0 97.576-37.137 123.8 123.8 0 0 0 41.506-84.468v-187.87a82.284 82.284 0 0 1 164.568 0 79.37 79.37 0 0 1-82.284 72.818 26.214 26.214 0 1 0 0 52.428 133.985 133.985 0 0 0 139.082-128.159 133.985 133.985 0 0 0-139.082-124.518"/></svg>