<svg xmlns="http://www.w3.org/2000/svg" viewBox="0 0 1024 1024"><path fill="#84BF41" d="M822.49 499.542c-48.761-50.728-95.677-92.5-122.01-113.801-3.938-3.271-7.105-5.875-9.167-7.854-41.667-35.782-87.073-32.605-123.135-1.115-3.741 3.469-9.532 8.135-15.886 14.386-45.031 37.937-129.49 115.197-167.427 150.426-7.282 6.635-12.885 11.771-15.51 14.573-19.803 18.23-49.521 24.48-80.907-4.76-10.093-9.063-64.657-57.271-111.177-107.26-25.98-27.47-46.906-53.532-61.114-72.407l-1.292-1.313s-6.355 11.584-12.333 30.458c17.551 26.063 49.135 67.74 90.062 110.532 48.396 50.552 94.542 91.844 121.083 112.958 4.292 3.542 7.47 6.72 9.532 8.407 42.228 36.073 87.635 32.697 123.884 1.031 3.365-2.99 8.782-7.76 14.949-13.459 44.094-36.905 126.687-113.051 166.115-149.301 8.218-7.657 14.394-13.365 17.374-16.167 19.813-18.219 49.719-24.656 81.104 4.583 10.094 9.438 64.47 57.458 110.99 107.073 25.98 27.562 46.906 53.812 61.104 72.688l1.313 1.396s6.916-11.771 12.51-30.73C895 584.002 863.23 542.335 822.49 499.543"/><path fill="#0083BE" d="M467.084 241.49c-37.188 26.157-187.418 166.397-218.626 201.896 18.313 17.47 38.5 35.782 55.876 51.208 8.78 7.375 19.052 5.886 28.208-3.375 60.73-61 206.49-188.437 223.115-201.708 27.093-21.864 66.333-19.624 102.208 3.364 38.5 24.574 98.292 82.407 171.729 160.699 32.51 34.573 75.865 91.093 94.365 117.635 0 0 .75-19.812-.188-40.927-99.781-145.937-235.073-269.26-281.969-294.77-53.26-29.146-119.958-33.167-174.718 5.979"/><path fill="#0083BE" d="M337.781 156.47c-77.74 63.062-167.802 145.937-193.218 173.967 0 0 25.229 32.042 44.093 47.834 8.98 7.469 14.396 3.729 19.448-1.677 76.99-74.656 149.292-139.782 197.698-177.521 81.656-63.448 177.886-69.427 271.313 5.406C712.052 232.416 746.26 264 791.469 310.625c57.563 63.166 125.573 153.23 127.639 163.594 0 0 .184-24.657-2.243-41.854 0 0-31.782-60.917-96.427-139.209-85.959-104.832-170.595-159.864-213.209-181.998-56.052-29.72-165.74-38.407-269.448 45.312M547.063 773.2c37.375-26.168 187.416-166.032 218.812-201.72-18.5-17.468-38.302-35.969-56.063-51.385-8.78-7.469-19.426-5.698-28.583 3.364-60.542 61.292-206.104 188.354-222.927 201.907-27.093 21.666-66.52 19.52-102.02-3.552-38.313-24.387-98.668-82.032-171.73-160.605-32.51-34.76-75.667-90.906-94.177-117.624 0 0-.562 19.801 0 40.916 99.791 145.843 235.261 269.177 282.157 294.678 53.072 29.051 119.593 33.446 174.53-5.98"/><path fill="#0083BE" d="M675.802 858.501c78.115-63.344 168.187-146.125 193.782-174.25 0 0-25.043-32.135-44.292-47.833-8.959-7.573-14.386-3.365-19.427 1.864-77.178 74.459-149.115 139.865-197.511 177.334-81.844 63.353-177.708 69.603-271.322-5.417-34.761-27.667-68.948-59.698-114.167-106.042-57.552-62.98-125.574-153.323-128-163.604 0 0 0 24.854 2.427 41.583 0 0 32.135 61.104 96.052 139.584 86.135 105.103 170.969 160.135 213.385 182.093 56.437 29.709 165.75 38.125 269.073-45.312"/></svg>