<svg xmlns="http://www.w3.org/2000/svg" viewBox="0 0 1024 1024"><path fill="#FFEB3B" d="M512 125.281c-213.223 0-386.719 173.496-386.719 386.719S298.777 898.719 512 898.719 898.719 725.223 898.719 512 725.223 125.281 512 125.281m124.629 435.674c17.49 0 31.64 14.15 31.64 31.64s-14.15 31.641-31.64 31.641H543.64v72.334c0 17.49-14.15 31.64-31.641 31.64s-31.64-14.15-31.64-31.64v-72.334H387.37c-17.49 0-31.64-14.15-31.64-31.64s14.15-31.64 31.64-31.64h92.988v-54.23H387.37c-17.49 0-31.64-14.15-31.64-31.64s14.15-31.64 31.64-31.64h51.065l-18.37-52.823c-5.712-16.523 2.989-34.541 19.512-40.254s34.541 2.988 40.254 19.512l25.576 73.564h13.096l25.576-73.564c5.713-16.524 23.73-25.225 40.254-19.512s25.225 23.73 19.512 40.254l-18.37 52.822h51.065c17.49 0 31.64 14.15 31.64 31.64s-14.15 31.642-31.64 31.642h-92.9v54.228h92.988z"/><path fill="#FF9800" d="M926.668 336.834c-22.676-53.613-55.195-101.69-96.504-142.998-41.309-41.309-89.385-73.828-142.998-96.416C631.707 73.865 572.732 62 512 62S392.293 73.865 336.834 97.42c-53.613 22.588-101.69 55.107-142.998 96.416-41.309 41.309-73.828 89.385-96.416 142.998C73.865 392.293 62 451.268 62 512s11.865 119.707 35.42 175.166c22.588 53.613 55.107 101.69 96.416 142.998 41.309 41.309 89.473 73.74 142.998 96.416C392.293 950.047 451.268 962 512 962s119.707-11.865 175.166-35.42c53.613-22.588 101.69-55.107 142.998-96.416 41.309-41.309 73.74-89.473 96.416-142.998C950.047 631.707 962 572.732 962 512s-11.865-119.707-35.332-175.166M512 898.719c-213.223 0-386.719-173.496-386.719-386.719S298.777 125.281 512 125.281 898.719 298.777 898.719 512 725.223 898.719 512 898.719"/><path fill="#FF5722" d="M479.92 369.793c-5.713-16.523-23.73-25.225-40.254-19.512s-25.225 23.73-19.512 40.254l18.37 52.822h66.972zm123.926 20.742c5.713-16.523-2.989-34.54-19.512-40.254s-34.541 2.989-40.254 19.512l-25.576 73.564h66.973z"/><path fill="#FF9800" d="M636.629 506.639c17.49 0 31.64-14.15 31.64-31.641s-14.15-31.64-31.64-31.64h-249.17c-17.49 0-31.64 14.15-31.64 31.64s14.15 31.64 31.64 31.64h92.9v54.23h-92.988c-17.49 0-31.64 14.15-31.64 31.64s14.15 31.64 31.64 31.64h92.988v72.422c0 17.49 14.15 31.64 31.641 31.64s31.64-14.15 31.64-31.64v-72.334h92.989c17.49 0 31.64-14.15 31.64-31.64s-14.15-31.64-31.64-31.64H543.64v-54.23h92.988z"/></svg>