<svg xmlns="http://www.w3.org/2000/svg" viewBox="0 0 1024 1024"><path fill="#1296db" d="M774.5 568.25c-31.125 0-56.25-25.125-56.25-56.25s25.125-56.25 56.25-56.25 56.25 25.125 56.25 56.25-25.125 56.25-56.25 56.25m-187.5 0c-31.125 0-56.25-25.125-56.25-56.25s25.125-56.25 56.25-56.25 56.25 25.125 56.25 56.25-25.125 56.25-56.25 56.25m-187.5 0c-31.125 0-56.25-25.125-56.25-56.25s25.125-56.25 56.25-56.25 56.25 25.125 56.25 56.25-25.125 56.25-56.25 56.25M887 174.5H324.5c-25.875 0-46.125 13.125-59.625 33L62 512l202.875 304.125c13.5 19.875 36 33.375 61.875 33.375H887c41.25 0 75-33.75 75-75v-525c0-41.625-33.75-75-75-75"/></svg>