<svg xmlns="http://www.w3.org/2000/svg" viewBox="0 0 1024 1024"><path fill="#78909C" d="M473.9 108.1c-4.9-2.4-13-2.4-17.9 0L106.2 280.9c-4.9 2.4-9 8.9-9 14.4v234c0 5.5 4.5 10 10 10l715.8 2.2c5.5 0 10-4.5 10-10l-.2-236.3c0-5.5-4-12-9-14.4z"/><path fill="#FF5722" d="M709.1 434.9H332.5c-5.5 0-10-4.5-10-10V106.6c0-5.5 4.5-10 10-10h376.6c5.5 0 10 4.5 10 10v318.3c0 5.5-4.5 10-10 10"/><path fill="#FFCCBC" d="M624.1 491.4H247.5c-5.5 0-10-4.5-10-10V163.1c0-5.5 4.5-10 10-10h376.6c5.5 0 10 4.5 10 10v318.3c0 5.5-4.5 10-10 10"/><path fill="#CFD8DC" d="M107.2 761.5c-5.5 0-10-4.5-10-10V294.4c0-5.5 4.1-8.1 9.1-5.8l349.1 160.1c5 2.3 13.2 2.3 18.2 0l350-160.1c5-2.3 9.1.3 9.1 5.8l.3 457.1c0 5.5-4.5 10-10 10z"/><path fill="#FF5722" d="M293.5 229h283.9v57H293.5z"/><path fill="#F44336" d="M522.8 490.9c-24.3 0-45.7 12.1-57.8 31.2-12.1-19.1-33.5-31.2-57.8-31.2-38.2 0-69.4 31.2-69.4 69.4 0 68.8 127.2 138.8 127.2 138.8s127.2-69.4 127.2-138.8c0-38.2-31.2-69.4-69.4-69.4"/><path fill="#FFCCBC" d="M492.2 608.6h-20.5V595h20.5c3.8 0 6.8-3 6.8-6.8s-3-6.8-6.8-6.8h-14l13.3-24.4c1.7-3.1.7-7-2.2-8.9-2.9-1.8-6.6-.7-8.3 2.4l-15.2 28.1c-.5.9-.7 1.9-.8 2.9h-.1c-.1-1-.3-2-.8-2.9l-15-28c-1.7-3.1-5.4-4.1-8.2-2.4-2.9 1.8-3.9 5.8-2.2 8.9l13.1 24.4h-14c-3.8 0-6.8 3-6.8 6.8s3 6.8 6.8 6.8h20.5v13.6h-20.5c-3.8 0-6.8 3-6.8 6.8s3 6.8 6.8 6.8h20.5v14.3c0 3.4 3 6.1 6.8 6.1s6.8-2.7 6.8-6.1v-14.3h20.5c3.8 0 6.8-3 6.8-6.8-.1-3.8-3.2-6.9-7-6.9"/><path fill="#F44336" d="M546.8 737.7c0 104.9 84.9 189.9 189.8 190s189.9-84.9 190-189.8v-.1c0-104.9-84.9-189.9-189.8-190s-189.9 84.9-190 189.9q0-.15 0 0"/><path fill="#FFF" d="M637.8 839.1V638.9h193.7v199.9h-30.4v-7.5H668.3v7.7h-30.5zm163.3-174H668.3v140.1h132.8zm-11.9 77.1h-15.9c5.9 5.1 11.8 10.6 17.8 16.4l-11.3 10.2h14.5v24.9H674v-24.9h43.4v-26.6h-37.9v-24.9h37.9v-15.1h-41.3v-24.9h116v24.9H746v15.1h43.2zm-37.3 10.6 12.3-10.6H746v26.6h20.9c-5.7-6.4-10.6-11.7-15-16"/></svg>