<svg xmlns="http://www.w3.org/2000/svg" viewBox="0 0 1024 1024"><path fill="#E1F5FE" d="M757.775 632.345H126.962a12.91 12.91 0 0 1-12.717-12.717v-433.13a12.91 12.91 0 0 1 12.717-12.716h630.813a12.91 12.91 0 0 1 12.717 12.716v432.938a12.33 12.33 0 0 1-12.717 12.909"/><path fill="#42A5F5" d="M759.317 651.227h-634.09a29.864 29.864 0 0 1-30.056-30.057V184.764a29.864 29.864 0 0 1 30.057-30.057h634.089a29.864 29.864 0 0 1 30.057 30.057v435.828a29.67 29.67 0 0 1-30.057 30.635m-626.575-38.535H752.38V192.471H132.935z"/><path fill="#42A5F5" d="M594.388 760.665H299.212v-38.534h127.935v-73.216h38.535V722.9h128.899v38.535z"/><path fill="#90CAF9" d="M426.57 342.178H244.684v-38.534h181.692zm241.227-60.692H243.915v-38.535h423.882z"/><path fill="#43A047" d="M555.468 701.515a206.739 206.739 0 1 0 206.739-207.703 206.74 206.74 0 0 0-206.739 207.703"/><path fill="#FFF" d="M784.557 591.69a45.47 45.47 0 0 0-21.772-27.166 52.8 52.8 0 0 0-25.626-6.166 72 72 0 0 0-12.716 1.156h-2.698l-75.528 187.279 6.166 82.85 65.123-56.647 68.4-180.727zm25.047 56.069h73.41v11.175h-73.41zm-31.02 70.133h104.044v-11.175H778.584zm-22.928 60.692h127.357v-11.175H755.656z"/></svg>