<svg xmlns="http://www.w3.org/2000/svg" viewBox="0 0 1024 1024"><path fill="#ECEFF1" d="M774.9 995H52.3C27.3 995 7 974.7 7 949.7V71.6c0-25 20.3-45.3 45.3-45.3h722.6c25 0 45.3 20.3 45.3 45.3v878.1c.1 25-20.2 45.3-45.3 45.3"/><path fill="#ECEFF1" d="M628.6 795.1h292.9v202.4H628.6z"/><path fill="#CFD8DC" d="M926.5 997.5h-15.9c-49.9 0-90.4-40.5-90.4-90.4V259.5h151.3c25 0 45.3 20.3 45.3 45.3v602.3c.1 49.9-40.4 90.4-90.3 90.4"/><path fill="#F44336" d="M135.1 305.4V169.8h35.2l65.1 82.9v-82.9h35.1v135.5h-35.1l-65.1-82.9v82.9h-35.2zM376 199.7h-41.9v22.6h39.6v29.8h-39.6v23.4H376v29.8h-77.1V169.8H376zm48-29.9 23.4 87.6 28.8-87.6h28l28.8 87.6 23.4-87.6h36.9l-40.5 135.5h-36l-26.6-78.6-26.6 78.6h-36l-40.5-135.5zm254.9 34.7c-3.8-3.1-7.7-5.4-11.5-6.9s-7.6-2.2-11.2-2.2c-4.6 0-8.3 1.1-11.1 3.2s-4.3 5-4.3 8.5c0 2.4.7 4.4 2.2 5.9 1.4 1.6 3.3 2.9 5.7 4 2.3 1.1 5 2.1 7.9 3q4.35 1.2 8.7 2.7c11.5 3.8 19.9 9 25.3 15.4 5.3 6.4 8 14.8 8 25.1 0 6.9-1.2 13.2-3.5 18.9s-5.8 10.5-10.2 14.5q-6.75 6-16.5 9.3t-22.2 3.3c-17.1 0-33-5.1-47.6-15.3l15.1-28.4c5.3 4.7 10.5 8.2 15.6 10.4 5.1 2.3 10.2 3.4 15.3 3.4 5.8 0 10-1.3 12.9-3.9q4.2-3.9 4.2-9c0-2-.4-3.8-1.1-5.3s-1.9-2.9-3.6-4.1c-1.7-1.3-3.9-2.4-6.6-3.5s-6-2.3-9.8-3.6c-4.5-1.4-9-3-13.4-4.8q-6.6-2.55-11.7-6.9c-3.4-2.9-6.2-6.5-8.3-10.9s-3.1-9.9-3.1-16.6 1.1-12.8 3.3-18.2c2.2-5.5 5.3-10.1 9.3-14s8.9-6.9 14.7-9.1 12.3-3.2 19.5-3.2c6.7 0 13.7.9 21 2.8s14.3 4.6 21 8.2z"/><path fill="#CFD8DC" d="M678 743.9H137.3c-12.5 0-22.7-10.1-22.7-22.7v-2.5c0-12.5 10.1-22.7 22.7-22.7H678c12.5 0 22.7 10.1 22.7 22.7v2.5c0 12.5-10.2 22.7-22.7 22.7m0 95.6H137.3c-12.5 0-22.7-10.1-22.7-22.7v-2.5c0-12.5 10.1-22.7 22.7-22.7H678c12.5 0 22.7 10.1 22.7 22.7v2.5c0 12.6-10.2 22.7-22.7 22.7m0-382.7H460.2c-12.5 0-22.7-10.1-22.7-22.7v-2.5c0-12.5 10.1-22.7 22.7-22.7H678c12.5 0 22.7 10.1 22.7 22.7v2.5c0 12.6-10.2 22.7-22.7 22.7m0 95.7H460.2c-12.5 0-22.7-10.1-22.7-22.7v-2.5c0-12.5 10.1-22.7 22.7-22.7H678c12.5 0 22.7 10.1 22.7 22.7v2.5c0 12.6-10.2 22.7-22.7 22.7m0 95.7H460.2c-12.5 0-22.7-10.1-22.7-22.7V623c0-12.5 10.1-22.7 22.7-22.7H678c12.5 0 22.7 10.1 22.7 22.7v2.5c0 12.5-10.2 22.7-22.7 22.7"/><path fill="#90CAF9" d="M331.2 648.2H137.3c-12.5 0-22.7-10.1-22.7-22.7V431.7c0-12.5 10.1-22.7 22.7-22.7h193.9c12.5 0 22.7 10.1 22.7 22.7v193.9c-.1 12.4-10.2 22.6-22.7 22.6"/><path fill="#B0BEC5" d="M1016.9 901.8v-381L820.3 261.2v640.6c-.6 30.7 8.8 47.8 20.7 62.8 17.5 22 45.6 35 80.5 32.9 23.8 1.1 46.7-5.9 68.2-25.8 21.5-22.3 28.1-45.8 27.2-69.9"/><path fill="#2196F3" d="m353 473.7-62 50c-11.3 9.1-27.9 8.5-38.5-1.5l-22.7-21.3c-18-17-45.7-18.8-65.9-4.4l-49.3 35.4v27.9l62.5-44.8c11.3-8.1 27-7.1 37.1 2.5l22.7 21.3c18.8 17.7 48.1 18.8 68.2 2.6l47.7-38.5v-29.2z"/></svg>