<svg xmlns="http://www.w3.org/2000/svg" viewBox="0 0 1024 1024"><path fill="#71A8FF" d="M204.8 0h614.4Q1024 0 1024 204.8v614.4q0 204.8-204.8 204.8H204.8Q0 1024 0 819.2V204.8Q0 0 204.8 0"/><path fill="#73A2FF" d="M819.2 0H534.272A756.48 756.48 0 0 0 0 483.584V819.2A204.8 204.8 0 0 0 204.8 1024h614.4A204.8 204.8 0 0 0 1024 819.2V204.8A204.8 204.8 0 0 0 819.2 0"/><path fill="#739BFF" d="M819.2 0h-3.84a755.2 755.2 0 0 0-539.392 1024H819.2A204.8 204.8 0 0 0 1024 819.2V204.8A204.8 204.8 0 0 0 819.2 0"/><path fill="#7193FF" d="M497.152 721.152A752.4 752.4 0 0 0 560.384 1024H819.2A204.8 204.8 0 0 0 1024 819.2V204.8a204.8 204.8 0 0 0-89.088-168.96 755.2 755.2 0 0 0-437.76 685.312"/><path fill="#E9F6FF" d="M512 166.4a243.2 243.2 0 0 1 243.2 243.2v268.8H268.8V409.6A243.2 243.2 0 0 1 512 166.4"/><path fill="#FFF" d="M473.6 169.728A242.944 242.944 0 0 0 268.8 409.6v268.8h409.6V409.6a242.944 242.944 0 0 0-204.8-239.872"/><path fill="#FFF" d="M435.2 755.2a76.8 76.8 0 1 0 153.6 0 76.8 76.8 0 1 0-153.6 0"/><path fill="#E9F6FF" d="M268.8 665.6h486.4q51.2 0 51.2 51.2T755.2 768H268.8q-51.2 0-51.2-51.2t51.2-51.2"/></svg>