<svg xmlns="http://www.w3.org/2000/svg" viewBox="0 0 1024 1024"><path fill="#424242" d="M597.333 128h-128c-36.266 0-64 27.733-64 64v64H448v-64c0-12.8 8.533-21.333 21.333-21.333h128c12.8 0 21.334 8.533 21.334 21.333v64h42.666v-64c0-36.267-27.733-64-64-64"/><path fill="#E65100" d="M874.667 896H192c-46.933 0-85.333-38.4-85.333-85.333v-512c0-46.934 38.4-85.334 85.333-85.334h682.667c46.933 0 85.333 38.4 85.333 85.334v512C960 857.6 921.6 896 874.667 896"/><path fill="#FF6E40" d="M874.667 576H192c-46.933 0-85.333-38.4-85.333-85.333v-192c0-46.934 38.4-85.334 85.333-85.334h682.667c46.933 0 85.333 38.4 85.333 85.334v192C960 537.6 921.6 576 874.667 576"/><path fill="#FFF3E0" d="M576 533.333h-85.333c-12.8 0-21.334-8.533-21.334-21.333v-42.667c0-12.8 8.534-21.333 21.334-21.333H576c12.8 0 21.333 8.533 21.333 21.333V512c0 12.8-8.533 21.333-21.333 21.333"/></svg>