<svg xmlns="http://www.w3.org/2000/svg" viewBox="0 0 1024 1024"><path fill="#00C6C5" d="M301.063 90.125h421.875q210.937 0 210.937 210.938v421.875q0 210.937-210.938 210.937H301.063q-210.937 0-210.937-210.938V301.063q0-210.937 210.938-210.937Z"/><path fill="#FFF" d="M345.275 348.245c22.163-13.5 45.248-23.468 69.3-29.925a263.7 263.7 0 0 1 74.993-8.73 14.11 14.11 0 0 1 13.32 10.463l.99 3.622a10.463 10.463 0 0 1-10.238 13.162 263.4 263.4 0 0 0-71.752 8.82 263.2 263.2 0 0 0-66.51 28.238 10.463 10.463 0 0 1-15.435-6.3l-.99-3.6a14.15 14.15 0 0 1 6.3-15.75zm272.79-16.492a70.72 70.72 0 0 1 70.718 70.717v28.282a70.718 70.718 0 0 1-141.435 0V402.47a70.72 70.72 0 0 1 70.717-70.718zM535.22 552.477a112.5 112.5 0 0 0 12.105-48.173l2.902-1.463a98.66 98.66 0 0 0 67.838 26.91 98.82 98.82 0 0 0 67.86-26.91 156.2 156.2 0 0 1 73.575 75.15v8.325c0 15.615-12.667 28.283-28.282 28.283h-123.75a206 206 0 0 0-72.225-62.123zM350.855 577.97a112.84 112.84 0 0 0 83.362 36.63 112.84 112.84 0 0 0 83.363-36.63 184.6 184.6 0 0 1 86.355 93.06v14.287c0 15.615-12.667 28.283-28.282 28.283h-282.87a28.28 28.28 0 0 1-28.283-28.283v-14.265a184.55 184.55 0 0 1 86.355-93.082m83.362-189.653a84.847 84.847 0 0 1 84.848 84.848v28.305a84.847 84.847 0 0 1-169.718 0v-28.305a84.87 84.87 0 0 1 84.87-84.848"/></svg>