<svg xmlns="http://www.w3.org/2000/svg" viewBox="0 0 1024 1024"><path fill="#8486F8" d="M63.283 513.74a450.816 450.816 0 1 0 901.632 0 450.816 450.816 0 1 0-901.632 0"/><path fill="#FFF" d="m760.934 313.958-224.358-93.03a49.17 49.17 0 0 0-36.506-.46l-231.628 88.985a49.21 49.21 0 0 0-31.54 45.926v177.613c0 69.018 50.637 194.406 248.884 292.66a48.77 48.77 0 0 0 41.216.972c201.062-88.269 264.345-230.912 264.345-302.234V359.373a49.265 49.265 0 0 0-30.413-45.415M539.853 515.277v142.08c0 14.233-11.52 25.753-25.754 25.753-14.233 0-25.753-11.52-25.753-25.753v-142.08c-26.983-10.343-46.132-36.455-46.132-67.072 0-39.731 32.205-71.936 71.936-71.936s71.936 32.205 71.936 71.936c-.05 30.617-19.25 56.73-46.233 67.072"/></svg>