<svg xmlns="http://www.w3.org/2000/svg" viewBox="0 0 1024 1024"><path fill="#75ACCA" d="M199.175 853.471c-21.588 0-39.164-17.575-39.164-39.163v-626.62c0-21.588 17.576-39.163 39.164-39.163h626.619c21.588 0 39.163 17.575 39.163 39.164v626.619c0 21.588-17.575 39.163-39.163 39.163z"/><path fill="#FFF" d="M825.794 187.689v626.619H199.175v-626.62h626.619m0-78.326H199.175c-43.315 0-78.327 35.012-78.327 78.327v626.619c0 43.315 35.012 78.327 78.327 78.327h626.619c43.315 0 78.327-35.012 78.327-78.327v-626.62c0-43.314-35.012-78.326-78.327-78.326"/><path fill="#FFF" d="M199.175 735.98h626.619v78.328H199.175z"/><path fill="#4D5B71" d="M159.873 735.98h683.358v-57.154s-33.352-58.261-64.35-94.795c-22.973-27.124-57.432-34.874-87.462-1.523l-53.832 51.757-117.491-149.32c-43.73-55.632-115.277-55.632-159.146 0z"/><path fill="#EECA86" d="M610.324 344.344a58.815 58.815 0 1 0 117.63 0 58.815 58.815 0 1 0-117.63 0"/><path fill="#FFF" d="M825.794 187.689v626.619H199.175v-626.62h626.619m0-78.326H199.175c-43.315 0-78.327 35.012-78.327 78.327v626.619c0 43.315 35.012 78.327 78.327 78.327h626.619c43.315 0 78.327-35.012 78.327-78.327v-626.62c0-43.314-35.012-78.326-78.327-78.326"/></svg>