<svg xmlns="http://www.w3.org/2000/svg" viewBox="0 0 1024 1024"><path fill="#D8DBDB" d="m241.916 649.72 133.022 132.363c7.243 7.245 20.414 111.95 13.17 119.194l-26.341 26.341c-7.244 7.243-19.098 7.243-26.341 0l-13.83-13.83-105.364-105.363c-42.803-42.804-86.266-85.608-106.68-106.68l-13.17-13.171c-7.244-7.244-7.244-19.097 0-26.342l26.34-26.34c7.243-7.243 111.948 6.586 119.193 13.83z"/><path fill="#676767" d="M291.305 169.656c-19.756 0-36.219 16.463-36.219 36.22s16.463 36.218 36.219 36.218 36.218-16.463 36.218-36.219-16.463-36.218-36.218-36.218zm111.949 39.512c-19.756 0-36.219 16.463-36.219 36.219s16.463 36.219 36.219 36.219 36.218-16.463 36.218-36.219-16.463-36.22-36.218-36.22zM814.83 614.16c0-19.755-16.463-36.218-36.218-36.218s-36.22 16.463-36.22 36.218 16.463 36.22 36.22 36.22 36.218-15.805 36.218-36.22m3.293 75.73c-19.756 0-36.219 16.464-36.219 36.22s16.463 36.219 36.219 36.219 36.22-16.463 36.22-36.22-16.464-36.218-36.22-36.218z"/><path fill="#D8DBDB" d="m583.69 310.58 130.388 130.39c14.487 14.487 158.046 415.529 143.558 430.016l-52.024 52.023c-14.487 14.488-37.535 14.488-52.023 0L465.814 557.527 100.992 271.07c-14.488-14.488-14.488-37.536 0-52.024l52.023-52.023c14.487-14.488 416.187 129.07 430.674 143.558z"/><path fill="#E4E7E7" d="M918.22 106.438c36.219 36.219 3.951 126.437-38.853 169.9L408.522 746.523C365.06 789.986 209.648 887.448 173.43 851.229 137.21 815.01 234.67 659.6 278.134 616.136L748.32 145.291c43.463-43.462 133.682-75.072 169.9-38.853"/><path fill="#DDE0E0" d="m310.402 647.745 470.186-470.187c36.878-36.877 107.34-65.194 149.485-51.365-2.633-7.902-6.585-14.487-11.853-20.414-36.22-36.22-126.437-3.951-169.9 39.511L278.134 615.478C234.671 658.939 137.868 814.352 173.43 850.57c5.268 5.269 13.828 7.902 24.365 7.902.659-56.631 75.73-173.85 112.608-210.727z"/><path fill="#C7CACA" d="m320.938 443.602 74.413 57.95 190.314-190.313-1.975-1.975c-3.952-3.952-40.829-19.097-90.876-38.195z"/><path fill="#3DB39E" d="M523.764 631.282 752.93 923.008c13.17 13.17 34.244 13.829 48.73 2.634L548.789 606.258zM418.4 475.87 97.04 224.314c-9.878 14.488-8.561 34.243 3.95 46.755l292.386 229.166z"/><path fill="#38A592" d="M393.376 500.235 418.4 475.87l-72.438-56.633-25.024 24.365z"/></svg>