<svg xmlns="http://www.w3.org/2000/svg" viewBox="0 0 1025 1024"><path fill="#4A5D82" d="M316.39 829.5h393.75a84.375 84.375 0 0 1 84.376 84.375h-562.5A84.375 84.375 0 0 1 316.39 829.5"/><path fill="#61729B" d="M569.516 126.375V829.5h-112.5V126.375a56.25 56.25 0 0 1 56.25-56.25 56.25 56.25 0 0 1 56.25 56.25"/><path fill="#61729B" d="M891.688 323.25H512v-84.375h379.688a42.19 42.19 0 0 1 42.187 42.188 42.19 42.19 0 0 1-42.188 42.187zm-759.375-84.375H512v84.375H132.312a42.19 42.19 0 0 1-42.187-42.188 42.19 42.19 0 0 1 42.188-42.187"/><path fill="#4A5D82" d="M682.016 238.875h-337.5V210.75a56.25 56.25 0 0 1 56.25-56.25h225a56.25 56.25 0 0 1 56.25 56.25z"/><path fill="#445572" d="M414.828 281.063a98.438 98.438 0 1 0 196.875 0 98.438 98.438 0 1 0-196.875 0"/><path fill="#CFDFFF" d="M471.078 281.063a42.188 42.188 0 1 0 84.375 0 42.188 42.188 0 1 0-84.375 0M132.313 590.438H90.124L174.5 323.25h42.188zm210.937 0h-42.188L216.688 323.25h42.188z"/><path fill="#4A5D82" d="M343.25 590.438a126.563 126.563 0 0 1-253.125 0 231.9 231.9 0 0 1 126.563-42.188 231.9 231.9 0 0 1 126.562 42.188"/><path fill="#CFDFFF" d="M724.203 590.438h-42.187L766.39 323.25h42.187zm210.938 0h-42.188L808.578 323.25h42.188z"/><path fill="#4A5D82" d="M935.14 590.438a126.563 126.563 0 0 1-253.124 0 231.9 231.9 0 0 1 126.562-42.188 231.9 231.9 0 0 1 126.563 42.188z"/><path d="M850.766 323.25h40.922a42.188 42.188 0 0 0 0-84.375H682.015V210.75a56.25 56.25 0 0 0-56.25-56.25h-56.25v-28.125a56.25 56.25 0 0 0-56.25-56.25v843.75h281.25A84.375 84.375 0 0 0 710.14 829.5H569.516V361.781a97.3 97.3 0 0 0 32.625-38.531h164.25l-84.375 267.188a126.563 126.563 0 0 0 253.125 0zm-42.188 225a208.1 208.1 0 0 0-75.797 15.188l75.797-240.188 75.938 240.188a208.3 208.3 0 0 0-75.938-15.188"/></svg>