<svg xmlns="http://www.w3.org/2000/svg" viewBox="0 0 1024 1024"><path fill="#3E5571" d="M760.4 328.3c-99.9-31.6-162.8-168.9-259.6-173.9v-.1c-.7 0-1.3-.1-2.1-.1h-3.4c-.6 0-1.3 0-2.1.1v.1c-96.8 5-159.7 142.3-259.6 174-108.1 34.2-237-35.1-195 111.2 29.8 103.7 203.5 282.8 454.6 285.3h7.6c251.1-2.7 424.8-181.8 454.6-285.3 42-146.4-86.9-77-195-111.3"/><path fill="#3E5571" d="M148.4 671.9c73.9 104.2 201 172.9 345.3 172.9 144.4 0 271.4-68.8 345.3-172.9z"/><path fill="#FFF" d="M360.1 779.9c-2.5 0-4.9-.9-6.9-2.6-3.8-3.4-3.8-9.2 0-12.6l49.9-46.3c3.8-3.4 9.8-3.4 13.6 0s3.8 9.2 0 12.6l-49.9 46.3c-1.8 1.8-4.3 2.6-6.7 2.6m49.9 27.6c-2.6 0-5.1-.9-7.1-2.7-3.9-3.7-3.9-9.6 0-13.2l88.5-82.2c3.9-3.7 10.3-3.7 14.3 0 3.9 3.7 3.9 9.6 0 13.2l-88.5 82.2c-2.1 1.8-4.6 2.7-7.2 2.7m69.2 9.2c-2.6 0-5.1-.9-7.1-2.7-3.9-3.7-3.9-9.6 0-13.2l88.5-82.2c3.9-3.7 10.3-3.7 14.3 0 3.9 3.7 3.9 9.6 0 13.2l-88.6 82.1c-1.9 1.8-4.5 2.8-7.1 2.8"/><path fill="#0F2147" d="M148.4 590.2h568.8"/><path fill="#111" d="M148.4 590.2h33.5"/><path fill="#A8A8A8" d="M143.5 583.5h700.9V672H143.5z"/><path fill="#111" d="M167.4 605.6h671.7v-15.4H148.8v74.9h18.6z"/><path fill="#FFB819" d="M566.1 355.6c8.8-19.2 17-33.2.7-25.1 0 0-51 17.8-71-22.2-20 40-71 22.2-71 22.2-16.3-8.1-8.1 5.9.7 25.1s5.1 18.5-5.9 67.3c-11.2 48.8 29.5 65.1 56.1 71.7 6.6 15.6 20 15.6 20 15.6s13.4 0 20-15.6c26.6-6.6 67.3-22.9 56.1-71.7-10.9-48.9-14.6-48.2-5.7-67.3"/><path fill="#0F0F0F" d="M869.7 770.6c-4.4-2.1-7.2-2.6-8.7-2 2.1.6 5.1 1.3 8.7 2"/></svg>