<svg xmlns="http://www.w3.org/2000/svg" viewBox="0 0 1024 1024"><path fill="#338FE2" d="M62 512a450 450 0 1 0 900 0 450 450 0 1 0-900 0"/><path fill="#FFF" d="M465.184 369.736h80.1l-26.76 160.017 160.26-199.945h-80.13l13.38-160.29z"/><path fill="#FFF" d="m840.469 633.73-143.42.031-27.52-75.76a27.428 27.428 0 0 0-47.938-6.827l-97.576 133.135-97.212-214.327a27.61 27.61 0 0 0-25-16.111 27.3 27.3 0 0 0-21.451 10.316l-91.023 114.02H137.838a27.458 27.458 0 0 0 0 54.917h164.72a27.3 27.3 0 0 0 21.42-10.346l71.301-89.354 98.122 216.27a27.55 27.55 0 0 0 25 16.11c8.709 0 16.992-4.187 22.15-11.226l94.936-129.555 16.566 45.572c3.944 10.801 14.29 18.053 25.79 18.053l162.626-.03a27.28 27.28 0 0 0 19.418-8.041 27.489 27.489 0 0 0-19.418-46.846z"/></svg>