<svg xmlns="http://www.w3.org/2000/svg" viewBox="0 0 1024 1024"><path fill="#FFF" d="M512 70.333q441.667 0 441.667 441.667T512 953.667 70.333 512 512 70.333"/><path fill="#19C589" d="M289.501 263.752c0-30.462 24.92-55.16 55.625-55.16h333.748c30.725 0 55.625 24.678 55.625 55.16v59.59a137.38 137.38 0 0 1-48.545 104.715L587.184 512l98.73 83.943a137.44 137.44 0 0 1 48.585 104.695v59.59c0 30.482-24.92 55.18-55.625 55.18H345.126a55.87 55.87 0 0 1-39.342-16.162 54.92 54.92 0 0 1-16.283-38.998v-59.59c0-40.251 17.74-78.48 48.545-104.715L436.816 512l-98.73-83.943a137.44 137.44 0 0 1-48.585-104.695v-59.59z"/><path fill="#A1E883" d="m492.926 581.561-53.946 60.682c-7.686 8.697-10.012 21.744-5.846 33.071 4.187 11.327 13.997 18.73 24.92 18.73h107.872c10.922 0 20.732-7.382 24.92-18.73a33.17 33.17 0 0 0-5.866-33.071l-53.926-60.682a25.28 25.28 0 0 0-19.074-8.88 25.28 25.28 0 0 0-19.054 8.88"/><path fill="#FFF" d="m492.926 443.915-53.946-50.568a24.17 24.17 0 0 1-5.846-27.549c4.187-9.466 13.997-15.615 24.92-15.615h107.872c10.922 0 20.732 6.149 24.92 15.615 4.186 9.406 1.9 20.146-5.866 27.55l-53.926 50.567a27.6 27.6 0 0 1-19.074 7.404c-7.221 0-14.119-2.67-19.054-7.404"/></svg>