<svg xmlns="http://www.w3.org/2000/svg" viewBox="0 0 1024 1024"><path fill="#78777E" d="M279.943 304.927h-34.921c-31.357 0-56.866 25.51-56.866 56.867v42.948a12.4 12.4 0 0 0 12.4 12.401h79.389a12.4 12.4 0 0 0 12.4-12.4v-87.415a12.4 12.4 0 0 0-12.402-12.4zm499.04 0h-34.922a12.4 12.4 0 0 0-12.4 12.4v87.416a12.4 12.4 0 0 0 12.4 12.4h79.388a12.4 12.4 0 0 0 12.401-12.4v-42.95c-.002-31.357-25.512-56.866-56.867-56.866"/><path fill="#67676B" d="M188.198 360.1c-.017.565-.044 1.125-.044 1.692v42.949a12.4 12.4 0 0 0 12.4 12.4h79.39a12.4 12.4 0 0 0 12.4-12.4V360.1H188.197zm555.863 57.042h79.388a12.4 12.4 0 0 0 12.401-12.401v-42.95c0-.566-.027-1.126-.044-1.69H731.661v44.64a12.4 12.4 0 0 0 12.4 12.4z"/><path fill="#E0E0E0" d="m752.829 215.88-89.632-89.63a12.4 12.4 0 0 0-8.767-3.632H279.944a12.4 12.4 0 0 0-12.4 12.4v269.723a12.4 12.4 0 0 0 12.4 12.4h464.118a12.4 12.4 0 0 0 12.4-12.4V224.648a12.4 12.4 0 0 0-3.633-8.768"/><path fill="#C4C4C4" d="M267.543 360.1v44.64a12.4 12.4 0 0 0 12.4 12.402h464.118a12.4 12.4 0 0 0 12.4-12.401V360.1z"/><path fill="#AAA" d="m752.829 215.88-89.632-89.63a12.402 12.402 0 0 0-21.167 8.768v89.63a12.4 12.4 0 0 0 12.4 12.4h89.63a12.398 12.398 0 0 0 8.769-21.168"/><path fill="#78777E" d="M933.633 687.732 912.468 449.32c-2.884-32.481-29.65-56.978-62.26-56.978H173.796c-32.612 0-59.377 24.494-62.26 56.978L90.368 687.732a62.66 62.66 0 0 0 16.15 47.725 62.65 62.65 0 0 0 46.11 20.307h718.746a62.65 62.65 0 0 0 46.11-20.306 62.65 62.65 0 0 0 16.148-47.726z"/><path fill="#67676B" d="M930.615 653.744a62.5 62.5 0 0 1-13.132 22.323 62.65 62.65 0 0 1-46.11 20.307H152.628a62.65 62.65 0 0 1-46.11-20.307 62.5 62.5 0 0 1-13.132-22.323l-3.017 33.988a62.66 62.66 0 0 0 16.15 47.725 62.65 62.65 0 0 0 46.11 20.307h718.746a62.65 62.65 0 0 0 46.11-20.306 62.66 62.66 0 0 0 16.15-47.726z"/><path fill="#67676B" d="M225.56 610.402h572.884v44.64H225.56z"/><path fill="#E0E0E0" d="M744.06 598.002H279.944a12.4 12.4 0 0 0-12.4 12.4v278.58a12.4 12.4 0 0 0 12.4 12.4h464.118a12.4 12.4 0 0 0 12.4-12.4v-278.58a12.4 12.4 0 0 0-12.4-12.4z"/><path fill="#C4C4C4" d="M744.06 598.002H279.944a12.4 12.4 0 0 0-12.4 12.4v44.64H756.46v-44.64a12.4 12.4 0 0 0-12.4-12.4"/><path fill="#494949" d="M798.444 658.903a12.4 12.4 0 0 1-12.4-12.4v-23.7H237.96v23.7a12.4 12.4 0 0 1-24.8 0v-36.1a12.4 12.4 0 0 1 12.4-12.401h572.885a12.4 12.4 0 0 1 12.4 12.4v36.1a12.4 12.4 0 0 1-12.4 12.401z"/><path fill="#80D862" d="M809.34 506.795c-11.463 0-20.79-9.327-20.79-20.789s9.327-20.789 20.79-20.789 20.788 9.327 20.788 20.79-9.325 20.788-20.789 20.788z"/><path fill="#FFDB56" d="M747.405 506.795c-11.462 0-20.787-9.327-20.787-20.789s9.325-20.789 20.787-20.789 20.79 9.327 20.79 20.79-9.326 20.788-20.79 20.788"/><path fill="#E93234" d="M685.473 506.795c-11.462 0-20.789-9.327-20.789-20.789s9.327-20.789 20.789-20.789 20.789 9.327 20.789 20.79c-.002 11.463-9.327 20.788-20.789 20.788"/><path fill="#50C436" d="M809.34 465.219c-3.27 0-6.356.78-9.112 2.132 6.903 3.387 11.678 10.465 11.678 18.657s-4.775 15.272-11.678 18.656a20.6 20.6 0 0 0 9.111 2.133c11.464 0 20.79-9.327 20.79-20.79s-9.326-20.788-20.79-20.788z"/><path fill="#FFC41F" d="M747.405 465.219c-3.27 0-6.355.78-9.111 2.132 6.9 3.387 11.677 10.465 11.677 18.657s-4.775 15.272-11.677 18.656a20.6 20.6 0 0 0 9.111 2.133c11.464 0 20.79-9.327 20.79-20.79s-9.326-20.788-20.79-20.788"/><path fill="#D6252E" d="M685.473 465.219c-3.27 0-6.355.78-9.111 2.132 6.9 3.387 11.677 10.465 11.677 18.657s-4.775 15.272-11.677 18.656a20.6 20.6 0 0 0 9.111 2.133c11.462 0 20.789-9.327 20.789-20.79-.002-11.463-9.327-20.788-20.789-20.788"/></svg>