<svg xmlns="http://www.w3.org/2000/svg" viewBox="0 0 1024 1024"><path fill="#0079F5" d="M767.36 953.088H273.792c-112 0-202.88-90.88-202.88-202.88V256.64c0-112 90.752-202.88 202.88-202.88H767.36c112 0 202.88 90.88 202.88 202.88v493.568c0 112.128-90.88 202.88-202.88 202.88"/><path fill="#FFF" d="m669.568 503.168-34.56 45.184c-5.76 7.424-17.408 7.168-22.656-.64l-3.2-4.736c-6.784-9.984-10.496-21.76-10.496-33.792V260.48c0-14.08-11.776-25.6-26.368-25.6s-26.368 11.392-26.368 25.6v214.144c0 9.856-8.32 17.92-18.432 17.92h-3.712c-10.24 0-18.432-8.064-18.432-17.92V226.816c0-14.08-11.776-25.6-26.368-25.6s-26.368 11.392-26.368 25.6v247.68c0 9.856-8.32 17.92-18.432 17.92-10.24 0-18.432-8.064-18.432-17.92v-227.84c0-14.08-11.776-25.6-26.368-25.6s-26.368 11.392-26.368 25.6v255.36c0 9.856-8.32 17.92-18.432 17.92h-1.536c-10.24 0-18.432-8.064-18.432-17.92V342.272c0-11.648-9.728-21.248-21.888-21.248-12.032 0-21.888 9.472-21.888 21.248V624.64c0 94.592 79.616 178.176 177.152 180.864 92.032 2.432 163.2-51.456 195.456-123.52L716.032 553.6c6.912-14.336 15.36-27.776 25.216-40.448l17.536-22.528c3.328-4.224 1.792-10.88-3.328-12.672-30.976-10.624-65.92-.768-85.888 25.216"/></svg>