<svg xmlns="http://www.w3.org/2000/svg" viewBox="0 0 1024 1024"><path fill="#E3713D" d="M716.8 160.64a160.3 160.3 0 0 0-30.4 2.56 218.88 218.88 0 0 0-147.52 86.4 26.048 26.048 0 0 1-42.24 0A221.95 221.95 0 0 0 318.4 160a62 62 0 0 0-10.88.64A221.28 221.28 0 0 0 96.64 371.52a58.5 58.5 0 0 0-.64 10.56 221 221 0 0 0 62.08 154.24l5.76 5.44 338.88 339.2a21.25 21.25 0 0 0 30.08 0L634.88 779.2a168.48 168.48 0 0 1 235.84-235.84l7.68-7.68a223.4 223.4 0 0 0 58.24-122.24 191.6 191.6 0 0 0 2.24-30.4 222.27 222.27 0 0 0-222.08-222.4M459.808 588.256H354.72a32.32 32.32 0 1 1 0-64.672h105.088a32.32 32.32 0 0 1 0 64.672m38.4-121.152H277.92a32.32 32.32 0 1 1 0-64.672h220.288a32.32 32.32 0 0 1 0 64.672"/><path fill="#E29C56" d="M870.72 543.36 634.88 779.2a168.48 168.48 0 0 1 235.84-235.84"/><path fill="#F5DAA5" d="M938.88 833.92a827 827 0 0 1-106.24.96 168.19 168.19 0 0 1-197.76-55.68l235.84-235.84a167.808 167.808 0 0 1 16.96 255.68 73.98 73.98 0 0 0 51.2 34.88"/></svg>