<svg xmlns="http://www.w3.org/2000/svg" viewBox="0 0 1024 1024"><path fill="#8DB9FF" d="m551.456 112.313 171.492 175.626-58.303 61.003-176.049-172.969zM255.764 401.002l178.495 182.967-71.297 76.781-188.451-184.57z"/><path fill="#1257E0" d="M569.386 826.547h-438.75a17.72 17.72 0 0 1-17.677-18.014v-3.713a17.72 17.72 0 0 1 17.677-18.014h438.75a17.72 17.72 0 0 1 17.634 18.014v3.713a17.72 17.72 0 0 1-17.634 18.014m80.493 87.328H109.331a19.49 19.49 0 0 1-19.195-20.123 19.83 19.83 0 0 1 19.195-20.124h540.548c10.885 0 19.702 9.028 19.702 20.124s-8.817 20.123-19.702 20.123m232.58-132.89c-10.378 10.588-37.884 15.904-48.769 5.273L522.136 491.409a4.1 4.1 0 0 1-1.055-2.109c0-.548 0-1.055.548-1.603 1.013-1.055 1.561-2.11 3.08-3.164l45.731-50.836a22 22 0 0 0 3.628-3.206l307.927 302.315c11.39 10.04 11.39 37.547.464 48.178zM442.19 524.78 332.08 410.958c25.44-18.014 71.129-61.974 98.129-87.919 27-26.451 55.055-62.437 73.237-87.328l113.19 113.78c-18.69 13.289-58.177 47.165-81 66.234-8.311 7.383-16.622 14.766-23.879 21.684-28.054 26.452-50.878 62.438-69.609 87.329zm-74.798 131.75L185.69 481.875l86.696-78.342 170.31 174.15-75.304 78.89zm206.676-549.49 177.568 172.59-79.946 81.59-177.61-178.96zm37.378 305.48c10.379-7.931 20.25-20.124 28.013-25.44 8.31 7.468 19.744 11.138 30.67 11.138 11.94 0 24.89-4.767 33.75-13.753l70.622-69.356.506-.506c18.69-18.563 18.141-47.124-.506-65.138L607.27 85.861l-1.013-1.055a47.21 47.21 0 0 0-66.487 1.055l-70.074 68.85-.506.506a44.93 44.93 0 0 0-2.11 62.48c-16.621 22.781-46.194 61.931-73.7 88.931-26.494 25.945-65.94 55.055-89.86 71.508a48.43 48.43 0 0 0-64.884 2.11l-70.116 69.82c-8.817 8.48-14.006 20.672-14.006 33.328 0 12.234 5.189 24.384 14.006 33.37l166.683 162.549a48.43 48.43 0 0 0 67.5 0l70.622-68.85a45.436 45.436 0 0 0 3.121-62.438c5.19-7.931 12.446-22.275 20.25-31.767l299.11 298.054c15.525 15.863 36.83 22.782 57.586 22.782 21.853 0 42.61-13.796 57.67-28.097 31.64-31.767 21.263-73.575-5.231-108l-294.385-288.52z"/></svg>