<svg xmlns="http://www.w3.org/2000/svg" viewBox="0 0 1024 1024"><path fill="#fff" d="M100 100h800v800H100"/><path fill="#00B540" d="M855.744 65.122c55.012 0 103.134 44.69 103.134 103.134v687.488c0 58.443-44.69 103.134-103.134 103.134H168.256c-58.444 0-103.162-44.69-103.162-103.134V168.256c.028-58.444 44.719-103.162 103.162-103.162h687.488zM305.759 821.375h412.482V546.369H305.759zm68.738-68.737V718.24h275.006v34.397H374.47zm0-103.135v-34.369h275.006v34.37H374.47zM821.375 512v-68.737H707.947l17.156-68.766h-72.169l-17.184 68.765h-20.616V340.128h171.844v-68.765h-116.86l41.288-68.738h-79.06l-41.315 68.738h-161.55l-41.231-68.738h-79.06l41.26 68.737H236.994v68.794h171.872v103.135h-17.157l-17.212-68.766H302.3l17.212 68.766H202.625V512zm-343.744-68.737V340.127h68.738v103.135z"/></svg>