<svg xmlns="http://www.w3.org/2000/svg" viewBox="0 0 1024 1024"><path fill="#1296db" d="M62 512a450 450 0 1 0 900 0 450 450 0 1 0-900 0"/><path fill="#FFF" d="M787.2 543.616a168.3 168.3 0 0 0-29.728-47.136 37.63 37.63 0 0 0 5.408-18.848 49.22 49.22 0 0 0-21.76-37.312 133.728 133.728 0 0 0-267.008 0 49.22 49.22 0 0 0-21.76 37.312 38 38 0 0 0 5.408 18.848 167.8 167.8 0 0 0-29.696 47.136 118.4 118.4 0 0 0-7.936 78.368c6.016 16.608 16.608 15.136 25.28-.224a458 458 0 0 1 9.376-15.36 145.15 145.15 0 0 0 31.328 53.568 63 63 0 0 0-20.48 9.376 25.344 25.344 0 0 0-3.2 41.856 150.4 150.4 0 0 0 130.688.288 166.3 166.3 0 0 0 29.888-.032 150.4 150.4 0 0 0 130.784-.256 25.376 25.376 0 0 0-3.2-41.856 63.4 63.4 0 0 0-21.312-9.6 144.9 144.9 0 0 0 31.072-53.312c3.776 5.952 7.136 11.424 9.376 15.36 8.672 15.328 19.2 16.832 25.28.224a118.4 118.4 0 0 0-7.936-78.368zm0 0"/><path fill="#FFF" d="M424.48 664.096a32 32 0 0 1-26.688-24.512 142.62 142.62 0 0 1 8.608-96.576 183.6 183.6 0 0 1 27.424-46.56 54.8 54.8 0 0 1-2.784-17.12 65.92 65.92 0 0 1 24.224-49.12 170 170 0 0 1 50.912-99.2 161.7 161.7 0 0 1 31.68-23.456 139.46 139.46 0 0 0-100.896-43.52 145.73 145.73 0 0 0-142.368 134.112 52.51 52.51 0 0 0-23.2 39.776 40.3 40.3 0 0 0 5.76 20.128 178.9 178.9 0 0 0-31.68 50.24 126.3 126.3 0 0 0-8.448 83.584c6.4 17.696 17.696 16 26.944-.256 2.4-4.192 5.984-10.016 9.984-16.352a156 156 0 0 0 33.408 57.12 65.9 65.9 0 0 0-21.792 9.984 27.04 27.04 0 0 0-3.392 44.64 160.67 160.67 0 0 0 139.392.32c4.992.416 10.016.704 15.168.704a60.8 60.8 0 0 1 14.912-18.112 41 41 0 0 1 4.448-3.2q-4.128-6.048-7.744-12.416a29.66 29.66 0 0 1-23.936 10.08zm0 0"/></svg>