<svg xmlns="http://www.w3.org/2000/svg" viewBox="0 0 1024 1024"><path fill="#CB1E36" d="M591.55 111.35C762.5 147.35 887 303.1 887 481.2c0 136.4-73.3 263.95-190.55 330.8l-58.7-69.35c97.7-47.75 161.6-151.3 161.6-261.45 0-160.35-129.1-291.25-287.3-291.25-158.45 0-287.55 130.9-287.55 291.25 0 111.4 64.05 214.8 162.85 262.7L327.5 812C210.15 745.15 137 617.6 137 481.2c0-178.1 123.05-333.85 294.6-371l.25-16.7s1.8-8.8 10.35-17.5a34.95 34.95 0 0 1 21-10.85 1722 1722 0 0 1 93.35-3.05c6.3 1.1 14 5 19.4 9.35 5.4 4.3 13 12.7 14.35 18.5 1.2 5.75 1.9 21.4 1.2 21.4"/><path fill="#CB1E36" d="m771.2 888.25.4 39.15H252.65l-.25-39.15c-.45.4 172.55-35.7 177.25-36.4s25.85-8.15 35-16.75c9.25-8.55 17.55-28.35 17.55-28.35s1.1-174.35.85-180.15a88 88 0 0 0-6.65-26.4c-3.3-7.35-10.4-12.9-18-17-7.75-4.3-77.55-20.1-77.15-20.35l-.25-94.5s2.6-24.1 12.7-37.35c10-13.45 26.3-20.65 32.65-21.5a32477 32477 0 0 1 172.85-1.35c8.85.85 21.7 10.4 29 19.25 7.5 8.85 13.85 22.95 13.85 30.3v104.7s-70 15.8-77.55 20.1c-7.65 4.15-14.7 9.8-18.15 17.15A94 94 0 0 0 540 625.9c-.3 6 .85 180.15.85 180.15s7.6 21.7 16.7 30.3c9.15 8.6 31 16.2 35.7 16.9a18820 18820 0 0 1 177.95 35"/></svg>