<svg xmlns="http://www.w3.org/2000/svg" viewBox="0 0 1024 1024"><path fill="#FFA100" d="M417.899 90.125h182.256c16.576 0 22.619 1.715 28.661 4.981s10.779 8.002 14.045 14.045 4.98 12.085 4.98 28.661v748.376c0 16.576-1.714 22.619-4.98 28.661s-8.002 10.779-14.045 14.045-12.085 4.981-28.661 4.981H417.899c-16.576 0-22.619-1.715-28.661-4.981s-10.779-8.002-14.045-14.045-4.981-12.085-4.981-28.661V137.812c0-16.576 1.715-22.619 4.981-28.661s8.002-10.779 14.045-14.045 12.085-4.981 28.661-4.981"/><path fill="#F85858" d="M141.412 379.187H321.3c16.985 0 23.19 1.796 29.396 5.062 6.206 3.348 11.105 8.166 14.372 14.372 3.348 6.206 5.062 12.412 5.062 29.396V884.88c0 16.985-1.796 23.19-5.062 29.397s-8.166 11.105-14.372 14.371c-6.206 3.348-12.411 5.063-29.396 5.063H141.412c-16.984 0-23.19-1.797-29.396-5.063s-11.105-8.166-14.371-14.371-5.063-12.412-5.063-29.397V428.017c0-16.984 1.797-23.19 5.063-29.396 3.348-6.206 8.165-11.105 14.371-14.372s12.412-5.062 29.396-5.062"/><path fill="#379DF8" d="M687.527 454.31h198.26c13.8 0 18.781 1.47 23.844 4.165 5.062 2.694 8.982 6.695 11.676 11.676 2.695 5.063 4.165 10.044 4.165 23.844v400.114c0 13.8-1.47 18.78-4.165 23.843-2.694 5.063-6.695 8.982-11.676 11.677-5.063 2.695-10.044 4.164-23.844 4.164h-198.26c-13.8 0-18.781-1.47-23.844-4.164-5.062-2.695-8.982-6.696-11.677-11.677-2.694-5.063-4.164-10.044-4.164-23.843V493.995c0-13.8 1.47-18.781 4.164-23.844 2.695-5.062 6.696-8.982 11.677-11.676 5.063-2.695 10.044-4.165 23.844-4.165"/><path fill="#FFF" d="M499.8 278.75h-16.086v-31.03h50.708v153.76h-34.377zm-288 301.473h-31.846v-8.492c0-8.9.163-15.76.571-20.577.409-4.818 1.634-9.227 3.757-13.147s4.409-6.777 6.695-8.41c2.368-1.715 4.655-2.94 7.023-3.756 2.286-.817 4.98-1.47 8.084-2.123 3.103-.572 6.042-.899 8.819-.899h31.437c2.123 0 4.981.409 8.41 1.225 3.512.817 6.37 1.633 8.574 2.613a21.4 21.4 0 0 1 5.88 3.593c1.714 1.47 3.184 3.021 4.49 4.654s2.532 3.757 3.675 6.206c1.143 2.532 1.96 4.41 2.45 5.798.408 1.388.817 3.756 1.143 7.186s.572 5.879.653 7.349.164 4.654.164 9.635c-.082 8.002-.327 13.718-.817 17.148s-1.061 6.206-1.796 8.41c-.735 2.205-1.715 4.41-2.858 6.614s-2.532 4.328-4.083 6.206-3.675 3.43-6.45 4.655c-2.777 1.224-4.819 2.041-6.125 2.286-1.307.327-7.104 1.062-17.311 2.205l-15.515 2.286c-3.43.408-5.879 1.062-7.267 1.797s-2.531 1.796-3.43 3.266c-.898 1.47-1.47 3.021-1.633 4.817l-.245 7.186-.081 2.287q-.123 2.204.735 3.184c.326.408.734.817 1.306 1.143s1.062.49 1.633.49c.49 0 2.123.082 4.818.082h59.69v30.866H180.036V639.26c0-7.186.244-12.085.734-14.535.49-2.531 1.144-5.39 1.96-8.737s2.123-6.37 3.838-9.146 3.593-4.98 5.553-6.532c1.96-1.633 4.082-2.94 6.369-4.083s5.144-2.041 8.492-2.94c3.348-.816 7.512-1.551 12.493-2.123 4.9-.571 8.003-.98 9.227-1.306l3.43-.653c4.818-.735 7.92-1.307 9.227-1.715s2.45-1.307 3.43-2.776c.98-1.47 1.633-3.675 1.796-6.696l.327-8.41c.408-7.268-.164-11.84-1.878-13.637-1.47-1.47-2.858-2.287-4.083-2.45s-3.675-.245-7.186-.245h-9.227c-2.613 0-4.736.408-6.45 1.307s-3.022 1.796-3.92 2.776-1.47 4.246-1.878 9.635c-.409 5.471-.49 8.737-.409 9.962v3.266zm544.563 151.309V701.89h34.622c1.551 0 3.43-.245 5.552-.817 2.205-.571 3.756-1.225 4.655-2.041.98-.817 1.633-1.96 2.123-3.348s.735-4.165.735-8.247-.327-6.941-1.062-8.656c-.98-2.041-2.205-3.511-3.756-4.328s-3.675-1.225-6.288-1.225H775.96q-6.125 0-8.329 1.96c-1.47 1.307-2.45 2.287-2.776 2.94s-.572 2.776-.572 6.369v7.186h-29.56c0-1.633 0-2.777-.08-3.511 0-.735-.083-2.777-.164-6.043s0-6.37.081-9.227c.327-6.86 1.47-12.167 3.512-16.086 2.041-3.838 4.164-6.614 6.369-8.248s4.818-3.102 7.757-4.49 7.35-2.124 13.31-2.124h42.543q3.306 0 8.574 1.47c3.51.98 6.859 2.695 9.962 4.981s5.552 5.798 7.267 10.289 2.776 8.655 3.103 12.411c.408 3.757.49 7.921.408 12.575-.163 5.471-.571 10.207-1.388 14.29-.735 4.083-1.796 6.86-3.103 8.33l-5.144 6.695c2.531 2.776 4.328 5.063 5.552 6.777a26.7 26.7 0 0 1 2.858 5.716c.735 2.123 1.389 4.736 1.96 8.003s.817 8.982.735 17.31c-.163 5.063-.408 8.901-.735 11.432-.327 2.613-.98 5.553-1.96 8.9-.98 3.349-2.123 6.125-3.348 8.248q-1.836 3.185-5.879 6.86-3.92 3.673-6.369 4.654c-2.449.981-4.41 1.388-8.41 2.123-4.083.735-6.615 1.143-7.84 1.143h-28.66l-10.044.245a42.6 42.6 0 0 1-10.452-1.552c-3.511-.98-6.696-2.531-9.554-4.736s-5.39-5.716-7.594-10.452c-2.205-4.817-3.348-9.227-3.511-13.391-.164-4.165-.245-7.92-.245-11.187v-6.45h31.192q-.122 4.898 0 8.573.123 3.797 1.47 5.144c.898.98 1.878 1.552 2.858 1.878 1.062.327 3.103.409 6.206.409h16.25c3.756 0 6.695-.735 8.818-2.287 2.123-1.551 3.43-4.327 3.838-8.41s.327-8.003-.245-11.84c-.49-2.94-1.388-5.145-2.613-6.533-1.225-1.47-2.94-2.123-4.98-2.123h-40.665z"/></svg>