<svg xmlns="http://www.w3.org/2000/svg" viewBox="0 0 1024 1024"><path fill="#349CEC" d="M62 512a450 450 0 1 0 900 0 450 450 0 1 0-900 0"/><path fill="#FFF" d="M447.147 460.8h138.24c17.066 0 29.013 8.533 29.013 17.067V563.2c0 8.533-11.947 17.067-29.013 17.067H392.533V614.4h192.854c34.133 0 63.146-22.187 63.146-51.2v-85.333c0-29.014-29.013-51.2-63.146-51.2h-138.24v-51.2l-71.68 71.68 71.68 71.68zM563.2 273.067h119.467c29.013 0 51.2 22.186 51.2 51.2v375.466c0 29.014-22.187 51.2-51.2 51.2H563.2c0-29.013-22.187-51.2-51.2-51.2s-51.2 22.187-51.2 51.2H341.333c-29.013 0-51.2-22.186-51.2-51.2V324.267c0-29.014 22.187-51.2 51.2-51.2H460.8c0 29.013 22.187 51.2 51.2 51.2s51.2-22.187 51.2-51.2"/></svg>