<svg xmlns="http://www.w3.org/2000/svg" viewBox="0 0 1024 1024"><path fill="#7dc5eb" d="M62 512a450 450 0 1 0 900 0 450 450 0 1 0-900 0"/><path fill="#1296db" d="M492.97 526.78a158.446 158.446 0 1 0 0-316.883c-87 0-158.004 70.984-158.004 158.617 0 87.281 70.974 158.316 158.004 158.316zm-60.394 28.986c-110.25 0-192.447 76.119-192.447 186.338v11.776c0 57.681 88.196 57.681 199.67 57.681h112.089c-47.695-30.735-78.862-83.573-78.862-143.677v-.391a170.33 170.33 0 0 1 41.677-111.777h-82.177zm0 0"/><path fill="#1296db" d="M772.698 616.231a139.5 139.5 0 0 0-29.93-44.972 135 135 0 0 0-44.973-30.202 141.5 141.5 0 0 0-110.219 0 139.66 139.66 0 0 0-75.486 75.174 135.7 135.7 0 0 0-11.172 54.406v.905c0 19.592 3.597 38.039 11.172 55.26a144.1 144.1 0 0 0 30.193 45.605 140.8 140.8 0 0 0 45.293 30.534 136.8 136.8 0 0 0 55.26 11.172 140.46 140.46 0 0 0 99.931-41.716 141.5 141.5 0 0 0 29.931-45.605c7.576-17.221 11.173-35.688 11.173-55.26a137.4 137.4 0 0 0-11.173-55.301m-62.816 55.763a14.46 14.46 0 0 1-14.468 14.488h-38.562v38.572a14.46 14.46 0 0 1-14.458 14.458 14.46 14.46 0 0 1-14.458-14.458v-38.572h-38.572a14.46 14.46 0 0 1-14.458-14.458 14.46 14.46 0 0 1 14.458-14.458h38.572v-38.602a14.46 14.46 0 0 1 14.458-14.458 14.46 14.46 0 0 1 14.458 14.458v38.572h38.562a14.46 14.46 0 0 1 14.458 14.458z"/></svg>