<svg xmlns="http://www.w3.org/2000/svg" viewBox="0 0 1024 1024"><path fill="#4290F7" d="M174.5 62h675Q962 62 962 174.5v675Q962 962 849.5 962h-675Q62 962 62 849.5v-675Q62 62 174.5 62"/><path fill="#FFF" d="M248.49 588.64c6.69 29.4 20.572 87.223 34.407 116.145.728 1.456 1.206 2.867 1.912 4.073 2.867 4.529 7.645 7.646 13.38 7.646a15.5 15.5 0 0 0 4.801-.956c.455-.25.956-.25 1.639-.5 19.137-4.529 39.207-9.785 52.383-11.469 29.127-3.823 162.02 30.583 199.066 33.473 37.046 2.868 78.643-35.59 105.858-50.176 27.262-14.586 114.256-71.224 114.256-71.224s4.278-39.914-42.325-29.4c-46.581 10.512-118.511 50.175-118.511 50.175s-51.883 15.793-88.2 5.03c-25.35-7.396-58.801-18.66-71.908-31.79-12.448-12.425-11.014-24.85-.501-23.21 21.504 3.367 104.448 11.263 127.135 4.323 22.46-6.918 35.135-33.678 25.327-50.199 0 0-29.354-1.638-97.257-16.703-68.107-15.064-84.833-25.577-114.233-12.674-22.71 10.058-72.909 39.936-133.12 55.41a18.32 18.32 0 0 0-14.108 22.004zm489.245-282.009c0-18.41-14.837-33.223-33.246-33.223H484.42c-18.432 0-33.473 14.814-33.473 33.223a33.146 33.146 0 0 0 33.223 33.223h220.092c18.409 0 33.473-14.814 33.473-33.223m0 119.99c0-18.432-14.837-33.223-33.246-33.223H484.42a33.117 33.117 0 0 0-33.223 33.223c0 18.387 14.791 33.2 33.2 33.2h220.115a33.45 33.45 0 0 0 33.223-33.223z"/></svg>