<svg xmlns="http://www.w3.org/2000/svg" viewBox="0 0 1024 1024"><circle cx="512" cy="512" r="430" fill="#fff"/><path fill="#d81e06" d="M412.661 388.236h247.567v36.013H412.661z"/><path fill="#d81e06" d="M391.328 388.236h247.567v36.013H391.328z"/><path fill="#d81e06" d="M506.132 47.308C258.814 47.31 58.23 247.835 58.23 495.211c0 247.31 200.584 447.893 447.902 447.893 247.376 0 447.921-200.585 447.921-447.893 0-247.376-200.545-447.903-447.92-447.903zm140.99 204.089 54.392 54.334h-54.391v-54.334zM630.63 794.323l-33.043-18.74-32.986 18.74v-85.054c10.246 4.036 21.369 6.32 32.986 6.322 11.711 0 22.833-2.285 33.043-6.322zm-33.043-101.13c-37.71 0-68.37-30.66-68.37-68.371 0-37.737 30.66-68.42 68.37-68.42 37.765 0 68.428 30.683 68.428 68.42 0 37.71-30.662 68.372-68.428 68.37zm115.545 25.103h-66.01v-17.52c24.834-16.19 41.251-44.186 41.251-75.954 0-50.079-40.68-90.797-90.787-90.797-50.013 0-90.731 40.718-90.731 90.797 0 31.768 16.457 59.764 41.252 75.953v17.521H317.091V239.702H630.63v74.276c0 4.55 3.694 8.246 8.264 8.246h74.238z"/><path fill="#d81e06" d="M391.328 470.758h165.045v36.013H391.328z"/></svg>