<svg xmlns="http://www.w3.org/2000/svg" viewBox="0 0 1024 1024"><path fill="#1296db" d="M.559 512a512 512 0 1 0 1024 0 512 512 0 1 0-1024 0"/><path fill="#fff" d="m194.932 765.393 170.357-98.49 59.578-91.974a60.14 60.14 0 0 0 30.161 33.7l26.252 12.846-59.764 93.09A37.2 37.2 0 0 1 409.6 726.11L231.61 828.881a36.305 36.305 0 0 1-36.305-62.743zm526.523-389.492a84.527 84.527 0 1 1 84.526-84.526 84.527 84.527 0 0 1-84.526 84.526m-40.402 81.734a60.7 60.7 0 0 0 20.108-48.035l39.098 26.252 73.17-80.059a36.305 36.305 0 0 1 53.434 48.78l-94.208 103.145a36.12 36.12 0 0 1-46.918 5.585l-61.068-40.96zm0 0"/><path fill="#fff" d="m606.022 655.36-140.567-68.329a36.305 36.305 0 0 1-8.192-59.578l124.369-110.592-74.473-49.152-108.544 31.092a36.305 36.305 0 0 1-19.921-69.632l124.555-35.56a36.12 36.12 0 0 1 29.976 4.654l127.348 84.34a36.305 36.305 0 0 1 4.096 57.158L545.513 545.7l127.72 62.185a36.305 36.305 0 0 1 14.895 51.572L591.5 815.849a36.12 36.12 0 1 1-61.627-37.237zm0 0"/></svg>