<svg xmlns="http://www.w3.org/2000/svg" viewBox="0 0 1024 1024"><path fill="#4C9DF5" d="M62 512a450 450 0 1 0 900 0 450 450 0 1 0-900 0"/><path fill="#FFF" d="M297.605 468.802a13.18 13.18 0 0 0 13.179-13.16V310.784h144.858a13.16 13.16 0 1 0 0-26.34H297.624a13.18 13.18 0 0 0-13.18 13.18v158.018a13.18 13.18 0 0 0 13.16 13.16zM455.642 732.18H310.784V587.321a13.18 13.18 0 0 0-26.34 0v158.018a13.18 13.18 0 0 0 13.16 13.18h158.038a13.18 13.18 0 0 0 0-26.34zM745.34 284.444H587.321a13.18 13.18 0 0 0 0 26.34h144.858v144.858a13.18 13.18 0 0 0 26.34 0V297.624a13.16 13.16 0 0 0-13.18-13.18zm0 289.717a13.16 13.16 0 0 0-13.16 13.16v144.858H587.321a13.16 13.16 0 1 0 0 26.34h158.018a13.16 13.16 0 0 0 13.18-13.18V587.321a13.16 13.16 0 0 0-13.18-13.16zm0-65.859H297.624a13.18 13.18 0 0 0 0 26.359h447.715a13.18 13.18 0 0 0 0-26.359z"/></svg>