<svg xmlns="http://www.w3.org/2000/svg" viewBox="0 0 1024 1024"><path fill="#78909C" d="M474.1 109.1c-4.9-2.4-13-2.4-17.9 0L106.3 282c-4.9 2.4-9 8.9-9 14.4v234c0 5.5 4.5 10 10 10l715.8 2.2c5.5 0 10-4.5 10-10l-.2-236.3c0-5.5-4-12-9-14.4z"/><path fill="#FF5722" d="M709.3 436H332.7c-5.5 0-10-4.5-10-10V107.7c0-5.5 4.5-10 10-10h376.6c5.5 0 10 4.5 10 10V426c0 5.5-4.5 10-10 10"/><path fill="#FFCCBC" d="M624.3 492.4H247.7c-5.5 0-10-4.5-10-10V164.2c0-5.5 4.5-10 10-10h376.6c5.5 0 10 4.5 10 10v318.3c0 5.4-4.5 9.9-10 9.9"/><path fill="#CFD8DC" d="M107.4 762.6c-5.5 0-10-4.5-10-10V295.5c0-5.5 4.1-8.1 9.1-5.8l349.1 160.1c5 2.3 13.2 2.3 18.2 0l350-160.1c5-2.3 9.1.3 9.1 5.8l.3 457.1c0 5.5-4.5 10-10 10z"/><path fill="#FF5722" d="M293.7 230h283.9v57H293.7z"/><path fill="#F44336" d="M523 492c-24.3 0-45.7 12.1-57.8 31.2-12.2-19.1-33.5-31.2-57.8-31.2-38.2 0-69.4 31.2-69.4 69.4 0 68.8 127.2 138.8 127.2 138.8s127.2-69.4 127.2-138.8c0-38.2-31.2-69.4-69.4-69.4"/><path fill="#FFCCBC" d="M492.4 609.7h-20.5v-13.6h20.5c3.8 0 6.8-3 6.8-6.8s-3-6.8-6.8-6.8h-14l13.3-24.4c1.7-3.1.7-7-2.2-8.9-2.9-1.8-6.6-.7-8.3 2.4L466 579.7c-.5.9-.7 1.9-.8 2.9h-.1c-.1-1-.3-2-.8-2.9l-15-28c-1.7-3.1-5.4-4.1-8.2-2.4-2.9 1.8-3.9 5.8-2.2 8.9l13.1 24.4h-14c-3.8 0-6.8 3-6.8 6.8s3 6.8 6.8 6.8h20.5v13.6H438c-3.8 0-6.8 3-6.8 6.8s3 6.8 6.8 6.8h20.5v14.3c0 3.4 3 6.1 6.8 6.1s6.8-2.7 6.8-6.1v-14.3h20.5c3.8 0 6.8-3 6.8-6.8-.1-3.8-3.2-6.9-7-6.9"/><path fill="#43A047" d="M543.1 734.5a191.8 191.8 0 1 0 383.6 0 191.8 191.8 0 1 0-383.6 0"/><path fill="#FFF" d="M706.5 855h-85c-7.8 0-14.1-6.3-14.2-14.1v-85.3c0-7.8 6.3-14.1 14.1-14.1H664v-42.4l70.9-42.5V614h56.7v28.3H749V665l56.7 34v42.6h42.5c7.8 0 14.1 6.3 14.2 14v85.3c0 7.8-6.3 14.1-14.1 14.1h-85.1v-56.7c0-15.7-12.7-28.4-28.4-28.4s-28.4 12.7-28.4 28.4V855z"/></svg>