<svg xmlns="http://www.w3.org/2000/svg" viewBox="0 0 1024 1024"><path fill="#0BF" d="M62 512a450 450 0 1 0 900 0 450 450 0 1 0-900 0"/><path fill="#004387" d="M711.884 273.823 213.06 391.963c-24.23 5.737-32.78 35.845-15.159 53.451l134.662 134.663v155.46c0 13.725 16.215 21.01 26.48 11.883l74.588-66.29 144.956 144.956c17.606 17.606 47.714 9.07 53.451-15.16l118.14-498.824c5.456-23.02-15.258-43.735-38.293-38.279z"/><path fill="#007FC3" d="M750.317 299.164c-.14-.801-.197-1.631-.394-2.419a31.7 31.7 0 0 0-2.46-6.23l-.155-.337a33.5 33.5 0 0 0-4.008-5.864L390.275 633.725l-50.977 114.68c5.64 3.98 13.697 4.401 19.744-.97l74.588-66.291L578.586 826.1c9.337 9.338 22.106 11.152 32.976 7.34a33.6 33.6 0 0 0 6.863-3.318l.169-.127a30.5 30.5 0 0 0 5.667-4.682c.562-.591.97-1.336 1.49-1.97 1.14-1.391 2.293-2.77 3.193-4.4 1.322-2.434 2.404-5.091 3.094-8.002l118.139-498.825c.646-2.728.871-5.414.815-8.03-.028-1.702-.365-3.305-.675-4.922"/></svg>