<svg xmlns="http://www.w3.org/2000/svg" viewBox="0 0 1024 1024"><path fill="#4E8DF6" d="M77 768.5c-21-27-19.5-72 4.5-94.5 54-54 145.5-132 205.5-132 90 0 397.5 3 415.5 27 18 22.5 3 94.5-84 102-61.5 6-139.5 4.5-180 7.5-7.5 0-9 13.5-3 18 33 21 97.5 54 175.5 51 64.5-3 126-37.5 174-91.5 40.5-45 100.5-108 127.5-108 19.5 0 33 4.5 42 9 7.5 4.5 9 15 4.5 24-31.5 52.5-156 244.5-291 297-114 42-238.5 28.5-301.5 16.5-25.5-4.5-52.5 3-73.5 21L267.5 938c-19.5 16.5-46.5 13.5-63-7.5z"/><path fill="#E1E1DF" d="M617 482q-4.5 0-9-4.5L434 290c-21-24-33-54-33-87s12-64.5 34.5-88.5c21-24 51-37.5 81-37.5 25.5 0 51 9 70.5 25.5 12 10.5 22.5 22.5 30 36 7.5-13.5 18-27 30-36C668 86 692 77 717.5 77c31.5 0 60 13.5 82.5 37.5s34.5 55.5 34.5 88.5-12 63-33 87L626 479c-1.5 1.5-4.5 3-9 3"/><path fill="#2166CC" d="M503 506q-4.5 0-9-4.5l-175.5-189c-21-24-33-54-33-87s12-64.5 34.5-88.5 51-37.5 82.5-37.5c25.5 0 51 9 70.5 25.5 12 10.5 22.5 22.5 30 36 7.5-13.5 18-27 30-36 21-16.5 45-25.5 70.5-25.5 31.5 0 60 13.5 82.5 37.5s34.5 55.5 34.5 88.5-12 63-33 87L510.5 503c-1.5 1.5-4.5 3-7.5 3"/></svg>