<svg xmlns="http://www.w3.org/2000/svg" viewBox="0 0 1024 1024"><path fill="#607D8B" d="M824 554.667c2-14 4-28 4-44s-2-30-4-44l90-64c8-6 12-18 6-28l-88-148c-6-10-16-14-26-8l-100 46c-24-18-48-32-76-44l-10-110c-2-10-10-18-20-18H428c-10 0-20 8-20 18l-10 110c-28 12-54 26-76 44l-100-46c-10-4-22 0-26 8l-86 148c-6 10-2 22 6 28l90 64c-2 14-4 28-4 44s2 30 4 44l-94 64c-8 6-12 18-6 28l86 148c6 10 16 14 26 8l100-46c24 18 48 32 76 44l10 110c2 10 10 18 20 18h172c10 0 20-8 20-18l10-110c28-12 54-26 76-44l100 46c10 4 22 0 26-8l86-148c6-10 2-22-6-28zm-312 156c-110 0-200-90-200-200s90-200 200-200 200 90 200 200-90 200-200 200"/><path fill="#455A64" d="M512 270.666c-132 0-240 108-240 240s108 240 240 240 240-108 240-240-108-240-240-240m0 340c-56 0-100-43.999-100-100s44-99.999 100-99.999 100 44 100 100-44 100-100 100z"/></svg>