<svg xmlns="http://www.w3.org/2000/svg" viewBox="0 0 1024 1024"><path fill="#21A905" d="M360.536 90.125h302.893c94.04 0 128.14 9.773 162.52 28.159a191.66 191.66 0 0 1 79.732 79.731c18.386 34.381 28.159 68.482 28.159 162.52V663.43c0 94.04-9.773 128.14-28.16 162.52a191.66 191.66 0 0 1-79.73 79.732c-34.382 18.386-68.482 28.159-162.52 28.159H360.535c-94.04 0-128.14-9.773-162.521-28.16a191.66 191.66 0 0 1-79.731-79.765c-18.386-34.347-28.159-68.447-28.159-162.486V360.536c0-94.04 9.773-128.14 28.159-162.521a191.66 191.66 0 0 1 79.766-79.731c34.346-18.386 68.447-28.159 162.486-28.159z"/><path fill="#FFF" d="M528.224 739.523a16.34 16.34 0 0 1-16.247-16.337V576.828c-121.145 5.916-199.558 76.137-200.377 76.91a16.16 16.16 0 0 1-18.795 2.14 16.34 16.34 0 0 1-8.1-17.203c.454-2.276 10.603-56.75 45.144-111.77 43.69-69.539 106.492-108.404 182.492-113.137a2515 2515 0 0 1-.364-49.468v-63.531a16.292 16.292 0 0 1 28.216-11.059L735.2 501.965a16.383 16.383 0 0 1 0 22.209L540.102 734.335a16.25 16.25 0 0 1-11.832 5.188z"/></svg>