<svg xmlns="http://www.w3.org/2000/svg" viewBox="0 0 1024 1024"><path fill="#466BE0" d="M927.9 238.1H288.6l-23.5-74.7c-4.6-14.7-18.2-24.7-33.6-24.7H97.6c-19.5 0-35.3 15.8-35.3 35.3s15.8 35.3 35.3 35.3h108l157.5 499.9c4.6 14.7 18.2 24.7 33.6 24.7h495.7c19.5 0 35.3-15.8 35.3-35.3s-15.8-35.3-35.3-35.3H422.5L407.6 616l524-59.4c16.9-1.9 29.7-16.2 29.7-33.2V271.6c.1-18.5-14.9-33.5-33.4-33.5"/><path fill="#80A1FF" d="M402.453 823.893a64.64 64.64 0 1 0 129.28 0 64.64 64.64 0 1 0-129.28 0m354.667 0a64.64 64.64 0 1 0 129.28 0 64.64 64.64 0 1 0-129.28 0"/></svg>