<svg xmlns="http://www.w3.org/2000/svg" viewBox="0 0 1024 1024"><path fill="#EFEFEF" d="M90.125 381.482c0 17.798 7.251 34.937 19.775 47.461l456.812 458.79c12.524 12.524 29.663 19.775 48.12 19.775s34.937-7.251 48.12-19.776L914.1 635.267c12.524-12.525 19.775-29.663 19.775-47.461s-7.251-34.937-19.775-47.461L512 136.268c-12.524-12.525-30.322-19.776-48.12-19.776h-99.536c-17.798 0-34.278 6.592-46.802 18.457L110.56 332.703c-12.525 12.525-20.435 30.322-20.435 48.78z"/><path fill="#EFC75E" d="m551.375 326.375 237.656 234.14c14.766 14.766 14.766 37.97 0 52.735L645.594 753.875c-14.766 14.766-38.672 14.766-53.438 0L354.5 519.735c-14.766-14.766-14.766-37.97 0-52.735l143.438-140.625c14.765-14.766 38.671-14.766 53.437 0"/><path fill="#cdcdcd" d="M245.691 363.025c-4.614-3.955-2.636-10.546 1.978-15.16 5.933-5.933 12.524-6.593 16.48-10.548 3.955-3.955 3.295-10.546-.66-14.502-7.91-7.91-24.39 3.956-30.322 9.888-13.843 13.843-16.48 34.277-1.978 48.12 23.73 23.73 50.757-17.798 62.623-5.273 5.273 5.273 5.273 12.524-1.319 19.116s-16.48 8.57-21.094 13.184c-3.955 3.955-3.295 9.887.66 13.842 9.887 9.229 28.344-5.273 36.254-13.183 13.843-13.843 17.14-34.937 2.637-49.439-27.026-26.367-54.712 13.843-65.259 3.955m34.278-75.146c-4.615 4.614-4.615 10.547 0 15.82l58.008 58.008c5.273 5.273 11.206 4.614 15.82 0s4.614-10.547 0-15.82l-58.008-58.008c-5.273-5.274-11.206-4.614-15.82 0m90.307-90.308c-5.273 5.274-5.273 12.525-2.636 17.798l28.344 52.075L343.25 239.1c-4.614-2.637-12.524-1.978-17.798 2.636-5.273 5.274-5.273 13.843-1.977 17.798l47.46 65.918c.66.66 1.319 1.319 1.319 1.978 4.614 4.614 10.547 3.955 14.502 0 5.273-5.274 4.614-9.229.659-15.161l-35.596-47.461 55.371 30.322c3.296 1.977 8.57 3.296 13.843-1.978s3.955-10.547 1.978-13.842l-30.323-54.712 47.461 35.595c5.274 3.955 9.888 4.615 15.162-.659 3.955-3.955 4.614-9.888 0-14.502-.66-.659-1.319-1.318-1.978-1.318l-66.577-47.461c-2.637-3.955-11.206-3.955-16.48 1.318"/><path fill="#D7B354" d="m497.938 326.375-38.672 37.969-9.141 9.14-95.625 94.22c-7.734 7.03-11.25 16.874-11.25 26.718s3.516 18.984 11.25 26.719l26.719 26.718 18.984 18.985 57.656 56.953 3.516 3.515 74.531 71.72 18.985 18.984 36.562 36.562c14.766 14.766 38.672 14.766 53.438 0l37.968-37.265 9.844-9.844 48.516-47.813 18.984-18.984 28.125-27.422c7.735-7.031 11.25-16.875 11.25-26.719s-3.515-18.984-11.25-26.718l-36.562-35.86-18.985-18.984-181.406-178.594c-14.766-14.766-38.672-14.766-53.438 0zm-82.266 224.297 40.078-39.375 58.36 56.953-40.079 39.375-58.36-56.953zm77.344 76.64 40.078-39.375 58.36 56.954-40.079 39.375-58.36-56.953zM606.922 739.11l-36.563-35.859 40.078-39.375 48.516 47.813-28.125 28.125c-7.031 5.625-17.578 5.625-23.906-.704M678.64 692 455.75 473.328l-9.844 9.844-49.922 48.515-27.421-26.718c-2.813-2.813-4.922-7.031-4.922-11.25s1.406-8.438 4.921-11.25l96.329-94.219 261.562 256.64zM542.938 426.219l40.078-39.375 57.656 56.953-40.078 39.375-57.657-56.953zM774.265 575.28c2.812 2.813 4.921 7.032 4.922 11.25 0 4.219-1.407 8.438-4.922 11.25l-28.125 28.125-48.516-47.812 40.078-39.375zm-96.328-16.172-58.36-56.953 40.078-39.375 57.657 56.953zM536.609 341.141l26.72 26.718-40.079 39.375-38.672-37.968 28.125-27.422c6.328-7.031 17.578-7.031 23.906-.703"/></svg>