<svg xmlns="http://www.w3.org/2000/svg" viewBox="0 0 1024 1024"><path fill="#DAE2E5" d="M202.639 652.625a309.375 309.375 0 1 0 618.75 0 309.375 309.375 0 1 0-618.75 0"/><path fill="#DAE2E5" d="M315.139 258.875a196.875 196.875 0 1 0 393.75 0 196.875 196.875 0 1 0-393.75 0"/><path fill="#E29460" d="M933.89 315.125h-56.25v-56.25a28.125 28.125 0 1 0-56.25 0v72.731l-96.709 96.708a310 310 0 0 1 37.167 42.384l99.31-99.309h72.731a28.125 28.125 0 1 0 0-56.264zm-731.25-56.25a28.125 28.125 0 1 0-56.25 0v56.25H90.14a28.125 28.125 0 1 0 0 56.25h72.73l99.31 99.31a310 310 0 0 1 37.167-42.385l-96.708-96.694v-72.731z"/><path d="M483.889 568.25a28.125 28.125 0 1 0 56.25 0 28.125 28.125 0 1 0-56.25 0m0 112.5a28.125 28.125 0 1 0 56.25 0 28.125 28.125 0 1 0-56.25 0m0 112.5a28.125 28.125 0 1 0 56.25 0 28.125 28.125 0 1 0-56.25 0"/><path fill="#434854" d="M540.139 202.625a28.125 28.125 0 1 0 56.25 0 28.125 28.125 0 1 0-56.25 0m-112.5 0a28.125 28.125 0 1 0 56.25 0 28.125 28.125 0 1 0-56.25 0"/><path d="M664.34 383.54c-36.085 44.085-90.915 72.21-152.326 72.21s-116.24-28.125-152.325-72.21c-8.212 4.668-16.2 9.646-23.92 14.99 41.217 51.947 104.751 85.345 176.245 85.345s135.028-33.398 176.245-85.331a315 315 0 0 0-23.92-15.005z"/><path d="m531.983 320.075-39.769 39.769a28.125 28.125 0 0 1-39.783 0 27.96 27.96 0 0 1-7.242-12.853 27.98 27.98 0 0 0 7.242 26.915 28.125 28.125 0 0 0 39.783 0l39.769-39.769a27.98 27.98 0 0 0 7.242-26.915 27.77 27.77 0 0 1-7.242 12.853"/><path fill="#FC821F" d="M492.144 360.716a28.125 28.125 0 1 1-39.783-39.77l39.769-39.768a28.11 28.11 0 1 1 39.783 39.769z"/><path d="M512.014 849.5c-117.97 0-224.48-48.53-301.05-126.563C242.858 859.85 365.37 962 512.014 962s269.17-102.15 301.05-239.063C736.494 800.97 629.984 849.5 512.014 849.5"/></svg>