<svg xmlns="http://www.w3.org/2000/svg" viewBox="0 0 1024 1024"><path fill="#E16638" d="m814.302 262.367 2.343-.235 2.11-.234 1.64-.234 2.577-.469 1.406-.234 2.813-.703.937-.235a86.543 86.543 0 0 0 60.929-106.157c-5.859-20.388-18.513-37.963-36.089-49.68l-.703-.47-1.64-.937-1.875-.937h-.234a86.097 86.097 0 0 0-117.874 31.87c-5.625 9.609-9.14 20.388-10.78 31.403v1.406c0 .468 0 1.64-.235 2.343s0 1.875 0 2.812v12.655c0 1.406.235 2.812.47 4.452a86.64 86.64 0 0 0 57.179 69.834l.937.235 3.28.937 1.876.469 1.64.468 2.343.469 1.406.234 3.047.469h1.406l3.515.469h.234l3.75.234h11.717z"/><path fill="#FFE71E" d="m452.946 307.126 1.171-.703 3.984-2.343 1.64-.938 3.984-2.343 2.344-1.406 3.75-2.11 2.811-1.64 2.813-1.64 2.812-1.64 5.39-3.047c-65.382-.234-274.65-3.75-358.076-5.155-18.747-.47-34.448 14.763-34.682 33.51v11.718c1.64 17.575 16.404 30.699 33.98 30.699h258.948c5.858-5.86 11.951-11.483 18.278-16.639 16.17-13.357 33.043-25.309 50.853-36.323"/><path fill="#F29727" d="M346.554 493.194c-3.75-5.156-6.561-11.014-8.202-17.107a78 78 0 0 1-2.343-32.105v-4.218l.234-1.406v-.703c0-.469 0-.938.235-1.406v-.469l.468-1.64v-.469l.235-1.406v-.703l.234-.937.469-1.172v-.234c1.171-4.219 2.109-6.796 2.109-6.796H124.866c-18.747 0-34.214 15.232-34.214 34.214v2.812c0 18.747 15.233 34.214 34.214 34.214z"/><path fill="#FD6758" d="m103.072 618.099.703.468.47.469.702.469.469.468.937.469.469.234.937.469.469.234.937.469.469.234.937.47.47.233.936.47.703.233.938.47.703.233.937.235h301.599l-44.76-66.788h-247.23a34.097 34.097 0 0 0-33.98 37.73c.234 2.811.937 5.624 1.874 8.436l.469 1.406.703 1.406.703 1.171.703 1.172v.235l.703 1.171v.235l.703 1.171v.235l.703.937v.234l.703.938.235.234.937.937.234.235.938.937z"/><path fill="#E16638" d="M783.158 455.113a10.08 10.08 0 0 1-7.968-3.046l-.469-.703a9.37 9.37 0 0 1-1.874-5.39l-4.453-112.25a7.73 7.73 0 0 0-1.406-4.453l-53.43-84.831a6.3 6.3 0 0 0-1.64-1.875l-.703-.469-111.547-74.52c-22.966-15.467-36.558-28.356-59.758-26.716-1.64 0-3.046.234-4.921.469-26.48 3.046-233.17 16.872-227.78 60.46 5.155 40.541 195.44 19.92 223.327 16.873 2.11-.235 4.453.234 6.093 1.64l66.554 51.79c1.64 1.172 2.577 3.046 3.046 4.921v3.984c0 .234-.234.703-.469.937l-.234.469v.469c-.703 1.171-1.64 2.109-2.578 2.812-34.448 23.434-151.62 103.11-167.086 115.53-21.794 14.295-34.448 38.667-33.745 64.68.469 12.42 3.28 24.605 7.967 36.088l.47 1.406.937 2.578.937 2.577.703 1.64 1.64 2.813.469.937 1.64 3.515.235.47c2.578 5.389 5.155 10.779 8.202 16.169 28.12 48.04 60.694 93.034 97.252 134.747 0 0-100.064 2.812-142.95 5.39s-71.942 11.951-71.942 41.01v5.858c3.984 24.606 34.917 32.574 56.945 34.448 23.669 1.875 280.508 14.53 303.24-7.264 22.73-21.794 1.874-54.602 1.874-54.602l-111.078-186.77 123.03-85.067c3.749-2.578 8.904-1.64 11.716 2.109.235.234.47.469.47.937v-.468c.702.937.937 2.109 1.17 3.28 1.876 12.89 4.22 33.746 5.156 54.836v.235c1.64 34.682 13.827 40.307 31.168 39.604 119.515.468 186.77-3.515 199.894-33.98 1.172-2.812 1.875-5.859 2.344-8.905v-1.406c-.704-31.87-115.297-25.543-150.448-22.966m-282.852 397.21 1.172-1.17 1.875-1.876 1.406-1.406.937-1.171 2.344-2.344.703-.703 2.343-2.343 2.812-2.812c21.325-22.263 37.964-42.182 44.76-50.618l3.28-3.984H442.424s-126.31 123.967-78.505 147.401l2.11.938 2.343.703 2.109.468h.468l1.875.469h10.78l1.64-.234h1.172l1.172-.235 1.874-.468.938-.235 2.577-.703h.47l1.405-.468h.703l2.812-.938h.469c1.64-.703 3.515-1.406 5.156-2.109h.234a358.5 358.5 0 0 0 90.456-69.6l.469-.468 3.515-3.515 1.64-2.578z"/><path fill="#EFAB90" d="M909.445 711.132a321.2 321.2 0 0 0-16.639-77.098 4.2 4.2 0 0 0-1.406-2.11l-.468-.468h-.235c-.468-.234-1.171-.469-1.64-.703a5.5 5.5 0 0 0-4.921 1.875c-.235.234-.235.468-.469.703s-.234.703-.469.937c-14.06 45.697-71.943 179.272-273.946 224.032l-1.172.468a5.39 5.39 0 0 0-2.812 6.327c0 .235.235.47.469.704s.469.468.469.703l.703.468c.234.235.703.469 1.171.469 66.32 24.137 209.034 20.622 273.947-49.915a138.5 138.5 0 0 0 27.418-106.392"/></svg>