<svg xmlns="http://www.w3.org/2000/svg" viewBox="0 0 1024 1024"><path fill="#FCF4C6" d="M90.125 512a421.875 421.875 0 1 0 843.75 0 421.875 421.875 0 1 0-843.75 0"/><path fill="#F4CD03" d="M512 118.25c217.125 0 393.75 176.625 393.75 393.75S729.125 905.75 512 905.75 118.25 729.125 118.25 512 294.875 118.25 512 118.25M512 62C263.445 62 62 263.445 62 512s201.445 450 450 450 450-201.445 450-450S760.555 62 512 62"/><path fill="#FFFF04" d="M406.813 528.594 301.555 426.078l145.406-21.164L512 273.148l65.04 131.766 145.405 21.164-105.258 102.516 24.891 144.843L512 605.024l-130.078 68.414z"/><path fill="#F0CA03" d="m512 304.93 49.148 99.562 6.54 13.29 14.625 2.109 109.898 15.96-79.524 77.555-10.617 10.336 2.532 14.555 18.773 109.476-98.297-51.68-13.078-6.89-13.078 6.89-98.297 51.61 18.773-109.476 2.532-14.555-10.618-10.336-79.523-77.484 109.899-15.961 14.625-2.11 6.539-13.289zm0-63.563-74.39 150.68-166.29 24.187 120.305 117.282-28.406 165.586L512 620.914l148.71 78.188-28.405-165.586 120.304-117.282-166.289-24.187z"/></svg>