<svg xmlns="http://www.w3.org/2000/svg" viewBox="0 0 1024 1024"><path fill="#FFE3DB" d="M61.133 515.942a450.816 450.816 0 1 0 901.632 0 450.816 450.816 0 1 0-901.632 0"/><path fill="#F23D4F" d="m773.53 392.755-59.136 37.427v-94.72c0-33.075-26.778-59.852-59.853-59.852H278.733c-33.075 0-59.853 26.777-59.853 59.852v371.15c0 33.074 26.778 59.852 59.853 59.852H654.54c33.075 0 59.853-26.778 59.853-59.853v-97.229l58.265 39.373c22.477 15.207 52.839-.921 52.839-28.057V421.376c0-26.675-29.39-42.854-51.968-28.62zM571.034 549.581l-136.192 86.17c-20.173 12.748-46.439-1.741-46.439-25.6V431.973c0-24.268 27.085-38.656 47.207-25.088l136.192 92.007c18.073 12.237 17.664 39.014-.768 50.688zm49.254-157.082c-17.357 0-31.437-14.08-31.437-31.437s14.08-31.436 31.437-31.436 31.437 14.08 31.437 31.436-14.08 31.437-31.437 31.437"/><path fill="#FC4956" d="M714.445 430.182v-94.72c0-33.075-26.778-59.852-59.853-59.852H278.784c-33.075 0-59.853 26.777-59.853 59.852v371.15c0 33.074 26.778 59.852 59.853 59.852h222.925c119.193-70.86 202.905-195.123 218.163-339.763zM571.034 549.581l-136.192 86.17c-20.173 12.748-46.439-1.741-46.439-25.6V431.973c0-24.268 27.085-38.656 47.207-25.088l136.192 92.007c18.073 12.237 17.664 39.014-.768 50.688zm49.254-157.082c-17.357 0-31.437-14.08-31.437-31.437s14.08-31.436 31.437-31.436 31.437 14.08 31.437 31.436-14.08 31.437-31.437 31.437"/><path fill="#FF5C64" d="M218.88 335.462V674.97c61.44-8.96 118.886-30.26 169.677-61.39-.103-1.126-.256-2.252-.256-3.43V431.974c0-24.268 27.085-38.656 47.206-25.088l97.229 65.69a448.26 448.26 0 0 0 69.069-196.915H278.733c-33.024-.051-59.853 26.777-59.853 59.801"/><path fill="#FF716E" d="M218.88 335.462v147.815c95.846-41.472 174.49-115.251 222.106-207.667H278.733c-33.024 0-59.853 26.828-59.853 59.852"/></svg>