<svg xmlns="http://www.w3.org/2000/svg" viewBox="0 0 1024 1024"><path fill="#27A244" d="M905.812 800.041c0 58.008-47.46 105.47-105.468 105.47H223.905c-58.008 0-105.469-47.462-105.469-105.47V223.603c0-58.008 47.461-105.469 105.47-105.469h576.438c58.007 0 105.468 47.46 105.468 105.469V800.04z"/><path fill="#FFF" d="M559.617 458.374c8.028 3.948 16.287 7.357 23.874 11.88 37.311 22.088 60.433 54.484 68.675 97.137 1.754 9.177 2.393 18.648 2.425 27.972.213 58.695.099 117.39.099 176.087v3.982c-95.123 15.977-189.901 15.944-284.81.032-.067-1.097-.149-1.802-.149-2.54 0-60.645-.36-121.275.164-181.937.491-58.023 36.623-109.247 90.731-130.336 1.426-.54 2.851-1.13 4.834-1.95-30.232-14.322-51.354-36.411-62.596-67.43-8.815-24.301-9.061-49.012-1.474-73.624 14.845-48.24 59.793-81.128 110.672-81.406 50.552-.28 96.483 33.428 111.05 81.8 8.455 28.07 6.915 55.697-5.293 82.407-12.14 26.578-31.951 45.7-58.202 57.926M681.613 729.6v-4.965c0-42.703-.017-85.439 0-128.109.017-24.071-4.178-47.274-13.715-69.429-.345-.787-.64-1.59-1-2.392-3.654-7.947-3.736-8.03 2.786-13.65 7.324-6.341 15.616-11.257 24.448-15.173 2.327-1.016 4.703-1.917 7.833-3.196-21.154-10.11-36.181-25.235-44.538-46.439-8.39-21.253-8.078-42.67.574-63.775 14.142-34.46 49.7-55.288 87.274-51.485 36.033 3.67 66.43 31.232 73.706 67.363 7.522 37.262-10.389 76.131-48.619 94.205 1.541.672 2.622 1.18 3.752 1.688 37.541 16.238 59.532 44.406 64.989 85.094.59 4.375.704 8.766.72 13.158.05 42.359.033 84.684.033 127.026v3.801c-52.47 8.883-104.906 11.078-158.243 6.278M253.881 492.735c-46.668-21.99-56.877-71.23-46.03-103.594 12.078-36.066 44.982-58.974 81.228-58.565 41.047.459 72.263 28.595 81.226 63.35 9.8 37.885-7.472 80.014-47.553 98.728 1.655.737 2.9 1.343 4.195 1.851 11.799 4.67 22.318 11.373 31.74 19.877 1.884 1.704 2.556 2.966 1.295 5.49-11.93 24.005-17.124 49.585-17.107 76.327.032 42.818 0 85.668 0 128.485v4.9c-53.223 4.834-105.757 2.622-158.325-6.276v-3.786c0-42.49-.426-84.963.115-127.387.59-44.407 21.5-76.393 61.318-96.024 2.474-1.245 5.08-2.18 7.898-3.376"/></svg>