<svg xmlns="http://www.w3.org/2000/svg" viewBox="0 0 1024 1024"><path fill="#FBE6CE" d="M512.644 191.234c129.531 0 234.453 100.109 234.453 223.702v21.835c0 123.595-104.921 223.707-234.453 223.707s-234.45-100.112-234.45-223.707v-21.835c0-123.593 104.92-223.702 234.45-223.702m0 0"/><path fill="#2A4259" d="M789.413 332.955c0-123.185-118.737-256.252-231.862-270.671h-87.65c-129.536 0-229.706 129.362-229.706 252.541 0 0 2.59 28.429-.43 17.303 16.405 63.86 4.745 44.494 52.673 28.84 38.428-12.358 101.037 25.957 156.304 21.423 37.997-2.882 103.625-29.25 137.304-44.906 28.498 18.541 81.173 50.674 108.809 49.85 62.608-2.473 94.558-54.38 94.558-54.38m0 0"/><path fill="#FBE6CE" d="M276.462 478.796c-32.813 0-59.151-22.247-59.151-49.44 0-27.188 26.338-49.847 59.15-49.847m474.523.411c31.52 0 56.995 22.248 56.995 49.848 0 27.604-48.358 49.44-56.995 49.44"/><path fill="#002428" d="M420.244 402.168c15.544 0 28.499 12.356 28.499 27.187s-12.954 27.193-28.5 27.193c-15.539 0-28.494-11.949-28.494-27.193 0-14.83 12.519-27.187 28.495-27.187m188.73 2.246c15.544 0 28.5 12.355 28.5 27.187s-12.956 27.193-28.5 27.193c-15.54 0-28.495-11.949-28.495-27.193 0-14.832 12.52-27.187 28.494-27.187zm0 0"/><path fill="#60B4E1" d="M122.865 929.338h268.157C500.98 946.732 479.016 962 513.018 962c33.952 0 11.15-13.473 121.994-32.662h268.162c44.586 1.227 44.586 1.227 44.586-25.366V523.485c0-25.367 0-25.367-28.596-25.367H579.768l-66.75 37.972-66.749-37.972H109.874c-31.469 0-31.469 0-31.469 23.519V905.82c0 22.948 0 22.948 44.46 23.518"/><path fill="#2D7BC0" d="M524.678 921.325V578.478c0-5.813-2.375-10.527-5.307-10.527h-12.578c-2.929 0-5.305 4.714-5.305 10.527v342.847"/><path fill="#F7F8FA" d="M838.336 590.523c0 5.952-5.059 10.777-11.296 10.777H631.249c-6.238 0-11.295-4.825-11.295-10.777v-5.603c0-5.952 5.058-10.778 11.295-10.778h195.79c6.238 0 11.297 4.826 11.297 10.778zm-96.012 79.924c0 5.953-5.059 10.778-11.297 10.778h-99.778c-6.238 0-11.295-4.825-11.295-10.778v-8.287c0-5.951 5.058-10.777 11.295-10.777h99.778c6.238 0 11.297 4.826 11.297 10.777zm96.012 99.491c0 5.952-5.059 10.777-11.296 10.777H631.249c-6.238 0-11.295-4.825-11.295-10.777v-7.186c0-5.951 5.058-10.777 11.295-10.777h195.79c6.238 0 11.297 4.826 11.297 10.777z"/></svg>