<svg xmlns="http://www.w3.org/2000/svg" viewBox="0 0 1024 1024"><path fill="#434341" d="M51.917 508.877a460.8 460.8 0 1 0 921.6 0 460.8 460.8 0 1 0-921.6 0"/><path fill="#FBD180" d="M688.23 251.187H337.152a61.44 61.44 0 0 0-61.44 61.44V752.64a27.34 27.34 0 0 0 39.936 24.269l189.44-98.816a27.44 27.44 0 0 1 25.6 0l178.483 97.28a27.29 27.29 0 0 0 40.397-23.962V312.627a61.44 61.44 0 0 0-61.338-61.44m-87.91 226.97h-63.027v63.027a24.576 24.576 0 0 1-49.152 0v-63.027H424.96a24.576 24.576 0 0 1 0-49.152h63.18v-63.079a24.576 24.576 0 0 1 49.153 0v63.079h63.027a24.576 24.576 0 0 1 0 49.152"/></svg>