<svg xmlns="http://www.w3.org/2000/svg" viewBox="0 0 1024 1024"><path fill="none" d="M62 21.917h900v900H62z"/><path fill="#FFBB97" d="M642.97 390.385c84.907-311.646-58.5-327.56-58.5-327.56-60.77 0-48.17 47.762-52.772 55.719 0 152.407-162.88 290.843-162.88 271.84V822.59c0 42.648 58.5 58.01 81.45 58.01H706.4c91.493 0 129.314-80.755 129.314-80.755 81.43-275.236 81.43-357.136 81.43-357.136 0-56.864-55.044-52.323-55.044-52.323H642.97z"/><path fill="#43BBFF" d="M303.424 390.098H172.208c-27.102 0-27.511 26.448-27.511 26.448l27.102 435.887c0 27.736 27.962 27.736 27.962 27.736h113.563c23.646 0 23.441-18.348 23.441-18.348V423.153c0-33.484-33.34-33.055-33.34-33.055z"/></svg>