<svg xmlns="http://www.w3.org/2000/svg" viewBox="0 0 1024 1024"><path fill="#798fb6" d="M976.337 489.705a84.945 84.945 0 0 0-86.434-83.41l-22.342.373a380.3 380.3 0 0 0-30.022-71.029l19.549-18.013a84.945 84.945 0 0 0 4.887-120.04l-31.371-34.025a85.04 85.04 0 0 0-120.041-4.888l-26.159 24.111a380.7 380.7 0 0 0-66.606-28.486v-22.807a85.04 85.04 0 0 0-85.039-84.946h-46.312a85.04 85.04 0 0 0-84.946 84.946v17.734a380 380 0 0 0-72.006 27.368l-16.011-14.754a84.945 84.945 0 0 0-120.041 4.887l-31.372 34.071a85.04 85.04 0 0 0 4.888 120.04l3.956 3.678a379.3 379.3 0 0 0-37.236 84.945 84.945 84.945 0 0 0-86.063 83.41l-.838 46.313a84.945 84.945 0 0 0 83.55 86.434h2.28a379.2 379.2 0 0 0 34.583 82.386l-5.073 5.492a84.945 84.945 0 0 0 4.654 120.041l34.025 31.418a85.04 85.04 0 0 0 120.04-4.654l1.304-1.443a379.3 379.3 0 0 0 81.082 31.604v2.141a85.04 85.04 0 0 0 85.178 84.853h46.313a85.04 85.04 0 0 0 84.946-84.946v-8.145a379.7 379.7 0 0 0 76.52-34.584l6.843 7.401a84.945 84.945 0 0 0 120.04 4.655l34.025-31.419a84.945 84.945 0 0 0 4.655-120.04l-17.874-19.363a380.6 380.6 0 0 0 26.298-68.143l23.273-.419a85.04 85.04 0 0 0 83.41-86.435zm-93.975 61.626a22.1 22.1 0 0 1-15.034 6.05l-43.706.792a28.95 28.95 0 0 0-27.927 22.994 298.3 298.3 0 0 1-33.792 88.157 28.95 28.95 0 0 0 3.77 34.117l30.72 33.28a21.55 21.55 0 0 1-1.21 30.441l-31.791 29.37a21.55 21.55 0 0 1-30.44-1.21l-22.855-24.762a28.95 28.95 0 0 0-37.748-4.19 297.9 297.9 0 0 1-96.023 43.847 28.95 28.95 0 0 0-21.737 27.927v29.463a21.55 21.55 0 0 1-21.55 21.55H489.75a21.55 21.55 0 0 1-21.55-21.55v-25.134a28.95 28.95 0 0 0-23.273-28.44 297.5 297.5 0 0 1-100.492-39.051 28.95 28.95 0 0 0-36.445 5.027l-16.85 18.246a21.55 21.55 0 0 1-30.44 1.21l-31.79-29.37a21.55 21.55 0 0 1-1.21-30.441l19.548-21.178a28.95 28.95 0 0 0 2.98-35.421 297.9 297.9 0 0 1-41.892-99.515 28.95 28.95 0 0 0-27.927-22.76l-24.25-.42a21.55 21.55 0 0 1-21.132-21.922l.745-42.822a22.16 22.16 0 0 1 6.051-15.034 21.46 21.46 0 0 1 15.872-6.563l22.342.419a28.95 28.95 0 0 0 28.718-22.482 297.9 297.9 0 0 1 45.615-103.563 28.95 28.95 0 0 0-4.19-37.749l-21.55-19.875a21.55 21.55 0 0 1-1.256-30.44l29.323-31.837a21.55 21.55 0 0 1 30.44-1.257l30.162 27.927a28.95 28.95 0 0 0 34.118 3.77 297.9 297.9 0 0 1 91.788-34.536 28.95 28.95 0 0 0 23.273-28.393v-39.564a21.55 21.55 0 0 1 21.55-21.55h43.287a21.55 21.55 0 0 1 21.55 21.55v43.148a28.95 28.95 0 0 0 21.924 27.927 298.3 298.3 0 0 1 86.667 37.237 28.95 28.95 0 0 0 35.003-3.212l40.215-37.236a21.55 21.55 0 0 1 30.44 1.256l29.324 31.837a21.55 21.55 0 0 1-1.256 30.441l-35.468 32.582a28.95 28.95 0 0 0-4.655 36.864 297.9 297.9 0 0 1 39.099 92.206 28.95 28.95 0 0 0 28.672 22.25l43.38-.792a21.55 21.55 0 0 1 21.923 21.132l.791 43.287a21.4 21.4 0 0 1-6.563 15.965z"/><path fill="#ffcf48" d="M512 372.364A139.636 139.636 0 1 0 651.636 512 139.636 139.636 0 0 0 512 372.364"/></svg>