<svg xmlns="http://www.w3.org/2000/svg" viewBox="0 0 1024 1024"><path fill="#6D5CF4" d="M811.776 459.571 474.112 804.608l42.752 119.245c9.83 26.573 39.782 39.577 65.946 28.672l305.254-127.488c24.166-10.087 36.403-37.171 28.006-62.003L811.776 459.57z"/><path fill="#756AF6" d="M778.291 484.403 503.45 765.184l42.598 121.088c7.987 21.606 32.41 32.205 53.658 23.347l248.422-103.731a40.535 40.535 0 0 0 22.784-50.432z"/><path fill="#7A77FC" d="M752.435 516.864 536.218 737.792l39.372 110.643c6.298 16.999 25.498 25.344 42.24 18.381l195.482-81.613a31.92 31.92 0 0 0 17.92-39.68z"/><path fill="#9494F2" d="M725.3 525.875 561.663 693.043l39.987 120.269c4.762 12.851 19.303 19.2 31.949 13.875l147.917-61.747a24.146 24.146 0 0 0 13.568-30.054l-69.786-209.51z"/><path fill="#6D5CF4" d="m87.706 642.714 239.206 235.008c26.778 26.316 69.837 25.907 96.102-.87l404.02-411.495c15.718-16.026 22.528-38.81 18.176-60.826L806.246 208.18a67.99 67.99 0 0 0-56.115-53.913L550.246 122.88c-21.452-3.38-43.212 3.738-58.572 19.046L87.296 546.15c-26.726 26.727-26.522 70.093.41 96.564"/><path fill="#756AF6" d="M750.131 154.266 550.246 122.88c-21.452-3.38-43.212 3.738-58.572 19.046L87.296 546.15a68 68 0 0 0-15.258 23.348 44 44 0 0 0 3.636 3.942l263.219 258.611c20.173 19.815 52.633 19.559 72.448-.665L833.28 401.664c3.635-3.738 6.605-7.987 8.909-12.493L806.298 208.18a68.11 68.11 0 0 0-56.167-53.913z"/><path fill="#7A77FC" d="M806.246 208.18a67.99 67.99 0 0 0-56.115-53.914L550.246 122.88c-21.452-3.38-43.212 3.738-58.572 19.046L101.12 532.378l252.16 247.756a31.06 31.06 0 0 0 43.93-.41L831.846 337.05z"/><path fill="#8F89FB" d="m188.416 530.176 183.45 178.022a22.267 22.267 0 0 0 31.539-.307l371.558-368.077a22.16 22.16 0 0 0 5.94-19.968l-28.621-107.57a22.4 22.4 0 0 0-18.432-17.716l-188.621-35.686c-7.066-1.127-14.183 1.228-19.251 6.246L188.16 498.432a22.467 22.467 0 0 0 .256 31.744"/><path fill="#756AF6" d="M648.397 193.126c-66.611 0-120.781 54.17-120.781 120.781s54.17 120.781 120.78 120.781 120.782-54.17 120.782-120.78c0-66.56-54.17-120.782-120.781-120.782m29.645 120.832c0 16.333-13.312 29.645-29.645 29.645s-29.645-13.312-29.645-29.645 13.312-29.644 29.645-29.644 29.645 13.312 29.645 29.644"/><path fill="#FF8F33" d="M648.397 416.768c-56.679 0-102.81-46.131-102.81-102.81 0-56.678 46.131-102.81 102.81-102.81 56.678 0 102.81 46.132 102.81 102.81s-46.132 102.81-102.81 102.81m0-140.8c-20.941 0-37.99 17.05-37.99 37.99s17.049 37.99 37.99 37.99 37.99-17.049 37.99-37.99-17.05-37.99-37.99-37.99"/><path fill="#FFBF4D" d="M648.397 402.995c-49.101 0-89.037-39.936-89.037-89.037s39.936-89.036 89.037-89.036 89.037 39.936 89.037 89.036-39.936 89.037-89.037 89.037m0-142.285c-29.338 0-53.197 23.86-53.197 53.197s23.86 53.197 53.197 53.197 53.197-23.86 53.197-53.197-23.86-53.197-53.197-53.197"/><path fill="#FFE2B3" d="M648.397 395.315c-44.851 0-81.357-36.505-81.357-81.357 0-35.532 22.733-66.713 56.576-77.516 5.376-1.69 11.162 1.228 12.851 6.656 1.741 5.376-1.229 11.161-6.656 12.85a60.65 60.65 0 0 0-42.342 58.01c0 33.588 27.29 60.877 60.877 60.877 16.947 0 32.716-6.81 44.339-19.149a10.263 10.263 0 0 1 14.49-.41 10.263 10.263 0 0 1 .409 14.49c-15.258 16.23-36.864 25.55-59.187 25.55zm44.288-126.771c-2.253 0-4.506-.717-6.4-2.253a60 60 0 0 0-21.658-11.059 10.29 10.29 0 0 1-7.168-12.595 10.29 10.29 0 0 1 12.595-7.168c10.599 2.918 20.378 7.885 28.98 14.797 4.403 3.532 5.12 9.984 1.638 14.387a10.08 10.08 0 0 1-7.987 3.891"/><path fill="#FF8F33" d="M648.397 342.784c-15.923 0-28.826-12.902-28.826-28.826s12.903-28.825 28.826-28.825c103.424 0 181.913-62.157 182.681-62.823 12.39-9.984 30.516-7.987 40.5 4.404s8.038 30.566-4.404 40.499c-3.788 3.123-95.283 75.571-218.777 75.571m256.768-136.858c-5.581 0-11.213-1.638-16.18-4.966a28.82 28.82 0 0 1-7.628-40.038c10.854-15.975 16.64-52.736 17.715-68.045 1.126-15.872 14.797-27.904 30.771-26.727a28.826 28.826 0 0 1 26.727 30.772c-.461 6.4-5.07 63.334-27.546 96.41a28.8 28.8 0 0 1-23.86 12.594z"/><path fill="#FFBF4D" d="M648.397 334.131c-11.162 0-20.173-9.011-20.173-20.173s9.011-20.172 20.173-20.172c105.881 0 187.34-64.103 188.16-64.717a20.224 20.224 0 0 1 28.365 3.123 20.15 20.15 0 0 1-3.072 28.314c-3.79 3.02-92.98 73.625-213.453 73.625m256.768-136.857a20.14 20.14 0 0 1-11.315-3.482 20.11 20.11 0 0 1-5.325-28.006c12.8-18.842 18.176-58.573 19.2-72.295.819-11.11 10.445-19.456 21.555-18.688 11.11.82 19.456 10.445 18.688 21.555-.41 6.144-4.864 60.928-26.06 92.16a20.35 20.35 0 0 1-16.743 8.756"/><path fill="#FFE2B3" d="M904.397 187.904a10.255 10.255 0 0 1-8.039-16.589c18.944-23.91 21.965-77.005 21.965-77.517.307-5.632 5.325-9.984 10.752-9.676a10.24 10.24 0 0 1 9.677 10.752c-.102 2.457-3.38 60.16-26.368 89.19a10.19 10.19 0 0 1-7.987 3.84m-256 136.294a10.24 10.24 0 1 1-.103-20.48c117.402-1.433 194.304-65.996 195.072-66.662 4.301-3.686 10.752-3.174 14.439 1.126s3.174 10.752-1.127 14.439c-3.328 2.867-83.404 70.041-208.128 71.577z"/><path fill="#BDBDFF" d="M296.14 544.717c-9.369 0-18.738-3.635-25.753-10.906a35.84 35.84 0 0 1 .82-50.688L405.708 352.82a35.84 35.84 0 0 1 50.688.82 35.84 35.84 0 0 1-.82 50.687l-134.5 130.303a35.7 35.7 0 0 1-24.934 10.087z"/></svg>