<svg xmlns="http://www.w3.org/2000/svg" viewBox="0 0 1024 1024"><path fill="#4273FE" d="M257.8 735.5c-11.8 0-23.3-3.7-32.9-10.6L47.4 619.1c-3.1-2.4-3.7-6.9-1.3-10 .5-.6 1-1.1 1.7-1.6 23.4-15.4 91.5-57.5 125-46.2l82.5 28c14.7 5 31 3.2 44.2-4.9l158.6-88.9c2.8-1.7 4.7-4.6 5.1-7.9s-.7-6.6-3-8.9L203.3 324.8c-4.8-4.8-4.7-12.5 0-17.3 1-1 2.2-1.8 3.5-2.4 31.3-14.6 45.6-24.6 79.4-8.9L575.7 403c28.6 13.3 61.8 11.9 89.2-3.6 32.1-18.2 80.3-46.3 147.6-87.4 52.7-36 124.6-22.5 160.7 30.2.2.4.5.7.7 1.1 8.3 9.9 7 24.7-2.9 33-1.3 1.1-2.7 2-4.3 2.8L317.6 717.8c-16 9.2-33.6 15.3-51.9 17.9-2.7.1-5.3.1-7.9-.2"/><path fill="#4273FE" d="M607.2 690.8H957c12.4 0 22.4 10 22.4 22.4s-10 22.4-22.4 22.4H607.2c-12.4 0-22.4-10-22.4-22.4s10-22.4 22.4-22.4" opacity=".5"/></svg>