<svg xmlns="http://www.w3.org/2000/svg" viewBox="0 0 1024 1024"><path fill="#025BA4" d="M361.087 162.14c2.472 12.442 4.944 22.412 7.498 32.3-89.483 42.27-146.667 91.956-156.637 149.14 7.498 52.24 59.656 72.097 126.81 77.041 19.857-136.78 62.127-278.42 164.053-305.777 74.57-12.442 124.338 49.686 156.637 119.312-12.442 2.472-22.412 7.498-34.771 9.97-14.914-12.442-29.828-19.858-49.686-9.97-49.768 37.326-69.626 101.925-77.042 171.551 119.312-17.386 283.448-96.982 283.448-179.05 0-49.685-39.798-64.681-84.54-72.097-2.472-14.914-4.944-32.3-9.97-47.214 139.252-2.472 258.563 67.154 246.121 156.638-39.798 183.993-283.447 253.619-437.53 285.919 0 139.252 24.884 223.791 77.041 236.233 24.884 0 47.214-34.771 69.626-156.637 22.412-4.944 42.27-12.442 64.682-17.386C684.415 801.05 604.901 912.946 532.804 917.89c-74.57 4.944-131.754-64.682-166.608-171.552-17.386-52.24-29.828-111.895-32.3-181.521-126.892-12.36-238.788-44.66-243.732-144.113C87.61 318.778 209.476 211.826 361.087 162.14"/></svg>