<svg xmlns="http://www.w3.org/2000/svg" viewBox="0 0 1024 1024"><path fill="#F2CB51" d="M512 963.767c-249.067 0-451.767-202.7-451.767-451.767S262.933 60.233 512 60.233 963.767 262.933 963.767 512 761.067 963.767 512 963.767"/><path fill="#AA1D32" d="M734.912 540.533H509.028c-12.483 0-22.589-10.106-22.589-22.589s10.106-22.588 22.589-22.588h225.884c12.483 0 22.588 10.105 22.588 22.588 0 11.889-10.105 22.589-22.588 22.589"/><path fill="#E5404F" d="M509.028 540.533c-12.483 0-22.589-10.106-22.589-22.589V235.59c0-12.483 10.106-22.589 22.589-22.589s22.588 10.106 22.588 22.589v282.354c0 11.889-10.105 22.589-22.588 22.589"/></svg>