<svg xmlns="http://www.w3.org/2000/svg" viewBox="0 0 1024 1024"><path fill="#FF002B" d="M839.994 62H183.992C116.802 62 62 115.817 62 183.767v654.708a121.57 121.57 0 0 0 122.006 121.781h656.002c67.177 0 122.006-53.831 122.006-121.781V183.767C962 115.817 907.184 62 839.994 62m0 0"/><path fill="#FFF" d="M878.005 954.955a128 128 0 0 1-35.381 5.301c10.645 0 22.12-1.786 35.38-5.301zm0 0"/><path fill="#111" d="M62 183.767v596.49zm83.981 771.188c13.275 3.515 24.75 5.301 37.14 5.301-12.39 0-23.865-1.786-37.14-5.301m0 0"/><path fill="#FFF" d="M885.064 915.242c0-52.045-41.526-97.06-93.712-98.817-1.758-1.758-3.516-1.758-5.302-1.758-1.758 0-3.544 0-5.301 1.758h11.475c15.046 7.06 26.536 48.53 26.536 98.817 0 16.777-1.758 31.753-3.516 45.014h26.508c13.26 0 24.75-1.786 35.381-5.301 6.173-13.233 7.931-26.48 7.931-39.713m0 0"/><path fill="#111" d="M244.124 816.41c-1.772-1.757-3.544-1.757-5.316-1.757s-3.53 0-5.288 1.758h10.604zm0 0"/><path fill="#FFF" d="M232.62 816.41c-52.171 1.759-93.712 46.773-93.712 98.818 0 13.233 3.53 26.48 9.717 39.713 11.49 3.515 22.092 5.301 35.367 5.301h26.522c-1.772-13.26-3.53-28.237-3.53-45.014-.871-50.273 10.604-91.758 25.636-98.817zm547.257 0c-52.158 1.759-93.713 46.773-93.713 98.818 0 16.777 3.544 31.753 11.475 45.014h60.117c-1.757-13.26-3.543-28.237-3.543-45.014.014-50.273 10.63-91.758 25.664-98.817zm-249.314 78.526h-37.14c-11.488 0-15.018 5.301-9.717 13.233l11.49 14.99c3.53 5.302 9.73 13.233 11.503 16.763 1.757 1.772 1.757 1.772 5.301 1.772s5.302-1.772 5.302-1.772c3.543-3.53 7.073-11.461 11.489-16.763l9.717-14.99c7.073-7.931 3.544-13.233-7.945-13.233m-286.44-78.525c15.02 7.06 28.294 48.53 28.294 98.817 0 16.777-1.772 31.753-3.543 45.014h60.117a94.5 94.5 0 0 0 11.475-45.014c-2.63-52.031-44.185-97.06-96.342-98.817zm633.882 138.544c16.776-5.302 33.595-15.005 46.856-26.48-15.019 11.475-30.066 20.306-46.856 26.48m0 0"/><path fill="#111" d="M103.555 928.475C78.79 905.525 62 873.772 62 838.475v-59.99 59.99c0 35.297 15.019 67.05 41.555 90m42.426 26.48c-16.79-5.302-31.823-13.233-45.084-26.48 13.247 11.475 30.938 20.306 45.084 26.48m0 0"/><path fill="#111" d="M922.203 662.89c-35.353-20.306-71.606 16.75-76.908 24.694-46.856 53.818-99.014 119.138-192.726 119.138H371.417c-93.712 0-144.112-67.078-192.726-120.01-7.088-7.059-41.555-45.014-76.922-24.721C69.945 681.41 63.758 739.644 62 778.484v61.749c0 35.297 15.019 67.078 41.555 90a144.6 144.6 0 0 0 45.084 26.48c-5.315-11.475-9.717-24.694-9.717-39.713 0-52.045 41.54-97.045 93.713-98.817 1.771-1.758 3.53-1.758 5.301-1.758s3.544 0 5.302 1.758c52.143 1.772 93.726 46.772 93.726 98.817 0 16.777-3.544 31.781-11.489 45h371.292a94.66 94.66 0 0 1-11.46-45c0-52.045 41.554-97.045 93.712-98.817 1.758-1.758 3.516-1.758 5.301-1.758 1.758 0 3.544 0 5.302 1.758 52.158 1.772 93.713 46.772 93.713 98.817 0 13.233-3.544 26.48-9.718 39.712 16.805-5.301 33.596-14.99 46.857-26.48a118.13 118.13 0 0 0 39.768-88.241v-61.749c-.028-40.598-6.201-98.831-38.039-117.351zm-381.91 245.293-9.716 13.233c-5.302 5.301-9.732 13.232-11.503 16.748-1.772 1.772-3.53 3.544-7.074 3.544s-5.301-1.772-5.301-1.772c-3.544-3.53-7.074-11.461-11.504-16.763l-11.489-14.99c-5.301-7.06 0-13.233 9.718-13.233h37.139c11.489-.014 15.018 5.287 9.73 13.233m0 0"/><path fill="#111" d="M791.352 816.41h-11.475c-15.019 7.06-26.536 48.53-26.536 98.818 0 16.777 1.786 31.753 3.544 45.014h58.359c1.758-13.26 3.516-28.237 3.516-45.014-.872-50.273-12.347-91.758-27.408-98.817zm-547.228 0h-11.49c-15.032 7.06-28.293 48.53-28.293 98.818 0 16.777 1.772 31.753 3.53 45.014h58.345c1.772-13.26 3.544-28.237 3.544-45.014 0-50.273-10.618-91.758-25.636-98.817zm0 0"/><path fill="#FFF" d="M361.7 372.584h129.08V339.06H358.156v-71.465h120.249v-35.311H204.34v33.525h120.234v71.48h-133.51v33.525h129.08c-13.246 50.287-53.93 93.53-129.08 136.771l16.791 30.01c46.857-26.48 105.202-65.307 135.268-125.311 7.073 15.004 16.79 29.995 30.065 45.014 24.75 28.237 58.346 53.817 105.202 80.297l16.79-30.01c-78.68-41.47-120.22-84.698-133.48-135zm298.814-58.246h33.624V286.1h73.364v28.238h33.595V286.1h33.623v-33.525h-33.623v-20.292h-33.595v22.05h-73.364v-22.05h-33.624v22.05h-31.81v33.539h31.81zm-68.062-65.279c-18.563-18.534-48.628-18.534-65.419-16.776h-3.53v33.525h5.288c11.503 0 31.837 0 41.554 7.06 1.786 1.771 5.302 5.3 5.302 16.762v11.46l-52.144 31.768 16.805 29.995 35.353-20.292v37.055l-52.144 31.767 16.805 29.995 35.353-20.292v28.237c0 7.046-3.515 20.293-9.717 26.466-16.79 20.292-43.313 35.297-43.313 35.297l16.805 30.01c1.758 0 33.595-18.535 52.158-43.257 9.717-13.205 16.805-31.753 16.805-48.516V292.288c-.943-18.52-6.244-31.754-15.961-43.229m35.367 88.243v153.52c0 28.237 22.078 50.301 50.372 50.301h105.215c28.294 0 50.4-22.064 50.4-50.301v-153.52H627.82zm86.625 168.525h-35.381c-9.718 0-16.777-7.06-16.777-16.763V455.54h52.158v50.288zm0-84.713h-52.158v-50.287h52.158zm86.639 69.708c0 9.703-7.06 16.762-16.777 16.762h-35.38v-52.059h52.157zm0-69.708h-52.158v-50.287h52.158zm0 0"/></svg>