<svg xmlns="http://www.w3.org/2000/svg" viewBox="0 0 1024 1024"><path fill="#484848" d="m151.794 881.67 202.142-201.93a30.616 30.616 0 1 1 43.337 43.31L291.174 829.044h441.762L626.811 723.05a30.616 30.616 0 1 1 43.363-43.311L872.29 881.67a30.536 30.536 0 0 1 0 43.231 30.616 30.616 0 0 1-43.31 0l-45.052-43.337H240.13l-45 43.337a30.695 30.695 0 0 1-43.363 0 30.51 30.51 0 0 1 .026-43.23z"/><path fill="#BF392C" d="M247.6 90.125h527.854a52.785 52.785 0 0 1 52.787 52.785v580.641a52.785 52.785 0 0 1-52.785 52.786H247.6a52.785 52.785 0 0 1-52.786-52.786v-580.64A52.785 52.785 0 0 1 247.6 90.124z"/><path fill="#FFF" d="M247.6 248.481h527.854v290.321H247.6v-290.32z"/><path fill="#F0F0F0" d="M247.652 247.531h263.875v291.535H247.652V247.53z"/><path fill="#EBEBEB" d="M379.563 142.91h263.928v52.786H379.563z"/><path fill="#FFF" d="M247.6 697.159h158.356V591.588H247.6v105.57zm369.498-105.571v105.57h158.357v-105.57z"/><path fill="#F4B459" d="M273.992 670.766h105.571v-52.838h-105.57zm369.499-52.838v52.838h105.571v-52.838z"/></svg>