<svg xmlns="http://www.w3.org/2000/svg" viewBox="0 0 1024 1024"><path fill="#303F5B" d="M193.802 830.198a260.526 260.526 0 0 1 0-368.44L445.01 210.55l368.44 368.44L562.24 830.2a260.526 260.526 0 0 1-368.44 0z"/><path fill="#D2DFFE" d="M712.967 76.571 947.43 311.033a23.684 23.684 0 0 1 0 33.494l-184.22 184.22-267.956-267.956 184.22-184.22a23.684 23.684 0 0 1 33.494 0z"/><path fill="#303F5B" d="m696.22 193.802 33.494 33.494q16.748 16.748 0 33.495l-33.494 33.495q-16.747 16.747-33.495 0l-33.494-33.495q-16.747-16.747 0-33.495l33.494-33.494q16.748-16.747 33.495 0m100.484 100.484 33.494 33.494q16.747 16.747 0 33.495l-33.494 33.494q-16.748 16.747-33.495 0l-33.495-33.494q-16.747-16.748 0-33.495l33.495-33.494q16.747-16.748 33.495 0"/></svg>