<svg xmlns="http://www.w3.org/2000/svg" viewBox="0 0 1024 1024"><path fill="#FFCD32" d="m918.477 439.962-72.5-72.5V264.96c0-49.715-40.447-90.112-90.163-90.112H653.312l-72.5-72.5C563.764 85.3 541.133 75.93 517.07 75.93s-46.695 9.37-63.744 26.419l-72.448 72.448H278.323c-49.715 0-90.163 40.448-90.163 90.112V367.41l-72.448 72.55a89.46 89.46 0 0 0-26.42 63.745c0 24.064 9.37 46.694 26.42 63.744l72.5 72.499V742.45c0 49.715 40.447 90.163 90.111 90.163h102.554l72.499 72.5c17.562 17.561 40.653 26.368 63.744 26.368s46.182-8.807 63.744-26.368l72.5-72.5h102.502c49.715 0 90.163-40.448 90.163-90.163v-102.5l72.499-72.5c17.05-17.049 26.42-39.68 26.42-63.743-.052-24.064-9.473-46.746-26.471-63.744z"/><path fill="#FFF" d="M511.642 649.728a30.7 30.7 0 0 1-19.508-7.014l-130.56-107.367a30.72 30.72 0 0 1-4.198-43.264 30.72 30.72 0 0 1 43.264-4.198l104.909 86.272L627.456 399.82a30.72 30.72 0 0 1 42.803-7.578 30.72 30.72 0 0 1 7.578 42.803L536.883 636.621a30.87 30.87 0 0 1-20.992 12.851c-1.433.154-2.867.256-4.25.256z"/></svg>