<svg xmlns="http://www.w3.org/2000/svg" viewBox="0 0 1024 1024"><path fill="#d81e06" d="M824.8 592A69.84 69.84 0 0 0 952 552a69.84 69.84 0 0 0-127.2-40H792c0-62.8-20-120-56-167.6l53.6-53.6c22.4 4 45.2-2.4 62.4-18.8 26.8-27.6 26.8-72 0-100-27.6-26.8-72-26.8-100 0-16.4 17.2-22.8 40-18.8 62.4L679.6 288c-36.8-27.6-80-46-127.6-52.8v-56A69.84 69.84 0 0 0 512 52a69.84 69.84 0 0 0-40 127.2v56c-36 5.2-69.6 16.8-100 34.4L327.6 206a69.28 69.28 0 0 0-27.76-82.92A70 70 0 0 0 222 124.8c-31.6 22-39.6 65.6-17.2 97.2 13.6 19.6 35.2 30 57.2 30l47.2 67.2c-17.2 17.2-30.8 36.4-42.4 57.6A70.4 70.4 0 0 0 192 392c-26.8 28-26.8 72 0 100 11.6 10.8 25.6 17.2 40 20 0 21.6 2.8 42.4 7.2 62.4l-52.4 14c-16.8-14-40-20-63.2-14a70.08 70.08 0 0 0 36.8 135.2c22.8-6.4 40-23.2 47.2-44l60.4-16.4c18 31.6 42 59.6 70 82.8l-44 80c-22 3.2-42 15.6-53.6 36.8a70 70 0 0 0 123.2 66.4c11.2-20.8 10.8-44.8.8-64.4l42.8-78.8c32.4 12.8 67.6 20 104.8 20h7.2c-5.2 10.4-7.2 22.4-7.2 35.2 3.2 38.8 36.8 67.6 75.2 64.8s67.6-36.8 64.8-75.2c-1.6-20-11.6-37.6-26-49.2 18.8-8.4 36.8-19.2 53.6-31.6l93.6 93.6c-4 22.4 2.4 45.2 18.8 62.4 28 26.8 72 26.8 100 0s26.8-72 0-100c-17.2-16.4-40-22.8-62.4-18.8L736 679.6c19.6-26 34.8-55.6 44.4-87.6zM452 512c-33.2 0-60-26.8-60-60s26.8-60 60-60 60 26.8 60 60-26.8 60-60 60m140 120c-22 0-40-18-40-40s18-40 40-40 40 18 40 40-18 40-40 40"/></svg>