<svg xmlns="http://www.w3.org/2000/svg" viewBox="0 0 1024 1024"><path fill="#1296db" d="M912 192v-20c0-56-44-100-100-100s-100 44-100 100v20c-24 0-40 16-40 40v160c0 24 16 40 40 40h200c24 0 40-16 40-40V232c0-24-16-40-40-40m-32 0H744v-20c0-36 32-68 68-68s68 32 68 68zm-92 320c0 12 4 28 4 40 0 84-32 160-84 216-12-32-40-56-76-56h-40V592c0-24-16-40-40-40H312v-80h80c24 0 40-16 40-40v-80h80c44 0 80-36 80-80V172c-36-12-80-20-120-20-220 0-400 180-400 400s180 400 400 400 400-180 400-400c0-12 0-28-4-40zM432 868c-156-20-280-156-280-316 0-24 4-48 8-72l192 192v40c0 44 36 80 80 80z"/></svg>