<svg xmlns="http://www.w3.org/2000/svg" viewBox="0 0 1024 1024"><path fill="#008FD7" d="M262 62h500q200 0 200 200v500q0 200-200 200H262Q62 962 62 762V262Q62 62 262 62"/><path fill="#FEFEFE" d="M762.863 261.137H724.27v64.283c0 81.045-37.491 153.809-101.93 193.217 64.428 39.408 101.93 111.592 101.93 192.704v51.522h38.594c13.207 0 25.388 9.228 25.388 26.492 0 13.73-10.699 24.942-23.905 24.942H259.298c-13.207 0-23.917-11.145-23.917-24.942 0-13.73 9.373-26.492 25.756-26.492h38.594V711.42c0-81.034 39.999-153.218 104.36-192.693-64.361-39.408-104.36-112.183-104.36-193.228v-64.283h-38.594c-13.207 0-25.388-12.761-25.388-26.57 0-13.73 12.181-24.953 25.388-24.953h503.565c13.218 0 23.917 11.959 23.917 25.756 0 13.73-12.55 25.677-25.756 25.677zm-90.038 0H351.186v64.283c0 80.008 42.362 149.53 116.753 169.088 3.098.814 5.907 2.218 8.27 4.057l.066.078c.223.145.368.29.591.446.145.145.301.223.446.368l.223.222c3.689 3.244 6.42 7.68 7.745 12.917a26.17 26.17 0 0 1-1.326 16.16c0 .078-.078.078-.078.145a3.8 3.8 0 0 1-.368.736c-.078.144-.145.223-.145.367a2 2 0 0 1-.3.591c-.145.223-.223.446-.368.658-.078.078-.078.222-.145.29a16 16 0 0 1-1.26 1.916v.078l-.668.88c0 .079-.078.079-.078.146-.223.222-.368.512-.59.735l-.146.145c-.234.234-.457.48-.657.736l-.145.144c-.223.301-.513.513-.736.736-.59.513-1.103 1.036-1.772 1.55l-.078.077c-.29.223-.59.446-.813.669l-.067.078c-2.586 1.772-5.461 3.098-8.492 3.767-73.957 19.86-115.873 88.645-115.873 168.275v51.366h321.639v-51.444c0-79.997-42.663-149.006-117.054-168.498-.368-.078-.736-.223-1.181-.368-.145 0-.223-.078-.301-.078l-.669-.223c-.223-.078-.368-.145-.59-.223-.146-.078-.224-.078-.368-.145a23.2 23.2 0 0 1-7.824-5.316l-.078-.078c-.145-.145-.301-.367-.446-.512-.078-.145-.223-.223-.3-.368-.146-.145-.224-.29-.369-.368-.144-.145-.29-.368-.434-.513-.078-.078-.145-.144-.223-.3-.2-.268-.401-.535-.59-.814a27.3 27.3 0 0 1-2.363-4.057c-.145-.367-.301-.668-.446-1.036 0-.078-.078-.078-.078-.078-.145-.29-.223-.658-.368-.959 0-.078 0-.078-.067-.145-.145-.29-.223-.657-.3-.958 0-.078 0-.078-.079-.145-.145-.446-.223-.813-.368-1.26-.078-.289-.144-.59-.144-.88 0-.078 0-.145-.079-.223a4.2 4.2 0 0 1-.144-.958c0-.078 0-.145-.078-.223-.078-.368-.078-.735-.145-1.036v-.145c-1.26-12.181 6.274-23.694 17.932-26.714 74.402-19.782 117.131-89.37 117.131-169.312v-64.36zM545.885 457.24c-13.875 3.611-25.688 11.958-33.946 23.025a67 67 0 0 0-8.782-9.45l-1.706-1.483-1.326-1.181-1.549-1.037c-6.274-4.569-13.206-7.901-20.74-9.896-38.528-10.108-67.159-39.854-80.154-80.298H626.33c-13.062 40.444-41.77 70.19-80.443 80.298zm-46.573 144.804s2.217-1.772 2.284-1.85l.29-.223 1.404-1.181.223-.223a35 35 0 0 0 2.954-2.797l1.259-1.327 1.694-1.994 1.772-2.218.59-.892 3.545 5.394 1.549.814.446.446c4.424 4.502 9.528 8.046 15.134 10.554 0 0 1.627.657 2.14.88.29.145 1.839.669 1.839.669.813.29 1.705.513 2.508.813 43.096 12.104 69.454 47.756 69.454 104.505v10.922h-192.85v-10.922c0-56.315 25.834-91.81 68.273-104.293 5.16-1.326 10.042-3.466 14.544-6.497l.959-.59z"/></svg>