<svg xmlns="http://www.w3.org/2000/svg" viewBox="0 0 1024 1024"><path fill="#8a8a8a" d="M976 602.592v-.064.304c0-9.408-7.903-10.832-17.376-10.832H392.05c.207-80 .383-146.304-.32-217.888-.16-16.944 6-28.64 20.447-36 45.232-23.088 92.736-40.064 142.944-47.504 48.464-7.184 69.184 9.904 79.824 56.528.192.832 1.296 4.864 2.08 4.864h99.169c.367-16 .463-16.672-.145-25.888-15.232-103.36-97.136-148.768-183.888-141.568-33.856 2.8-67.52 11.36-100.448 20.624-48.944 13.776-94.992 33.888-131.008 71.6-16.912 17.712-31.92 40.4-32.096 66.016-.576 82.096-.56 153.216-.176 249.216h-222.4c-9.456 0-17.072 4.496-17.297 13.904 0 .128-.08-1.296-.08-1.168 0 .528.257.192.305.704 15.264 154.656 216.815 276.704 463.376 276.704 247.04 0 448.944-123.136 463.488-278.224.016-.32.208-.688.208-1.008a2 2 0 0 1-.032-.32zM309.936 268.256c0-33.888-1.36-65.408.544-96.736 1.04-17.264 24.736-25.104 42.944-14.128 9.104 5.488 15.392 4.224 23.52.496 48.24-22.143 96.624-43.984 144.848-66.144 8.112-3.728 15.184-6.16 19.552 4.656 4.672 11.536-4.96 12.256-11.472 14.752-51.072 19.504-102.128 39.072-153.424 57.952-10.512 3.856-16.575 8.672-14.384 20.528 4.96 26.976-5.28 43.184-28.944 59.888-11.632 8.208-14.897 9.568-23.184 18.736m438.576 90.815H626.416c-4.848 0-8.784 3.938-8.784 8.785v22h62.625a6.593 6.593 0 0 1 6.59 6.592c0 3.632-2.96 6.592-6.59 6.592h-62.625v8.816c0 4.847 3.936 8.785 8.784 8.785h122.096c4.848 0 8.784-3.938 8.784-8.785v-44c0-4.847-3.936-8.785-8.784-8.785"/></svg>