<svg xmlns="http://www.w3.org/2000/svg" viewBox="0 0 1024 1024"><path fill="#E71F19" d="M830.188 585.306c-20.81-62.094-84.736-84.77-99.293-86.122-14.553-1.351-27.743-9.318-18.09-25.786 9.66-16.468 27.473-64.39-6.794-98.138-34.279-33.881-109.23-21.058-162.276.812-52.907 21.869-50.053 6.614-48.422-8.367 1.772-15.795 30.333-104.082-56.991-114.746-114.39-13.903-261.15 126.623-312.973 207.62C47 582.881 59.382 665.63 59.382 665.63h.544C69.31 779.836 238.79 870.82 446.484 870.82c178.594 0 329.026-67.363 373.502-158.886 0 0 .134-.406.539-1.084 4.63-9.85 8.165-19.845 10.345-30.238 6.251-24.567 11.02-60.201-.682-95.306M420.78 820.872c-147.853 0-267.82-78.84-267.82-176.033s119.832-176.025 267.82-176.025c147.849 0 267.819 78.833 267.819 176.025 0 97.327-119.97 176.033-267.819 176.033"/><path fill="#F5AA15" d="M784.903 430.744c2.715 1.217 5.573 1.752 8.431 1.752 8.431 0 16.594-4.995 19.99-13.23 5.579-13.091 8.432-26.993 8.432-41.442 0-58.582-48.008-106.238-107.045-106.238-14.418 0-28.425 2.833-41.621 8.368-11.02 4.59-16.184 17.28-11.564 28.35 4.624 10.933 17.41 16.063 28.56 11.473 7.893-3.244 16.19-4.997 24.76-4.997 35.091 0 63.517 28.35 63.517 63.044 0 8.501-1.626 16.741-5.033 24.564a21.405 21.405 0 0 0 11.564 28.347l.01.01z"/><path fill="#F5AA15" d="M713.49 139.022c-24.347 0-48.423 3.51-71.546 10.258-17.271 5.13-27.064 23.083-22.031 40.228 5.164 17.147 23.254 26.866 40.534 21.871a189.3 189.3 0 0 1 53.042-7.56c102.425 0 185.803 82.754 185.803 184.403 0 18.221-2.724 36.308-7.893 53.587-5.164 17.146 4.49 35.24 21.761 40.363 3.133.95 6.39 1.351 9.524 1.351 14.01 0 26.93-9.045 31.284-22.95 7.076-23.349 10.746-47.649 10.746-72.351-.134-137.426-112.76-249.2-251.225-249.2z"/><path fill="#040000" d="M396.026 533.066c-78.892 0-142.82 55.479-142.82 124.063 0 68.57 63.928 124.057 142.82 124.057 78.888 0 142.816-55.483 142.816-124.057 0-68.578-63.929-124.063-142.816-124.063m-46.654 204.65c-27.613 0-50.053-22.271-50.053-49.676 0-27.401 22.444-49.677 50.053-49.677 27.612 0 50.053 22.275 50.053 49.677 0 27.4-22.44 49.675-50.053 49.675zm93.581-89.5c-5.983 10.394-18.09 14.716-26.93 9.581-8.841-4.99-11.016-17.547-5.035-27.94 5.987-10.397 18.091-14.719 26.93-9.585 8.84 5.13 11.02 17.685 5.034 27.945z"/></svg>