<svg xmlns="http://www.w3.org/2000/svg" viewBox="0 0 1024 1024"><path fill="#3DC656" d="M186.212 62h651.724q124.138 0 124.138 124.138v651.724Q962.074 962 837.936 962H186.212Q62.074 962 62.074 837.862V186.138Q62.074 62 186.212 62"/><path fill="#FFF" d="M568.324 655.628a56.328 56.328 0 1 1-56.312-57.554 56.933 56.933 0 0 1 56.312 57.554m120.243-111.91a14.6 14.6 0 0 0-.496-20.84 259.805 259.805 0 0 0-352.102 0 14.586 14.586 0 0 0-.512 20.84l29.917 30.568a13.826 13.826 0 0 0 19.164.714 190.536 190.536 0 0 1 254.933 0 13.826 13.826 0 0 0 19.164-.714zm98.628-102.26a14.617 14.617 0 0 0-.31-20.668 397.15 397.15 0 0 0-549.745 0 14.6 14.6 0 0 0-.31 20.669l29.886 30.553a13.966 13.966 0 0 0 19.551.341 327.68 327.68 0 0 1 451.552 0 13.966 13.966 0 0 0 19.552-.34zm0 0"/></svg>