<svg xmlns="http://www.w3.org/2000/svg" viewBox="0 0 1024 1024"><path fill="#CA3A2A" d="M461.062 953.48 70.614 562.938c-28.023-28.023-28.023-73.853 0-101.689L461.062 70.801c28.023-28.023 73.76-28.023 101.689 0L953.293 461.25c28.023 28.023 28.023 73.854 0 101.69L562.938 953.573c-28.023 27.93-73.853 27.93-101.876-.094zm0 0"/><path fill="#CA3A2A" d="M512.047 992c-22.868 0-45.83-8.716-63.263-26.149L58.336 575.403c-34.865-34.864-34.865-91.567 0-126.431L448.784 58.336c34.865-34.865 91.567-34.865 126.432 0l390.448 390.448c34.865 34.865 34.865 91.567 0 126.432L575.216 965.85c-17.433 17.433-40.3 26.149-63.17 26.149zm0-924.854c-13.965 0-27.93 5.342-38.614 15.933L82.985 473.527c-21.275 21.275-21.275 55.859 0 77.04l390.448 390.542c21.275 21.275 55.859 21.275 77.04 0L940.921 550.66c21.275-21.275 21.275-55.86 0-77.04L550.473 83.079c-10.59-10.685-24.555-15.933-38.426-15.933m0 0"/><path fill="#F3DAB8" d="m842.325 477.37-295.6-295.695c-9.186-9.279-21.557-14.34-34.678-14.34s-25.399 5.061-34.677 14.34L181.58 477.37c-19.12 19.119-19.12 50.329 0 69.542L477.37 842.7c9.465 9.56 22.212 14.34 34.677 14.34 12.559 0 25.211-4.78 34.677-14.34l295.601-295.976c9.279-9.185 14.34-21.556 14.34-34.677s-5.061-25.493-14.34-34.677m-12.184 42.643L519.92 830.235c-4.124 4.311-11.34 4.311-15.652 0L193.953 520.013c-4.312-4.217-4.312-11.34 0-15.651l310.315-310.316c2.812-2.811 6.092-3.186 7.873-3.186 1.78 0 5.06.375 7.872 3.186l310.222 310.316c2.812 2.811 3.186 6.092 3.186 7.872-.187 1.687-.562 4.968-3.28 7.78zm0 0"/><path fill="#FEC401" d="M658.816 591.149h-99.158c-6.842 0-13.121-4.03-15.933-10.216s-1.78-13.496 2.718-18.65l113.873-131.025a17.407 17.407 0 0 1 24.649-1.687c7.31 6.28 8.06 17.339 1.78 24.65L597.99 556.377h60.92c9.56 0 17.432 7.872 17.432 17.432.094 9.56-7.778 17.339-17.526 17.339zm-31.116 48.36-26.336-31.865"/><path fill="#FEC401" d="M627.7 656.942c-4.967 0-10.028-2.156-13.402-6.28l-26.242-31.771c-6.092-7.405-5.155-18.464 2.25-24.556s18.463-5.154 24.554 2.25l26.243 31.772c6.092 7.404 5.155 18.463-2.25 24.555-3.374 2.718-7.216 4.03-11.153 4.03m-21.368-126.62c-9.56 0-17.433-7.872-17.433-17.432V384.678c0-9.56 7.873-17.432 17.433-17.432s17.432 7.872 17.432 17.432V512.89c0 9.56-7.873 17.433-17.432 17.433zm0 0"/><path fill="#FEC401" d="M578.402 504.55a17.18 17.18 0 0 1-12.84-5.718l-30.647-33.365c-6.56-7.123-5.998-18.089 1.125-24.65 7.123-6.56 18.088-5.998 24.649 1.125l30.647 33.366c6.56 7.123 5.998 18.088-1.125 24.649-3.374 2.999-7.685 4.592-11.809 4.592zm-88.849 152.392h-127.65c-9.56 0-17.432-7.873-17.432-17.432 0-9.56 7.873-17.433 17.432-17.433h127.65c9.56 0 17.433 7.873 17.433 17.433s-7.78 17.432-17.433 17.432m-18.088-45.456h-91.473c-11.434 0-20.713-9.278-20.713-20.712v-43.3c0-11.434 9.279-20.713 20.713-20.713h91.473c11.434 0 20.713 9.279 20.713 20.713v43.3c.093 11.434-9.279 20.712-20.713 20.712m-77.321-34.958h63.263v-14.902h-63.263zm78.914-70.854h-94.66c-25.023 0-45.455-20.338-45.455-45.456v-46.111c0-25.024 20.432-45.456 45.456-45.456h94.66c25.023 0 45.455 20.432 45.455 45.456v46.205c0 25.024-20.338 45.362-45.456 45.362M378.492 403.61c-5.81 0-10.59 4.78-10.59 10.59v46.112c0 5.81 4.78 10.59 10.59 10.59h94.66c5.81 0 10.59-4.78 10.59-10.59v-46.111c0-5.811-4.78-10.591-10.59-10.591zm0 0"/><path fill="#FEC401" d="M484.68 454.595H366.402c-9.56 0-17.432-7.873-17.432-17.432 0-9.56 7.872-17.433 17.432-17.433H484.68c9.56 0 17.432 7.873 17.432 17.433s-7.872 17.432-17.432 17.432m0 0"/><path fill="#FEC401" d="M425.447 497.332c-9.56 0-17.432-7.872-17.432-17.432v-87.162c0-9.56 7.873-17.432 17.432-17.432 9.56 0 17.433 7.872 17.433 17.432V479.9c0 9.56-7.686 17.432-17.433 17.432m0 0"/><path fill="#FF664D" d="M512.047 992c-22.868 0-45.83-8.716-63.263-26.149L58.336 575.403c-34.865-34.864-34.865-91.567 0-126.431L448.784 58.336c34.865-34.865 91.567-34.865 126.432 0l390.448 390.448c34.865 34.865 34.865 91.567 0 126.432L575.216 965.85c-17.433 17.433-40.3 26.149-63.17 26.149zm0-924.854c-13.965 0-27.93 5.342-38.614 15.933L82.985 473.527c-21.275 21.275-21.275 55.859 0 77.04l390.448 390.542c21.275 21.275 55.859 21.275 77.04 0L940.921 550.66c21.275-21.275 21.275-55.86 0-77.04L550.473 83.079c-10.59-10.685-24.555-15.933-38.426-15.933m0 0"/></svg>