<svg xmlns="http://www.w3.org/2000/svg" viewBox="0 0 1024 1024"><path fill="#06F" d="M512 90.125C279.04 90.125 90.125 279.041 90.125 512c0 232.96 188.916 421.875 421.875 421.875 232.96 0 421.875-188.916 421.875-421.875 0-232.96-188.916-421.875-421.875-421.875m-85.416 449.944-.084 1.406c-1.406 19.21-5.934 41.344-12.15 63.647l22.584-17.044 66.882 75.994c8.662 31.078-3.094 59.428-3.094 59.428l-90.14-105.384v-.085a567.6 567.6 0 0 1-31.36 79.763c-21.29 43.031-51.975 51.497-84.29 54.337-32.373 2.813-21.938-5.006-21.938-5.006 64.04-52.256 73.462-82.688 91.153-115.903 11.222-21.01 19.21-60.553 23.822-91.153H278.563s4.5-29.39 18.084-39.263H392.3c.563-14.428-1.21-96.806-1.884-123.75h-46.52c-8.662 42.385-38.587 53.381-45.28 56.588-6.582 3.206-22.22 6.693-19.885 0 2.475-6.666 25.425-43.51 40.697-104.232 15.356-60.834 60.188-58.387 60.188-58.387-12.094 21.178-21.094 69.3-21.094 69.3h150.384c9.506 0 9.956 36.731 9.956 36.731h-85.5c-.646 21.375-2.643 78.919-4.696 123.75h89.915s11.503 14.485 11.503 39.263zm326.307 157.247H670.4l-65.447 43.875-15.469-43.875h-37.743V332.619h201.15zm-135.225-3.291 53.465-35.888h42.947-.084v-284.85H591.762v284.85h13.275z"/></svg>