<svg xmlns="http://www.w3.org/2000/svg" viewBox="0 0 1024 1024"><path fill="#FFF" d="M605.32 142.69H989.2v726.337H605.32z"/><path fill="#733781" d="M1022.796 153.889a40.7 40.7 0 0 0-45.035-45.516c-124.147-1.927-248.655 0-373.283 0V0h-65.746C359.074 31.308 179.537 63.699 0 95.488v833.265c177.49 31.91 355.1 62.133 532.35 94.765h72.248V904.911h349.2c19.99-.964 42.025.722 59.004-12.042 13.486-21.313 9.994-48.165 11.198-72.248-1.686-221.803.843-444.327-1.204-666.732m-34.198 715.259h-383.88V142.93h383.88z"/><path fill="#733781" d="M705.144 250.22v63.94a31.43 31.43 0 0 1-8.67 24.083 48.17 48.17 0 0 1-31.187 8.308 43.23 43.23 0 0 1-28.177-7.947 26.85 26.85 0 0 1-9.874-21.915v-3.01h20.11v2.89c0 10.836 6.02 16.255 18.302 16.255a20.7 20.7 0 0 0 14.811-4.576 20.23 20.23 0 0 0 4.576-14.69V250.22zm75.018 0c29.501 0 44.553 9.633 44.553 29.02s-15.052 29.26-44.914 29.26h-30.465v36.125h-20.11V250.22zm-30.826 45.035h29.26a40.7 40.7 0 0 0 19.628-3.733 13.37 13.37 0 0 0 6.141-12.041 12.76 12.76 0 0 0-6.382-12.042 38.3 38.3 0 0 0-19.387-3.733h-29.26zm183.15-38.773a34.92 34.92 0 0 1 16.496 24.082h-20.35a22.04 22.04 0 0 0-10.957-13.606 48.2 48.2 0 0 0-22.518-4.456 38.9 38.9 0 0 0-27.334 9.031 33 33 0 0 0-11.078 26.853 33.1 33.1 0 0 0 10.235 25.166 48.17 48.17 0 0 0 32.994 9.633 79.7 79.7 0 0 0 16.496-1.685 63.2 63.2 0 0 0 13.246-4.335v-19.507h-32.512v-13.246h52.621v40.098a77 77 0 0 1-22.277 8.91 126.4 126.4 0 0 1-29.742 3.252 66.83 66.83 0 0 1-45.637-14.33 43.71 43.71 0 0 1-15.172-34.438 44.67 44.67 0 0 1 15.172-34.92 61.4 61.4 0 0 1 43.35-14.57 73.1 73.1 0 0 1 36.966 8.068z"/><path fill="#FFF" d="M370.273 329.693V584.37c0 37.69-9.513 65.866-28.297 84.29s-46.721 28.176-83.447 28.176q-79.594 0-104.64-46.6c-10.115-18.303-15.052-51.055-15.052-98.137h70.081a187.6 187.6 0 0 0 6.984 63.097 36.12 36.12 0 0 0 36.967 21.554 38.17 38.17 0 0 0 36.124-16.015 75.6 75.6 0 0 0 6.503-36.124V329.693z"/><path fill="#733781" d="M668.9 656.256h246.246v147.748H668.899zm247.33-253.351H668.177v204.704H916.23zm-227.583 20.47H895.88v124.388l-31.188-31.91a19.6 19.6 0 0 0-7.465-4.937c-5.298-1.686-16.858 9.393-34.439 32.994-22.276-22.759-70.442-71.285-80.316-69.84-2.77 0-6.984 2.167-12.884 7.345l-40.94 36.124z"/><path fill="#733781" d="M840.128 474.31a18.785 18.785 0 0 0 31.669-13.486 18.303 18.303 0 0 0-18.303-18.182 18.785 18.785 0 0 0-13.366 31.668"/></svg>