<svg xmlns="http://www.w3.org/2000/svg" viewBox="0 0 1024 1024"><path fill="#FF5656" d="M913.082 285.624A220.765 220.765 0 0 0 735.73 108.27a1243 1243 0 0 0-219.494-20.489h-10.217a1243 1243 0 0 0-219.547 20.542 220.765 220.765 0 0 0-177.353 177.352 1243 1243 0 0 0-20.647 221.03v7.2q.317 110.541 20.647 221.082a220.765 220.765 0 0 0 177.3 177.353c74.858 13.712 149.77 20.594 224.63 20.594a1244 1244 0 0 0 224.681-20.647 220.765 220.765 0 0 0 177.353-177.353c13.765-74.859 20.594-149.717 20.594-224.63 0-74.91-6.882-149.77-20.647-224.681z"/><path fill="#FFF" d="M756.376 257.141c0-16.094-15.352-12.07-20.117-7.306-9.212 9.9-33.406 30.07-85.13 40.712a105.3 105.3 0 0 1-23.823 2.541c-24.935 0-45.847-8.047-69.724-17.576-27.53-10.641-58.658-22.765-101.223-22.765-3.653 0-7.306 0-10.959.37-46.218 2.224-86.188 22.395-115.2 37.43-8.47 4.235-17.047 8.418-25.676 12.441l-2.542-6.194-.37-.37a18.74 18.74 0 0 0-24.565-9.9 18.2 18.2 0 0 0-9.9 10.27 19.27 19.27 0 0 0 0 14.294L458.212 763.63c2.912 6.989 9.53 11.383 17.259 11.383a18.74 18.74 0 0 0 17.258-26.047l-65.382-154.747a105.35 105.35 0 0 1 63.106-47.33c11.33-2.912 23.082-4.764 35.947-4.764 24.565 0 48.388 5.505 73.694 11.382 23.082 5.135 46.588 10.588 69.67 10.588 34.836 0 61.624-12.07 84.707-37.747a18.5 18.5 0 0 0 1.853-5.823V257.088z"/></svg>