<svg xmlns="http://www.w3.org/2000/svg" viewBox="0 0 1024 1024"><path fill="#3B80C3" d="M509.513 960.677c-250.4-4.18-450.794-207.59-446.72-453.492 4.075-248.39 209.76-448.995 456.245-443.81 248.23 5.187 442.856 201.347 442.221 452.012-.582 248.336-208.225 449.312-451.746 445.29"/><path fill="#FFF" d="M512.53 923c-228.282.054-413.33-184.465-412.695-411.635.635-226.905 186.16-410.789 414.176-410.366 225.582.424 410.313 185.948 410.207 411.953-.159 225.741-185.101 409.996-411.689 410.049z"/><path fill="#FFF" d="M451.728 734.513c0 21.008-.529 42.068.265 63.023.37 10.478-3.334 13.282-13.282 12.965-19.314-.688-38.735-.582-58.05-.053-9.1.264-12.7-2.434-12.593-12.065.423-43.127-.106-86.307.423-129.433.318-24.712 18.52-42.333 41.963-42.069 23.177.212 40.692 18.098 41.221 42.915.37 21.537 0 43.127.053 64.717"/><path fill="#3B80C3" d="M881.885 512.053c.106 205.474-165.47 371.472-370.361 371.26-203.728-.211-369.144-165.68-369.462-369.514-.264-206.215 163.035-371.366 369.038-373.112 203.516-1.694 370.679 165.68 370.785 371.366"/><path fill="#FFF" d="M460.936 546.872c-70.379 33.496-137.424 65.51-204.575 97.366-23.23 11.06-21.325 10.742-23.865-15.399-2.804-29.05 6.932-46.937 31.644-63.605 62.283-42.122 121.866-88.159 183.09-131.815 11.113-7.937 14.976-16.245 14.658-29.527-.9-34.448-1.217-68.95 0-103.345.9-25.612 11.219-47.255 33.55-62.336 16.615-11.218 30.85-7.302 42.861 6.244 15.24 17.251 24.765 37.306 24.66 61.119-.106 30.956 1.322 61.965-.53 92.815-1.111 18.68 5.927 28.998 20.585 39.317 63.076 44.714 124.882 91.227 188.064 135.783 15.557 10.953 21.484 22.595 20.85 41.433-1.43 40.64-.424 40.64-37.783 22.701a354596 354596 0 0 0-189.97-90.963c0 27.834.053 52.652 0 77.523-.105 28.839.16 57.678-.687 86.465-.318 11.06 2.434 17.885 12.858 23.336 19.262 10.107 37.36 22.33 56.409 32.967 7.937 4.445 11.589 10.107 9.525 18.626-2.646 10.954-11.324 5.82-17.25 4.974-32.65-4.603-65.194-10-97.843-14.763-29.898-4.34-58.42 6.402-87.735 8.73-12.541 1.006-24.87 4.393-37.412 5.822-6.085.688-14.764 6.085-17.515-4.551-2.011-7.832-.318-14.817 7.99-19.685 18.785-10.954 36.989-23.019 55.774-34.025 8.572-5.027 13.176-10.583 13.07-21.484-.74-53.446-.423-106.891-.423-163.723"/></svg>