<svg xmlns="http://www.w3.org/2000/svg" viewBox="0 0 1024 1024"><path fill="#009FE9" d="M933.706 793.503v5.23a134.973 134.973 0 0 1-134.973 134.973H225.1A134.973 134.973 0 0 1 90.125 798.733V225.1A134.973 134.973 0 0 1 225.098 90.125h573.635a134.973 134.973 0 0 1 134.973 134.973z"/><path fill="#FFF" d="M786.248 624.28c-33.743-11.81-78.79-28.681-129.237-47.071a782 782 0 0 0 74.235-183.395H562.53v-50.613h202.46v-35.77l-202.459 2.026V208.225h-83.347c-15.016 0-17.884 16.872-17.884 16.872v84.359H258.841v33.743H461.3v50.614H292.585v33.744h337.433a663.7 663.7 0 0 1-53.483 122.15c-105.786-35.261-219.331-63.943-291.88-45.384a175.97 175.97 0 0 0-92.287 52.133c-78.622 96.337-21.596 242.276 144.421 242.276 98.868 0 194.53-55.507 268.427-146.445 110.678 54.327 328.49 145.265 328.49 145.265V667.978s-26.656-3.374-147.458-43.697zM321.772 743.733c-130.924 0-168.716-102.749-104.097-159.943a158.1 158.1 0 0 1 74.91-38.13c77.103-8.436 156.4 29.357 241.938 71.367-61.75 77.947-137.335 126.706-212.75 126.706z"/></svg>