<svg xmlns="http://www.w3.org/2000/svg" viewBox="0 0 1024 1024"><path fill="#8a8a8a" d="M798.293 832c-35.413 52.907-72.96 104.533-130.133 105.387-57.173 1.28-75.52-33.707-140.373-33.707-65.28 0-85.334 32.853-139.52 34.987-55.894 2.133-98.134-56.32-133.974-107.947-72.96-105.387-128.853-299.52-53.76-430.08 37.12-64.853 103.68-105.813 175.787-107.093 54.613-.854 106.667 37.12 140.373 37.12 33.28 0 96.427-45.654 162.56-38.827 27.734 1.28 105.387 11.093 155.307 84.48-3.84 2.56-92.587 54.613-91.733 162.56 1.28 128.853 113.066 171.947 114.346 172.373-1.28 2.987-17.92 61.44-58.88 120.747M554.667 149.333c31.146-35.413 82.773-62.293 125.44-64 5.546 49.92-14.507 100.267-44.374 136.107-29.44 36.267-78.08 64.427-125.866 60.587-6.4-49.067 17.493-100.267 44.8-132.694"/></svg>