<svg xmlns="http://www.w3.org/2000/svg" viewBox="0 0 1024 1024"><path fill="#F0250F" d="M860.364 258.875 549.48 72.157c-20.668-12.471-53.808-12.471-74.475 0l-51.911 30.954-259.457 155.764c-20.668 12.471-36.997 42.429-36.997 66.89V698.75c0 24.429 16.811 54.9 36.997 66.857l89.357 53.454L474.52 951.843c20.668 12.503 53.808 12.503 74.475 0l310.886-186.718c20.668-12.471 36.997-42.429 36.997-66.857V325.732c.482-24.428-16.329-54.418-36.515-66.89z"/><path fill="#FF4343" d="M512 387.19c0-106.361-33.14-204.204-88.907-284.08L163.636 258.876c-20.668 12.471-36.997 42.429-36.997 66.89V698.75c0 24.429 16.811 54.9 36.997 66.857l89.357 53.454C406.346 741.146 512 576.896 512 387.189z"/><path fill="#FFF" d="M709.968 377.193a38.7 38.7 0 0 0-56.7 0L489.404 549.446l-20.154 20.958-99-104.336a38.7 38.7 0 0 0-56.7 0 44.036 44.036 0 0 0 0 59.4l127.35 133.81a37.736 37.736 0 0 0 48.021 6.461c2.893-1.993 5.786-3.985 8.197-6.46L709.004 436.11c16.81-15.975 16.81-42.429.964-58.918z"/></svg>