<svg xmlns="http://www.w3.org/2000/svg" viewBox="0 0 1024 1024"><path fill="#D6F3FA" d="M170.7 492.7a310.9 310.9 0 1 0 621.8 0 310.9 310.9 0 1 0-621.8 0"/><path fill="#18BAE5" d="M929.9 482h-45.1c-3.8-46.3-16.1-90.2-35.3-130.3l39.1-22.8c14.5-8.4 19.5-27.2 11-41.7-8.4-14.5-27.2-19.5-41.7-11l-39 22.8c-27.4-39.2-62.1-73-102.1-99.2l21.5-39.7c8-14.7 2.5-33.3-12.2-41.3s-33.3-2.5-41.3 12.2l-21.5 39.6c-37.4-16.6-77.9-27.1-120.5-30.6V95c0-16.8-13.7-30.5-30.5-30.5S481.8 78.2 481.8 95v45.1c-48.5 3.9-94.3 17.2-135.8 38l-23.4-38.7c-8.7-14.4-27.5-19-41.8-10.3-14.4 8.7-19 27.5-10.3 41.8l23.4 38.8c-38.5 27.8-71.4 62.7-96.9 102.8l-40.1-21c-14.8-7.8-33.4-2-41.2 12.8s-2 33.4 12.8 41.2l39.7 20.9c-15.4 36.1-25 75.1-28.3 115.8H94.8c-16.8 0-30.5 13.7-30.5 30.5s13.7 30.5 30.5 30.5h45.1c3.8 46.3 16.1 90.2 35.3 130.3L136.1 696c-14.5 8.4-19.5 27.2-11 41.7 8.4 14.5 27.2 19.5 41.7 11l39-22.7c27.4 39.2 62.1 73 102.1 99.2l-21.5 39.7c-8 14.7-2.5 33.3 12.2 41.3s33.3 2.5 41.3-12.2l21.5-39.6c37.4 16.6 77.9 27.1 120.5 30.6v45c0 16.8 13.7 30.5 30.5 30.5s30.5-13.7 30.5-30.5v-45.1c48.5-3.9 94.3-17.2 135.8-38l23.4 38.7c8.7 14.3 27.5 19 41.8 10.3s19-27.5 10.3-41.8l-23.4-38.8c38.5-27.8 71.4-62.7 96.9-102.8l40.1 21.1c14.8 7.8 33.4 2 41.2-12.8s2-33.4-12.8-41.2l-39.7-20.9c15.4-36.1 25-75.1 28.3-115.8h45.1c16.8 0 30.5-13.7 30.5-30.5-.1-16.7-13.8-30.4-30.5-30.4M512.3 838.6c-179.8 0-326.1-146.3-326.1-326.1s146.3-326.1 326.1-326.1 326.1 146.3 326.1 326.1-146.3 326.1-326.1 326.1M682.8 767c0 10.1-8.2 18.3-18.3 18.3s-18.3-8.2-18.3-18.3 8.2-18.3 18.3-18.3 18.3 8.2 18.3 18.3m-301.7-54.9c0 15.1-12.3 27.4-27.4 27.4s-27.4-12.3-27.4-27.4 12.3-27.4 27.4-27.4 27.4 12.3 27.4 27.4m9.1-466.3c0-15.1 12.3-27.4 27.4-27.4s27.4 12.3 27.4 27.4-12.3 27.4-27.4 27.4-27.4-12.2-27.4-27.4m182.9 118.9c0-10.1 8.2-18.3 18.3-18.3s18.3 8.2 18.3 18.3-8.2 18.3-18.3 18.3c-10.2 0-18.3-8.2-18.3-18.3m85.7 201.1 10.6-72.6c18.2-4.9 31.7-21.4 31.7-41.2 0-23.7-19.2-42.9-42.9-42.9s-42.9 19.2-42.9 42.9c0 16.1 9 30 22.1 37.3l-10.5 72c-17.8 1.3-33.9 8.8-45.9 20.5l-108.4-88.2c6.1-12.6 9.8-26.6 9.8-41.6 0-53.3-43.2-96.4-96.4-96.4s-96.4 43.2-96.4 96.4c0 53.3 43.2 96.4 96.4 96.4 26.7 0 50.8-10.8 68.3-28.3l109.4 89c-2.9 7.8-4.7 16.2-4.7 25 0 40.5 32.9 73.4 73.4 73.4s73.4-32.9 73.4-73.4c.1-31.2-19.5-57.7-47-68.3m-26.3 123.5c-30.4 0-55.1-24.7-55.1-55.1s24.7-55.1 55.1-55.1 55.1 24.7 55.1 55.1c0 30.3-24.7 55.1-55.1 55.1"/></svg>