<svg xmlns="http://www.w3.org/2000/svg" viewBox="0 0 1024 1024"><path fill="#455A64" d="M341.333 768A21.333 21.333 0 0 0 320 746.667h-85.333A21.333 21.333 0 0 0 213.333 768v128a21.333 21.333 0 0 0 21.334 21.333H320A21.333 21.333 0 0 0 341.333 896zm469.334 0a21.333 21.333 0 0 0-21.334-21.333H704A21.333 21.333 0 0 0 682.667 768v128A21.333 21.333 0 0 0 704 917.333h85.333A21.333 21.333 0 0 0 810.667 896z"/><path fill="#FFC107" d="M800 85.333H224a53.333 53.333 0 0 0-53.333 53.334v650.666s0 42.667 42.666 42.667h597.334c42.666 0 42.666-42.667 42.666-42.667V138.667A53.333 53.333 0 0 0 800 85.333"/><path fill="#FFC107" d="M213.333 479.979a32 32 0 0 1-32 32H160a32 32 0 0 1-32-32V416a32 32 0 0 1 32-32h21.333a32 32 0 0 1 32 32zm682.667 0a32 32 0 0 1-32 32h-21.333a32 32 0 0 1-32-32V416a32 32 0 0 1 32-32H864a32 32 0 0 1 32 32z"/><path fill="#FFF8E1" d="M234.667 693.333a53.333 53.333 0 1 0 106.666 0 53.333 53.333 0 1 0-106.666 0m448 0a53.333 53.333 0 1 0 106.666 0 53.333 53.333 0 1 0-106.666 0"/><path fill="#9FA8DA" d="M778.667 128H245.333a32 32 0 0 0-32 32v341.333a53.333 53.333 0 0 0 53.334 53.334h490.666a53.333 53.333 0 0 0 53.334-53.334V160a32 32 0 0 0-32-32"/><path fill="#263238" d="M810.667 256H213.333v-96a32 32 0 0 1 32-32h533.334a32 32 0 0 1 32 32z"/><path fill="#64DD17" d="M256 170.667h234.667v42.666H256zm277.333 0h85.334v42.666h-85.334z"/><path fill="#7986CB" d="M448 554.667H277.333v-160a32 32 0 0 1 32-32H416a32 32 0 0 1 32 32zm298.667 0H576v-160a32 32 0 0 1 32-32h106.667a32 32 0 0 1 32 32z"/><path fill="#3949AB" d="M606.507 554.667c-5.675-6.336-9.174-13.59-9.174-21.334 0-23.125 29.312-42.666 64-42.666s64 19.541 64 42.666c0 7.744-3.498 14.998-9.173 21.334h48.043c2.24-6.848 3.797-13.91 3.797-21.334C768 486.272 720.15 448 661.333 448s-106.666 38.272-106.666 85.333c0 7.424 1.557 14.486 3.797 21.334z"/></svg>