<svg xmlns="http://www.w3.org/2000/svg" viewBox="0 0 1409 1024"><path fill="#4988FD" d="M1293.114 184.654v658.059c0 32.819-26.928 60.588-60.589 60.588H157.081c-32.819 0-60.588-26.928-60.588-60.589V184.654c0-32.819 26.927-60.589 60.587-60.589h1075.445c33.66 0 60.589 26.93 60.589 60.59"/><path fill="#3973F4" d="M97.334 287.319h1195.78v144.738H97.334z"/><path fill="#C5DCFA" d="M789.894 684.51H679.655c-11.782 0-21.037-9.258-21.037-21.038s9.255-21.039 21.037-21.039h110.237c11.781 0 21.037 9.257 21.037 21.038s-9.256 21.037-21.037 21.037zm-177.559 0H244.597c-11.78 0-21.038-9.258-21.038-21.038s9.257-21.039 21.038-21.039h367.738c11.782 0 21.038 9.257 21.038 21.038s-9.256 21.037-21.038 21.037zm-202.803 84.15H244.598c-11.782 0-21.038-9.258-21.038-21.038s9.256-21.038 21.038-21.038H409.53c11.782 0 21.038 9.256 21.038 21.038s-9.256 21.037-21.038 21.037z"/><path fill="#3973F4" d="M1038.98 746.78a79.102 79.102 0 1 0 158.202 0 79.102 79.102 0 1 0-158.203 0"/><path fill="#6097FD" d="M933.79 746.78a79.102 79.102 0 1 0 158.204 0 79.102 79.102 0 1 0-158.203 0"/></svg>