<svg xmlns="http://www.w3.org/2000/svg" viewBox="0 0 1024 1024"><path fill="#ECF0F1" d="M751.49 893.889c0 28.48-23.302 51.781-51.782 51.781H324.292c-28.48 0-51.782-23.301-51.782-51.781V130.11c0-28.48 23.302-51.781 51.782-51.781h375.416c28.48 0 51.782 23.301 51.782 51.781z"/><path fill="#213140" d="M311.347 156.002h401.306v673.16H311.347z"/><path fill="#375667" d="m502.938 156.002 209.754 491.925-.039-491.925z"/><path fill="#D0D3D6" d="M548.597 887.688a36.597 36.597 0 1 1-73.194 0 36.597 36.597 0 0 1 73.194 0M466.69 104.22h90.618v25.891H466.69z"/></svg>