<svg xmlns="http://www.w3.org/2000/svg" viewBox="0 0 1024 1024"><path fill="#3F79FF" d="M62 512a450 450 0 1 0 900 0 450 450 0 1 0-900 0"/><path fill="#FFF" d="M759.368 583.941H275.277a5.58 5.58 0 0 0-5.566 5.566v41.738c0 3.062 2.51 5.565 5.566 5.565h420.997L595.896 764.114c-2.852 3.615-.281 9.042 4.383 9.042h50.432c3.41 0 6.605-1.536 8.765-4.245L776.9 619.976c11.479-14.608 1.11-36.035-17.531-36.035zm16.768-164.168H355.139L455.516 292.47c2.852-3.615.277-9.042-4.383-9.042h-50.432c-3.41 0-6.604 1.53-8.765 4.244L274.514 436.608c-11.48 14.607-1.116 36.035 17.46 36.035h484.162a5.58 5.58 0 0 0 5.565-5.566V425.34a5.58 5.58 0 0 0-5.565-5.566z"/></svg>