<svg xmlns="http://www.w3.org/2000/svg" viewBox="0 0 1024 1024"><path fill="#7DAFF8" d="M218.42 567.888a51.98 51.98 0 0 0-22.488 57.247c5.847 21.846 24.897 36.655 46.39 38.262a79.13 79.13 0 0 1-71.705 45.36 78.74 78.74 0 0 1-79.093-78.385 78.74 78.74 0 0 1 79.093-78.45c17.958 0 34.503 5.942 47.803 15.966m525.348 45.746h.16c23.452 0 42.438-18.857 42.438-42.084a42.08 42.08 0 0 0-26.246-38.936 59.37 59.37 0 0 1 33.218-10.088c32.768 0 59.303 26.343 59.303 58.79 0 32.511-26.535 58.822-59.303 58.822a59.37 59.37 0 0 1-49.57-26.504M550.18 189.257q29.652 0 29.652 29.651v136.759q0 29.651-29.652 29.651t-29.652-29.651V218.908q0-29.651 29.652-29.651"/><path fill="#7DAFF8" d="m238.563 583.083 153.206-40.703a29.555 29.555 0 0 1 36.11 20.882 29.3 29.3 0 0 1-20.754 35.916l-153.206 40.735a29.555 29.555 0 0 1-36.11-20.85 29.3 29.3 0 0 1 20.754-35.948zm406.323-31.162h99.203q19.597 0 19.597 19.597v.032q0 19.596-19.597 19.596h-99.203q-19.597 0-19.597-19.596v-.032q0-19.597 19.597-19.597"/><path fill="#d75544" d="m666.313 639.784-14.328-24.833a52.11 52.11 0 0 0-71.254-18.793c-25.058 14.457-33.732 46.293-19.372 71.126l14.36 24.897a202.5 202.5 0 0 1-52.171 6.779c-110.801 0-200.592-89.052-200.592-198.921 0-109.87 89.791-198.921 200.592-198.921s200.591 89.051 200.591 198.92a197.44 197.44 0 0 1-57.826 139.746"/><path fill="#7DAFF8" d="M591.686 615.658a29.81 29.81 0 0 1 40.574 10.859l54.293 93.26-51.37 29.427-54.291-93.293a29.395 29.395 0 0 1 10.794-40.253M457.273 159.83a88.955 88.217 0 1 0 177.91 0 88.955 88.217 0 1 0-177.91 0"/><path fill="#7DAFF8" d="M543.337 826.401a141.288 140.131 0 1 0 282.576 0 141.288 140.131 0 1 0-282.576 0"/></svg>