<svg xmlns="http://www.w3.org/2000/svg" viewBox="0 0 1024 1024"><path fill="#2966FF" d="M62 512a450 450 0 1 0 900 0 450 450 0 1 0-900 0"/><path fill="#FFF" d="M755.02 619.38c-24.831 0-44.966-19.508-44.966-43.56v-74.662c0-14.707 7.578-27.648 19.085-35.532-25.779-89.127-110.72-154.637-211.801-154.637-101.095 0-186.048 65.51-211.828 154.624 11.52 7.897 19.085 20.838 19.085 35.545v74.663c0 17.971-11.251 33.395-27.29 40.051 28.007 60.544 82.177 107.443 148.865 127.232 7.104-17.242 31.385-30.003 60.518-30.003 34.688 0 62.848 18.022 62.848 40.243 0 22.234-28.16 40.256-62.848 40.256-28.98 0-53.146-12.634-60.39-29.734-77.197-20.89-139.981-74.701-170.51-144.87-23.014-1.92-41.126-20.404-41.126-43.175v-74.663c0-18.636 12.16-34.432 29.146-40.64 28.672-108.89 131.149-189.58 253.53-189.58 122.368 0 224.832 80.69 253.504 189.58C787.84 466.726 800 482.522 800 501.158v74.663c0 24.064-20.134 43.558-44.98 43.558zM402.087 481.906c0-16.64 14.119-30.144 31.527-30.144s31.513 13.491 31.513 30.144c0 16.64-14.105 30.131-31.513 30.131s-31.527-13.49-31.527-30.13zm20.89 134.208v-23.577h5.504c21.12 24.576 53.082 40.23 88.858 40.23 35.763 0 67.712-15.654 88.844-40.23h5.504v23.577a138.24 138.24 0 0 1-94.348 36.762 138.2 138.2 0 0 1-94.362-36.762m146.56-134.208c0-16.64 14.093-30.144 31.514-30.144 17.408 0 31.513 13.491 31.513 30.144 0 16.64-14.118 30.131-31.513 30.131-17.408 0-31.527-13.49-31.527-30.13z"/></svg>