<svg xmlns="http://www.w3.org/2000/svg" viewBox="0 0 1024 1024"><path fill="#4965EA" d="M62 512a450 450 0 1 0 900 0 450 450 0 1 0-900 0"/><path fill="#2954CC" d="M483.861 961.131c9.306.576 18.689.869 28.139.869 248.526 0 450-201.474 450-450 0-29.358-2.844-58.05-13.77-87.21L731.528 215.63 303.249 812.505z"/><path fill="#4A455A" d="M742.319 239.048v545.971a30.74 30.74 0 0 1-30.73 30.731H316.892c-16.924 0-30.73-13.806-30.73-30.73V239.048c0-16.997 13.806-30.798 30.73-30.798h394.695c17.001 0 30.731 13.802 30.731 30.798z"/><path fill="#AFACBC" d="M323.918 255.441H704.6v462.51H323.918zm161.991 511.957a25.056 25.056 0 1 0 50.112 0 25.056 25.056 0 1 0-50.112 0"/><path fill="#FFF" d="m704.6 717.952-380.682-462.51v462.51z"/></svg>