<svg xmlns="http://www.w3.org/2000/svg" viewBox="0 0 1024 1024"><path fill="#0E4DDB" d="M286.007 116.492h425.659q106.414 0 106.414 106.415v578.186q0 106.415-106.414 106.415h-425.66q-106.414 0-106.414-106.415V222.907q0-106.415 106.415-106.415"/><path fill="#0E44A5" d="M966.879 520.725 792.845 350.823a22.96 22.96 0 0 0-39.032 16.531v129.493H462.685a45.92 45.92 0 0 0 0 91.838h290.669v126.737a22.96 22.96 0 0 0 39.49 16.072L966.88 551.031a22.96 22.96 0 0 0 0-30.306z"/><path fill="#3395FF" d="M990.757 497.765 816.723 327.864a22.96 22.96 0 0 0-39.032 16.53v129.493H485.645a45.92 45.92 0 0 0 0 91.839h290.669v126.737a22.96 22.96 0 0 0 39.49 16.072l174.953-178.167a22.96 22.96 0 0 0 0-32.603"/></svg>