<svg xmlns="http://www.w3.org/2000/svg" viewBox="0 0 1024 1024"><path fill="#007bf9" d="M332 832h460l120 120V532c0-44-36-80-80-80H332c-44 0-80 36-80 80v220c0 44 36 80 80 80"/><path fill="#fff" d="M608 688h-72l-14 42h-44l74-200h38l74 200h-44zm-62-32h50l-24-76z"/><path fill="#1296db" d="M692 532H232L112 652V192c0-44 36-80 80-80h500c44 0 80 36 80 80v260c0 44-36 80-80 80"/><path fill="#FFF" d="M540 316c0 20-4 36-10 50s-14 26-26 34l34 26-26 24-44-34c-4 0-10 2-16 2q-18 0-36-6c-10-4-20-12-28-20s-14-20-18-32-6-26-6-42v-8q0-24 6-42c6-18 10-24 18-32s16-16 28-20q15-6 36-6 18 0 36 6c10 4 20 12 28 20s14 20 18 32 6 26 6 42zm-44-10q0-33-12-48c-8-12-18-16-32-16s-26 6-32 16q-12 18-12 48v10c0 10 2 20 4 28s4 16 8 20c4 6 8 10 14 12s12 4 18 4c14 0 26-6 32-16 8-12 12-28 12-50z"/></svg>