<svg xmlns="http://www.w3.org/2000/svg" viewBox="0 0 1024 1024"><path fill="#0FAF29" d="M302 62h420q240 0 240 240v420q0 240-240 240H302Q62 962 62 722V302Q62 62 302 62"/><path fill="#FFF" d="M659.15 252c4.5 0 8.14 3.6 8.14 8.04v139.6c22.13 2.26 39.45 20.8 39.45 43.25v7.1c0 23.13-18.36 42.04-41.42 43.37-8.07 50.12-40.85 93.2-88.34 114.66v14.97c0 2.08-.13 4.12-.32 6.12 6.38 1.75 12.16 3.58 17.5 5.56 2.11.72 4.25 1.57 6.42 2.41l1.4.55c.2.08.34.22.53.3a224 224 0 0 1 43.46 23.6 225.7 225.7 0 0 1 45.99 42.6 8 8 0 0 1 .63.68c6.05 7.34 11.97 15.85 18.09 26 .18.3.34.6.47.91.18.23.4.58.6.97 2.2 3.75 4.24 7.57 6.22 11.48l1.72 3.25c1.9 3.94 3.6 7.83 5.22 11.75l1.36 3.33c0 .05.3.75.32.8 1.51 3.87 2.88 7.73 4.23 11.69l1.37 4.53c1.25 4.07 2.36 8.1 3.4 12.13l.99 4.5c.98 4.4 1.87 8.65 2.52 13l.5 3.53c1.61 11.36 2.4 21.6 2.4 31.28a8.08 8.08 0 0 1-8.14 8.04H290.14a8.08 8.08 0 0 1-8.14-8.04c0-50.58 17.5-99.99 49.28-139.1a187 187 0 0 1 16.78-18.67 222 222 0 0 1 29.78-24.64l.03-.02.03-.02c3.35-2.34 6.78-4.6 10.29-6.77.22-.14.46-.26.69-.4 3.27-2.01 6.6-3.95 10-5.8 1.08-.58 2.2-1.1 3.3-1.67 2.57-1.35 5.15-2.7 7.79-3.94 1.49-.7 3.03-1.33 4.54-2 2.17-.98 4.32-1.98 6.52-2.88.25-.13.5-.24.76-.36 8.15-3.34 16.6-6.03 25.38-8.42a67 67 0 0 1-.32-6.27v-15.66c-46.65-21.67-78.88-64.46-86.91-113.92-23.68-.67-42.75-19.87-42.75-43.43v-7.1c0-22.9 18-41.66 40.74-43.32v-77.54c0-38.61 31.79-70.03 70.86-70.03zM416.71 657.57l-.56.28c-3.9 1.86-7.7 3.86-11.45 5.95-1.18.65-2.34 1.35-3.5 2.03a205 205 0 0 0-10.52 6.57v163.52h26.02V657.57zm95.16 61.34L433 734.77v101.14h157.87V734.74l-79.01-15.83zm95.28-61.33v70.2c0 .15.09.27.09.43v107.7h25.93V672.4l-2.17-1.42a203 203 0 0 0-8.38-5.17c-1.21-.7-2.4-1.42-3.63-2.1a212 212 0 0 0-10.2-5.31l-1.64-.83zm-156.39-12.77c-5.6 1.55-11.09 3.38-16.49 5.39l-1.25.46-.01 67.71 70.79-14.24v-17.39c-.2-.02-.37-.08-.55-.1-.28-.05-.56-.07-.83-.11-.3-.05-.62-.07-.93-.12a66 66 0 0 1-6.51-1.4l-.2-.07c-.66-.18-1.3-.4-1.96-.6l-1.28-.39a66 66 0 0 1-4.57-1.7l-.72-.3a68 68 0 0 1-3.98-1.88 63 63 0 0 1-3.2-1.74l-1.05-.63a69 69 0 0 1-3.1-2l-1.06-.76c-.83-.6-1.69-1.18-2.5-1.82l-.18-.16a67 67 0 0 1-4.07-3.53c-.22-.2-.42-.43-.64-.64l-.54-.54-.53-.54c-.3-.3-.6-.58-.9-.9a66 66 0 0 1-4.18-4.81c-.27-.34-.5-.7-.75-1.03l-.94-1.33a65 65 0 0 1-3.41-5.34c-.14-.25-.3-.48-.43-.73l-.3-.5-.3-.61a62 62 0 0 1-2.92-6.51c-.15-.4-.36-.75-.5-1.14zm122.35.02c-.09.23-.21.44-.3.67-.22.6-.45 1.2-.72 1.81l-.23.56-.11.27-.12.27a52 52 0 0 1-1.72 3.72c-.14.29-.33.57-.49.85-.09.18-.2.35-.3.52-.61 1.15-1.22 2.3-1.94 3.4-1.42 2.27-2.78 4.2-4.21 5.96l-.19.22-.56.69c-.1.1-.17.22-.27.32l-.74.78c-.6.85-1.2 1.41-1.55 1.73-.64.7-1.6 1.65-2.55 2.59l-.05.04-.14.14c-.15.15-.35.26-.5.41a67 67 0 0 1-5.75 4.7c-.47.35-.92.79-1.4 1.13-.66.45-1.35.81-2.02 1.25-1.72 1.1-3.5 2.1-5.31 3.05l-.8.46-.04.01-1.23.59-1.22.56-.98.4c-.44.2-.8.4-1.24.57a36 36 0 0 1-4.67 1.7c-.19.07-.53.15-.76.23a63 63 0 0 1-1.37.4l-.2.06c-1.4.43-3.3.88-5.23 1.23-.24.05-.5.06-.73.1-.79.15-1.58.24-2.37.35l-1 .2v17.4l70.78 14.17.01-67.72-.1-.04a70 70 0 0 0-1.92-.7l-.22-.08a214 214 0 0 0-15.54-4.97M812.43 532A19.6 19.6 0 0 1 832 551.57v100.86A19.6 19.6 0 0 1 812.43 672H711.57A19.6 19.6 0 0 1 692 652.43V551.57A19.6 19.6 0 0 1 711.57 532zM463.1 613.95V623c0 3.15.29 6.27.83 9.1.17.4.3.83.39 1.26a47.2 47.2 0 0 0 10.72 21.04 49.18 49.18 0 0 0 36.88 16.78c3.04.01 5.95-.3 8.8-.8 1.34-.25 2.63-.7 3.94-1.05 1.44-.39 2.9-.74 4.3-1.26 1.48-.55 2.88-1.25 4.29-1.94.98-.47 1.95-.95 2.9-1.5a50 50 0 0 0 4.3-2.8c1.24-.88 2.45-1.82 3.6-2.83 1.3-1.12 2.57-2.25 3.74-3.5.27-.3.55-.57.8-.86 3.28-3.7 5.96-7.92 7.97-12.5.2-.47.43-.94.61-1.41a46 46 0 0 0 2.32-7.37 8.5 8.5 0 0 1 .4-1.28c.54-2.82.82-5.94.82-9.09v-8.56c-.57.19-1.17.31-1.77.49-1.51.47-3.04.85-4.56 1.27a151 151 0 0 1-14.5 3.3c-2.63.45-5.27.83-7.92 1.15-2.03.26-4.06.52-6.12.7-2.94.24-5.9.34-8.85.42-1.46.04-2.9.2-4.35.2-.25 0-.5-.03-.74-.03a158 158 0 0 1-13.42-.66c-1.93-.17-3.84-.46-5.75-.7a159 159 0 0 1-8.47-1.28 148 148 0 0 1-14.63-3.44c-1.55-.45-3.12-.86-4.66-1.36-.62-.2-1.26-.33-1.87-.54M312.43 522A19.6 19.6 0 0 1 332 541.57v100.86c0 10.8-8.77 19.57-19.57 19.57H211.57A19.6 19.6 0 0 1 192 642.43V541.57A19.6 19.6 0 0 1 211.57 522zm500 26.74H711.57a2.8 2.8 0 0 0-2.83 2.83v100.86c0 1.56 1.27 2.83 2.83 2.83h100.86c1.53 0 2.83-1.3 2.83-2.83V551.57a2.84 2.84 0 0 0-2.83-2.83M300.96 571.8l-57.34 73.46h68.8a2.84 2.84 0 0 0 2.84-2.84v-52.3zm-71.68 33.8-20.55 26.3v10.52c0 1.56 1.28 2.83 2.84 2.83h10.82l18.9-24.23-12.01-15.43zM726.2 563a9.34 9.34 0 0 1 8.4 0l63.2 32.5c2.6 1.35 4.2 3.82 4.2 6.5 0 2.67-1.6 5.14-4.2 6.48L734.6 641a9.25 9.25 0 0 1-8.4 0 7.38 7.38 0 0 1-4.2-6.49v-65.03c0-2.67 1.6-5.14 4.2-6.48M576.25 366.46H449.1c-8.85 0-16.05 7.11-16.05 15.85 0 2.2-.12 4.37-.33 6.52-.07.7-.21 1.4-.3 2.1a65 65 0 0 1-.66 4.24c-.16.83-.4 1.62-.58 2.44-.3 1.24-.6 2.48-.97 3.7-.25.84-.56 1.66-.85 2.49-.4 1.15-.8 2.29-1.26 3.4-.34.84-.72 1.64-1.1 2.46-.5 1.07-1 2.13-1.55 3.18a68.5 68.5 0 0 1-6.8 10.35 67 67 0 0 1-4.09 4.66c-.62.64-1.24 1.28-1.88 1.9-.85.82-1.74 1.6-2.64 2.38-.66.57-1.32 1.15-2 1.7a70 70 0 0 1-2.95 2.17c-.69.49-1.36 1-2.07 1.47-1.08.7-2.21 1.35-3.34 2-.68.39-1.33.81-2.01 1.17-1.4.74-2.83 1.4-4.28 2.04l-1.37.65c-1.93.8-3.9 1.52-5.92 2.14-.59.18-1.2.3-1.79.47-1.44.4-2.9.8-4.38 1.11-.81.17-1.64.27-2.47.41-1.08.19-2.15.41-3.26.55v21.1c0 54.8 32.96 104.16 84 125.77h.01c8.5 3.62 17.32 6.34 26.33 8.16 9.01 1.83 18.19 2.77 27.38 2.82a139.5 139.5 0 0 0 53.81-10.4c51.76-21.23 85.22-70.72 85.3-126.13v-21.31c-1.1-.13-2.18-.36-3.27-.55-.8-.13-1.62-.24-2.42-.4a67 67 0 0 1-4.38-1.12l-1.8-.48a68 68 0 0 1-5.89-2.14c-.5-.21-.99-.47-1.49-.7a68 68 0 0 1-4.14-1.98c-.72-.37-1.4-.81-2.09-1.22-1.1-.63-2.2-1.26-3.26-1.95-.72-.49-1.4-1-2.12-1.51a63 63 0 0 1-2.87-2.13c-.7-.56-1.38-1.16-2.06-1.75a57 57 0 0 1-4.5-4.27 70 70 0 0 1-4.08-4.65 69 69 0 0 1-3.62-5.01 65 65 0 0 1-4.68-8.48c-.38-.82-.77-1.64-1.11-2.48a62 62 0 0 1-1.26-3.38c-.3-.84-.6-1.67-.86-2.52-.37-1.2-.66-2.45-.96-3.69-.19-.81-.42-1.61-.58-2.44-.28-1.38-.47-2.8-.65-4.22-.1-.71-.24-1.4-.31-2.12a65 65 0 0 1-.33-6.52c0-8.74-7.2-15.85-16.05-15.85m-88.97 116.33c4.41-2.14 9.44.26 11.27 5.29 3.13 8.59 10.38 14.14 18.45 14.14s15.32-5.55 18.45-14.14c1.83-5.03 6.86-7.44 11.27-5.3 4.38 2.11 6.45 7.9 4.6 12.95C545.52 511.69 532.05 522 517 522c-15.03 0-28.5-10.31-34.33-26.27-1.84-5.04.23-10.84 4.61-12.94M462 442a20 20 0 1 1 0 40 20 20 0 0 1 0-40m100 0a20 20 0 1 1 0 40 20 20 0 0 1 0-40m105.29-26.14v61.19c13.13-2.16 23.19-13.46 23.19-27.05v-7.1c0-13.58-10.06-24.89-23.19-27.04m-310.63 0c-13.14 2.14-23.2 13.46-23.2 27.04v7.1c0 13.59 10.06 24.9 23.2 27.05zM312.43 182A19.6 19.6 0 0 1 332 201.57v100.86A19.6 19.6 0 0 1 312.41 322H211.57A19.6 19.6 0 0 1 192 302.43V201.57A19.6 19.6 0 0 1 211.57 182zm-48.8 16.74h-52.06a2.8 2.8 0 0 0-2.83 2.83v100.86c0 1.56 1.27 2.83 2.83 2.83h100.86c1.53 0 2.83-1.3 2.83-2.83V201.58a2.84 2.84 0 0 0-2.84-2.84h-10.68c.17.71.26 1.46.26 2.22 0 4.96-3.8 8.96-8.5 8.96h-13.14v51.33c0 16.95-13.1 30.75-29.18 30.75S222 278.2 222 261.24s13.1-30.75 29.18-30.75c4.36 0 8.46 1.08 12.18 2.9v-32.43c0-.77.1-1.5.26-2.22z"/></svg>