<svg xmlns="http://www.w3.org/2000/svg" viewBox="0 0 1024 1024"><path fill="#00B5FC" d="M901.707 912.43H122.293C89.158 912.43 62 885.36 62 852.225V330.418c0-33.135 27.158-60.293 60.293-60.293h779.502c33.135 0 60.293 27.158 60.293 60.293v521.894c-.088 33.047-27.246 60.118-60.381 60.118"/><path fill="#079FDB" d="M673.367 419.627H350.633c-17.315 0-31.465-14.15-31.465-31.465v-21.885c0-17.314 14.15-31.464 31.465-31.464h322.734c17.315 0 31.465 14.15 31.465 31.464v21.885c0 17.227-14.15 31.465-31.465 31.465"/><path fill="#694B4B" d="M673.016 398.445H350.984c-17.49 0-31.816-14.326-31.816-31.816s14.326-31.817 31.816-31.817h322.032c17.49 0 31.816 14.327 31.816 31.817s-14.238 31.816-31.816 31.816"/><path fill="#E5E4DD" d="M383.416 47.879V-78.684c0-70.664 57.832-128.584 128.584-128.584s128.584 57.832 128.584 128.584V47.791"/><path fill="#FFF" d="M466.033 207.723c0 25.4 20.567 45.966 45.967 46.054 25.4 0 45.967-20.566 46.055-45.966v-.088c0-25.4-20.567-45.967-45.967-45.967s-46.055 20.566-46.055 45.967m391.29 561.533H520.261c-16.084 0-29.092-13.184-29.092-29.092 0-16.084 13.184-29.092 29.092-29.092H857.41c16.084 0 29.092 13.184 29.092 29.092 0 15.996-13.184 29.092-29.18 29.092zM669.762 629.86h-149.59c-16.083 0-29.091-13.183-29.091-29.091 0-16.084 13.184-29.092 29.092-29.092h149.59c16.084 0 29.091 13.183 29.091 29.092.176 15.996-13.007 29.091-29.091 29.091z"/><path fill="#F7C9A4" d="M276.541 707.645h-18.809c-14.502 0-26.279-11.866-26.279-26.28v-37.793c0-14.502 11.865-26.279 26.28-26.279h18.808c14.502 0 26.28 11.865 26.28 26.28v37.792c0 14.59-11.866 26.28-26.28 26.28"/><path fill="#E8E8DD" d="M392.908 827.352v-68.995c0-32.168-56.601-53.437-125.771-53.437s-125.772 21.27-125.772 53.437v68.995z"/><path fill="#F7C9A4" d="M217.04 621.072h-20.567c-10.108 0-18.457-8.35-18.457-18.457s8.35-18.457 18.457-18.457h20.566c10.107 0 18.457 8.35 18.457 18.457a18.4 18.4 0 0 1-18.457 18.457zm116.981-1.67h-20.566c-10.107 0-18.457-8.35-18.457-18.457s8.35-18.457 18.457-18.457h20.566c10.108 0 18.458 8.35 18.458 18.457.087 10.108-8.262 18.457-18.458 18.457"/><path fill="#F2F2F1" d="M381.746 827.352v-68.995c0-32.168-32.256-53.437-114.61-53.437-80.507 0-114.609 21.27-114.609 53.437v68.995z"/><path fill="#FFD9B6" d="M267.049 670.379c-36.563 0-66.445-21.094-66.445-59.854V559.11c0-38.672 29.882-70.4 66.445-70.4s66.445 31.64 66.445 70.4v51.416c.088 38.848-29.883 59.854-66.445 59.854z"/><path fill="#694B4B" d="M227.586 595.408c0 5.01 3.252 9.14 7.295 9.14s7.295-4.13 7.295-9.14-3.252-9.14-7.295-9.14-7.295 4.13-7.295 9.14m63.984 0c0 5.01 3.252 9.14 7.295 9.14s7.295-4.13 7.295-9.14-3.252-9.14-7.295-9.14-7.295 4.13-7.295 9.14"/><path fill="#E5E5DB" d="M200.955 827.352V784.46c0-2.9-2.373-5.361-5.361-5.361-2.9 0-5.362 2.373-5.362 5.36v42.892zm142.47 0V784.46c0-2.9-2.372-5.361-5.36-5.361s-5.362 2.373-5.362 5.36v42.892z"/><path fill="#0AC2FD" d="M292.273 708.875h-50.01c-3.34 4.746-3.34 12.393 0 17.05l18.985 26.895c3.34 4.746 8.701 4.746 12.041 0l18.984-26.894c3.34-4.658 3.34-12.393 0-17.051"/><path fill="#F7CCA5" d="M339.207 487.918h-93.164c-11.074 0-20.654 7.559-25.225 18.37-14.326 1.317-24.345 15.38-24.345 32.255l4.043 45.703h19.248c.966 0 1.845-.79 1.845-1.933v-24.874c0-1.23.791-2.197 1.934-2.197l85.781 8.701c.967 0 1.934.967 1.934 2.198v15.556a2.55 2.55 0 0 0 2.549 2.55h18.545c7.47 0 13.886-88.155 13.886-88.155.528-4.746-3.164-8.174-7.031-8.174"/><path fill="#694B4B" d="M343.69 484.139h-97.295c-11.25 0-21.006 7.47-25.489 18.105-14.59 1.23-26.103 14.942-26.103 31.553l5.361 44.912h15.996c.967 0 1.846-.791 1.846-1.846V552.43c0-1.23.879-2.11 1.933-2.11l94.483 8.526c.967 0 1.933.967 1.933 2.11v15.292a2.55 2.55 0 0 0 2.55 2.549h16.962c4.746 0 15.205-86.572 15.205-86.572.264-4.746-3.427-8.086-7.383-8.086z"/><path fill="#E8E8DD" d="m266.785 708.523-13.974 30.41c-2.55 3.956-5.186 8.174-9.229 4.483l-39.55-29.004c-2.989-2.988-6.153-5.361-4.923-9.053l12.393-20.83c1.23-3.691 5.361-5.713 9.228-4.482l41.133 19.424c3.867 1.318 6.065 5.273 4.922 9.052"/><path fill="#E8E8DD" d="m267.488 708.26 13.8 30.498c2.548 4.043 5.097 8.174 9.228 4.482l39.726-28.74c2.988-2.988 6.153-5.361 4.922-9.053l-7.998-19.687c-1.23-3.692-5.361-5.713-9.229-4.483l-45.527 17.93c-3.867 1.23-6.064 5.361-4.922 9.053"/><path fill="#0AC2FD" d="M281.287 827.703h-28.3c-2.901 0-5.362-1.142-5.362-2.637l11.426-78.837c0-1.407 2.373-2.637 5.361-2.637h5.361c2.9 0 5.362 1.142 5.362 2.637l11.426 78.837c.087 1.495-2.286 2.637-5.274 2.637"/><path fill="#079FDB" d="M273.29 752.03h-12.657c-1.23 0-2.11-.88-2.11-2.11s.88-2.11 2.11-2.11h12.656c1.23 0 2.11.88 2.11 2.11 0 1.142-.967 2.11-2.11 2.11z"/></svg>