<svg xmlns="http://www.w3.org/2000/svg" viewBox="0 0 1024 1024"><path fill="#2e8dcf" d="M970.43 687.21c-64.64 0-129.29.61-193.91-.39-18.57-.29-29.87 4.93-41.8 20.42-53.34 69.22-124.92 96.66-209.99 76.83-82.91-19.32-134.04-73.96-153.67-157.12-2.28-9.66-2.37-19.83-3.7-31.71h32.02c198.77 0 397.53-.27 596.29.43 16 .06 23.2-3.52 26-15.55 1.51-15 2.29-30.21 2.32-45.6-.25-44.76-6.38-88.34-18.63-130.9-14.25-48.42-36.25-93.52-64.57-133.87C890 199.46 828.04 148.4 752.31 113.79 694.54 87.77 630.45 73.3 562.96 73.3h-.15c-.62.04-1.25.08-1.87.1-195.9 9.16-336.19 101.82-419.18 279.5-12.75 27.3-19.74 57.29-29.4 86.04l5.92 3.32c57.1-75.43 125.98-137.45 205.86-186.96 1.59 1.4 3.18 2.81 4.78 4.21-5.8 6.33-11.57 12.69-17.39 19-75.79 82.08-146.93 167.75-203.84 264.37a859 859 0 0 0-5.39 9.27c2.13 53.76 13.51 105.15 32.57 152.63.34-.52.66-1.05 1-1.57 40.01 94.38 101.75 168.59 193.2 226.2-.32.13-.63.25-.95.38a458 458 0 0 0 44.73 23.27c4.18.85 8.51 2.24 13.14 4.2 129.77 54.87 270.74 45.42 387.34-13.98C869.74 893.83 946.42 811.44 988.48 711c2.78-7.03 5.52-14.62 9.08-23.8h-27.13zM556.99 280.64c108.64-6.04 202.01 69 215.87 176.43h-401.7c2.04-87.93 90.44-171.12 185.83-176.43"/><path fill="#f7b70d" d="M1009.88 195.95c16.88-84.44-19.14-154.26-94.05-175.8-33.95-9.76-71.89-11.41-107.41-8.71-68.58 5.19-134.19 25.08-198.08 50.63-.01 0-.01 0-.02.01-3.35 1.16-6.85 2.52-10.5 4.07-11.79 4.09-24.58 6.43-37 7.16h.15c6.91 0 13.77.16 20.61.46-94.52 48.03-254.64 185.76-254.64 185.76s-146.53 144.1-226.63 292.62C49.2 644.49 11.87 742.49 1.22 849.42c-10.3 103.32 45.3 163.21 148.64 164.29 68.09.72 127.25-27.19 186.47-54.88 13.05-6.1 24.08-8.31 36.54-5.76a462 462 0 0 1-44.73-23.27c-40.91 16.25-74.79 33.17-110.61 43.03-65.86 18.12-123.59-23.71-131.91-91.75-6.24-51 12.3-119.14 49.26-176.3.33-.52.67-1.03 1-1.56 235.04-422.5 584.91-572.24 606.72-593.66 3.25 1.37 6.49 2.78 9.7 4.23a493 493 0 0 0-9.63-4.29c40.12-35.95 142.38-49.37 188.24-25.34 40.36 21.14 60.42 68.13 49.68 121.07-5.6 27.59-14.28 54.57-23.37 88.58a579 579 0 0 0-16.45-24.04c28.32 40.36 50.32 85.46 64.57 133.87-6.28-21.8-14.15-43.33-23.67-64.62-4.62-10.32-4.71-24.68-1.91-35.93 8.96-36 22.87-70.88 30.12-107.14" data-spm-anchor-id="a313x.7781069.0.i2"/></svg>