<svg xmlns="http://www.w3.org/2000/svg" viewBox="0 0 1024 1024"><path fill="#E4E7E7" d="M237.781 62H786.22c23.203 0 42.187 18.984 42.187 42.188v815.625c0 23.203-18.984 42.187-42.187 42.187H237.78c-23.203 0-42.187-18.984-42.187-42.188V104.188C195.594 80.984 214.578 62 237.78 62z"/><path fill="#2c2c2c" d="M251.844 188.563h520.312c7.735 0 14.063 6.328 14.063 14.062v618.75c0 7.734-6.328 14.063-14.063 14.063H251.844c-7.735 0-14.063-6.329-14.063-14.063v-618.75c0-7.734 6.328-14.063 14.063-14.063z"/><path fill="#fff" d="M577.39 472.625c-8.437-10.547-20.39-16.875-31.64-16.875-14.766 0-21.094 7.031-30.938 7.031-10.546 0-18.28-7.031-31.64-7.031-12.656 0-26.016 7.734-34.453 21.094-11.953 18.281-9.844 53.437 9.14 82.969 7.032 10.546 16.172 22.5 28.125 22.5 10.547 0 14.063-7.032 28.125-7.032 14.766 0 17.578 7.032 28.125 7.032 11.953 0 21.797-13.36 28.828-23.907 4.922-7.734 7.032-11.25 10.547-20.39-27.422-10.547-31.64-49.922-4.218-65.391zm-38.671-30.234c5.625-7.032 9.843-17.579 8.437-28.125-9.14.703-19.687 6.328-26.015 14.062-5.625 7.031-10.547 17.578-8.438 27.422 9.844 0 20.39-5.625 26.016-13.36z"/><path fill="#BFC3C5" d="M512 863.563c19.688 0 35.156 15.468 35.156 35.156S531.688 933.875 512 933.875s-35.156-15.469-35.156-35.156 15.469-35.157 35.156-35.157zm0-752.344c7.734 0 14.063 6.328 14.063 14.062s-6.329 14.063-14.063 14.063-14.063-6.328-14.063-14.063 6.33-14.061 14.063-14.061z"/></svg>