<svg xmlns="http://www.w3.org/2000/svg" viewBox="0 0 1024 1024"><path fill="#EC3E4B" d="M360.125 90.125H662.82c93.867 0 127.617 9.492 162.422 28.477 34.805 17.93 61.172 45.351 80.156 80.156s28.477 67.5 28.477 161.367V662.82c0 93.867-9.492 127.617-28.477 162.422-17.93 34.805-45.351 61.172-80.156 80.156-34.804 17.93-68.554 28.477-162.422 28.477H360.125c-93.867 0-127.617-9.492-162.422-28.477s-61.172-45.351-79.101-79.101c-18.985-34.805-28.477-68.555-28.477-162.422v-303.75c0-93.867 9.492-127.617 28.477-162.422s45.351-61.172 79.101-79.101 68.555-28.477 162.422-28.477"/><path fill="#FFF" d="M737.703 441.336c-42.187-140.274-151.875-174.024-208.828-182.461-8.438-1.055-12.656 10.547-5.273 14.766 188.789 108.632 136.054 246.796 117.07 283.71-2.11 4.22-8.438 5.274-12.656 2.11l-137.11-142.383c-3.164-3.164-3.164-7.383 0-10.547l47.461-52.734c3.164-3.164 3.164-8.438 0-10.547l-28.476-26.367c-3.164-3.164-7.383-3.164-10.547 0l-23.203 21.094c-1.055 1.054-3.164 2.109-5.274 2.109l-52.734-1.055c-2.11 0-4.219 1.055-5.274 2.11L301.063 455.047c-3.165 3.164-3.165 8.437 0 11.601l61.171 55.899c3.164 3.164 7.383 3.164 10.547 0l33.75-32.695c3.164-3.164 7.383-3.164 10.547 0l142.383 138.164c3.164 3.164 3.164 9.492-1.055 12.656-111.797 65.39-213.047-30.586-236.25-55.899-3.164-3.164-7.383-3.164-10.547 0l-35.859 31.641c-3.164 3.164-3.164 7.383-1.055 10.547l27.422 31.64q3.165 4.747 0 9.493c-1.055 2.11-4.219 3.164-6.328 3.164-13.71 0-20.039 6.328-20.039 6.328-37.969 36.914 1.055 58.008 7.383 61.172 1.055 0 1.055 0 2.11 1.054 41.132 8.438 44.296-27.421 44.296-36.914 0-2.109 1.055-3.164 2.11-4.218l3.163-4.22c2.11-3.163 6.329-4.218 9.493-2.108 153.984 81.21 253.125 25.312 276.328 10.546 3.164-2.109 7.383-2.109 9.492 1.055l36.914 34.805c5.274 5.273 14.766 5.273 20.04 0l54.843-55.899c3.164-3.164 3.164-7.382 0-10.547l-36.914-44.296c-2.11-2.11-3.164-6.328-1.055-9.493 12.656-20.039 55.899-100.195 33.75-177.187"/></svg>