<svg xmlns="http://www.w3.org/2000/svg" viewBox="0 0 1024 1024"><path fill="#FB8A13" d="M811.695 545.812H586.849a38.825 38.825 0 0 0-38.826 38.826v303.657a38.825 38.825 0 0 0 38.826 38.826h223.977a38.825 38.825 0 0 0 38.826-38.826V584.638a38.825 38.825 0 0 0-38.826-38.826zm19.123 318.723a38.825 38.825 0 0 1-38.826 38.827H609.739a38.825 38.825 0 0 1-38.826-38.826V602.313a38.825 38.825 0 0 1 38.826-38.827h182.254a38.825 38.825 0 0 1 38.826 38.827zm0 0"/><path fill="#FB8A13" d="M789.674 725.166a210.1 210.1 0 0 1-55.052-22.6 371 371 0 0 0-53.025-28.975 119.09 119.09 0 0 0-108.945 13.328h-2.898v180.804a39.116 39.116 0 0 0 39.406 38.826h184.86a39.116 39.116 0 0 0 39.406-38.826V731.541a246 246 0 0 1-43.752-6.375m16.515 219.63H593.513a3.767 3.767 0 0 1-3.766-3.766v-25.5a3.767 3.767 0 0 1 3.766-3.767H805.9a3.767 3.767 0 0 1 3.766 3.767v25.498a3.767 3.767 0 0 1-3.766 3.766zM493.261 756.75a66.64 66.64 0 0 1-32.742-57.95v-55.052a24.92 24.92 0 0 1 24.919-24.919h72.437v173.85zm-7.823-120.536a8.113 8.113 0 0 0-8.403 8.403v55.052a50.13 50.13 0 0 0 24.629 42.883l39.116 22.89V636.214zm0 0"/><path fill="#005087" d="M426.038 629.259c0-42.303 45.2-38.536 45.2-38.536h59.69v-24.63a55.052 55.052 0 0 1 61.716-55.63h173.85V418.9l64.613 67.512 132.416-133.575L764.755 154.07h-66.062a215.575 215.575 0 0 1-198.768 132.416A210.36 210.36 0 0 1 301.157 154.07h-66.063L36.326 352.838 168.74 486.413l66.353-66.353v397.536h252.661c-68.67-37.088-61.137-142.556-60.268-187.178zm0 0"/></svg>