<svg xmlns="http://www.w3.org/2000/svg" viewBox="0 0 1024 1024"><path fill="#707070" d="M864.978 147.91H159.01c-23.273 0-42.134 18.59-42.134 41.516v645.16c0 22.915 18.861 41.491 42.134 41.491h705.97c23.273 0 42.146-18.589 42.146-41.49v-645.16c0-22.928-18.886-41.517-42.147-41.517zm-315.43 273.803 98.433-98.432.024-.025 1.916-1.915c4.894-4.598 19.207-15.005 36.127 1.94l.013.012 103.672 103.71.074.037c32.21 32.222.05 39.835 0 39.835h-240.74c-4.425-.976-35.485-9.196.482-45.162zm-204.613-187.52a63.145 63.145 0 1 1-.025 126.29 63.145 63.145 0 0 1 .025-126.29m117.824 327.69c0 20.752-16.314 37.957-37.474 41.047v.123s-10.37 1.681-11.754 12.768l-16.81 135.19s-2.52 31.232-29.366 36.448c-27.092 5.203-47.918 0-47.918 0s-23.31-.804-27.71-38.13c-3.374-28.97-13.423-100.014-17.86-130.913-2.237-15.474-14.609-15.598-14.609-15.598l.037-.086c-20.504-3.584-36.078-20.591-36.078-40.898v-130.11c0-23.112 19.776-41.664 44.137-41.664H418.56c24.373 0 44.186 18.552 44.186 41.664l.012 130.16zm330.064 35.337L689.36 700.435c-18.54 18.514-34.904 5.376-39.255 1.248L546.31 597.553l-4.511-4.499c-9.801-10.394-29.614-35.089 4.511-35.126h.025l246.463.285c.322.012 37.203 1.903.025 39.007"/></svg>