<svg xmlns="http://www.w3.org/2000/svg" viewBox="0 0 1024 1024"><path fill="#FFD05C" d="M641.28 82.995H288.666c-73.524 0-133.12 59.597-133.12 133.12v585.267c0 73.524 59.596 133.12 133.12 133.12h457.472c73.523 0 133.12-59.596 133.12-133.12V400.026z"/><path fill="#FFF" d="M681.37 774.707H356.25c-22.63 0-40.96-18.33-40.96-40.96s18.33-40.96 40.96-40.96h325.12c22.63 0 40.96 18.33 40.96 40.96s-18.33 40.96-40.96 40.96m0-170.086H356.25c-22.63 0-40.96-18.33-40.96-40.96s18.33-40.96 40.96-40.96h325.12c22.63 0 40.96 18.33 40.96 40.96s-18.33 40.96-40.96 40.96M556.237 434.586H356.25c-22.63 0-40.96-18.33-40.96-40.96s18.33-40.96 40.96-40.96h199.987c22.63 0 40.96 18.33 40.96 40.96s-18.33 40.96-40.96 40.96"/><path fill="#FCA235" d="M735.437 400.128c-52.02 0-94.208-42.189-94.208-94.208V82.995h.102l237.927 317.082v.102H735.437z"/></svg>