<svg xmlns="http://www.w3.org/2000/svg" viewBox="0 0 1024 1024"><path fill="#104223" d="M804.923 907.508H219.077c-56.854 0-102.585-45.73-102.585-102.585V219.077c0-56.854 45.73-102.585 102.585-102.585h584.61c58.09 0 103.82 45.73 103.82 102.585v584.61c0 58.09-45.73 103.82-102.584 103.82z"/><path fill="#E5E140" d="m116.492 605.933 281.8 301.575h46.966L116.492 556.495zm0 97.641L306.83 907.508h46.967L116.492 654.136zm0 95.17 101.35 108.764h46.966L116.492 749.305v49.438zm510.452 108.764 280.564-300.339v-49.438L581.214 907.508zm92.698 0 187.866-201.462v-50.674L672.675 907.508zm85.281 0h3.708l100.113-106.293v-49.438l-148.316 155.73h44.495z"/><path fill="#FFF100" d="m305.594 325.37 12.36-16.068 11.124 8.652 11.123-12.36 11.124 13.596-4.944 11.124 200.226 147.08 9.888-8.653 53.146 44.495v9.888l156.967 116.18-43.259 60.562-191.574-206.405z"/><path fill="#FFF100" d="m736.945 325.37-12.36-16.068-11.123 8.652-11.124-12.36-11.124 13.596 4.944 11.124-200.226 147.08-9.887-8.653-53.147 44.495v9.888l-156.967 116.18 43.259 60.562 191.574-206.405z"/></svg>