<svg xmlns="http://www.w3.org/2000/svg" viewBox="0 0 1024 1024"><path fill="#434A54" d="M474.495 774.489H249.497l37.394-131.093 150.154-.054z"/><path fill="#5D9CEC" d="M99.506 661.99c-10.34 0-18.759-8.403-18.759-18.759v-356.23c0-10.326 8.418-18.759 18.76-18.759H624.5c10.327 0 18.731 8.433 18.731 18.76v356.23c0 10.355-8.404 18.759-18.731 18.759z"/><path fill="#656D78" d="M624.5 249.511H99.506c-20.708 0-37.502 16.782-37.502 37.49v356.23c-.002 20.71 16.794 37.519 37.502 37.519H624.5c20.709 0 37.519-16.808 37.519-37.519v-356.23c0-20.708-16.81-37.49-37.519-37.49m0 393.72H99.506v-356.23H624.5z"/><path fill="#656D78" d="M90.03 568.25h543.945v93.769H90.03z"/><path fill="#AAB2BC" d="M380.755 624.5c0 10.355-8.404 18.731-18.758 18.731-10.355 0-18.745-8.377-18.745-18.731s8.39-18.76 18.745-18.76c10.354 0 18.758 8.405 18.758 18.76"/><path fill="#656D78" d="M474.495 737h-225c-10.353 0-18.745 8.378-18.745 18.731s8.39 18.758 18.745 18.758h225c10.356 0 18.76-8.404 18.76-18.758S484.85 737 474.495 737"/><path fill="#CCD1D9" d="M961.996 755.731c0 10.354-8.404 18.758-18.73 18.758h-225c-10.382 0-18.788-8.404-18.788-18.758V268.242c0-10.355 8.404-18.73 18.787-18.73h225c10.327 0 18.731 8.377 18.731 18.73z"/><path fill="#AAB2BC" d="M774.515 362.01h112.5c10.327 0 18.731-8.405 18.731-18.76 0-10.354-8.404-18.758-18.73-18.758h-112.5c-10.382 0-18.788 8.404-18.788 18.758 0 10.355 8.406 18.76 18.787 18.76m112.5 37.49h-112.5c-10.381 0-18.787 8.404-18.787 18.758 0 10.327 8.404 18.73 18.787 18.73h112.5c10.327 0 18.731-8.403 18.731-18.73 0-10.352-8.404-18.758-18.73-18.758zm0 74.981h-112.5c-10.381 0-18.787 8.404-18.787 18.76S764.134 512 774.515 512h112.5c10.327 0 18.731-8.404 18.731-18.76s-8.404-18.759-18.73-18.759z"/><path fill="#ED5564" d="M849.496 624.5c0 10.355-8.404 18.731-18.73 18.731-10.382 0-18.788-8.377-18.788-18.731s8.404-18.76 18.787-18.76c10.327 0 18.731 8.405 18.731 18.76"/><path fill="#FFF" d="M394.817 568.25H287l112.5-281.248h107.817z"/></svg>