<svg xmlns="http://www.w3.org/2000/svg" viewBox="0 0 1024 1024"><path fill="#FCC419" d="m502.677 497.301 26.56-79.68a19.54 19.54 0 0 0-1.493-15.466 198.57 198.57 0 0 1-23.147-109.12c7.019-95.702 83.542-174.208 179.051-183.318a199.253 199.253 0 0 1 217.707 218.816c-9.387 93.355-85.014 168.534-178.39 177.622a198.76 198.76 0 0 1-106.026-18.731 19.2 19.2 0 0 0-13.312-1.408l-89.408 23.467a9.6 9.6 0 0 1-11.542-12.182m-5.61 16.832"/><path fill="#5C7CFA" d="M683.413 659.072c-24.405-24.192-54.976-24.192-79.381 0-18.581 18.39-37.184 36.8-55.467 55.595-4.992 5.205-9.194 6.208-15.402 2.794-11.99-6.592-24.79-11.797-36.395-19.008-53.781-33.792-98.987-77.397-138.965-126.592-19.798-24.384-37.59-50.389-49.792-79.786-2.411-5.995-2.134-9.814 2.794-14.592 18.603-17.984 36.8-36.395 54.976-54.806 25.387-25.6 25.387-55.594-.192-81.386a4666 4666 0 0 0-43.584-43.606c-14.933-14.933-29.866-29.994-44.992-44.992-24.597-23.978-54.976-24.192-79.573 0-18.581 18.39-36.779 37.398-55.573 55.467-17.6 16.81-26.603 37.205-28.395 61.184-2.795 38.784 6.592 75.584 19.99 111.381 27.583 73.984 69.375 139.584 119.978 199.958a741 741 0 0 0 246.144 192.576c42.987 20.992 87.765 36.992 136.363 39.594 33.386 1.792 62.592-6.592 85.781-32.597 16-17.792 33.792-34.005 50.795-50.987 25.002-25.194 25.194-55.786.405-80.789-29.995-29.995-59.733-59.584-89.6-89.387zm0 0"/><path fill="#495057" d="M740.01 280.15H620.374a14.933 14.933 0 0 1 0-29.718h119.638a14.933 14.933 0 0 1 0 29.717zm58.283 92.351h-177.92a14.933 14.933 0 0 1 0-29.717h177.92a14.933 14.933 0 0 1 0 29.717"/></svg>