<svg xmlns="http://www.w3.org/2000/svg" viewBox="0 0 1024 1024"><path fill="#79B3E8" d="M908.8 215.36a498.9 498.9 0 0 0-99.595-99.925 65.96 65.96 0 0 0-86.208 6.314l-50.538 50.539a376.46 376.46 0 0 0-321.43.245l-50.784-50.784a65.96 65.96 0 0 0-86.208-6.314 498.9 498.9 0 0 0-99.584 99.925 65.97 65.97 0 0 0 6.4 86.048l50.998 50.997A374.2 374.2 0 0 0 136.395 512c0 207.445 168.17 375.605 375.605 375.605S887.605 719.445 887.605 512a374.2 374.2 0 0 0-35.733-160.096l50.528-50.485a65.97 65.97 0 0 0 6.4-86.059"/><path fill="#BEDEFF" d="M534.4 220.693h-44.8v-84.266h44.8zm0 594.24h-44.8V899.2h44.8z"/><path fill="#BEDEFF" d="M512 90.667C279.307 90.667 90.667 279.307 90.667 512S279.307 933.333 512 933.333 933.333 744.693 933.333 512 744.693 90.667 512 90.667m0 782.933c-190.219 0-346.123-146.88-360.533-333.408h63.413v-44.8h-64.107C159.477 303.402 317.867 150.4 512 150.4s352.523 153.003 361.205 344.992H809.1v44.8h63.434C858.123 726.72 702.22 873.6 512 873.6m42.667-404.267h128v85.334h-128v128h-85.334v-128h-128v-85.334h128v-128h85.334z"/></svg>