<svg xmlns="http://www.w3.org/2000/svg" viewBox="0 0 1024 1024"><path fill="#FF4C6A" d="M346.11 62h331.78c135.29 0 248.212 103.268 260.26 238.021 6.228 69.62 9.334 140.284 9.334 211.979 0 71.71-3.106 142.36-9.334 211.979C926.102 858.732 813.18 962 677.89 962H346.11C210.82 962 97.899 858.732 85.85 723.979A2379 2379 0 0 1 76.516 512c0-71.71 3.107-142.36 9.334-211.979C97.9 165.268 210.82 62 346.11 62"/><path fill="#FFF" d="M487.226 264.258c123.144 0 222.968 99.824 222.968 222.968 0 28.672-5.417 56.072-15.261 81.26l70.821 70.804A82.58 82.58 0 1 1 648.97 756.075l-66.99-66.956a222.1 222.1 0 0 1-94.753 21.075c-123.144 0-222.968-99.824-222.968-222.968 0-49.268 15.988-94.803 43.041-131.716a20.53 20.53 0 0 1 31.067-2.379l5.814 5.814 98.486 98.502a16.516 16.516 0 0 0 21.8 1.371l1.57-1.37 1.866-1.867a16.516 16.516 0 0 0 1.371-21.801l-1.37-1.553-97.611-97.61-3.881-3.882a21.438 21.438 0 0 1 3.914-33.412 221.93 221.93 0 0 1 116.901-33.065zm0 49.548c-17.705 0-34.965 2.643-51.365 7.713l-6.458 2.131 73.53 73.53 2.097 2.246 1.388 1.553 1.982 2.378a66.065 66.065 0 0 1-3.023 84.678l-2.444 2.577-1.866 1.866-2.247 2.114-1.552 1.37-2.378 1.983a66.065 66.065 0 0 1-84.679-3.006l-2.576-2.461-77.923-77.923-.975 2.114a172.7 172.7 0 0 0-14.831 64.859l-.1 5.698c0 95.777 77.643 173.42 173.42 173.42 23.717 0 46.675-4.741 67.93-13.792l5.749-2.576 31.496-14.815 91.598 91.582a33.032 33.032 0 0 0 48.657-44.61l-1.933-2.098-93.745-93.746 11.809-30.174c7.795-19.935 11.858-41.241 11.858-63.191 0-95.777-77.642-173.42-173.419-173.42"/></svg>