<svg xmlns="http://www.w3.org/2000/svg" viewBox="0 0 1024 1024"><path fill="#6670FF" d="M63.77 512.13c0 247.13 200.33 447.46 447.46 447.46s447.46-200.33 447.46-447.46S758.36 64.67 511.23 64.67 63.77 265 63.77 512.13m310.06 50.59c-.06 4.32-.91 8.57-2.68 12.53-3.35 7.84-9.62 14.05-17.52 17.22-7.91 3.22-16.73 3.1-24.58-.25l-11.86-5.1c31.7 84.94 114.69 139.69 205.27 135.24 90.59-4.44 167.92-66.93 191.22-154.53 4.2-15.51 19.29-25.61 35.23-23.49 15.94 2.13 27.93 15.7 27.93 31.82-.06 2.8-.43 5.66-1.1 8.4-29.87 112.8-128.37 194.01-244.82 201.99-116.45 7.97-225.04-59.19-270.01-166.88-7.42 15.57-25.86 22.51-41.73 15.63-15.88-6.88-23.49-25-17.21-41.13l33.28-76.96c7.06-16.18 25.8-23.61 42.16-16.73l77.51 32.67c11.62 5.23 19.04 16.86 18.91 29.57m136.1-325.55c108.42 2.86 204.85 69.66 245.55 170.11l6.08-9.73a32.13 32.13 0 0 1 28.66-18.25 32.15 32.15 0 0 1 29.02 17.64c5.53 10.95 4.32 24.03-3.04 33.82L771.91 502c-4.44 7.31-11.62 12.53-19.95 14.54a31.67 31.67 0 0 1-24.34-4.02l-71.3-43.74c-15.45-8.52-21.18-27.98-12.66-43.5 8.52-15.45 27.99-21.18 43.49-12.66-39.36-75.2-120.28-119-204.72-110.85-84.45 8.15-155.51 66.68-179.79 147.96-2.92 11.43-11.86 20.32-23.3 23.12-11.44 2.79-23.54-.85-31.46-9.49-7.91-8.64-10.53-20.99-6.69-32.13 35.61-117.89 145.67-197.35 268.74-194.06"/></svg>