<svg xmlns="http://www.w3.org/2000/svg" viewBox="0 0 1024 1024"><path fill="#4B74FF" d="M215.369 116.492h593.262q98.877 0 98.877 98.877v593.262q0 98.877-98.877 98.877H215.369q-98.877 0-98.877-98.877V215.369q0-98.877 98.877-98.877"/><path fill="#FFF" d="M438.592 674.56 753.92 300.992a27.2 27.2 0 0 1 39.552-2.048 30.91 30.91 0 0 1 2.24 42.24l-335.68 397.632a27.07 27.07 0 0 1-13.76 8.768 27.2 27.2 0 0 1-28.8-8.448L284.736 581.888a30.91 30.91 0 0 1 3.456-43.392 27.2 27.2 0 0 1 38.336 3.2l112.064 132.8z"/></svg>