<svg xmlns="http://www.w3.org/2000/svg" viewBox="0 0 1024 1024"><path fill="#004986" d="M511.07 90.125A421.66 421.66 0 0 0 90.602 477.958l226.16 93.42a118.93 118.93 0 0 1 73.846-20.52L491.244 405.34v-2.156A159.097 159.097 0 1 1 650.312 562.29h-3.691L503.256 664.612c0 1.875.159 3.75.159 5.622a119.312 119.312 0 0 1-236.289 23.52l-161.982-67.09a421.847 421.847 0 1 0 405.86-536.539h.057zM354.955 730.017l-51.799-21.458a89.626 89.626 0 1 0 49.11-122.563l53.531 22.114a65.995 65.995 0 1 1-50.795 121.813v.094zm401.39-326.927a106.014 106.014 0 1 0-106.013 105.977A106.164 106.164 0 0 0 756.346 403.09zm-185.445-.188a79.647 79.647 0 1 1 79.647 79.647 79.46 79.46 0 0 1-79.647-79.647"/></svg>