<svg xmlns="http://www.w3.org/2000/svg" viewBox="0 0 1024 1024"><path fill="#FFEB3B" d="M618.667 256a21.333 21.333 0 0 1-21.334 21.333H426.667A21.333 21.333 0 0 1 405.333 256v-64a21.333 21.333 0 0 1 21.334-21.333h170.666A21.333 21.333 0 0 1 618.667 192z"/><path fill="#455A64" d="M405.333 213.333H448V256h-42.667zM448 170.667h42.667v42.666H448zm42.667 42.666h42.666V256h-42.666zm42.666-42.666H576v42.666h-42.667zM576 213.333h42.667V256H576z"/><path fill="#795548" d="M234.667 682.667a21.333 21.333 0 0 0-21.334-21.334H128a21.333 21.333 0 0 0-21.333 21.334v128A21.333 21.333 0 0 0 128 832h85.333a21.333 21.333 0 0 0 21.334-21.333zm682.666 0A21.333 21.333 0 0 0 896 661.333h-85.333a21.333 21.333 0 0 0-21.334 21.334v128A21.333 21.333 0 0 0 810.667 832H896a21.333 21.333 0 0 0 21.333-21.333z"/><path fill="#FFC107" d="M938.667 469.333H855.7S774.016 309.12 768 298.667C756.053 277.909 746.667 256 704 256H320c-42.667 0-50.325 21.333-64 42.667-7.595 11.882-88.107 170.666-88.107 170.666h-82.56A21.333 21.333 0 0 0 64 490.667v42.666a21.333 21.333 0 0 0 21.333 21.334h853.334A21.333 21.333 0 0 0 960 533.333v-42.666a21.333 21.333 0 0 0-21.333-21.334"/><path fill="#FFC107" d="M874.667 490.667s-192-21.334-362.667-21.334-362.667 21.334-362.667 21.334c-23.552 0-42.666 40.448-42.666 64v170.666A21.333 21.333 0 0 0 128 746.667h768a21.333 21.333 0 0 0 21.333-21.334V554.667c0-23.552-19.114-64-42.666-64"/><path fill="#546E7A" d="M512 469.333c112.448 0 233.813 9.238 303.765 15.552-31.104-60.97-80.042-156.586-84.8-165.013l-2.432-4.288c-9.557-16.917-9.557-16.917-24.533-16.917H320c-13.952 0-13.952 0-23.168 15.125-1.6 2.603-3.2 5.248-4.885 7.893-5.44 9.046-47.083 90.219-84.096 163.243 69.866-6.315 191.488-15.595 304.149-15.595"/><path fill="#37474F" d="M874.667 640a21.333 21.333 0 0 1-21.334 21.333H170.667A21.333 21.333 0 0 1 149.333 640v-64a21.333 21.333 0 0 1 21.334-21.333h682.666A21.333 21.333 0 0 1 874.667 576z"/><path fill="#4DD0E1" d="M170.667 608a32 32 0 1 0 64 0 32 32 0 1 0-64 0m618.666 0a32 32 0 1 0 64 0 32 32 0 1 0-64 0"/></svg>