<svg xmlns="http://www.w3.org/2000/svg" viewBox="0 0 1024 1024"><path fill="#1768E4" d="M507.605 981.376c-138.581 0-213.333-241.835-213.333-469.333h85.333c0 234.41 75.819 384 128 384 29.014 0 73.472-51.584 102.486-164.864l82.688 21.205c-37.291 145.536-104.79 228.992-185.174 228.992M184.533 529.408C93.355 431.701 63.701 342.187 101.12 277.333c32.128-55.594 107.221-77.994 211.627-62.976 91.136 13.184 198.229 53.248 301.525 112.854l-42.667 73.941c-94.122-54.357-190.378-90.667-271.061-102.315-63.573-9.173-112.853-.853-125.525 21.163-13.142 22.784 3.968 78.336 71.936 151.125l-62.422 58.24zm429.739 167.381-42.667-73.941C774.613 505.685 866.261 365.227 840.15 320c-13.525-23.467-75.52-36.693-179.37-10.24l-21.035-82.73c135.979-34.56 235.947-16.214 274.347 50.346 69.248 119.979-102.784 305.621-299.819 419.413z"/><path fill="#8BB3F1" d="M507.605 42.667C646.144 42.667 720.94 284.5 720.94 512h-85.334c0-234.41-75.818-384-128-384-23.68 0-58.282 35.285-86.186 112.341a696 696 0 0 0-83.2-21.418C377.6 105.13 437.248 42.667 507.605 42.667M785.75 572.629c21.974-19.968 42.112-40.448 60.032-61.141 78.336 90.283 103.339 174.507 68.267 235.221-25.6 44.288-78.464 67.456-151.68 67.499a419.4 419.4 0 0 1-59.904-4.608c-91.179-13.099-198.272-53.205-301.525-112.81l42.666-73.942c94.08 54.357 190.336 90.667 271.019 102.315 63.573 9.13 112.853.853 125.525-21.12 12.032-20.822-1.536-68.822-54.4-131.414M315.99 722.475c6.315 29.013 13.952 56.704 22.912 82.517-30.976 5.973-59.904 9.173-86.101 9.173-72.96 0-125.952-22.912-151.68-67.413-69.29-120.064 102.741-305.707 299.776-419.456l42.667 73.899C240.64 518.4 148.907 658.859 175.019 704c11.904 20.608 60.458 32.853 140.97 18.432z"/></svg>