<svg xmlns="http://www.w3.org/2000/svg" viewBox="0 0 1024 1024"><path fill="#A1A6B6" d="M11.5 512.2a500 500 0 1 0 1000 0 500 500 0 1 0-1000 0"/><path fill="#C1938B" d="M426.3 742.3s16.3 45.6 11 97.2c-5.4 51.6 151.4 10 151.4 10s-18.8-105.8 0-124.6z"/><path d="M485.4 871.3c-19.4 0-36.5-2.8-45.9-10.9-6.3-5.4-9.2-12.9-8.3-21.6 5.2-49.6-10.5-94-10.6-94.5L418 737l187.1-20-12.1 12.1c-11.4 11.4-5.9 76.6 1.7 119.3l1 5.5-5.4 1.4c-8.5 2.2-62.3 16-104.9 16m-51.1-123.8c4.4 15.1 13.2 51.8 9 92.5-.5 4.8.8 8.3 4.1 11.1 5.9 5.1 24 12.4 78.5 4.7 23.9-3.4 46-8.5 55.9-10.9-3.8-22.7-12.6-84-3.6-112.9z"/><path fill="#E5C1AC" d="M727 353.3v224.6c0 42.8-18.9 83.4-51.5 111l-62 52.3c-26.2 22.1-59.4 34.3-93.7 34.3h-21.3c-34.3 0-67.5-12.1-93.7-34.3l-62-52.3c-32.7-27.6-51.5-68.2-51.5-111V346.8s52.1-74.6 54.8-74.6S466.2 258 466.2 258l133.2 16.9 101.7 1.8z"/><path d="M519.8 781.6h-21.3c-35.7 0-70.4-12.7-97.6-35.7l-62-52.3c-34.1-28.8-53.7-71-53.7-115.6V345l1.1-1.6c.1-.2 13.2-18.9 26.4-37.3 28.5-39.8 29.4-39.8 33.3-39.8 3.5-.2 73.4-8.6 119.4-14.2l.7-.1 133.6 17 105.7 1.8 27.6 81.6V578c0 44.7-19.6 86.8-53.7 115.6l-62 52.3c-27.2 23-61.8 35.7-97.5 35.7M297.3 348.7v229.2c0 41.1 18 79.8 49.4 106.4l62 52.3c25.1 21.2 57 32.8 89.8 32.8h21.3c32.8 0 64.7-11.7 89.8-32.8l62-52.3C702.9 657.8 721 619 721 577.9V354.3l-24.2-71.6-98.1-1.8-132.5-16.8c-39.9 4.8-103.8 12.5-117.6 14-6 6.7-30 40.1-51.3 70.6m49.5-70.4c-.4 0-.7.1-.8.1.3-.1.6-.1.8-.1m2.7-1.2"/><path fill="#D27164" d="M509.1 711.1c56.3 0 104.5-34.9 124.1-84.3H385.1c19.5 49.4 67.7 84.3 124 84.3"/><path d="M509.1 717.2c-57.6 0-108.5-34.6-129.7-88.1l-3.3-8.3h266l-3.3 8.3c-21.2 53.5-72.1 88.1-129.7 88.1m-114.8-84.4C415.5 677 459.6 705 509.1 705s93.6-28 114.8-72.2z"/><path fill="#31160C" d="m306 439.9-12-63.1 47.9-71.7s158.1 26.5 234.8 13.3S706 305.1 706 305.1l26.3 148.1 31.1-107-31-52.2 47.9-17.7-186.8-42.6 93.4-50.2-201.2 13.3 31.1-64.1-201.2 137-21.6-36-50.3 112.4-38.3-21.1L306 550.4z"/><path d="M306 556.5c-2.4 0-4.5-1.4-5.5-3.6L199.8 327.5c-1.1-2.4-.5-5.2 1.4-6.9 1.9-1.8 4.8-2.1 7-.8l32.5 18 47.6-106.4c.9-2.1 2.9-3.4 5.2-3.6 2.3-.1 4.4 1 5.6 2.9l18.3 30.5 195.9-133.4c2.3-1.5 5.3-1.4 7.4.4s2.7 4.8 1.5 7.2l-26.6 54.7 190.8-12.6c2.8-.2 5.4 1.6 6.2 4.4.8 2.7-.4 5.7-3 7l-79.2 42.5 171.1 39c2.6.6 4.5 2.8 4.7 5.5s-1.4 5.2-4 6.1l-41.1 15.1 27.4 45.9c.9 1.4 1.1 3.2.6 4.8l-31.1 107c-.8 2.7-3.4 4.5-6.2 4.4-2.8-.2-5.2-2.2-5.7-5l-25.4-143c-14.9.4-61.5 2.4-123.2 13.1-71 12.3-207.6-8.5-232.9-12.6l-44.4 66.4 11.5 60.7c.1.4.1.8.1 1.1v110.5c0 2.9-2 5.3-4.8 5.9-.2.1-.6.2-1 .2m-87.7-217.4 81.6 182.8v-81.4L288 377.9c-.3-1.6 0-3.2.9-4.5l47.9-71.7c1.3-2 3.7-3 6.1-2.6 1.6.3 158 26.2 232.7 13.3C651.9 299.2 705.5 299 706 299c2.9 0 5.5 2.1 6 5l21.8 122.5L757 347l-29.8-49.9c-.9-1.5-1.1-3.4-.5-5.1s1.9-3 3.6-3.7l28.7-10.6-166.9-38.1c-2.5-.6-4.3-2.6-4.7-5.1-.3-2.5.9-5 3.1-6.2l68.8-37L486 202.7c-2.2.1-4.2-.9-5.4-2.7s-1.4-4.1-.4-6l21.2-43.6L319 274.8c-1.4.9-3.1 1.3-4.7.9s-3-1.4-3.9-2.8l-15.6-26-45.5 101.8c-.7 1.6-2 2.7-3.6 3.3-1.6.5-3.4.4-4.9-.4z"/><path fill="#1F191C" d="m282.8 563.5-19.9-144.7s123.5-33.2 154.7-37.6 129.2-22.1 169.8 0 153.5 46.5 153.5 46.5L727 549.4s-156.9 4.4-182.2-2.2-76.2 2.2-76.2 2.2z"/><path d="m277.5 570-21.4-155.6 5.2-1.4c5.1-1.4 124.2-33.3 155.4-37.8q4.35-.6 10.2-1.5c40.5-6.1 124.7-18.9 163.4 2.2 39.4 21.5 150.8 45.6 151.9 45.9l5.4 1.2-15.1 132.4-5.3.1c-6.4.2-158.1 4.4-183.9-2.4-23.7-6.2-73.1 2.2-73.6 2.3l-.6.1zm-7.9-146.7L288 557l179.9-13.6c4.7-.8 53-8.8 78.4-2.1 19.3 5.1 128.3 3.4 175.2 2.2l12.7-111.1c-23.2-5.2-113.5-26.1-149.8-45.9-35.1-19.1-119.6-6.3-155.7-.9-4 .6-7.4 1.1-10.3 1.5-26.9 3.9-125.1 29.9-148.8 36.2"/><path fill="#C9935F" d="M351 474.5a37.7 37.7 0 1 0 75.4 0 37.7 37.7 0 1 0-75.4 0"/><path d="M388.7 518.2c-24.1 0-43.7-19.6-43.7-43.7s19.6-43.7 43.7-43.7 43.7 19.6 43.7 43.7-19.6 43.7-43.7 43.7m0-75.3c-17.4 0-31.6 14.2-31.6 31.6s14.2 31.6 31.6 31.6 31.6-14.2 31.6-31.6c-.1-17.4-14.2-31.6-31.6-31.6"/><path fill="#C9935F" d="M599.3 474.5a37.7 37.7 0 1 0 75.4 0 37.7 37.7 0 1 0-75.4 0"/><path d="M637 518.2c-24.1 0-43.7-19.6-43.7-43.7s19.6-43.7 43.7-43.7 43.7 19.6 43.7 43.7-19.6 43.7-43.7 43.7m0-75.3c-17.4 0-31.6 14.2-31.6 31.6s14.2 31.6 31.6 31.6 31.6-14.2 31.6-31.6-14.2-31.6-31.6-31.6"/><path fill="#C9935F" d="M501.9 581.9h35.3"/><path d="M537.2 588h-35.3c-3.4 0-6.1-2.7-6.1-6.1s2.7-6.1 6.1-6.1h35.3c3.4 0 6.1 2.7 6.1 6.1 0 3.3-2.8 6.1-6.1 6.1"/><path fill="#C1938B" d="M426.3 742.3s16.3 45.6 11 97.2c-5.4 51.6 151.4 10 151.4 10s-18.8-105.8 0-124.6z"/><path d="M485.4 871.3c-19.4 0-36.5-2.8-45.9-10.9-6.3-5.4-9.2-12.9-8.3-21.6 5.2-49.6-10.5-94-10.6-94.5L418 737l187.1-20-12.1 12.1c-11.4 11.4-5.9 76.6 1.7 119.3l1 5.5-5.4 1.4c-8.5 2.2-62.3 16-104.9 16m-51.1-123.8c4.4 15.1 13.2 51.8 9 92.5-.5 4.8.8 8.3 4.1 11.1 5.9 5.1 24 12.4 78.5 4.7 23.9-3.4 46-8.5 55.9-10.9-3.8-22.7-12.6-84-3.6-112.9z"/><path fill="#E5C1AC" d="M727 353.3v224.6c0 42.8-18.9 83.4-51.5 111l-62 52.3c-26.2 22.1-59.4 34.3-93.7 34.3h-21.3c-34.3 0-67.5-12.1-93.7-34.3l-62-52.3c-32.7-27.6-51.5-68.2-51.5-111V346.8s52.1-74.6 54.8-74.6S466.2 258 466.2 258l133.2 16.9 101.7 1.8z"/><path d="M519.8 781.6h-21.3c-35.7 0-70.4-12.7-97.6-35.7l-62-52.3c-34.1-28.8-53.7-71-53.7-115.6V345l1.1-1.6c.1-.2 13.2-18.9 26.4-37.3 28.5-39.8 29.4-39.8 33.3-39.8 3.5-.2 73.4-8.6 119.4-14.2l.7-.1 133.6 17 105.7 1.8 27.6 81.6V578c0 44.7-19.6 86.8-53.7 115.6l-62 52.3c-27.2 23-61.8 35.7-97.5 35.7M297.3 348.7v229.2c0 41.1 18 79.8 49.4 106.4l62 52.3c25.1 21.2 57 32.8 89.8 32.8h21.3c32.8 0 64.7-11.7 89.8-32.8l62-52.3C702.9 657.8 721 619 721 577.9V354.3l-24.2-71.6-98.1-1.8-132.5-16.8c-39.9 4.8-103.8 12.5-117.6 14-6 6.7-30 40.1-51.3 70.6m49.5-70.4c-.4 0-.7.1-.8.1.3-.1.6-.1.8-.1m2.7-1.2"/><path fill="#D27164" d="M509.1 711.1c56.3 0 104.5-34.9 124.1-84.3H385.1c19.5 49.4 67.7 84.3 124 84.3"/><path d="M509.1 717.2c-57.6 0-108.5-34.6-129.7-88.1l-3.3-8.3h266l-3.3 8.3c-21.2 53.5-72.1 88.1-129.7 88.1m-114.8-84.4C415.5 677 459.6 705 509.1 705s93.6-28 114.8-72.2z"/><path fill="#31160C" d="m306 439.9-12-63.1 47.9-71.7s158.1 26.5 234.8 13.3S706 305.1 706 305.1l26.3 148.1 31.1-107-31-52.2 47.9-17.7-186.8-42.6 93.4-50.2-201.2 13.3 31.1-64.1-201.2 137-21.6-36-50.3 112.4-38.3-21.1L306 550.4z"/><path d="M306 556.5c-2.4 0-4.5-1.4-5.5-3.6L199.8 327.5c-1.1-2.4-.5-5.2 1.4-6.9 1.9-1.8 4.8-2.1 7-.8l32.5 18 47.6-106.4c.9-2.1 2.9-3.4 5.2-3.6 2.3-.1 4.4 1 5.6 2.9l18.3 30.5 195.9-133.4c2.3-1.5 5.3-1.4 7.4.4s2.7 4.8 1.5 7.2l-26.6 54.7 190.8-12.6c2.8-.2 5.4 1.6 6.2 4.4.8 2.7-.4 5.7-3 7l-79.2 42.5 171.1 39c2.6.6 4.5 2.8 4.7 5.5s-1.4 5.2-4 6.1l-41.1 15.1 27.4 45.9c.9 1.4 1.1 3.2.6 4.8l-31.1 107c-.8 2.7-3.4 4.5-6.2 4.4-2.8-.2-5.2-2.2-5.7-5l-25.4-143c-14.9.4-61.5 2.4-123.2 13.1-71 12.3-207.6-8.5-232.9-12.6l-44.4 66.4 11.5 60.7c.1.4.1.8.1 1.1v110.5c0 2.9-2 5.3-4.8 5.9-.2.1-.6.2-1 .2m-87.7-217.4 81.6 182.8v-81.4L288 377.9c-.3-1.6 0-3.2.9-4.5l47.9-71.7c1.3-2 3.7-3 6.1-2.6 1.6.3 158 26.2 232.7 13.3C651.9 299.2 705.5 299 706 299c2.9 0 5.5 2.1 6 5l21.8 122.5L757 347l-29.8-49.9c-.9-1.5-1.1-3.4-.5-5.1s1.9-3 3.6-3.7l28.7-10.6-166.9-38.1c-2.5-.6-4.3-2.6-4.7-5.1-.3-2.5.9-5 3.1-6.2l68.8-37L486 202.7c-2.2.1-4.2-.9-5.4-2.7s-1.4-4.1-.4-6l21.2-43.6L319 274.8c-1.4.9-3.1 1.3-4.7.9s-3-1.4-3.9-2.8l-15.6-26-45.5 101.8c-.7 1.6-2 2.7-3.6 3.3-1.6.5-3.4.4-4.9-.4z"/><path fill="#1F191C" d="m282.8 563.5-19.9-144.7s123.5-33.2 154.7-37.6 129.2-22.1 169.8 0 153.5 46.5 153.5 46.5L727 549.4s-156.9 4.4-182.2-2.2-76.2 2.2-76.2 2.2z"/><path d="m277.5 570-21.4-155.6 5.2-1.4c5.1-1.4 124.2-33.3 155.4-37.8q4.35-.6 10.2-1.5c40.5-6.1 124.7-18.9 163.4 2.2 39.4 21.5 150.8 45.6 151.9 45.9l5.4 1.2-15.1 132.4-5.3.1c-6.4.2-158.1 4.4-183.9-2.4-23.7-6.2-73.1 2.2-73.6 2.3l-.6.1zm-7.9-146.7L288 557l179.9-13.6c4.7-.8 53-8.8 78.4-2.1 19.3 5.1 128.3 3.4 175.2 2.2l12.7-111.1c-23.2-5.2-113.5-26.1-149.8-45.9-35.1-19.1-119.6-6.3-155.7-.9-4 .6-7.4 1.1-10.3 1.5-26.9 3.9-125.1 29.9-148.8 36.2"/><path fill="#C9935F" d="M351 474.5a37.7 37.7 0 1 0 75.4 0 37.7 37.7 0 1 0-75.4 0"/><path d="M388.7 518.2c-24.1 0-43.7-19.6-43.7-43.7s19.6-43.7 43.7-43.7 43.7 19.6 43.7 43.7-19.6 43.7-43.7 43.7m0-75.3c-17.4 0-31.6 14.2-31.6 31.6s14.2 31.6 31.6 31.6 31.6-14.2 31.6-31.6c-.1-17.4-14.2-31.6-31.6-31.6"/><path fill="#C9935F" d="M599.3 474.5a37.7 37.7 0 1 0 75.4 0 37.7 37.7 0 1 0-75.4 0"/><path d="M637 518.2c-24.1 0-43.7-19.6-43.7-43.7s19.6-43.7 43.7-43.7 43.7 19.6 43.7 43.7-19.6 43.7-43.7 43.7m0-75.3c-17.4 0-31.6 14.2-31.6 31.6s14.2 31.6 31.6 31.6 31.6-14.2 31.6-31.6-14.2-31.6-31.6-31.6"/><path fill="#C9935F" d="M501.9 581.9h35.3"/><path d="M537.2 588h-35.3c-3.4 0-6.1-2.7-6.1-6.1s2.7-6.1 6.1-6.1h35.3c3.4 0 6.1 2.7 6.1 6.1 0 3.3-2.8 6.1-6.1 6.1"/><path fill="#AB3028" d="M511.5 1012.2c121.6 0 233-43.4 319.6-115.5l-242.5-90.9s-14.9 20.7-69.1 33.6-81.3-26.7-81.3-26.7L219.7 918.2c82.1 59.1 182.9 94 291.8 94"/><path d="M219.7 924.2c-2.3 0-4.4-1.3-5.5-3.4-1.5-3-.2-6.6 2.8-8.1l223.3-107.8 2.9 4.3c1 1.5 25.6 36 74.8 24.2 50.7-12.1 65.5-31.1 65.7-31.3l2.7-3.6 4.3 1.5 242.6 91c3.1 1.2 4.7 4.7 3.6 7.8-1.2 3.1-4.7 4.7-7.8 3.6L590.5 813c-7 6.9-26.5 22.2-69.4 32.4-46.7 11.1-75.1-14.7-84.3-25.1L222.3 923.6c-.8.5-1.7.6-2.6.6"/></svg>