<svg xmlns="http://www.w3.org/2000/svg" viewBox="0 0 1024 1024"><path fill="#E80000" d="m708.084 660.975-81.387-86.924-2.46-2.373-58.624-60.645 144.14-148.095 1.056-1.407c17.402-19.775 28.037-45.79 28.037-74.355 0-62.051-50.45-112.412-112.588-112.412-26.631 0-50.889 9.228-70.137 24.785l-1.055.703-41.748 39.111-.175.088-39.551-37.969-.967-1.054c-19.424-16.084-44.473-25.664-71.63-25.664-62.14 0-112.5 50.449-112.5 112.412 0 29.092 11.073 55.37 28.827 75.322L460.32 511.561 317.06 659.48l-1.319 1.845c-18.017 20.04-28.916 46.494-28.916 75.498 0 62.139 50.274 112.412 112.5 112.412 27.07 0 52.207-9.58 71.455-25.664l1.23-.967 39.464-37.968.351.088 41.66 38.935.967.967c19.424 15.557 43.77 24.61 70.313 24.61 62.314 0 112.675-50.362 112.675-112.413 0-28.564-10.81-54.492-28.212-74.443zm-337.06-349.98c-5.274-6.417-8.438-14.766-8.438-23.907 0-20.654 16.875-37.354 37.441-37.354 8.614 0 16.612 2.813 22.852 7.647l.351.351 32.872 32.696-44.385 39.199 55.722 56.865 44.122-42.539 44.648 43.682 56.25-57.832-41.836-40.87.44-.351 29.091-28.916c6.68-6.416 15.469-10.02 25.4-10.02 20.743 0 37.442 16.788 37.442 37.354 0 10.459-4.13 19.775-11.162 26.63L512.088 457.509zm252.685 463.27c-9.932 0-18.633-3.779-25.313-9.843l-29.443-29.531.703-.703 41.045-40.87-56.25-58.886-44.56 45.175-.352-.439-43.857-42.627-55.284 57.041 44.034 39.814-33.223 32.96c-6.24 4.746-14.238 7.734-22.852 7.734-20.83 0-37.529-16.787-37.529-37.53a37.6 37.6 0 0 1 8.613-23.994l140.801-146.162L650.076 709.93c6.768 7.03 11.074 16.26 11.074 26.806.088 20.655-16.699 37.53-37.441 37.53z"/><path fill="#E80000" d="m387.459 562.713-51.68-51.152 52.998-50.977-53.086-55.107-54.052 52.646-.528.264-25.312-25.225-5.625-4.746c-20.04-18.633-46.143-29.883-75.498-29.883-62.227 0-112.5 50.274-112.5 112.412 0 62.227 50.273 112.588 112.5 112.588a112.24 112.24 0 0 0 77.959-31.465l28.916-28.037.44-.44 53.525 52.911zm-188.086-23.555c-6.504 5.889-15.205 9.405-24.697 9.404-20.742 0-37.53-16.875-37.53-37.529s16.788-37.441 37.53-37.441c8.262 0 16.084 2.724 22.412 7.383 2.11 1.67 4.307 3.779 6.152 5.8l24.258 23.73zm650.303-139.922c-29.531 0-55.46 11.514-75.586 29.971l-5.625 4.658-25.488 25.225-.352-.264-51.24-49.482-2.373-2.55-52.998 54.581 52.295 50.713.351.351-51.855 50.977 51.855 53.877 52.47-51.856 1.143-1.054 29.532 28.652c20.39 19.16 47.724 31.29 77.959 31.29 62.05 0 112.588-50.45 112.588-112.5-.176-62.315-50.625-112.589-112.676-112.589m0 150.118c-9.58 0-18.37-3.604-24.873-9.405l-28.037-28.652 27.861-27.51s.264-.351 2.549-2.021c6.24-4.746 14.062-7.383 22.412-7.383 20.654 0 37.53 16.699 37.53 37.617.087 20.566-16.788 37.354-37.442 37.354"/></svg>