<svg xmlns="http://www.w3.org/2000/svg" viewBox="0 0 1024 1024"><path fill="#4E8FFF" d="M181.08 62h661.84c11.03 0 20.055 9.025 20.055 20.056v859.888c0 11.03-9.025 20.056-20.056 20.056H181.081c-11.03 0-20.056-9.025-20.056-20.056V82.056c0-11.03 9.025-20.056 20.056-20.056z"/><path fill="#EFEFEF" d="M280.106 630.203a231.894 231.894 0 1 0 463.788 0 231.894 231.894 0 1 0-463.788 0"/><path fill="#261412" d="M327.738 630.203a184.262 184.262 0 1 0 368.524 0 184.262 184.262 0 1 0-368.524 0"/><path fill="#FFF" d="M374.242 658.03c-3.51 0-6.267-2.757-6.267-6.267.125-88.245 71.574-159.693 159.819-159.819 3.51 0 6.267 2.758 6.267 6.268s-2.757 6.267-6.267 6.267c-81.351.125-147.159 65.933-147.284 147.284 0 3.51-2.758 6.268-6.268 6.268z"/><path fill="#EFEFEF" d="M661.29 587.585h25.07c5.515 0 10.027 4.512 10.027 10.028v65.18c0 5.516-4.512 10.029-10.028 10.029h-25.07c-5.515 0-10.027-4.513-10.027-10.028v-65.181c0-5.516 4.512-10.028 10.028-10.028M215.05 167.292a47.632 47.632 0 1 0 95.265 0 47.632 47.632 0 1 0-95.265 0m478.83-3.76a26.323 26.323 0 1 0 52.646 0 26.323 26.323 0 1 0-52.646 0m80.223 0a26.323 26.323 0 1 0 52.646 0 26.323 26.323 0 1 0-52.646 0M444.939 115.9H579.06c5.516 0 10.028 4.512 10.028 10.028v75.208c0 5.516-4.512 10.028-10.028 10.028H444.94c-5.516 0-10.028-4.512-10.028-10.028v-75.208c0-5.516 4.512-10.028 10.028-10.028z"/></svg>