<svg xmlns="http://www.w3.org/2000/svg" viewBox="0 0 1024 1024"><path fill="#A33639" d="M535.198 0h69.539v95.277c124.176.677 248.352-1.355 373.205.677a40.64 40.64 0 0 1 45.155 45.155c1.919 234.58 0 469.272 1.129 703.852-1.13 24.045 2.258 50.686-11.289 72.022-17.046 12.418-38.946 11.289-58.814 11.289h-349.16v95.276h-72.926C354.917 990.924 177.46 960.558 0 928.723V95.503C178.362 63.556 356.837 32.512 535.198 0"/><path fill="#FFF" d="M604.737 130.95h383.816v762.1H604.737v-95.276h302.425v-47.638H604.737v-59.492h302.425v-47.187H604.737v-60.056h302.425v-47.638H604.737V476.27h302.425v-47.3H604.737v-59.83h302.425v-47.638H604.737v-59.605h302.425v597.174H604.737z"/><path fill="#A33639" d="M645.49 529.667h302.424v47.638H645.489zm0 81.843h302.424v47.638H645.489zm0 81.843h302.424v47.639H645.489zm-49.107 81.844h351.531v47.638h-351.53z"/><path fill="#FFF" d="M180.62 317.326c59.265 2.822 130.949-24.045 180.62 21.336 46.96 58.475 34.543 165.831-35.109 200.713-24.722 12.982-53.17 11.289-80.037 10.273v130.95l-65.474-5.532c-.904-119.21-1.13-238.531 0-357.74"/><path fill="#A33639" d="M245.643 377.72c21.448-1.015 48.09-5.08 62.54 15.58a82.4 82.4 0 0 1 1.467 73.263c-12.418 22.577-40.527 20.771-62.314 23.368-2.258-37.366-2.032-74.732-1.693-112.21zm640.07 2.146a84 84 0 0 1-48.316-19.643 460.6 460.6 0 0 0-77.666 24.835c-20.32 36.011-39.172 54.412-55.54 54.412a17.4 17.4 0 0 1-9.822-2.596 19.42 19.42 0 0 1-11.288-17.724c0-5.87 1.354-22.577 63.33-49.106a468 468 0 0 0 34.656-81.278c-7.902-15.692-24.835-54.3-13.095-73.942a20.66 20.66 0 0 1 20.207-10.498 21.9 21.9 0 0 1 17.046 8.466c8.466 11.29 7.789 36.689-3.274 73.377a197 197 0 0 0 40.752 52.493 221 221 0 0 1 41.091-4.516c30.705.678 35.334 15.014 34.656 23.594 0 22.577-21.561 22.577-32.624 22.577zm-185.022 42.106 2.258-.564a45.16 45.16 0 0 0 23.932-16.82 56.44 56.44 0 0 0-26.19 17.384m93.358-200.261h-2.145a4.4 4.4 0 0 0-2.822.677 52.5 52.5 0 0 0 4.177 33.866 53.3 53.3 0 0 0 .79-34.543m-3.838 95.84v1.243l-.678-.678c-5.418 14.337-11.288 28.448-18.062 42.333l1.13-.677v1.467a346 346 0 0 1 40.187-12.643l-.677-.565h1.806a196.3 196.3 0 0 1-23.706-30.48m94.6 34.77a66.2 66.2 0 0 0-18.176 1.693 50.7 50.7 0 0 0 20.997 6.66 26.1 26.1 0 0 0 13.885-1.58c-.451-2.596-3.273-6.773-17.158-6.773z"/></svg>