<svg xmlns="http://www.w3.org/2000/svg" viewBox="0 0 1024 1024"><path fill="#FFF" d="M605.2 141.848h383.88v726.336H605.2z"/><path fill="#0071C5" d="M1022.796 153.889a40.7 40.7 0 0 0-45.035-45.516c-124.147-1.927-248.655 0-373.283 0V0h-65.746C359.074 31.308 179.537 63.699 0 95.488v833.265c177.49 31.91 355.1 62.133 532.35 94.765h72.248V904.911h349.2c19.99-.964 42.025.722 59.004-12.042 13.486-21.313 9.994-48.165 11.198-72.248-1.686-221.803.843-444.327-1.204-666.732m-34.198 715.259h-383.88V142.93h383.88z"/><path fill="#0071C5" d="M695.752 244.079c24.925 0 37.69 10.596 37.69 31.91s-12.765 32.15-38.052 32.15h-25.768v39.857h-16.979V244.08zm-26.13 49.49h24.805a27.45 27.45 0 0 0 16.015-4.576 16.14 16.14 0 0 0 5.298-13.486 15.41 15.41 0 0 0-5.418-13.245 26.5 26.5 0 0 0-16.377-4.095h-24.323zm95.368-49.49 51.416 74.897V244.08h17.22v103.917H817.49l-51.898-75.98v75.98h-17.58V244.08zm166.17 6.864a38.65 38.65 0 0 1 13.969 26.009H928.03a23.36 23.36 0 0 0-9.392-14.931 32.4 32.4 0 0 0-19.026-4.937 28.42 28.42 0 0 0-23.12 9.874 42.5 42.5 0 0 0-9.512 29.501 43 43 0 0 0 8.43 28.659 34.92 34.92 0 0 0 28.056 10.476 53 53 0 0 0 13.968-1.686 51.5 51.5 0 0 0 11.198-4.817v-21.915h-27.575v-14.45h44.554v44.433a62.7 62.7 0 0 1-18.905 9.874 86.5 86.5 0 0 1-25.167 3.492 48.17 48.17 0 0 1-38.532-15.774 54.8 54.8 0 0 1-12.885-37.81 56.6 56.6 0 0 1 12.885-38.412 44.8 44.8 0 0 1 36.124-16.015 49.85 49.85 0 0 1 32.03 8.429zM675.04 656.256h246.73v147.748H675.04z"/><path fill="#FFF" d="M183.03 340.892c63.216 3.13 139.8-25.528 192.661 22.878 49.611 62.375 36.365 176.889-38.532 214.217-26.37 13.847-56.595 12.041-85.373 10.957v139.68l-68.877-6.14c-.964-127.037-1.204-254.315.12-381.592z"/><path fill="#0071C5" d="M252.147 405.313c22.878-.963 51.296-5.298 66.83 16.738a88.26 88.26 0 0 1 1.444 78.148c-13.245 24.083-43.228 22.036-66.348 24.926-2.528-39.857-2.287-79.593-1.926-119.812m670.224-3.853H674.318v204.704h248.053zm-227.583 19.989h207.233v124.749l-31.188-31.91a18.8 18.8 0 0 0-7.465-4.937c-5.298-1.565-16.738 9.392-34.318 32.993-22.277-22.758-70.442-71.164-80.437-69.72-2.77 0-6.984 2.168-12.884 7.225l-40.94 36.125z"/><path fill="#0071C5" d="M846.27 472.745a18.785 18.785 0 0 0 31.668-13.366 18.303 18.303 0 0 0-18.303-18.303 18.785 18.785 0 0 0-13.366 31.67z"/></svg>