<svg xmlns="http://www.w3.org/2000/svg" viewBox="0 0 48 48"><path fill="#ffd54f" d="M31.2 33.53a17.6 17.6 0 0 1-13.42-26.7.8.8 0 0 0-1-1.15A20 20 0 1 0 43.12 32 .8.8 0 0 0 42 31a17.5 17.5 0 0 1-10.8 2.53m6.48-8.43-1.1-2.84a.8.8 0 0 0-.44-.44l-2.84-1.1a.77.77 0 0 1 0-1.44l2.84-1.1a.8.8 0 0 0 .44-.44l1.1-2.84a.77.77 0 0 1 1.44 0l1.1 2.84a.8.8 0 0 0 .44.44l2.84 1.1a.77.77 0 0 1 0 1.44l-2.84 1.1a.8.8 0 0 0-.44.44l-1.1 2.84a.77.77 0 0 1-1.44 0M26.89 9.39l-.47-1.22a.3.3 0 0 0-.19-.17L25 7.51a.33.33 0 0 1 0-.62l1.22-.47a.3.3 0 0 0 .19-.19L26.89 5a.33.33 0 0 1 .62 0L28 6.23a.3.3 0 0 0 .19.19l1.22.47a.33.33 0 0 1 0 .62L28.17 8a.3.3 0 0 0-.19.19l-.47 1.22a.33.33 0 0 1-.62-.02"/></svg>