<svg xmlns="http://www.w3.org/2000/svg" viewBox="0 0 48 48"><path fill="#ffd54f" d="M41.93 19.91A8.79 8.79 0 0 1 35.46 7a.8.8 0 0 0-.87-1.17A10.39 10.39 0 1 0 45.93 21a.8.8 0 0 0-.87-1.16 8.8 8.8 0 0 1-3.13.07m1.76-4.12-.47-1.22a.3.3 0 0 0-.19-.19l-1.22-.47a.33.33 0 0 1 0-.62l1.19-.47a.3.3 0 0 0 .19-.19l.47-1.22a.33.33 0 0 1 .62 0l.47 1.22a.3.3 0 0 0 .19.19l1.22.47a.33.33 0 0 1 0 .62l-1.16.47a.3.3 0 0 0-.19.19l-.47 1.22a.33.33 0 0 1-.65 0M23.69 7l-.47-1.22a.3.3 0 0 0-.22-.2l-1.22-.47a.33.33 0 0 1 0-.62L23 4a.3.3 0 0 0 .19-.19l.47-1.22a.33.33 0 0 1 .62 0l.47 1.22A.3.3 0 0 0 25 4l1.22.47a.33.33 0 0 1 0 .62L25 5.58a.3.3 0 0 0-.19.19L24.31 7a.33.33 0 0 1-.62 0"/><path fill="#c9eaf2" d="M36.8 21.6a10.4 10.4 0 0 0-2.8.4 16.8 16.8 0 1 0-16.4 20.4h18a2.6 2.6 0 0 0 .4 0h.8a10.4 10.4 0 1 0 0-20.8"/></svg>