<svg xmlns="http://www.w3.org/2000/svg" viewBox="0 0 48 48"><path fill="#ffd54f" d="M42 14.26a7.2 7.2 0 0 1-5.22-9.9c.29-.66-.07-1.18-.78-1.11a9.61 9.61 0 0 0-8.6 9.82 9.71 9.71 0 0 0 9.67 9.33 9.61 9.61 0 0 0 9.25-7.29.8.8 0 0 0-1-1 7.2 7.2 0 0 1-3.32.15"/><path fill="#c9eaf2" d="M36 16a10 10 0 0 0-1.89.19 16 16 0 1 0-15.71 19H36A9.6 9.6 0 0 0 36 16"/><circle cx="24" cy="41.2" r=".98" fill="#81d4fa"/><rect width="1.96" height="2.93" x="23.02" y="36.8" fill="#81d4fa" rx=".98" ry=".98"/><rect width="1.96" height="2.93" x="23.02" y="42.67" fill="#81d4fa" rx=".98" ry=".98"/><rect width="1.96" height="2.93" x="20.48" y="38.27" fill="#81d4fa" rx=".98" ry=".98" transform="rotate(-60 21.459 39.732)"/><rect width="1.96" height="2.93" x="25.56" y="41.2" fill="#81d4fa" rx=".98" ry=".98" transform="rotate(-60 26.542 42.667)"/><rect width="1.96" height="2.93" x="20.48" y="41.2" fill="#81d4fa" rx=".98" ry=".98" transform="rotate(-120 21.459 42.664)"/><rect width="1.96" height="2.93" x="25.56" y="38.27" fill="#81d4fa" rx=".98" ry=".98" transform="rotate(-120 26.539 39.731)"/></svg>