<svg xmlns="http://www.w3.org/2000/svg" viewBox="0 0 48 48"><path fill="#c5cfd1" d="M36 16a10 10 0 0 0-1.89.19 16 16 0 1 0-15.71 19H36A9.6 9.6 0 0 0 36 16"/><circle cx="24.8" cy="41.2" r=".98" fill="#81d4fa"/><rect width="1.96" height="2.93" x="23.82" y="36.8" fill="#81d4fa" rx=".98" ry=".98"/><rect width="1.96" height="2.93" x="23.82" y="42.67" fill="#81d4fa" rx=".98" ry=".98"/><rect width="1.96" height="2.93" x="21.28" y="38.27" fill="#81d4fa" rx=".98" ry=".98" transform="rotate(-60 22.256 39.731)"/><rect width="1.96" height="2.93" x="26.36" y="41.2" fill="#81d4fa" rx=".98" ry=".98" transform="rotate(-60 27.34 42.666)"/><rect width="1.96" height="2.93" x="21.28" y="41.2" fill="#81d4fa" rx=".98" ry=".98" transform="rotate(-120 22.26 42.668)"/><rect width="1.96" height="2.93" x="26.36" y="38.27" fill="#81d4fa" rx=".98" ry=".98" transform="rotate(-120 27.34 39.735)"/></svg>