<svg xmlns="http://www.w3.org/2000/svg" viewBox="0 0 48 48"><path fill="#81d4fa" d="M19.6 41.49a1.61 1.61 0 0 1-.6-2.19l1-1.7a1.6 1.6 0 0 1 2.17-.6 1.6 1.6 0 0 1 .59 2.18l-1 1.7a1.6 1.6 0 0 1-2.16.61m6.95 0A1.61 1.61 0 0 1 26 39.3l1-1.7a1.6 1.6 0 0 1 2.12-.6 1.6 1.6 0 0 1 .59 2.18l-1 1.7a1.6 1.6 0 0 1-2.16.61"/><path fill="#c5cfd1" d="M36 16a10 10 0 0 0-1.89.19 16 16 0 1 0-15.71 19H36A9.6 9.6 0 0 0 36 16"/><circle cx="18.13" cy="44" r="1.6" fill="#81d4fa"/><circle cx="25.08" cy="44" r="1.6" fill="#81d4fa"/></svg>