<svg xmlns="http://www.w3.org/2000/svg" viewBox="0 0 48 48"><path fill="#81d4fa" d="M17.38 40.7a1.61 1.61 0 0 1-.59-2.19l.55-.91a1.6 1.6 0 0 1 2.18-.6 1.59 1.59 0 0 1 .59 2.18l-.55.91a1.59 1.59 0 0 1-2.18.61m-2.7 4.69a1.61 1.61 0 0 1-.59-2.19l.55-.91a1.61 1.61 0 0 1 2.19-.59 1.61 1.61 0 0 1 .58 2.19l-.54.91a1.61 1.61 0 0 1-2.19.59m8.67-3.09a1.61 1.61 0 0 1-.58-2.19l.54-.91a1.61 1.61 0 0 1 2.19-.58 1.6 1.6 0 0 1 .58 2.18l-.54.91a1.6 1.6 0 0 1-2.19.59M20.66 47a1.6 1.6 0 0 1-.59-2.19l.54-.91a1.61 1.61 0 0 1 2.19-.59 1.61 1.61 0 0 1 .59 2.19l-.55.91a1.6 1.6 0 0 1-2.18.59m10.51-6.3a1.61 1.61 0 0 1-.58-2.19l.54-.91a1.61 1.61 0 0 1 2.19-.6 1.6 1.6 0 0 1 .59 2.18l-.55.91a1.6 1.6 0 0 1-2.19.61m-2.69 4.69a1.6 1.6 0 0 1-.59-2.19l.55-.91a1.6 1.6 0 0 1 2.18-.59 1.61 1.61 0 0 1 .59 2.19l-.55.91a1.6 1.6 0 0 1-2.18.59"/><path fill="#c5cfd1" d="M36 16a10 10 0 0 0-1.89.19 16 16 0 1 0-15.71 19H36A9.6 9.6 0 0 0 36 16"/></svg>