<svg xmlns="http://www.w3.org/2000/svg" viewBox="0 0 48 48"><path fill="#81d4fa" d="M14.68 45.39a1.61 1.61 0 0 1-.59-2.19l3.25-5.6a1.6 1.6 0 0 1 2.18-.6 1.59 1.59 0 0 1 .59 2.18l-3.24 5.6a1.61 1.61 0 0 1-2.19.61m13.8 0a1.6 1.6 0 0 1-.59-2.19l3.24-5.6a1.61 1.61 0 0 1 2.19-.6 1.6 1.6 0 0 1 .59 2.18l-3.25 5.6a1.6 1.6 0 0 1-2.18.61m-5.13-3.09a1.61 1.61 0 0 1-.58-2.19l.54-.91a1.61 1.61 0 0 1 2.19-.58 1.6 1.6 0 0 1 .58 2.18l-.54.91a1.6 1.6 0 0 1-2.19.59M20.66 47a1.6 1.6 0 0 1-.59-2.19l.54-.91a1.61 1.61 0 0 1 2.19-.59 1.61 1.61 0 0 1 .59 2.19l-.55.91a1.6 1.6 0 0 1-2.18.59"/><path fill="#c5cfd1" d="M36 16a10 10 0 0 0-1.89.19 16 16 0 1 0-15.71 19H36A9.6 9.6 0 0 0 36 16"/></svg>