<svg xmlns="http://www.w3.org/2000/svg" viewBox="0 0 48 48"><path fill="#ffd54f" d="M24.07 37.16a96 96 0 0 1 19.76 2.35 20 20 0 0 0 .41-4.06A20.62 20.62 0 0 0 23.49 15 20.62 20.62 0 0 0 2.74 35.45a20 20 0 0 0 .46 4.28 99 99 0 0 1 20.87-2.57"/><path fill="#be8b7c" d="M.42 40.57h47.16a.42.42 0 0 0 .11-.82 104.2 104.2 0 0 0-23.62-3.21A106.2 106.2 0 0 0 .31 39.75a.42.42 0 0 0 .11.82"/><path fill="#ffd54f" d="M28 8a.8.8 0 0 0-1.13 0l-2 2V3a.8.8 0 1 0-1.6 0v7l-2-2A.8.8 0 0 0 20 9.13l3.39 3.4a.81.81 0 0 0 1.14 0L28 9.13A.8.8 0 0 0 28 8"/></svg>