<svg xmlns="http://www.w3.org/2000/svg" width="200" height="200" class="icon" viewBox="0 0 1024 1024"><path fill="#E3FFF3" d="M61.491 516.608a450.816 450.816 0 1 0 901.632 0 450.816 450.816 0 1 0-901.632 0"/><path fill="#1DCE75" d="M660.838 401.51c-71.014.922-132.966 20.327-181.35 72.039-49.357 52.736-62.566 113.459-37.274 187.392-32.358-3.789-61.337-7.731-90.368-10.291-8.499-.768-18.483.102-25.753 4.044-21.504 11.623-41.677 25.652-62.976 37.581-5.018 2.816-13.722 3.277-18.535.717-3.174-1.69-4.198-11.162-3.02-16.435a554 554 0 0 1 14.387-51.968c3.737-11.418 1.382-18.279-8.243-26.317-66.816-55.654-92.16-126.157-67.124-209.971 17.306-57.907 58.42-97.997 111.872-125.543 99.021-51.046 223.284-36.454 306.074 36.199 30.822 27.033 51.917 60.16 62.31 102.553m-158.924 5.888c16.384-.41 29.132-13.004 28.774-28.518-.307-15.514-13.363-27.238-30.157-26.982-16.179.256-29.798 13.363-29.44 28.364.359 14.541 15.155 27.546 30.823 27.136m-160.205 0c16.281-.46 29.235-13.312 28.774-28.62-.46-15.616-13.517-27.188-30.259-26.88-16.384.256-29.338 13.004-28.928 28.416.41 15.206 14.285 27.545 30.413 27.084"/><path fill="#05C46D" d="M843.571 588.646c-.46 56.884-21.862 94.874-57.549 125.287-9.01 7.68-11.52 14.745-9.164 25.497 2.15 9.677 3.635 19.559 4.096 29.44.204 4.916-1.23 12.596-4.404 14.234-4.3 2.202-11.724 1.382-16.588-.87-8.96-4.148-18.023-9.165-25.293-15.719-13.62-12.288-27.597-12.8-45.415-9.881-58.726 9.574-114.432-.41-162.15-37.325-88.73-68.71-86.477-182.119 3.84-248.781 86.784-64.051 218.266-46.182 283.597 39.066 19.712 25.65 30.157 55.09 29.03 79.052m-250.624-18.432c12.749 0 23.245-9.676 22.989-21.196-.205-11.367-11.264-21.607-23.142-21.504-11.981.102-22.887 10.342-22.99 21.606-.153 11.469 10.446 21.094 23.143 21.094m134.451-19.046c.41-13.056-9.881-23.5-21.913-23.654-12.083-.154-22.938 9.984-22.989 21.504-.051 11.57 10.547 21.606 23.091 21.145 12.903-.46 20.429-7.27 21.811-18.995"/><path fill="#1DCE75" d="M815.616 511.027c-.358-.46-.666-.973-1.024-1.433-65.331-85.3-196.813-103.117-283.597-39.066-90.317 66.662-92.62 180.122-3.84 248.78 4.967 3.84 10.035 7.322 15.207 10.6 119.09-30.926 218.06-111.77 273.254-218.88m-222.669 59.187c-12.697 0-23.296-9.625-23.142-21.094.153-11.264 11.008-21.504 22.989-21.606 11.878-.103 22.937 10.137 23.142 21.504.256 11.57-10.24 21.248-22.989 21.196m112.64-.05c-12.544.46-23.142-9.626-23.091-21.146.051-11.47 10.957-21.658 22.989-21.504s22.323 10.598 21.913 23.654c-1.382 11.725-8.908 18.534-21.81 18.995"/><path fill="#3CD38E" d="M598.58 298.957c-82.74-72.704-207.054-87.245-306.074-36.199-53.453 27.546-94.567 67.636-111.872 125.543-23.194 77.619-3.175 143.82 52.992 197.376a453 453 0 0 0 66.048 4.813c45.67 0 89.702-6.81 131.225-19.405 4.455-35.687 20.787-67.891 48.589-97.587 48.384-51.712 110.285-71.066 181.35-72.039-10.393-42.342-31.488-75.469-62.259-102.502M341.708 407.398c-16.18.41-30.003-11.878-30.413-27.084-.41-15.412 12.544-28.16 28.928-28.416 16.794-.308 29.798 11.264 30.26 26.88.46 15.308-12.494 28.21-28.775 28.62m160.205 0c-15.719.41-30.464-12.646-30.823-27.187-.358-15.001 13.261-28.109 29.44-28.365 16.743-.256 29.799 11.47 30.157 26.983.358 15.565-12.39 28.16-28.774 28.57"/><path fill="#3CD38E" d="M530.995 470.477c-35.379 26.112-57.19 59.443-65.382 94.413 73.062-27.034 136.755-73.37 184.883-132.864-42.24.153-84.531 12.646-119.5 38.45"/><path fill="#48E1AA" d="M311.296 380.365c-.41-15.411 12.544-28.16 28.928-28.416 16.794-.307 29.798 11.264 30.26 26.88.153 5.325-1.332 10.393-4.046 14.694 68.199-29.747 127.59-75.878 173.261-133.478-76.493-37.018-169.625-37.325-247.245 2.713-53.401 27.546-94.515 67.636-111.82 125.543-4.352 14.54-7.168 28.723-8.5 42.445 4.71.153 9.421.256 14.183.256 51.456 0 100.915-8.653 146.995-24.525-12.288-3.175-21.658-13.67-22.016-26.112"/></svg>