<svg xmlns="http://www.w3.org/2000/svg" xmlns:vectornator="http://vectornator.io" xml:space="preserve" stroke-miterlimit="10" style="fill-rule:nonzero;clip-rule:evenodd;stroke-linecap:round;stroke-linejoin:round" viewBox="0 0 2000 1600"><defs><filter id="b" width="2045.64" height="1650" x="-14.734" y="-16.931" color-interpolation-filters="sRGB" filterUnits="userSpaceOnUse"><feDropShadow dx="5.906" dy="8.069" flood-color="#000" flood-opacity=".333" in="SourceGraphic" result="Shadow" stdDeviation="10"/></filter><filter id="c" width="992.08" height="353.68" x="113.827" y="425.589" color-interpolation-filters="sRGB" filterUnits="userSpaceOnUse"><feDropShadow dx="5.906" dy="8.069" flood-color="#000" flood-opacity=".333" in="SourceGraphic" result="Shadow" stdDeviation="10"/></filter><filter id="d" width="106" height="153.68" x="1089.77" y="664.489" color-interpolation-filters="sRGB" filterUnits="userSpaceOnUse"><feDropShadow dx="5.906" dy="8.069" flood-color="#000" flood-opacity=".333" in="SourceGraphic" result="Shadow" stdDeviation="10"/></filter><filter id="e" width="649.04" height="350.48" x="526.899" y="878.429" color-interpolation-filters="sRGB" filterUnits="userSpaceOnUse"><feDropShadow dx="5.906" dy="8.069" flood-color="#000" flood-opacity=".333" in="SourceGraphic" result="Shadow" stdDeviation="10"/></filter><filter id="f" width="199.483" height="95.338" x="1388.64" y="1023.72" color-interpolation-filters="sRGB" filterUnits="userSpaceOnUse"><feDropShadow dx="5.973" dy="8.16" flood-color="#000" flood-opacity=".333" in="SourceGraphic" result="Shadow" stdDeviation="10.112"/></filter><filter id="g" width="209.485" height="272.726" x="1201.89" y="1033.84" color-interpolation-filters="sRGB" filterUnits="userSpaceOnUse"><feDropShadow dx="5.15" dy="7.036" flood-color="#000" flood-opacity=".333" in="SourceGraphic" result="Shadow" stdDeviation="8.72"/></filter><filter id="h" width="94.747" height="287.214" x="1198.16" y="1031.49" color-interpolation-filters="sRGB" filterUnits="userSpaceOnUse"><feDropShadow dx="5.973" dy="8.16" flood-color="#000" flood-opacity=".333" in="SourceGraphic" result="Shadow" stdDeviation="10.112"/></filter><filter id="i" width="94.261" height="287.889" x="1321.06" y="1023.29" color-interpolation-filters="sRGB" filterUnits="userSpaceOnUse"><feDropShadow dx="5.973" dy="8.16" flood-color="#000" flood-opacity=".333" in="SourceGraphic" result="Shadow" stdDeviation="10.112"/></filter><filter id="j" width="209.485" height="272.726" x="1568.89" y="1034.72" color-interpolation-filters="sRGB" filterUnits="userSpaceOnUse"><feDropShadow dx="5.15" dy="7.036" flood-color="#000" flood-opacity=".333" in="SourceGraphic" result="Shadow" stdDeviation="8.72"/></filter><filter id="k" width="94.747" height="287.214" x="1565.16" y="1032.36" color-interpolation-filters="sRGB" filterUnits="userSpaceOnUse"><feDropShadow dx="5.973" dy="8.16" flood-color="#000" flood-opacity=".333" in="SourceGraphic" result="Shadow" stdDeviation="10.112"/></filter><filter id="l" width="94.261" height="287.889" x="1688.06" y="1024.16" color-interpolation-filters="sRGB" filterUnits="userSpaceOnUse"><feDropShadow dx="5.973" dy="8.16" flood-color="#000" flood-opacity=".333" in="SourceGraphic" result="Shadow" stdDeviation="10.112"/></filter><filter id="m" width="199.48" height="95.699" x="1388.65" y="1222.9" color-interpolation-filters="sRGB" filterUnits="userSpaceOnUse"><feDropShadow dx="5.973" dy="8.16" flood-color="#000" flood-opacity=".333" in="SourceGraphic" result="Shadow" stdDeviation="10.112"/></filter><filter id="n" width="199.48" height="95.699" x="1388.64" y="1121.68" color-interpolation-filters="sRGB" filterUnits="userSpaceOnUse"><feDropShadow dx="5.973" dy="8.16" flood-color="#000" flood-opacity=".333" in="SourceGraphic" result="Shadow" stdDeviation="10.112"/></filter><filter id="o" width="94.742" height="295.746" x="1388.64" y="1022.85" color-interpolation-filters="sRGB" filterUnits="userSpaceOnUse"><feDropShadow dx="5.973" dy="8.16" flood-color="#000" flood-opacity=".333" in="SourceGraphic" result="Shadow" stdDeviation="10.112"/></filter><filter id="p" width="199.48" height="95.699" x="1758.01" y="1223" color-interpolation-filters="sRGB" filterUnits="userSpaceOnUse"><feDropShadow dx="5.973" dy="8.16" flood-color="#000" flood-opacity=".333" in="SourceGraphic" result="Shadow" stdDeviation="10.112"/></filter><filter id="q" width="94.076" height="295.412" x="1757.47" y="1023.29" color-interpolation-filters="sRGB" filterUnits="userSpaceOnUse"><feDropShadow dx="5.973" dy="8.16" flood-color="#000" flood-opacity=".333" in="SourceGraphic" result="Shadow" stdDeviation="10.112"/></filter><filter id="r" width="94.076" height="295.412" x="1863.41" y="1024.16" color-interpolation-filters="sRGB" filterUnits="userSpaceOnUse"><feDropShadow dx="5.973" dy="8.16" flood-color="#000" flood-opacity=".333" in="SourceGraphic" result="Shadow" stdDeviation="10.112"/></filter><filter id="s" width="137.301" height="294.442" x="1435.5" y="745.955" color-interpolation-filters="sRGB" filterUnits="userSpaceOnUse"><feDropShadow dx="-5.28" dy="8.492" flood-color="#000" flood-opacity=".333" in="SourceGraphic" result="Shadow" stdDeviation="10"/></filter><filter id="t" width="137.301" height="294.442" x="1348.2" y="746.234" color-interpolation-filters="sRGB" filterUnits="userSpaceOnUse"><feDropShadow dx="-5.28" dy="8.492" flood-color="#000" flood-opacity=".333" in="SourceGraphic" result="Shadow" stdDeviation="10"/></filter><filter id="u" width="199.483" height="95.338" x="1595.23" y="745.621" color-interpolation-filters="sRGB" filterUnits="userSpaceOnUse"><feDropShadow dx="5.973" dy="8.16" flood-color="#000" flood-opacity=".333" in="SourceGraphic" result="Shadow" stdDeviation="10.112"/></filter><filter id="v" width="199.48" height="95.699" x="1595.24" y="944.794" color-interpolation-filters="sRGB" filterUnits="userSpaceOnUse"><feDropShadow dx="5.973" dy="8.16" flood-color="#000" flood-opacity=".333" in="SourceGraphic" result="Shadow" stdDeviation="10.112"/></filter><filter id="w" width="437.311" height="94.634" x="1350" y="849.877" color-interpolation-filters="sRGB" filterUnits="userSpaceOnUse"><feDropShadow dx="5.973" dy="8.16" flood-color="#000" flood-opacity=".333" in="SourceGraphic" result="Shadow" stdDeviation="10.112"/></filter><filter id="x" width="94.742" height="295.746" x="1595.23" y="744.747" color-interpolation-filters="sRGB" filterUnits="userSpaceOnUse"><feDropShadow dx="5.973" dy="8.16" flood-color="#000" flood-opacity=".333" in="SourceGraphic" result="Shadow" stdDeviation="10.112"/></filter><filter id="y" width="137.301" height="294.442" x="1479.15" y="745.955" color-interpolation-filters="sRGB" filterUnits="userSpaceOnUse"><feDropShadow dx="-5.28" dy="8.492" flood-color="#000" flood-opacity=".333" in="SourceGraphic" result="Shadow" stdDeviation="10"/></filter><filter id="z" width="137.301" height="294.442" x="1391.85" y="746.234" color-interpolation-filters="sRGB" filterUnits="userSpaceOnUse"><feDropShadow dx="-5.28" dy="8.492" flood-color="#000" flood-opacity=".333" in="SourceGraphic" result="Shadow" stdDeviation="10"/></filter></defs><clipPath id="a"><path d="M0 0h2000v1600H0z"/></clipPath><g vectornator:layerName="图层 3" clip-path="url(#a)"><path vectornator:shadowAngle=".939" vectornator:shadowColor="#000000" vectornator:shadowOffset="10" vectornator:shadowOpacity=".333" vectornator:shadowRadius="20" fill="#41c98b" d="M4.36 0H2000v1600H4.36z" filter="url(#b)"/></g><g vectornator:layerName="图层 1"><g vectornator:shadowAngle=".939" vectornator:shadowColor="#000000" vectornator:shadowOffset="10" vectornator:shadowOpacity=".333" vectornator:shadowRadius="20" fill="#fff" filter="url(#c)"><path d="M245.24 515.48h-75.2q-8.64 0-13.44 2.24l-6.4-13.76q6.72 1.6 16 1.6h82.88q9.6-24.32 20.48-61.76 39.04 15.04 39.04 21.76 0 2.56-4.32 2.56t-6.56 2.24-6.56 10.56-11.68 24.64h100.16l14.72-22.08q1.92-3.2 4.16-3.2 3.52 0 20.96 14.24t17.44 17.6-7.68 3.36H274.68q-21.76 43.84-43.52 72V727q0 2.88-1.12 4t-6.08 3.84-11.04 4.8-8.16 2.08-2.08-2.56l.64-15.04q.64-15.68.64-28.48v-77.76q-27.2 26.88-67.2 51.84l-3.84-3.84q42.561-38.08 71.04-77.12 0-26.56-.64-35.2 14.721 4.8 19.2 7.04 9.6-16.32 22.72-45.12m64.96 190.4v-96.64h-46.4q-8.64 0-13.44 2.24l-6.4-13.76q6.72 1.6 16 1.6h50.24v-36.48q0-24.64-.64-30.08 14.4 2.88 26.4 7.52t12 7.2-10.56 7.04v44.8h32l9.6-17.28q2.56-4.8 6.88-4.8t19.68 12.64 15.36 16-8 3.36H337.4v96.64h45.12l13.44-19.2q2.88-3.84 5.76-3.84t13.12 7.68 16.96 13.76 6.72 8q0 3.52-7.36 3.52H253.24q-8.64 0-13.44 2.24l-5.76-13.76q6.72 1.6 16 1.6zM751.16 501.72q6.72 8-3.2 8h-156.8q-10.239 17.6-23.04 38.4t-27.52 43.52h63.36v-32.32q0-8.32-.16-14.24a170 170 0 0 0-.8-12.32 749 749 0 0 1 21.12 4.8q10.56 2.56 14.72 4.16 5.44 1.92 4.96 5.12t-10.72 6.72v38.08h51.84l13.76-20.48q4.8-7.36 12.48-.64 2.88 2.56 6.24 5.92l6.72 6.72 6.24 6.24q2.88 2.88 4.16 4.48 6.4 8-4.8 8h-96.64v104q0 7.36-1.44 12.96a23.56 23.56 0 0 1-5.28 9.92q-3.84 4.32-10.4 7.84t-16.48 6.4q-4.48 1.28-6.88.48t-3.04-4.96q-.96-5.44-2.88-9.92t-6.24-8.32-11.84-7.52-19.36-7.84v-6.08q18.56 4.48 29.44 6.24t16.48.8 7.2-4.16 1.6-8.96v-90.88h-66.24q-7.04 13.44-14.4 8a81 81 0 0 1-11.68-9.92q-5.28-5.44-9.76-9.6 8.64-2.56 13.12-6.24t10.24-12.96q11.2-18.24 19.68-33.12t15.52-28.32h-78.08q-3.84 0-7.68.64t-5.76 1.6l-5.76-13.76q4.48.96 7.84 1.28t8.16.32h86.08a461 461 0 0 0 11.84-27.04q5.44-13.6 10.88-30.24 4.8 1.92 10.4 4.48a533 533 0 0 1 10.56 4.96q4.96 2.4 8.96 4.48t5.92 3.04q4.8 2.56 4 4.8t-6.24 2.88q-3.519.32-6.72 2.56t-6.08 7.68a260 260 0 0 1-5.6 10.56 2075 2075 0 0 0-6.56 11.84h108.16l13.76-19.2q2.56-3.52 4.8-3.52 2.241 0 6.72 3.84 7.68 6.72 12.64 11.68t8.48 9.12m-169.28 136q1.92 1.92 2.4 3.84t0 3.52-2.08 2.24-3.84 0q-3.52-.96-7.04-.48t-4.8 1.76q-13.76 14.08-25.76 24.96T516.6 693.4 491 710.52t-30.08 16.8l-4.48-6.08q34.56-26.56 58.72-54.4t38.88-53.44a186 186 0 0 1 15.84 12.96q7.521 6.88 12 11.36m156.48 55.04q0 4.48-1.28 9.76t-3.36 9.76-4.64 7.52-5.12 3.04-4.64-2.4-7.2-12q-10.239-19.2-25.92-40.48-15.68-21.28-38.4-41.76l3.2-5.12q25.28 13.44 42.08 24t26.88 18.88 14.24 15.2 4.16 13.6M850.04 448.6q10.24 2.56 21.76 6.56t15.52 5.92 4 3.68-5.12 3.84-6.4 4.48-1.28 10.08l.96 43.84q.32 25.6.32 46.4 0 67.84-8.32 93.44t-26.24 40.96-57.28 35.84l-2.88-4.8q32-23.68 45.44-39.84t18.4-40.48 4.96-72.96q0-86.4-3.84-136.96M931 531.16h28.16v-49.92H908.6q-8 0-13.76 1.6l-5.44-13.12q6.72 1.6 16 1.6h116.16l11.84-16.64c2.77-3.84 5.55-5.76 8.32-5.76q4.155 0 18.72 12.96c9.71 8.64 14.56 14.027 14.56 16.16q0 3.2-8.64 3.2h-79.68v49.92h32.96l7.04-11.2c1.07-1.707 2.4-2.56 4-2.56s7.25 2.827 16.96 8.48 14.56 9.44 14.56 11.36-3.73 4.693-11.2 8.32v112c0 11.947-.75 19.947-2.24 24s-6.19 8.267-14.08 12.64q-11.835 6.56-16.32 6.56c-2.99 0-4.69-1.813-5.12-5.44-.64-7.68-2.83-13.173-6.56-16.48s-9.546-6.987-17.44-11.04l1.28-5.12c12.16 2.56 20.27 3.84 24.32 3.84s6.56-.693 7.52-2.08q1.44-2.08 1.44-7.52V540.76h-37.12v158.4q0 10.56.64 22.4l.32 10.88q0 2.56-2.88 4.48t-12.64 5.6-11.84 3.68-2.08-2.56l.64-14.72q.32-10.56.32-29.12V540.76h-29.12v145.92q0 3.2-3.2 5.76t-11.2 6.08-10.08 3.52-2.08-3.52l.64-15.04q.64-15.68.64-28.16V545.88q0-16-.64-28.48 8.32 1.28 26.88 13.76m-125.76-41.6q14.08 3.84 24.64 8.32t10.56 6.88-10.24 6.88v144.64q0 5.76-.96 6.72t-5.28 3.84-10.24 5.44-7.36 2.56-1.44-3.2l.64-17.92q.32-8 .32-20.8V515.16q0-14.4-.64-25.6"/></g><path vectornator:shadowAngle=".939" vectornator:shadowColor="#000000" vectornator:shadowOffset="10" vectornator:shadowOpacity=".333" vectornator:shadowRadius="20" fill="#fff" d="M1108.86 777.739q14.4-10.56 23.52-24.8t9.12-19.36c0-4.693-3.73-7.146-11.2-7.36-4.9-.426-9.01-2.72-12.32-6.88-3.3-4.16-4.96-9.066-4.96-14.72 0-5.653 2.19-10.933 6.56-15.84q6.57-7.36 18.24-7.36c7.79 0 14.24 3.68 19.36 11.04q7.68 11.04 7.68 24.8 0 18.56-12.96 36.8c-8.64 12.16-21.06 22.507-37.28 31.04z" filter="url(#d)"/><g vectornator:shadowAngle=".939" vectornator:shadowColor="#000000" vectornator:shadowOffset="10" vectornator:shadowOpacity=".333" vectornator:shadowRadius="20" fill="#fafafa" filter="url(#e)"><path d="M609.352 980.8h51.2l5.12-8q1.92-2.88 4.32-2.88t13.76 8.64 11.36 9.6-.32 1.6q5.76 1.28 13.76 1.28h13.44l2.56-95.68q11.84 3.2 22.72 7.36t13.76 5.92 2.88 3.68-4.48 4.32-5.76 5.6-2.72 27.04-3.68 41.76h48l8.64-13.76q2.24-3.84 4.48-3.84 4.161 0 17.76 11.04t13.6 14.56q0 1.92-7.36 1.92h-50.88v152.64c0 3.41.96 5.55 2.88 6.4s6.934 1.28 15.04 1.28c4.694 0 8-1.01 9.92-3.04s3.627-7.04 5.12-15.04 3.627-22.77 6.4-44.32l7.36.32c-.426 19.63.16 32.53 1.76 38.72q2.4 9.285 11.36 16.32c2.56 1.92 3.84 3.79 3.84 5.6s-2.186 6.4-6.56 13.76-10.346 11.31-17.92 11.84c-7.573.53-16.693.8-27.36.8s-18.613-.85-23.84-2.56q-7.84-2.565-10.4-9.6t-2.56-23.04v-150.08h-9.92c-4.693 64.21-12 106.99-21.92 128.32s-33.333 43.52-70.24 66.56l-2.56-4.48q43.84-39.045 55.36-72.96c7.68-22.61 12.48-61.76 14.4-117.44h-10.24c-5.76 0-10.24.75-13.44 2.24l-4.8-11.84q-1.6 1.6-6.08 4.16v36.8c0 5.12.16 8.69.48 10.72s.48 3.73.48 5.12-.853 2.56-2.56 3.52q-2.56 1.44-9.92 3.84t-10.56 2.4c-2.133 0-3.2-1.81-3.2-5.44v-7.68h-14.08v98.24c0 8.96-1.066 15.73-3.2 20.32q-3.2 6.885-12.64 13.44c-6.293 4.37-10.453 6.56-12.48 6.56-2.026 0-3.68-1.49-4.96-4.48-2.56-5.97-5.813-10.51-9.76-13.6q-5.92-4.635-23.2-11.04l.96-7.04c15.787 2.77 25.707 4.16 29.76 4.16q6.08 0 7.52-1.92t1.44-6.72v-97.92h-15.36c0 4.05-.64 6.67-1.92 7.84s-4.746 2.83-10.4 4.96c-5.653 2.13-9.546 3.2-11.68 3.2q-2.24 0-1.6-4.8c.854-6.83 1.28-14.08 1.28-21.76v-40q0-13.44-.96-27.2 20.481 8 28.8 13.76m52.48 54.72v-45.44h-56v45.44zm-23.04-87.68h31.68l12.16-16.32q2.88-4.16 4.96-4.16t15.36 11.84 13.28 14.88-5.76 3.04h-142.72q-8.64 0-13.44 2.24l-5.44-13.12q6.72 1.6 16 1.6h60.48q-2.559-17.6-6.72-27.36t-13.44-19.68l4.8-5.12q21.12 6.4 32.64 12.96t11.52 15.52q0 5.12-3.36 12.8t-12 10.88m129.92-22.72q19.84 8.64 29.92 15.84t10.08 13.76-5.12 14.72-9.6 8.16-6.24-2.56-3.36-8.32q-4.16-14.4-20.8-35.2zm-181.44 146.24c18.56 5.97 27.84 10.67 27.84 14.08q0 2.235-4 3.84c-2.666 1.07-4.48 2.13-5.44 3.2s-2.506 3.52-4.64 7.36q-16.64 30.405-50.88 61.44l-4.16-3.52q25.92-41.595 41.28-86.4m68.8 1.28q21.12 11.52 31.68 21.12c7.04 6.4 10.56 12.53 10.56 18.4s-1.386 11.2-4.16 16q-4.16 7.2-11.2 7.2-3.2 0-5.76-2.88t-3.52-7.68c-1.706-10.88-4.213-19.79-7.52-26.72q-4.96-10.395-13.6-20.64zM942.792 911.68h156.158l6.4-10.24c1.92-2.987 3.74-4.48 5.44-4.48 1.71 0 6.56 2.187 14.56 6.56q12 6.56 15.84 9.76t3.84 6.08-14.4 11.2v222.72c0 10.24-.85 17.28-2.56 21.12-1.7 3.84-6.34 8.05-13.92 12.64-7.57 4.59-12.64 6.88-15.2 6.88s-4.26-2.03-5.12-6.08c-3.2-13.87-17.38-24.32-42.56-31.36l.64-8c18.99 2.99 31.36 4.48 37.12 4.48s9.34-.59 10.72-1.76c1.39-1.17 2.08-3.25 2.08-6.24v-79.04h-70.08v72c0 10.88.11 18.35.32 22.4l.32 11.52c0 2.99-3.84 5.81-11.52 8.48s-13.01 4-16 4c-1.7 0-2.56-1.07-2.56-3.2l.64-13.12c.22-8.96.32-18.77.32-29.44v-72.64h-63.678c-1.28 27.95-5.866 51.04-13.76 69.28-7.893 18.24-22.72 38.45-44.48 60.64l-5.44-4.48c18.347-23.89 29.014-53.76 32-89.6q4.48-53.76 4.48-114.24 0-28.48-3.2-90.24 14.721 4.48 33.6 14.4m-1.28 75.84h61.758v-64.96h-61.118q0 21.44-.64 64.96m90.238 0h70.08v-64.96h-70.08zm-28.48 10.24h-62.078c.427 23.68 0 42.99-1.28 57.92h63.358zm98.56 0h-70.08v57.92h70.08z"/></g><g vectornator:layerName="成组 11" fill="#fff"><g vectornator:layerName="成组 11"><path vectornator:layerName="曲线 3" vectornator:shadowAngle=".939" vectornator:shadowColor="#000000" vectornator:shadowOffset="10.112" vectornator:shadowOpacity=".333" vectornator:shadowRadius="20.225" d="m1556.87 1085.62-148.92-.87 43.56-43.9h62.14" filter="url(#f)"/><path vectornator:shadowAngle=".939" vectornator:shadowColor="#000000" vectornator:shadowOffset="8.72" vectornator:shadowOpacity=".333" vectornator:shadowRadius="17.439" d="m1218.54 1058.13 43.11-9.52 122.78 218.6-44.04 10.53" filter="url(#g)"/><path vectornator:shadowAngle=".939" vectornator:shadowColor="#000000" vectornator:shadowOffset="10.112" vectornator:shadowOpacity=".333" vectornator:shadowRadius="20.225" d="m1261.65 1048.61-.14 218.65-44.04 18 .18-226.93" filter="url(#h)"/><path vectornator:layerName="曲线 1" vectornator:shadowAngle=".939" vectornator:shadowColor="#000000" vectornator:shadowOffset="10.112" vectornator:shadowOpacity=".333" vectornator:shadowRadius="20.225" d="m1383.76 1040.41.3 226.53-43.68 10.8-.01-219.63" filter="url(#i)"/><g vectornator:layerName="成组 2"><path vectornator:shadowAngle=".939" vectornator:shadowColor="#000000" vectornator:shadowOffset="8.72" vectornator:shadowOpacity=".333" vectornator:shadowRadius="17.439" d="m1585.54 1059 43.11-9.52 122.78 218.6-44.04 10.53" filter="url(#j)"/><path vectornator:shadowAngle=".939" vectornator:shadowColor="#000000" vectornator:shadowOffset="10.112" vectornator:shadowOpacity=".333" vectornator:shadowRadius="20.225" d="m1628.65 1049.48-.14 218.65-44.04 18 .18-226.93" filter="url(#k)"/><path vectornator:layerName="曲线 1" vectornator:shadowAngle=".939" vectornator:shadowColor="#000000" vectornator:shadowOffset="10.112" vectornator:shadowOpacity=".333" vectornator:shadowRadius="20.225" d="m1750.76 1041.28.3 226.53-43.68 10.8-.01-219.63" filter="url(#l)"/></g><g vectornator:layerName="成组 3"><path vectornator:layerName="曲线 7" vectornator:shadowAngle=".939" vectornator:shadowColor="#000000" vectornator:shadowOffset="10.112" vectornator:shadowOpacity=".333" vectornator:shadowRadius="20.225" d="m1407.96 1240.02 148.91 1.38-43.71 43.76-62.14-.22" filter="url(#m)"/><path vectornator:layerName="曲线 8" vectornator:shadowAngle=".939" vectornator:shadowColor="#000000" vectornator:shadowOffset="10.112" vectornator:shadowOpacity=".333" vectornator:shadowRadius="20.225" d="m1407.95 1138.8 148.92 1.38-43.71 43.76-62.14-.22" filter="url(#n)"/><path vectornator:layerName="曲线 2" vectornator:shadowAngle=".939" vectornator:shadowColor="#000000" vectornator:shadowOffset="10.112" vectornator:shadowOpacity=".333" vectornator:shadowRadius="20.225" d="m1452.13 1039.97-.03 245.19-44.15-43.68v-157.96" filter="url(#o)"/></g><g vectornator:layerName="成组 1"><path vectornator:layerName="曲线 9" vectornator:shadowAngle=".939" vectornator:shadowColor="#000000" vectornator:shadowOffset="10.112" vectornator:shadowOpacity=".333" vectornator:shadowRadius="20.225" d="m1777.32 1240.12 148.91 1.39-43.71 43.75-62.13-.21" filter="url(#p)"/><path vectornator:layerName="曲线 6" vectornator:shadowAngle=".939" vectornator:shadowColor="#000000" vectornator:shadowOffset="10.112" vectornator:shadowOpacity=".333" vectornator:shadowRadius="20.225" d="m1820.3 1040.41-.1 244.85-42.88-42.9-.54-201.95" filter="url(#q)"/></g><path vectornator:layerName="曲线 10" vectornator:shadowAngle=".939" vectornator:shadowColor="#000000" vectornator:shadowOffset="10.112" vectornator:shadowOpacity=".333" vectornator:shadowRadius="20.225" d="m1882.72 1041.28.09 244.85 42.89-42.9.53-201.95" filter="url(#r)"/></g><g vectornator:layerName="成组 12"><path vectornator:layerName="曲线 10" vectornator:shadowAngle="2.127" vectornator:shadowColor="#000000" vectornator:shadowOffset="10" vectornator:shadowOpacity=".333" vectornator:shadowRadius="20" d="M1465.78 762.463h43.65l43.65 244.437h-43.65z" filter="url(#s)"/><path vectornator:layerName="曲线 11" vectornator:shadowAngle="2.127" vectornator:shadowColor="#000000" vectornator:shadowOffset="10" vectornator:shadowOpacity=".333" vectornator:shadowRadius="20" d="M1378.48 762.742h43.65l43.65 244.438h-43.65z" filter="url(#t)"/><path vectornator:layerName="曲线 3" vectornator:shadowAngle=".939" vectornator:shadowColor="#000000" vectornator:shadowOffset="10.112" vectornator:shadowOpacity=".333" vectornator:shadowRadius="20.225" d="m1763.46 807.517-148.92-.873 43.56-43.902h62.14" filter="url(#u)"/><path vectornator:layerName="曲线 7" vectornator:shadowAngle=".939" vectornator:shadowColor="#000000" vectornator:shadowOffset="10.112" vectornator:shadowOpacity=".333" vectornator:shadowRadius="20.225" d="m1614.55 961.915 148.91 1.385-43.71 43.75-62.14-.21" filter="url(#v)"/><path vectornator:layerName="曲线 8" vectornator:shadowAngle=".939" vectornator:shadowColor="#000000" vectornator:shadowOffset="10.112" vectornator:shadowOpacity=".333" vectornator:shadowRadius="20.225" d="m1369.31 866.998 369.29.32 17.46 43.752-369.29-.422" filter="url(#w)"/><path vectornator:layerName="曲线 2" vectornator:shadowAngle=".939" vectornator:shadowColor="#000000" vectornator:shadowOffset="10.112" vectornator:shadowOpacity=".333" vectornator:shadowRadius="20.225" d="m1658.72 761.869-.03 245.181-44.15-43.677V805.411" filter="url(#x)"/><path vectornator:layerName="曲线 4" vectornator:shadowAngle="2.127" vectornator:shadowColor="#000000" vectornator:shadowOffset="10" vectornator:shadowOpacity=".333" vectornator:shadowRadius="20" d="M1596.73 762.463h-43.65l-43.65 244.437h43.65z" filter="url(#y)"/><path vectornator:layerName="曲线 9" vectornator:shadowAngle="2.127" vectornator:shadowColor="#000000" vectornator:shadowOffset="10" vectornator:shadowOpacity=".333" vectornator:shadowRadius="20" d="M1509.43 762.742h-43.65l-43.65 244.438h43.65z" filter="url(#z)"/></g></g></g></svg>